%TF.GenerationSoftware,KiCad,Pcbnew,9.0.7*%
%TF.CreationDate,2026-06-25T17:37:33+10:00*%
%TF.ProjectId,power_distro,706f7765-725f-4646-9973-74726f2e6b69,rev?*%
%TF.SameCoordinates,Original*%
%TF.FileFunction,Soldermask,Top*%
%TF.FilePolarity,Negative*%
%FSLAX46Y46*%
G04 Gerber Fmt 4.6, Leading zero omitted, Abs format (unit mm)*
G04 Created by KiCad (PCBNEW 9.0.7) date 2026-06-25 17:37:33*
%MOMM*%
%LPD*%
G01*
G04 APERTURE LIST*
G04 Aperture macros list*
%AMRoundRect*
0 Rectangle with rounded corners*
0 $1 Rounding radius*
0 $2 $3 $4 $5 $6 $7 $8 $9 X,Y pos of 4 corners*
0 Add a 4 corners polygon primitive as box body*
4,1,4,$2,$3,$4,$5,$6,$7,$8,$9,$2,$3,0*
0 Add four circle primitives for the rounded corners*
1,1,$1+$1,$2,$3*
1,1,$1+$1,$4,$5*
1,1,$1+$1,$6,$7*
1,1,$1+$1,$8,$9*
0 Add four rect primitives between the rounded corners*
20,1,$1+$1,$2,$3,$4,$5,0*
20,1,$1+$1,$4,$5,$6,$7,0*
20,1,$1+$1,$6,$7,$8,$9,0*
20,1,$1+$1,$8,$9,$2,$3,0*%
G04 Aperture macros list end*
%ADD10O,2.080000X3.600000*%
%ADD11RoundRect,0.249999X0.790001X1.550001X-0.790001X1.550001X-0.790001X-1.550001X0.790001X-1.550001X0*%
%ADD12C,2.010000*%
%ADD13RoundRect,0.249999X-0.790001X-1.550001X0.790001X-1.550001X0.790001X1.550001X-0.790001X1.550001X0*%
%ADD14R,1.800000X1.800000*%
%ADD15C,1.800000*%
%ADD16C,3.200000*%
%ADD17C,1.600000*%
%ADD18RoundRect,0.250000X1.000000X-1.000000X1.000000X1.000000X-1.000000X1.000000X-1.000000X-1.000000X0*%
%ADD19C,2.500000*%
G04 APERTURE END LIST*
D10*
%TO.C,J4*%
X130420000Y-89500000D03*
D11*
X135500000Y-89500000D03*
%TD*%
D12*
%TO.C,F4*%
X140000000Y-102600000D03*
X129800000Y-101400000D03*
%TD*%
D13*
%TO.C,J7*%
X116000000Y-131722500D03*
D10*
X121080000Y-131722500D03*
%TD*%
D14*
%TO.C,D2*%
X99505000Y-107500000D03*
D15*
X102045000Y-107500000D03*
%TD*%
D16*
%TO.C,REF\u002A\u002A*%
X79500000Y-134000000D03*
%TD*%
D14*
%TO.C,D6*%
X100005000Y-114500000D03*
D15*
X102545000Y-114500000D03*
%TD*%
D12*
%TO.C,F3*%
X125000000Y-98600000D03*
X114800000Y-97400000D03*
%TD*%
D16*
%TO.C,REF\u002A\u002A*%
X145500000Y-89000000D03*
%TD*%
D14*
%TO.C,D7*%
X113775000Y-114500000D03*
D15*
X116315000Y-114500000D03*
%TD*%
D12*
%TO.C,F6*%
X110100000Y-124600000D03*
X99900000Y-123400000D03*
%TD*%
D11*
%TO.C,J3*%
X121500000Y-89500000D03*
D10*
X116420000Y-89500000D03*
%TD*%
D17*
%TO.C,Re1*%
X93045000Y-107500000D03*
X95585000Y-107500000D03*
%TD*%
D13*
%TO.C,J6*%
X102045000Y-132000000D03*
D10*
X107125000Y-132000000D03*
%TD*%
D14*
%TO.C,D3*%
X114000000Y-107500000D03*
D15*
X116540000Y-107500000D03*
%TD*%
D12*
%TO.C,F8*%
X140000000Y-124600000D03*
X129800000Y-123400000D03*
%TD*%
D13*
%TO.C,J8*%
X130000000Y-131722500D03*
D10*
X135080000Y-131722500D03*
%TD*%
D17*
%TO.C,R2*%
X106505000Y-107500000D03*
X109045000Y-107500000D03*
%TD*%
D14*
%TO.C,D5*%
X86005000Y-114500000D03*
D15*
X88545000Y-114500000D03*
%TD*%
D14*
%TO.C,D1*%
X86545000Y-107500000D03*
D15*
X89085000Y-107500000D03*
%TD*%
D17*
%TO.C,R8*%
X135505000Y-114500000D03*
X138045000Y-114500000D03*
%TD*%
D16*
%TO.C,REF\u002A\u002A*%
X79500000Y-87000000D03*
%TD*%
D12*
%TO.C,F7*%
X125000000Y-120600000D03*
X114800000Y-119400000D03*
%TD*%
D13*
%TO.C,J5*%
X88000000Y-131722500D03*
D10*
X93080000Y-131722500D03*
%TD*%
D12*
%TO.C,F2*%
X110000000Y-102600000D03*
X99800000Y-101400000D03*
%TD*%
D16*
%TO.C,REF\u002A\u002A*%
X146000000Y-132500000D03*
%TD*%
D12*
%TO.C,F1*%
X95000000Y-98600000D03*
X84800000Y-97400000D03*
%TD*%
%TO.C,F5*%
X95100000Y-120600000D03*
X84900000Y-119400000D03*
%TD*%
D17*
%TO.C,R6*%
X107505000Y-114500000D03*
X110045000Y-114500000D03*
%TD*%
%TO.C,R5*%
X93505000Y-114500000D03*
X96045000Y-114500000D03*
%TD*%
%TO.C,R3*%
X120005000Y-107500000D03*
X122545000Y-107500000D03*
%TD*%
D14*
%TO.C,D8*%
X127775000Y-114500000D03*
D15*
X130315000Y-114500000D03*
%TD*%
D17*
%TO.C,R7*%
X121500000Y-114500000D03*
X124040000Y-114500000D03*
%TD*%
D14*
%TO.C,D4*%
X128005000Y-107500000D03*
D15*
X130545000Y-107500000D03*
%TD*%
D17*
%TO.C,R4*%
X134455000Y-107500000D03*
X136995000Y-107500000D03*
%TD*%
D11*
%TO.C,J2*%
X107500000Y-89500000D03*
D10*
X102420000Y-89500000D03*
%TD*%
D11*
%TO.C,J1*%
X94000000Y-89500000D03*
D10*
X88920000Y-89500000D03*
%TD*%
D18*
%TO.C,J_IN1*%
X144367500Y-116750000D03*
D19*
X144367500Y-109250000D03*
%TD*%
M02*
