%TF.GenerationSoftware,KiCad,Pcbnew,9.0.7*%
%TF.CreationDate,2026-06-25T17:20:28+10:00*%
%TF.ProjectId,power_distro,706f7765-725f-4646-9973-74726f2e6b69,rev?*%
%TF.SameCoordinates,Original*%
%TF.FileFunction,Copper,L1,Top*%
%TF.FilePolarity,Positive*%
%FSLAX46Y46*%
G04 Gerber Fmt 4.6, Leading zero omitted, Abs format (unit mm)*
G04 Created by KiCad (PCBNEW 9.0.7) date 2026-06-25 17:20:28*
%MOMM*%
%LPD*%
G01*
G04 APERTURE LIST*
G04 Aperture macros list*
%AMRoundRect*
0 Rectangle with rounded corners*
0 $1 Rounding radius*
0 $2 $3 $4 $5 $6 $7 $8 $9 X,Y pos of 4 corners*
0 Add a 4 corners polygon primitive as box body*
4,1,4,$2,$3,$4,$5,$6,$7,$8,$9,$2,$3,0*
0 Add four circle primitives for the rounded corners*
1,1,$1+$1,$2,$3*
1,1,$1+$1,$4,$5*
1,1,$1+$1,$6,$7*
1,1,$1+$1,$8,$9*
0 Add four rect primitives between the rounded corners*
20,1,$1+$1,$2,$3,$4,$5,0*
20,1,$1+$1,$4,$5,$6,$7,0*
20,1,$1+$1,$6,$7,$8,$9,0*
20,1,$1+$1,$8,$9,$2,$3,0*%
G04 Aperture macros list end*
%TA.AperFunction,ComponentPad*%
%ADD10C,2.010000*%
%TD*%
%TA.AperFunction,ComponentPad*%
%ADD11RoundRect,0.249999X-0.790001X-1.550001X0.790001X-1.550001X0.790001X1.550001X-0.790001X1.550001X0*%
%TD*%
%TA.AperFunction,ComponentPad*%
%ADD12O,2.080000X3.600000*%
%TD*%
%TA.AperFunction,ComponentPad*%
%ADD13R,1.800000X1.800000*%
%TD*%
%TA.AperFunction,ComponentPad*%
%ADD14C,1.800000*%
%TD*%
%TA.AperFunction,ComponentPad*%
%ADD15RoundRect,0.249999X0.790001X1.550001X-0.790001X1.550001X-0.790001X-1.550001X0.790001X-1.550001X0*%
%TD*%
%TA.AperFunction,ComponentPad*%
%ADD16C,1.600000*%
%TD*%
%TA.AperFunction,ComponentPad*%
%ADD17RoundRect,0.250000X1.000000X-1.000000X1.000000X1.000000X-1.000000X1.000000X-1.000000X-1.000000X0*%
%TD*%
%TA.AperFunction,ComponentPad*%
%ADD18C,2.500000*%
%TD*%
%TA.AperFunction,Conductor*%
%ADD19C,0.250000*%
%TD*%
%TA.AperFunction,Conductor*%
%ADD20C,2.500000*%
%TD*%
G04 APERTURE END LIST*
D10*
%TO.P,F4,1*%
%TO.N,VCC*%
X140000000Y-100377500D03*
%TO.P,F4,2*%
%TO.N,Net-(D4-K)*%
X129800000Y-99177500D03*
%TD*%
D11*
%TO.P,J7,1,Pin_1*%
%TO.N,Net-(D7-K)*%
X116000000Y-131722500D03*
D12*
%TO.P,J7,2,Pin_2*%
%TO.N,GND*%
X121080000Y-131722500D03*
%TD*%
D13*
%TO.P,D2,1,K*%
%TO.N,Net-(D2-K)*%
X99505000Y-105500000D03*
D14*
%TO.P,D2,2,A*%
%TO.N,Net-(D2-A)*%
X102045000Y-105500000D03*
%TD*%
D13*
%TO.P,D6,1,K*%
%TO.N,Net-(D6-K)*%
X100005000Y-114500000D03*
D14*
%TO.P,D6,2,A*%
%TO.N,Net-(D6-A)*%
X102545000Y-114500000D03*
%TD*%
D10*
%TO.P,F3,1*%
%TO.N,VCC*%
X125000000Y-100277500D03*
%TO.P,F3,2*%
%TO.N,Net-(D3-K)*%
X114800000Y-99077500D03*
%TD*%
D13*
%TO.P,D7,1,K*%
%TO.N,Net-(D7-K)*%
X113775000Y-114500000D03*
D14*
%TO.P,D7,2,A*%
%TO.N,Net-(D7-A)*%
X116315000Y-114500000D03*
%TD*%
D10*
%TO.P,F6,1*%
%TO.N,VCC*%
X110000000Y-122500000D03*
%TO.P,F6,2*%
%TO.N,Net-(D6-K)*%
X99800000Y-121300000D03*
%TD*%
D15*
%TO.P,J3,1,Pin_1*%
%TO.N,Net-(D3-K)*%
X121500000Y-89500000D03*
D12*
%TO.P,J3,2,Pin_2*%
%TO.N,GND*%
X116420000Y-89500000D03*
%TD*%
D16*
%TO.P,Re1,1*%
%TO.N,Net-(D1-A)*%
X93045000Y-105500000D03*
%TO.P,Re1,2*%
%TO.N,GND*%
X95585000Y-105500000D03*
%TD*%
D11*
%TO.P,J6,1,Pin_1*%
%TO.N,Net-(D6-K)*%
X102045000Y-132000000D03*
D12*
%TO.P,J6,2,Pin_2*%
%TO.N,GND*%
X107125000Y-132000000D03*
%TD*%
D13*
%TO.P,D3,1,K*%
%TO.N,Net-(D3-K)*%
X114000000Y-105500000D03*
D14*
%TO.P,D3,2,A*%
%TO.N,Net-(D3-A)*%
X116540000Y-105500000D03*
%TD*%
D10*
%TO.P,F8,1*%
%TO.N,VCC*%
X140000000Y-122500000D03*
%TO.P,F8,2*%
%TO.N,Net-(D8-K)*%
X129800000Y-121300000D03*
%TD*%
D11*
%TO.P,J8,1,Pin_1*%
%TO.N,Net-(D8-K)*%
X130000000Y-131722500D03*
D12*
%TO.P,J8,2,Pin_2*%
%TO.N,GND*%
X135080000Y-131722500D03*
%TD*%
D16*
%TO.P,R2,1*%
%TO.N,Net-(D2-A)*%
X106505000Y-105500000D03*
%TO.P,R2,2*%
%TO.N,GND*%
X109045000Y-105500000D03*
%TD*%
D13*
%TO.P,D5,1,K*%
%TO.N,Net-(D5-K)*%
X86005000Y-114500000D03*
D14*
%TO.P,D5,2,A*%
%TO.N,Net-(D5-A)*%
X88545000Y-114500000D03*
%TD*%
D13*
%TO.P,D1,1,K*%
%TO.N,Net-(D1-K)*%
X86545000Y-105500000D03*
D14*
%TO.P,D1,2,A*%
%TO.N,Net-(D1-A)*%
X89085000Y-105500000D03*
%TD*%
D16*
%TO.P,R8,1*%
%TO.N,Net-(D8-A)*%
X135505000Y-114500000D03*
%TO.P,R8,2*%
%TO.N,GND*%
X138045000Y-114500000D03*
%TD*%
D10*
%TO.P,F7,1*%
%TO.N,VCC*%
X125000000Y-122500000D03*
%TO.P,F7,2*%
%TO.N,Net-(D7-K)*%
X114800000Y-121300000D03*
%TD*%
D11*
%TO.P,J5,1,Pin_1*%
%TO.N,Net-(D5-K)*%
X88000000Y-131722500D03*
D12*
%TO.P,J5,2,Pin_2*%
%TO.N,GND*%
X93080000Y-131722500D03*
%TD*%
D10*
%TO.P,F2,1*%
%TO.N,VCC*%
X110000000Y-100277500D03*
%TO.P,F2,2*%
%TO.N,Net-(D2-K)*%
X99800000Y-99077500D03*
%TD*%
%TO.P,F1,1*%
%TO.N,VCC*%
X95000000Y-100277500D03*
%TO.P,F1,2*%
%TO.N,Net-(D1-K)*%
X84800000Y-99077500D03*
%TD*%
%TO.P,F5,1*%
%TO.N,VCC*%
X95000000Y-122500000D03*
%TO.P,F5,2*%
%TO.N,Net-(D5-K)*%
X84800000Y-121300000D03*
%TD*%
D16*
%TO.P,R6,1*%
%TO.N,Net-(D6-A)*%
X107505000Y-114500000D03*
%TO.P,R6,2*%
%TO.N,GND*%
X110045000Y-114500000D03*
%TD*%
%TO.P,R5,1*%
%TO.N,Net-(D5-A)*%
X93505000Y-114500000D03*
%TO.P,R5,2*%
%TO.N,GND*%
X96045000Y-114500000D03*
%TD*%
%TO.P,R3,1*%
%TO.N,Net-(D3-A)*%
X120005000Y-105500000D03*
%TO.P,R3,2*%
%TO.N,GND*%
X122545000Y-105500000D03*
%TD*%
D13*
%TO.P,D8,1,K*%
%TO.N,Net-(D8-K)*%
X127775000Y-114500000D03*
D14*
%TO.P,D8,2,A*%
%TO.N,Net-(D8-A)*%
X130315000Y-114500000D03*
%TD*%
D16*
%TO.P,R7,1*%
%TO.N,Net-(D7-A)*%
X121500000Y-114500000D03*
%TO.P,R7,2*%
%TO.N,GND*%
X124040000Y-114500000D03*
%TD*%
D13*
%TO.P,D4,1,K*%
%TO.N,Net-(D4-K)*%
X128005000Y-105500000D03*
D14*
%TO.P,D4,2,A*%
%TO.N,Net-(D4-A)*%
X130545000Y-105500000D03*
%TD*%
D16*
%TO.P,R4,1*%
%TO.N,Net-(D4-A)*%
X134455000Y-105500000D03*
%TO.P,R4,2*%
%TO.N,GND*%
X136995000Y-105500000D03*
%TD*%
D15*
%TO.P,J2,1,Pin_1*%
%TO.N,Net-(D2-K)*%
X107500000Y-89500000D03*
D12*
%TO.P,J2,2,Pin_2*%
%TO.N,GND*%
X102420000Y-89500000D03*
%TD*%
D15*
%TO.P,J1,1,Pin_1*%
%TO.N,Net-(D1-K)*%
X94000000Y-89500000D03*
D12*
%TO.P,J1,2,Pin_2*%
%TO.N,GND*%
X88920000Y-89500000D03*
%TD*%
D15*
%TO.P,J4,1,Pin_1*%
%TO.N,Net-(D4-K)*%
X135500000Y-89500000D03*
D12*
%TO.P,J4,2,Pin_2*%
%TO.N,GND*%
X130420000Y-89500000D03*
%TD*%
D17*
%TO.P,J_IN1,1,Pin_1*%
%TO.N,VCC*%
X144367500Y-114250000D03*
D18*
%TO.P,J_IN1,2,Pin_2*%
%TO.N,GND*%
X144367500Y-106750000D03*
%TD*%
D19*
%TO.N,Net-(D1-A)*%
X89085000Y-105500000D02*
X93045000Y-105500000D01*
%TO.N,GND*%
X129995000Y-91005000D02*
X130500000Y-90500000D01*
%TO.N,Net-(D1-K)*%
X84800000Y-99800000D02*
X86545000Y-101545000D01*
X84800000Y-99077500D02*
X84800000Y-99800000D01*
D20*
X84800000Y-99077500D02*
X94000000Y-89877500D01*
D19*
X94000000Y-89877500D02*
X94000000Y-89500000D01*
X86545000Y-101545000D02*
X86545000Y-105500000D01*
D20*
%TO.N,Net-(D2-K)*%
X107500000Y-91377500D02*
X107500000Y-89500000D01*
X99800000Y-99077500D02*
X107500000Y-91377500D01*
D19*
X99800000Y-99077500D02*
X99800000Y-105205000D01*
X99800000Y-105205000D02*
X99505000Y-105500000D01*
%TO.N,Net-(D2-A)*%
X102045000Y-105500000D02*
X106005000Y-105500000D01*
X106005000Y-105500000D02*
X106505000Y-105000000D01*
%TO.N,Net-(D3-K)*%
X115945000Y-99077500D02*
X115945000Y-99055000D01*
X114800000Y-104700000D02*
X114000000Y-105500000D01*
D20*
X114800000Y-99077500D02*
X121500000Y-92377500D01*
X121500000Y-92377500D02*
X121500000Y-89500000D01*
D19*
X114800000Y-99077500D02*
X114800000Y-104700000D01*
%TO.N,Net-(D3-A)*%
X116540000Y-105500000D02*
X120005000Y-105500000D01*
%TO.N,Net-(D4-K)*%
X129800000Y-99177500D02*
X128005000Y-100972500D01*
D20*
X135500000Y-93477500D02*
X135500000Y-89500000D01*
D19*
X128005000Y-100972500D02*
X128005000Y-105500000D01*
D20*
X129800000Y-99177500D02*
X135500000Y-93477500D01*
D19*
%TO.N,Net-(D4-A)*%
X130545000Y-105500000D02*
X134455000Y-105500000D01*
%TO.N,Net-(D5-K)*%
X88000000Y-120855000D02*
X87945000Y-120800000D01*
D20*
X88000000Y-124500000D02*
X88000000Y-131722500D01*
D19*
X86005000Y-120095000D02*
X84800000Y-121300000D01*
D20*
X84800000Y-121300000D02*
X88000000Y-124500000D01*
D19*
X86005000Y-114500000D02*
X86005000Y-120095000D01*
%TO.N,Net-(D5-A)*%
X88545000Y-114500000D02*
X93505000Y-114500000D01*
%TO.N,Net-(D6-A)*%
X102545000Y-114500000D02*
X107505000Y-114500000D01*
%TO.N,Net-(D6-K)*%
X101945000Y-131900000D02*
X102045000Y-132000000D01*
D20*
X99800000Y-122300000D02*
X102045000Y-124545000D01*
X102045000Y-124545000D02*
X102045000Y-132000000D01*
D19*
X100005000Y-121095000D02*
X99800000Y-121300000D01*
X99800000Y-121300000D02*
X99800000Y-122300000D01*
X100005000Y-114500000D02*
X100005000Y-121095000D01*
%TO.N,Net-(D7-K)*%
X113775000Y-120275000D02*
X114800000Y-121300000D01*
X115945000Y-131667500D02*
X116000000Y-131722500D01*
X113775000Y-114500000D02*
X113775000Y-120275000D01*
X114800000Y-121300000D02*
X114800000Y-122300000D01*
D20*
X114800000Y-122300000D02*
X116000000Y-123500000D01*
X116000000Y-123500000D02*
X116000000Y-131722500D01*
D19*
%TO.N,Net-(D7-A)*%
X116315000Y-114500000D02*
X121500000Y-114500000D01*
%TO.N,Net-(D8-K)*%
X127775000Y-114500000D02*
X127775000Y-119275000D01*
X127775000Y-119275000D02*
X129800000Y-121300000D01*
D20*
X129800000Y-121300000D02*
X129800000Y-131522500D01*
D19*
X129800000Y-131522500D02*
X130000000Y-131722500D01*
%TO.N,Net-(D8-A)*%
X130315000Y-114500000D02*
X135505000Y-114500000D01*
%TD*%
%TA.AperFunction,Conductor*%
%TO.N,VCC*%
G36*
X150943039Y-84019685D02*
G01*
X150988794Y-84072489D01*
X151000000Y-84124000D01*
X151000000Y-136876000D01*
X150980315Y-136943039D01*
X150927511Y-136988794D01*
X150876000Y-137000000D01*
X83624000Y-137000000D01*
X83556961Y-136980315D01*
X83511206Y-136927511D01*
X83500000Y-136876000D01*
X83500000Y-122774943D01*
X83519685Y-122707904D01*
X83572489Y-122662149D01*
X83641647Y-122652205D01*
X83705203Y-122681230D01*
X83711681Y-122687262D01*
X86213181Y-125188762D01*
X86246666Y-125250085D01*
X86249500Y-125276443D01*
X86249500Y-131837241D01*
X86274446Y-132026715D01*
X86279452Y-132064738D01*
X86292850Y-132114741D01*
X86338842Y-132286387D01*
X86426651Y-132498379D01*
X86426661Y-132498399D01*
X86442886Y-132526500D01*
X86459500Y-132588501D01*
X86459500Y-133322517D01*
X86470000Y-133425296D01*
X86525185Y-133591832D01*
X86525187Y-133591837D01*
X86530228Y-133600010D01*
X86617288Y-133741156D01*
X86741344Y-133865212D01*
X86890665Y-133957314D01*
X87057202Y-134012499D01*
X87159990Y-134023000D01*
X87159995Y-134023000D01*
X88840005Y-134023000D01*
X88840010Y-134023000D01*
X88942798Y-134012499D01*
X89109335Y-133957314D01*
X89258656Y-133865212D01*
X89382712Y-133741156D01*
X89474814Y-133591835D01*
X89529999Y-133425298D01*
X89540500Y-133322510D01*
X89540500Y-132588501D01*
X89557114Y-132526500D01*
X89573338Y-132498399D01*
X89573348Y-132498379D01*
X89592128Y-132453038D01*
X89661158Y-132286387D01*
X89720548Y-132064738D01*
X89750500Y-131837234D01*
X89750500Y-130841254D01*
X91539500Y-130841254D01*
X91539500Y-132603745D01*
X91577432Y-132843236D01*
X91652360Y-133073844D01*
X91762448Y-133289901D01*
X91904966Y-133486062D01*
X91904970Y-133486067D01*
X92076432Y-133657529D01*
X92076437Y-133657533D01*
X92247539Y-133781845D01*
X92272602Y-133800054D01*
X92457491Y-133894260D01*
X92488655Y-133910139D01*
X92565257Y-133935028D01*
X92719265Y-133985068D01*
X92830186Y-134002636D01*
X92958755Y-134023000D01*
X92958760Y-134023000D01*
X93201245Y-134023000D01*
X93317347Y-134004610D01*
X93440735Y-133985068D01*
X93671347Y-133910138D01*
X93887398Y-133800054D01*
X94083569Y-133657528D01*
X94255028Y-133486069D01*
X94397554Y-133289898D01*
X94507638Y-133073847D01*
X94582568Y-132843235D01*
X94606342Y-132693129D01*
X94620500Y-132603745D01*
X94620500Y-130841254D01*
X94590128Y-130649500D01*
X94582568Y-130601765D01*
X94507638Y-130371153D01*
X94397554Y-130155102D01*
X94332067Y-130064966D01*
X94255033Y-129958937D01*
X94255029Y-129958932D01*
X94083567Y-129787470D01*
X94083562Y-129787466D01*
X93887401Y-129644948D01*
X93887400Y-129644947D01*
X93887398Y-129644946D01*
X93779372Y-129589904D01*
X93671344Y-129534860D01*
X93440736Y-129459932D01*
X93201245Y-129422000D01*
X93201240Y-129422000D01*
X92958760Y-129422000D01*
X92958755Y-129422000D01*
X92719263Y-129459932D01*
X92488655Y-129534860D01*
X92272598Y-129644948D01*
X92076437Y-129787466D01*
X92076432Y-129787470D01*
X91904970Y-129958932D01*
X91904966Y-129958937D01*
X91762448Y-130155098D01*
X91652360Y-130371155D01*
X91577432Y-130601763D01*
X91539500Y-130841254D01*
X89750500Y-130841254D01*
X89750500Y-124385266D01*
X89720548Y-124157762D01*
X89661158Y-123936113D01*
X89573344Y-123724112D01*
X89458611Y-123525388D01*
X89353451Y-123388341D01*
X89353448Y-123388338D01*
X89318919Y-123343338D01*
X89318916Y-123343335D01*
X89318912Y-123343330D01*
X88439944Y-122464363D01*
X88357129Y-122381548D01*
X93495000Y-122381548D01*
X93495000Y-122618451D01*
X93532057Y-122852422D01*
X93605263Y-123077724D01*
X93712810Y-123288795D01*
X93773759Y-123372685D01*
X93773761Y-123372685D01*
X94512954Y-122633492D01*
X94529415Y-122694923D01*
X94595899Y-122810078D01*
X94689922Y-122904101D01*
X94805077Y-122970585D01*
X94866507Y-122987045D01*
X94127312Y-123726238D01*
X94127313Y-123726239D01*
X94211203Y-123787189D01*
X94422275Y-123894736D01*
X94647577Y-123967942D01*
X94881549Y-124005000D01*
X95118451Y-124005000D01*
X95352422Y-123967942D01*
X95577724Y-123894736D01*
X95788792Y-123787191D01*
X95872685Y-123726238D01*
X95872686Y-123726238D01*
X95133492Y-122987045D01*
X95194923Y-122970585D01*
X95310078Y-122904101D01*
X95404101Y-122810078D01*
X95470585Y-122694923D01*
X95487045Y-122633493D01*
X96226238Y-123372686D01*
X96226238Y-123372685D01*
X96287191Y-123288792D01*
X96394736Y-123077724D01*
X96467942Y-122852422D01*
X96505000Y-122618451D01*
X96505000Y-122381548D01*
X96476341Y-122200605D01*
X96473911Y-122185265D01*
X98049501Y-122185265D01*
X98049501Y-122414734D01*
X98079450Y-122642228D01*
X98079451Y-122642233D01*
X98079452Y-122642239D01*
X98084787Y-122662149D01*
X98138842Y-122863887D01*
X98226651Y-123075879D01*
X98226656Y-123075888D01*
X98341390Y-123274612D01*
X98341392Y-123274615D01*
X98341396Y-123274621D01*
X98481078Y-123456659D01*
X98481084Y-123456666D01*
X100258181Y-125233762D01*
X100291666Y-125295085D01*
X100294500Y-125321443D01*
X100294500Y-132114741D01*
X100317099Y-132286387D01*
X100324452Y-132342238D01*
X100366292Y-132498388D01*
X100383842Y-132563887D01*
X100471651Y-132775879D01*
X100471661Y-132775899D01*
X100487886Y-132804000D01*
X100504500Y-132866001D01*
X100504500Y-133600017D01*
X100515000Y-133702796D01*
X100570185Y-133869332D01*
X100570187Y-133869337D01*
X100595354Y-133910139D01*
X100662288Y-134018656D01*
X100786344Y-134142712D01*
X100935665Y-134234814D01*
X101102202Y-134289999D01*
X101204990Y-134300500D01*
X101204995Y-134300500D01*
X102885005Y-134300500D01*
X102885010Y-134300500D01*
X102987798Y-134289999D01*
X103154335Y-134234814D01*
X103303656Y-134142712D01*
X103427712Y-134018656D01*
X103519814Y-133869335D01*
X103574999Y-133702798D01*
X103585500Y-133600010D01*
X103585500Y-132866001D01*
X103602114Y-132804000D01*
X103618338Y-132775899D01*
X103618348Y-132775879D01*
X103656898Y-132682811D01*
X103706158Y-132563887D01*
X103765548Y-132342238D01*
X103795500Y-132114734D01*
X103795500Y-131118754D01*
X105584500Y-131118754D01*
X105584500Y-132881245D01*
X105622432Y-133120736D01*
X105697360Y-133351344D01*
X105807448Y-133567401D01*
X105949966Y-133763562D01*
X105949970Y-133763567D01*
X106121432Y-133935029D01*
X106121437Y-133935033D01*
X106268572Y-134041932D01*
X106317602Y-134077554D01*
X106485738Y-134163224D01*
X106533655Y-134187639D01*
X106648959Y-134225103D01*
X106764265Y-134262568D01*
X106875186Y-134280136D01*
X107003755Y-134300500D01*
X107003760Y-134300500D01*
X107246245Y-134300500D01*
X107362347Y-134282110D01*
X107485735Y-134262568D01*
X107716347Y-134187638D01*
X107932398Y-134077554D01*
X108128569Y-133935028D01*
X108300028Y-133763569D01*
X108442554Y-133567398D01*
X108552638Y-133351347D01*
X108627568Y-133120735D01*
X108647110Y-132997347D01*
X108665500Y-132881245D01*
X108665500Y-131118754D01*
X108640048Y-130958064D01*
X108627568Y-130879265D01*
X108563201Y-130681162D01*
X108552639Y-130648655D01*
X108528746Y-130601763D01*
X108442554Y-130432602D01*
X108397909Y-130371153D01*
X108300033Y-130236437D01*
X108300029Y-130236432D01*
X108128567Y-130064970D01*
X108128562Y-130064966D01*
X107932401Y-129922448D01*
X107932400Y-129922447D01*
X107932398Y-129922446D01*
X107824372Y-129867404D01*
X107716344Y-129812360D01*
X107485736Y-129737432D01*
X107246245Y-129699500D01*
X107246240Y-129699500D01*
X107003760Y-129699500D01*
X107003755Y-129699500D01*
X106764263Y-129737432D01*
X106533655Y-129812360D01*
X106317598Y-129922448D01*
X106121437Y-130064966D01*
X106121432Y-130064970D01*
X105949970Y-130236432D01*
X105949966Y-130236437D01*
X105807448Y-130432598D01*
X105697360Y-130648655D01*
X105622432Y-130879263D01*
X105584500Y-131118754D01*
X103795500Y-131118754D01*
X103795500Y-124430266D01*
X103765548Y-124202762D01*
X103753490Y-124157762D01*
X103706158Y-123981113D01*
X103618344Y-123769112D01*
X103618342Y-123769109D01*
X103618340Y-123769104D01*
X103602102Y-123740979D01*
X103503614Y-123570394D01*
X103503610Y-123570387D01*
X103416344Y-123456659D01*
X103363920Y-123388339D01*
X103363914Y-123388332D01*
X102357130Y-122381548D01*
X108495000Y-122381548D01*
X108495000Y-122618451D01*
X108532057Y-122852422D01*
X108605263Y-123077724D01*
X108712810Y-123288795D01*
X108773759Y-123372685D01*
X108773761Y-123372685D01*
X109512954Y-122633492D01*
X109529415Y-122694923D01*
X109595899Y-122810078D01*
X109689922Y-122904101D01*
X109805077Y-122970585D01*
X109866507Y-122987045D01*
X109127312Y-123726238D01*
X109127313Y-123726239D01*
X109211203Y-123787189D01*
X109422275Y-123894736D01*
X109647577Y-123967942D01*
X109881549Y-124005000D01*
X110118451Y-124005000D01*
X110352422Y-123967942D01*
X110577724Y-123894736D01*
X110788792Y-123787191D01*
X110872685Y-123726238D01*
X110872686Y-123726238D01*
X110133492Y-122987045D01*
X110194923Y-122970585D01*
X110310078Y-122904101D01*
X110404101Y-122810078D01*
X110470585Y-122694923D01*
X110487045Y-122633493D01*
X111226238Y-123372686D01*
X111226238Y-123372685D01*
X111287191Y-123288792D01*
X111394736Y-123077724D01*
X111467942Y-122852422D01*
X111505000Y-122618451D01*
X111505000Y-122381548D01*
X111467942Y-122147577D01*
X111394736Y-121922275D01*
X111287189Y-121711203D01*
X111226239Y-121627313D01*
X111226238Y-121627312D01*
X110487045Y-122366506D01*
X110470585Y-122305077D01*
X110404101Y-122189922D01*
X110310078Y-122095899D01*
X110194923Y-122029415D01*
X110133491Y-122012954D01*
X110872685Y-121273761D01*
X110872685Y-121273759D01*
X110788795Y-121212810D01*
X110577724Y-121105263D01*
X110352422Y-121032057D01*
X110118451Y-120995000D01*
X109881549Y-120995000D01*
X109647577Y-121032057D01*
X109422275Y-121105263D01*
X109211209Y-121212807D01*
X109127313Y-121273760D01*
X109866508Y-122012954D01*
X109805077Y-122029415D01*
X109689922Y-122095899D01*
X109595899Y-122189922D01*
X109529415Y-122305077D01*
X109512954Y-122366507D01*
X108773760Y-121627313D01*
X108712807Y-121711209D01*
X108605263Y-121922275D01*
X108532057Y-122147577D01*
X108495000Y-122381548D01*
X102357130Y-122381548D01*
X101341819Y-121366237D01*
X101308334Y-121304914D01*
X101305500Y-121278556D01*
X101305500Y-121181515D01*
X101286984Y-121064611D01*
X101268429Y-120947461D01*
X101195201Y-120722089D01*
X101087619Y-120510946D01*
X100948331Y-120319233D01*
X100780767Y-120151669D01*
X100769302Y-120143339D01*
X100681613Y-120079628D01*
X100638948Y-120024298D01*
X100630500Y-119979311D01*
X100630500Y-116024499D01*
X100650185Y-115957460D01*
X100702989Y-115911705D01*
X100754500Y-115900499D01*
X100952871Y-115900499D01*
X100952872Y-115900499D01*
X101012483Y-115894091D01*
X101147331Y-115843796D01*
X101262546Y-115757546D01*
X101348796Y-115642331D01*
X101376429Y-115568243D01*
X101378601Y-115562420D01*
X101420471Y-115506486D01*
X101485936Y-115482068D01*
X101554209Y-115496919D01*
X101582464Y-115518071D01*
X101632636Y-115568243D01*
X101632641Y-115568247D01*
X101693258Y-115612287D01*
X101810978Y-115697815D01*
X101939375Y-115763237D01*
X102007393Y-115797895D01*
X102007396Y-115797896D01*
X102112221Y-115831955D01*
X102217049Y-115866015D01*
X102434778Y-115900500D01*
X102434779Y-115900500D01*
X102655221Y-115900500D01*
X102655222Y-115900500D01*
X102872951Y-115866015D01*
X103082606Y-115797895D01*
X103279022Y-115697815D01*
X103457365Y-115568242D01*
X103613242Y-115412365D01*
X103742815Y-115234022D01*
X103763612Y-115193204D01*
X103811586Y-115142409D01*
X103874097Y-115125500D01*
X106288885Y-115125500D01*
X106355924Y-115145185D01*
X106388606Y-115178571D01*
X106389849Y-115177669D01*
X106513028Y-115347213D01*
X106657786Y-115491971D01*
X106812749Y-115604556D01*
X106823390Y-115612287D01*
X106939607Y-115671503D01*
X107005776Y-115705218D01*
X107005778Y-115705218D01*
X107005781Y-115705220D01*
X107110137Y-115739127D01*
X107200465Y-115768477D01*
X107301557Y-115784488D01*
X107402648Y-115800500D01*
X107402649Y-115800500D01*
X107607351Y-115800500D01*
X107607352Y-115800500D01*
X107809534Y-115768477D01*
X108004219Y-115705220D01*
X108186610Y-115612287D01*
X108279590Y-115544732D01*
X108352213Y-115491971D01*
X108352215Y-115491968D01*
X108352219Y-115491966D01*
X108496966Y-115347219D01*
X108496968Y-115347215D01*
X108496971Y-115347213D01*
X108617284Y-115181614D01*
X108617285Y-115181613D01*
X108617287Y-115181610D01*
X108664516Y-115088917D01*
X108712489Y-115038123D01*
X108780310Y-115021328D01*
X108846445Y-115043865D01*
X108885483Y-115088917D01*
X108912739Y-115142409D01*
X108932715Y-115181614D01*
X109053028Y-115347213D01*
X109197786Y-115491971D01*
X109352749Y-115604556D01*
X109363390Y-115612287D01*
X109479607Y-115671503D01*
X109545776Y-115705218D01*
X109545778Y-115705218D01*
X109545781Y-115705220D01*
X109650137Y-115739127D01*
X109740465Y-115768477D01*
X109841557Y-115784488D01*
X109942648Y-115800500D01*
X109942649Y-115800500D01*
X110147351Y-115800500D01*
X110147352Y-115800500D01*
X110349534Y-115768477D01*
X110544219Y-115705220D01*
X110726610Y-115612287D01*
X110819590Y-115544732D01*
X110892213Y-115491971D01*
X110892215Y-115491968D01*
X110892219Y-115491966D01*
X111036966Y-115347219D01*
X111036968Y-115347215D01*
X111036971Y-115347213D01*
X111089732Y-115274590D01*
X111157287Y-115181610D01*
X111250220Y-114999219D01*
X111313477Y-114804534D01*
X111345500Y-114602352D01*
X111345500Y-114397648D01*
X111313477Y-114195466D01*
X111250220Y-114000781D01*
X111250218Y-114000778D01*
X111250218Y-114000776D01*
X111204515Y-113911080D01*
X111157287Y-113818390D01*
X111119204Y-113765973D01*
X111036971Y-113652786D01*
X110936320Y-113552135D01*
X112374500Y-113552135D01*
X112374500Y-115447870D01*
X112374501Y-115447876D01*
X112380908Y-115507483D01*
X112431202Y-115642328D01*
X112431206Y-115642335D01*
X112517452Y-115757544D01*
X112517455Y-115757547D01*
X112632664Y-115843793D01*
X112632671Y-115843797D01*
X112677618Y-115860561D01*
X112767517Y-115894091D01*
X112827127Y-115900500D01*
X113025500Y-115900499D01*
X113092539Y-115920183D01*
X113138294Y-115972987D01*
X113149500Y-116024499D01*
X113149500Y-120336607D01*
X113171575Y-120447591D01*
X113173537Y-120457452D01*
X113187347Y-120490792D01*
X113220688Y-120571286D01*
X113245984Y-120609143D01*
X113250272Y-120615561D01*
X113250273Y-120615562D01*
X113289141Y-120673732D01*
X113289144Y-120673736D01*
X113334562Y-120719154D01*
X113368047Y-120780477D01*
X113364812Y-120845153D01*
X113331571Y-120947459D01*
X113294500Y-121181515D01*
X113294500Y-121373377D01*
X113277887Y-121435377D01*
X113226659Y-121524104D01*
X113226651Y-121524120D01*
X113138842Y-121736112D01*
X113138842Y-121736113D01*
X113088961Y-121922275D01*
X113079453Y-121957758D01*
X113079450Y-121957771D01*
X113049501Y-122185265D01*
X113049501Y-122414734D01*
X113079450Y-122642228D01*
X113079451Y-122642233D01*
X113079452Y-122642239D01*
X113084787Y-122662149D01*
X113138842Y-122863887D01*
X113226651Y-123075879D01*
X113226656Y-123075888D01*
X113341390Y-123274612D01*
X113341392Y-123274615D01*
X113341396Y-123274621D01*
X113481078Y-123456659D01*
X113481084Y-123456666D01*
X114213181Y-124188761D01*
X114246666Y-124250084D01*
X114249500Y-124276442D01*
X114249500Y-131837241D01*
X114274446Y-132026715D01*
X114279452Y-132064738D01*
X114292850Y-132114741D01*
X114338842Y-132286387D01*
X114426651Y-132498379D01*
X114426661Y-132498399D01*
X114442886Y-132526500D01*
X114459500Y-132588501D01*
X114459500Y-133322517D01*
X114470000Y-133425296D01*
X114525185Y-133591832D01*
X114525187Y-133591837D01*
X114530228Y-133600010D01*
X114617288Y-133741156D01*
X114741344Y-133865212D01*
X114890665Y-133957314D01*
X115057202Y-134012499D01*
X115159990Y-134023000D01*
X115159995Y-134023000D01*
X116840005Y-134023000D01*
X116840010Y-134023000D01*
X116942798Y-134012499D01*
X117109335Y-133957314D01*
X117258656Y-133865212D01*
X117382712Y-133741156D01*
X117474814Y-133591835D01*
X117529999Y-133425298D01*
X117540500Y-133322510D01*
X117540500Y-132588501D01*
X117557114Y-132526500D01*
X117573338Y-132498399D01*
X117573348Y-132498379D01*
X117592128Y-132453038D01*
X117661158Y-132286387D01*
X117720548Y-132064738D01*
X117750500Y-131837234D01*
X117750500Y-130841254D01*
X119539500Y-130841254D01*
X119539500Y-132603745D01*
X119577432Y-132843236D01*
X119652360Y-133073844D01*
X119762448Y-133289901D01*
X119904966Y-133486062D01*
X119904970Y-133486067D01*
X120076432Y-133657529D01*
X120076437Y-133657533D01*
X120247539Y-133781845D01*
X120272602Y-133800054D01*
X120457491Y-133894260D01*
X120488655Y-133910139D01*
X120565257Y-133935028D01*
X120719265Y-133985068D01*
X120830186Y-134002636D01*
X120958755Y-134023000D01*
X120958760Y-134023000D01*
X121201245Y-134023000D01*
X121317347Y-134004610D01*
X121440735Y-133985068D01*
X121671347Y-133910138D01*
X121887398Y-133800054D01*
X122083569Y-133657528D01*
X122255028Y-133486069D01*
X122397554Y-133289898D01*
X122507638Y-133073847D01*
X122582568Y-132843235D01*
X122606342Y-132693129D01*
X122620500Y-132603745D01*
X122620500Y-130841254D01*
X122590128Y-130649500D01*
X122582568Y-130601765D01*
X122507638Y-130371153D01*
X122397554Y-130155102D01*
X122332067Y-130064966D01*
X122255033Y-129958937D01*
X122255029Y-129958932D01*
X122083567Y-129787470D01*
X122083562Y-129787466D01*
X121887401Y-129644948D01*
X121887400Y-129644947D01*
X121887398Y-129644946D01*
X121779372Y-129589904D01*
X121671344Y-129534860D01*
X121440736Y-129459932D01*
X121201245Y-129422000D01*
X121201240Y-129422000D01*
X120958760Y-129422000D01*
X120958755Y-129422000D01*
X120719263Y-129459932D01*
X120488655Y-129534860D01*
X120272598Y-129644948D01*
X120076437Y-129787466D01*
X120076432Y-129787470D01*
X119904970Y-129958932D01*
X119904966Y-129958937D01*
X119762448Y-130155098D01*
X119652360Y-130371155D01*
X119577432Y-130601763D01*
X119539500Y-130841254D01*
X117750500Y-130841254D01*
X117750500Y-123385266D01*
X117720548Y-123157762D01*
X117661158Y-122936113D01*
X117573344Y-122724112D01*
X117458611Y-122525388D01*
X117458608Y-122525385D01*
X117458607Y-122525382D01*
X117402428Y-122452169D01*
X117348238Y-122381548D01*
X123495000Y-122381548D01*
X123495000Y-122618451D01*
X123532057Y-122852422D01*
X123605263Y-123077724D01*
X123712810Y-123288795D01*
X123773759Y-123372685D01*
X123773761Y-123372685D01*
X124512954Y-122633492D01*
X124529415Y-122694923D01*
X124595899Y-122810078D01*
X124689922Y-122904101D01*
X124805077Y-122970585D01*
X124866507Y-122987045D01*
X124127312Y-123726238D01*
X124127313Y-123726239D01*
X124211203Y-123787189D01*
X124422275Y-123894736D01*
X124647577Y-123967942D01*
X124881549Y-124005000D01*
X125118451Y-124005000D01*
X125352422Y-123967942D01*
X125577724Y-123894736D01*
X125788792Y-123787191D01*
X125872685Y-123726238D01*
X125872686Y-123726238D01*
X125133492Y-122987045D01*
X125194923Y-122970585D01*
X125310078Y-122904101D01*
X125404101Y-122810078D01*
X125470585Y-122694923D01*
X125487045Y-122633493D01*
X126226238Y-123372686D01*
X126226238Y-123372685D01*
X126287191Y-123288792D01*
X126394736Y-123077724D01*
X126467942Y-122852422D01*
X126505000Y-122618451D01*
X126505000Y-122381548D01*
X126467942Y-122147577D01*
X126394736Y-121922275D01*
X126287189Y-121711203D01*
X126226239Y-121627313D01*
X126226238Y-121627312D01*
X125487045Y-122366506D01*
X125470585Y-122305077D01*
X125404101Y-122189922D01*
X125310078Y-122095899D01*
X125194923Y-122029415D01*
X125133491Y-122012954D01*
X125872685Y-121273761D01*
X125872685Y-121273759D01*
X125788795Y-121212810D01*
X125577724Y-121105263D01*
X125352422Y-121032057D01*
X125118451Y-120995000D01*
X124881549Y-120995000D01*
X124647577Y-121032057D01*
X124422275Y-121105263D01*
X124211209Y-121212807D01*
X124127313Y-121273760D01*
X124866508Y-122012954D01*
X124805077Y-122029415D01*
X124689922Y-122095899D01*
X124595899Y-122189922D01*
X124529415Y-122305077D01*
X124512954Y-122366507D01*
X123773760Y-121627313D01*
X123712807Y-121711209D01*
X123605263Y-121922275D01*
X123532057Y-122147577D01*
X123495000Y-122381548D01*
X117348238Y-122381548D01*
X117318918Y-122343338D01*
X117250192Y-122274612D01*
X117156661Y-122181081D01*
X116341818Y-121366237D01*
X116308334Y-121304915D01*
X116308334Y-121304914D01*
X116305500Y-121278557D01*
X116305500Y-121181515D01*
X116286984Y-121064611D01*
X116268429Y-120947461D01*
X116195201Y-120722089D01*
X116087619Y-120510946D01*
X115948331Y-120319233D01*
X115780767Y-120151669D01*
X115589054Y-120012381D01*
X115377911Y-119904799D01*
X115152539Y-119831571D01*
X115152537Y-119831570D01*
X115152535Y-119831570D01*
X114989115Y-119805686D01*
X114918485Y-119794500D01*
X114681515Y-119794500D01*
X114543897Y-119816296D01*
X114474604Y-119807341D01*
X114421152Y-119762345D01*
X114400513Y-119695593D01*
X114400500Y-119693823D01*
X114400500Y-116024499D01*
X114420185Y-115957460D01*
X114472989Y-115911705D01*
X114524500Y-115900499D01*
X114722871Y-115900499D01*
X114722872Y-115900499D01*
X114782483Y-115894091D01*
X114917331Y-115843796D01*
X115032546Y-115757546D01*
X115118796Y-115642331D01*
X115146429Y-115568243D01*
X115148601Y-115562420D01*
X115190471Y-115506486D01*
X115255936Y-115482068D01*
X115324209Y-115496919D01*
X115352464Y-115518071D01*
X115402636Y-115568243D01*
X115402641Y-115568247D01*
X115463258Y-115612287D01*
X115580978Y-115697815D01*
X115709375Y-115763237D01*
X115777393Y-115797895D01*
X115777396Y-115797896D01*
X115882221Y-115831955D01*
X115987049Y-115866015D01*
X116204778Y-115900500D01*
X116204779Y-115900500D01*
X116425221Y-115900500D01*
X116425222Y-115900500D01*
X116642951Y-115866015D01*
X116852606Y-115797895D01*
X117049022Y-115697815D01*
X117227365Y-115568242D01*
X117383242Y-115412365D01*
X117512815Y-115234022D01*
X117533612Y-115193204D01*
X117581586Y-115142409D01*
X117644097Y-115125500D01*
X120283885Y-115125500D01*
X120350924Y-115145185D01*
X120383606Y-115178571D01*
X120384849Y-115177669D01*
X120508028Y-115347213D01*
X120652786Y-115491971D01*
X120807749Y-115604556D01*
X120818390Y-115612287D01*
X120934607Y-115671503D01*
X121000776Y-115705218D01*
X121000778Y-115705218D01*
X121000781Y-115705220D01*
X121105137Y-115739127D01*
X121195465Y-115768477D01*
X121296557Y-115784488D01*
X121397648Y-115800500D01*
X121397649Y-115800500D01*
X121602351Y-115800500D01*
X121602352Y-115800500D01*
X121804534Y-115768477D01*
X121999219Y-115705220D01*
X122181610Y-115612287D01*
X122274590Y-115544732D01*
X122347213Y-115491971D01*
X122347215Y-115491968D01*
X122347219Y-115491966D01*
X122491966Y-115347219D01*
X122491968Y-115347215D01*
X122491971Y-115347213D01*
X122612284Y-115181614D01*
X122612285Y-115181613D01*
X122612287Y-115181610D01*
X122659516Y-115088917D01*
X122707489Y-115038123D01*
X122775310Y-115021328D01*
X122841445Y-115043865D01*
X122880483Y-115088917D01*
X122907739Y-115142409D01*
X122927715Y-115181614D01*
X123048028Y-115347213D01*
X123192786Y-115491971D01*
X123347749Y-115604556D01*
X123358390Y-115612287D01*
X123474607Y-115671503D01*
X123540776Y-115705218D01*
X123540778Y-115705218D01*
X123540781Y-115705220D01*
X123645137Y-115739127D01*
X123735465Y-115768477D01*
X123836557Y-115784488D01*
X123937648Y-115800500D01*
X123937649Y-115800500D01*
X124142351Y-115800500D01*
X124142352Y-115800500D01*
X124344534Y-115768477D01*
X124539219Y-115705220D01*
X124721610Y-115612287D01*
X124814590Y-115544732D01*
X124887213Y-115491971D01*
X124887215Y-115491968D01*
X124887219Y-115491966D01*
X125031966Y-115347219D01*
X125031968Y-115347215D01*
X125031971Y-115347213D01*
X125084732Y-115274590D01*
X125152287Y-115181610D01*
X125245220Y-114999219D01*
X125308477Y-114804534D01*
X125340500Y-114602352D01*
X125340500Y-114397648D01*
X125308477Y-114195466D01*
X125245220Y-114000781D01*
X125245218Y-114000778D01*
X125245218Y-114000776D01*
X125199515Y-113911080D01*
X125152287Y-113818390D01*
X125114204Y-113765973D01*
X125031971Y-113652786D01*
X124931320Y-113552135D01*
X126374500Y-113552135D01*
X126374500Y-115447870D01*
X126374501Y-115447876D01*
X126380908Y-115507483D01*
X126431202Y-115642328D01*
X126431206Y-115642335D01*
X126517452Y-115757544D01*
X126517455Y-115757547D01*
X126632664Y-115843793D01*
X126632671Y-115843797D01*
X126677618Y-115860561D01*
X126767517Y-115894091D01*
X126827127Y-115900500D01*
X127025500Y-115900499D01*
X127092539Y-115920183D01*
X127138294Y-115972987D01*
X127149500Y-116024499D01*
X127149500Y-119336610D01*
X127173535Y-119457444D01*
X127173538Y-119457454D01*
X127186506Y-119488763D01*
X127186511Y-119488776D01*
X127187347Y-119490792D01*
X127220688Y-119571286D01*
X127226145Y-119579452D01*
X127231697Y-119587761D01*
X127289140Y-119673731D01*
X127289141Y-119673732D01*
X127289142Y-119673733D01*
X127376267Y-119760858D01*
X127376268Y-119760858D01*
X127383335Y-119767925D01*
X127383334Y-119767925D01*
X127383338Y-119767928D01*
X128142547Y-120527138D01*
X128176032Y-120588461D01*
X128171048Y-120658153D01*
X128169427Y-120662271D01*
X128138847Y-120736097D01*
X128138842Y-120736112D01*
X128138842Y-120736113D01*
X128079453Y-120957761D01*
X128079451Y-120957770D01*
X128049500Y-121185258D01*
X128049500Y-131637241D01*
X128074446Y-131826715D01*
X128079452Y-131864738D01*
X128133039Y-132064729D01*
X128138842Y-132086387D01*
X128226650Y-132298376D01*
X128226657Y-132298390D01*
X128251973Y-132342238D01*
X128341389Y-132497112D01*
X128386019Y-132555275D01*
X128433876Y-132617642D01*
X128459070Y-132682811D01*
X128459500Y-132693129D01*
X128459500Y-133322517D01*
X128470000Y-133425296D01*
X128525185Y-133591832D01*
X128525187Y-133591837D01*
X128530228Y-133600010D01*
X128617288Y-133741156D01*
X128741344Y-133865212D01*
X128890665Y-133957314D01*
X129057202Y-134012499D01*
X129159990Y-134023000D01*
X129159995Y-134023000D01*
X130840005Y-134023000D01*
X130840010Y-134023000D01*
X130942798Y-134012499D01*
X131109335Y-133957314D01*
X131258656Y-133865212D01*
X131382712Y-133741156D01*
X131474814Y-133591835D01*
X131529999Y-133425298D01*
X131540500Y-133322510D01*
X131540500Y-131721317D01*
X131541561Y-131705131D01*
X131550499Y-131637241D01*
X131550500Y-131637234D01*
X131550500Y-130841254D01*
X133539500Y-130841254D01*
X133539500Y-132603745D01*
X133577432Y-132843236D01*
X133652360Y-133073844D01*
X133762448Y-133289901D01*
X133904966Y-133486062D01*
X133904970Y-133486067D01*
X134076432Y-133657529D01*
X134076437Y-133657533D01*
X134247539Y-133781845D01*
X134272602Y-133800054D01*
X134457491Y-133894260D01*
X134488655Y-133910139D01*
X134565257Y-133935028D01*
X134719265Y-133985068D01*
X134830186Y-134002636D01*
X134958755Y-134023000D01*
X134958760Y-134023000D01*
X135201245Y-134023000D01*
X135317347Y-134004610D01*
X135440735Y-133985068D01*
X135671347Y-133910138D01*
X135887398Y-133800054D01*
X136083569Y-133657528D01*
X136255028Y-133486069D01*
X136397554Y-133289898D01*
X136507638Y-133073847D01*
X136582568Y-132843235D01*
X136606342Y-132693129D01*
X136620500Y-132603745D01*
X136620500Y-132378711D01*
X144149500Y-132378711D01*
X144149500Y-132621288D01*
X144181161Y-132861785D01*
X144243947Y-133096104D01*
X144324221Y-133289901D01*
X144336776Y-133320212D01*
X144458064Y-133530289D01*
X144458066Y-133530292D01*
X144458067Y-133530293D01*
X144605733Y-133722736D01*
X144605739Y-133722743D01*
X144777256Y-133894260D01*
X144777262Y-133894265D01*
X144969711Y-134041936D01*
X145179788Y-134163224D01*
X145403900Y-134256054D01*
X145638211Y-134318838D01*
X145818586Y-134342584D01*
X145878711Y-134350500D01*
X145878712Y-134350500D01*
X146121289Y-134350500D01*
X146169388Y-134344167D01*
X146361789Y-134318838D01*
X146596100Y-134256054D01*
X146820212Y-134163224D01*
X147030289Y-134041936D01*
X147222738Y-133894265D01*
X147394265Y-133722738D01*
X147541936Y-133530289D01*
X147663224Y-133320212D01*
X147756054Y-133096100D01*
X147818838Y-132861789D01*
X147850500Y-132621288D01*
X147850500Y-132378712D01*
X147845698Y-132342240D01*
X147818838Y-132138214D01*
X147818838Y-132138211D01*
X147756054Y-131903900D01*
X147663224Y-131679788D01*
X147541936Y-131469711D01*
X147394265Y-131277262D01*
X147394260Y-131277256D01*
X147222743Y-131105739D01*
X147222736Y-131105733D01*
X147030293Y-130958067D01*
X147030292Y-130958066D01*
X147030289Y-130958064D01*
X146820212Y-130836776D01*
X146820205Y-130836773D01*
X146596104Y-130743947D01*
X146361785Y-130681161D01*
X146121289Y-130649500D01*
X146121288Y-130649500D01*
X145878712Y-130649500D01*
X145878711Y-130649500D01*
X145638214Y-130681161D01*
X145403895Y-130743947D01*
X145179794Y-130836773D01*
X145179785Y-130836777D01*
X144969706Y-130958067D01*
X144777263Y-131105733D01*
X144777256Y-131105739D01*
X144605739Y-131277256D01*
X144605733Y-131277263D01*
X144458067Y-131469706D01*
X144336777Y-131679785D01*
X144336773Y-131679794D01*
X144243947Y-131903895D01*
X144181161Y-132138214D01*
X144149500Y-132378711D01*
X136620500Y-132378711D01*
X136620500Y-130841254D01*
X136590128Y-130649500D01*
X136582568Y-130601765D01*
X136507638Y-130371153D01*
X136397554Y-130155102D01*
X136332067Y-130064966D01*
X136255033Y-129958937D01*
X136255029Y-129958932D01*
X136083567Y-129787470D01*
X136083562Y-129787466D01*
X135887401Y-129644948D01*
X135887400Y-129644947D01*
X135887398Y-129644946D01*
X135779372Y-129589904D01*
X135671344Y-129534860D01*
X135440736Y-129459932D01*
X135201245Y-129422000D01*
X135201240Y-129422000D01*
X134958760Y-129422000D01*
X134958755Y-129422000D01*
X134719263Y-129459932D01*
X134488655Y-129534860D01*
X134272598Y-129644948D01*
X134076437Y-129787466D01*
X134076432Y-129787470D01*
X133904970Y-129958932D01*
X133904966Y-129958937D01*
X133762448Y-130155098D01*
X133652360Y-130371155D01*
X133577432Y-130601763D01*
X133539500Y-130841254D01*
X131550500Y-130841254D01*
X131550500Y-122381548D01*
X138495000Y-122381548D01*
X138495000Y-122618451D01*
X138532057Y-122852422D01*
X138605263Y-123077724D01*
X138712810Y-123288795D01*
X138773759Y-123372685D01*
X138773761Y-123372685D01*
X139512954Y-122633492D01*
X139529415Y-122694923D01*
X139595899Y-122810078D01*
X139689922Y-122904101D01*
X139805077Y-122970585D01*
X139866507Y-122987045D01*
X139127312Y-123726238D01*
X139127313Y-123726239D01*
X139211203Y-123787189D01*
X139422275Y-123894736D01*
X139647577Y-123967942D01*
X139881549Y-124005000D01*
X140118451Y-124005000D01*
X140352422Y-123967942D01*
X140577724Y-123894736D01*
X140788792Y-123787191D01*
X140872685Y-123726238D01*
X140872686Y-123726238D01*
X140133492Y-122987045D01*
X140194923Y-122970585D01*
X140310078Y-122904101D01*
X140404101Y-122810078D01*
X140470585Y-122694923D01*
X140487045Y-122633493D01*
X141226238Y-123372686D01*
X141226238Y-123372685D01*
X141287191Y-123288792D01*
X141394736Y-123077724D01*
X141467942Y-122852422D01*
X141505000Y-122618451D01*
X141505000Y-122381548D01*
X141467942Y-122147577D01*
X141394736Y-121922275D01*
X141287189Y-121711203D01*
X141226239Y-121627313D01*
X141226238Y-121627312D01*
X140487045Y-122366506D01*
X140470585Y-122305077D01*
X140404101Y-122189922D01*
X140310078Y-122095899D01*
X140194923Y-122029415D01*
X140133491Y-122012954D01*
X140872685Y-121273761D01*
X140872685Y-121273759D01*
X140788795Y-121212810D01*
X140577724Y-121105263D01*
X140352422Y-121032057D01*
X140118451Y-120995000D01*
X139881549Y-120995000D01*
X139647577Y-121032057D01*
X139422275Y-121105263D01*
X139211209Y-121212807D01*
X139127313Y-121273760D01*
X139866508Y-122012954D01*
X139805077Y-122029415D01*
X139689922Y-122095899D01*
X139595899Y-122189922D01*
X139529415Y-122305077D01*
X139512954Y-122366507D01*
X138773760Y-121627313D01*
X138712807Y-121711209D01*
X138605263Y-121922275D01*
X138532057Y-122147577D01*
X138495000Y-122381548D01*
X131550500Y-122381548D01*
X131550500Y-121185266D01*
X131520548Y-120957762D01*
X131461158Y-120736113D01*
X131387677Y-120558714D01*
X131373349Y-120524123D01*
X131373346Y-120524117D01*
X131373344Y-120524112D01*
X131258611Y-120325388D01*
X131258608Y-120325385D01*
X131258607Y-120325382D01*
X131118918Y-120143338D01*
X131118911Y-120143330D01*
X130956670Y-119981089D01*
X130956661Y-119981081D01*
X130774617Y-119841392D01*
X130731149Y-119816296D01*
X130690620Y-119792896D01*
X130575890Y-119726657D01*
X130575876Y-119726650D01*
X130363887Y-119638842D01*
X130142238Y-119579452D01*
X130104215Y-119574446D01*
X129914741Y-119549500D01*
X129914734Y-119549500D01*
X129685266Y-119549500D01*
X129685258Y-119549500D01*
X129468715Y-119578009D01*
X129457762Y-119579452D01*
X129376593Y-119601201D01*
X129236113Y-119638842D01*
X129236097Y-119638847D01*
X129162271Y-119669427D01*
X129092802Y-119676896D01*
X129030323Y-119645620D01*
X129027138Y-119642547D01*
X128436819Y-119052228D01*
X128403334Y-118990905D01*
X128400500Y-118964547D01*
X128400500Y-116024499D01*
X128420185Y-115957460D01*
X128472989Y-115911705D01*
X128524500Y-115900499D01*
X128722871Y-115900499D01*
X128722872Y-115900499D01*
X128782483Y-115894091D01*
X128917331Y-115843796D01*
X129032546Y-115757546D01*
X129118796Y-115642331D01*
X129146429Y-115568243D01*
X129148601Y-115562420D01*
X129190471Y-115506486D01*
X129255936Y-115482068D01*
X129324209Y-115496919D01*
X129352464Y-115518071D01*
X129402636Y-115568243D01*
X129402641Y-115568247D01*
X129463258Y-115612287D01*
X129580978Y-115697815D01*
X129709375Y-115763237D01*
X129777393Y-115797895D01*
X129777396Y-115797896D01*
X129882221Y-115831955D01*
X129987049Y-115866015D01*
X130204778Y-115900500D01*
X130204779Y-115900500D01*
X130425221Y-115900500D01*
X130425222Y-115900500D01*
X130642951Y-115866015D01*
X130852606Y-115797895D01*
X131049022Y-115697815D01*
X131227365Y-115568242D01*
X131383242Y-115412365D01*
X131512815Y-115234022D01*
X131533612Y-115193204D01*
X131581586Y-115142409D01*
X131644097Y-115125500D01*
X134288885Y-115125500D01*
X134355924Y-115145185D01*
X134388606Y-115178571D01*
X134389849Y-115177669D01*
X134513028Y-115347213D01*
X134657786Y-115491971D01*
X134812749Y-115604556D01*
X134823390Y-115612287D01*
X134939607Y-115671503D01*
X135005776Y-115705218D01*
X135005778Y-115705218D01*
X135005781Y-115705220D01*
X135110137Y-115739127D01*
X135200465Y-115768477D01*
X135301557Y-115784488D01*
X135402648Y-115800500D01*
X135402649Y-115800500D01*
X135607351Y-115800500D01*
X135607352Y-115800500D01*
X135809534Y-115768477D01*
X136004219Y-115705220D01*
X136186610Y-115612287D01*
X136279590Y-115544732D01*
X136352213Y-115491971D01*
X136352215Y-115491968D01*
X136352219Y-115491966D01*
X136496966Y-115347219D01*
X136496968Y-115347215D01*
X136496971Y-115347213D01*
X136617284Y-115181614D01*
X136617285Y-115181613D01*
X136617287Y-115181610D01*
X136664516Y-115088917D01*
X136712489Y-115038123D01*
X136780310Y-115021328D01*
X136846445Y-115043865D01*
X136885483Y-115088917D01*
X136912739Y-115142409D01*
X136932715Y-115181614D01*
X137053028Y-115347213D01*
X137197786Y-115491971D01*
X137352749Y-115604556D01*
X137363390Y-115612287D01*
X137479607Y-115671503D01*
X137545776Y-115705218D01*
X137545778Y-115705218D01*
X137545781Y-115705220D01*
X137650137Y-115739127D01*
X137740465Y-115768477D01*
X137841557Y-115784488D01*
X137942648Y-115800500D01*
X137942649Y-115800500D01*
X138147351Y-115800500D01*
X138147352Y-115800500D01*
X138349534Y-115768477D01*
X138544219Y-115705220D01*
X138726610Y-115612287D01*
X138819590Y-115544732D01*
X138892213Y-115491971D01*
X138892215Y-115491968D01*
X138892219Y-115491966D01*
X139036966Y-115347219D01*
X139036968Y-115347215D01*
X139036971Y-115347213D01*
X139089732Y-115274590D01*
X139157287Y-115181610D01*
X139250220Y-114999219D01*
X139313477Y-114804534D01*
X139345500Y-114602352D01*
X139345500Y-114397648D01*
X139313477Y-114195466D01*
X139250220Y-114000781D01*
X139250218Y-114000778D01*
X139250218Y-114000776D01*
X139204515Y-113911080D01*
X139157287Y-113818390D01*
X139119204Y-113765973D01*
X139036971Y-113652786D01*
X138892213Y-113508028D01*
X138726613Y-113387715D01*
X138726612Y-113387714D01*
X138726610Y-113387713D01*
X138667636Y-113357664D01*
X138544223Y-113294781D01*
X138349534Y-113231522D01*
X138163799Y-113202105D01*
X138147352Y-113199500D01*
X137942648Y-113199500D01*
X137926201Y-113202105D01*
X137740465Y-113231522D01*
X137545776Y-113294781D01*
X137363386Y-113387715D01*
X137197786Y-113508028D01*
X137053028Y-113652786D01*
X136932715Y-113818386D01*
X136885485Y-113911080D01*
X136837510Y-113961876D01*
X136769689Y-113978671D01*
X136703554Y-113956134D01*
X136664515Y-113911080D01*
X136663883Y-113909840D01*
X136617287Y-113818390D01*
X136579204Y-113765973D01*
X136496971Y-113652786D01*
X136352213Y-113508028D01*
X136186613Y-113387715D01*
X136186612Y-113387714D01*
X136186610Y-113387713D01*
X136127636Y-113357664D01*
X136004223Y-113294781D01*
X135809534Y-113231522D01*
X135623799Y-113202105D01*
X135607352Y-113199500D01*
X135402648Y-113199500D01*
X135386201Y-113202105D01*
X135200465Y-113231522D01*
X135005776Y-113294781D01*
X134823386Y-113387715D01*
X134657786Y-113508028D01*
X134513028Y-113652786D01*
X134389849Y-113822331D01*
X134388176Y-113821115D01*
X134342792Y-113862169D01*
X134288885Y-113874500D01*
X131644097Y-113874500D01*
X131577058Y-113854815D01*
X131533612Y-113806795D01*
X131512812Y-113765973D01*
X131383247Y-113587641D01*
X131383243Y-113587636D01*
X131227363Y-113431756D01*
X131227358Y-113431752D01*
X131049025Y-113302187D01*
X131049024Y-113302186D01*
X131049022Y-113302185D01*
X130931791Y-113242452D01*
X130852606Y-113202104D01*
X130852603Y-113202103D01*
X130642952Y-113133985D01*
X130534086Y-113116742D01*
X130425222Y-113099500D01*
X130204778Y-113099500D01*
X130132201Y-113110995D01*
X129987047Y-113133985D01*
X129777396Y-113202103D01*
X129777393Y-113202104D01*
X129580974Y-113302187D01*
X129402641Y-113431752D01*
X129402636Y-113431756D01*
X129352463Y-113481929D01*
X129291140Y-113515413D01*
X129221448Y-113510428D01*
X129165515Y-113468557D01*
X129148601Y-113437580D01*
X129118797Y-113357671D01*
X129118793Y-113357664D01*
X129032547Y-113242455D01*
X129032544Y-113242452D01*
X128917335Y-113156206D01*
X128917328Y-113156202D01*
X128782482Y-113105908D01*
X128782483Y-113105908D01*
X128722883Y-113099501D01*
X128722881Y-113099500D01*
X128722873Y-113099500D01*
X128722864Y-113099500D01*
X126827129Y-113099500D01*
X126827123Y-113099501D01*
X126767516Y-113105908D01*
X126632671Y-113156202D01*
X126632664Y-113156206D01*
X126517455Y-113242452D01*
X126517452Y-113242455D01*
X126431206Y-113357664D01*
X126431202Y-113357671D01*
X126380908Y-113492517D01*
X126374501Y-113552116D01*
X126374500Y-113552135D01*
X124931320Y-113552135D01*
X124887213Y-113508028D01*
X124721613Y-113387715D01*
X124721612Y-113387714D01*
X124721610Y-113387713D01*
X124662636Y-113357664D01*
X124539223Y-113294781D01*
X124344534Y-113231522D01*
X124158799Y-113202105D01*
X124142352Y-113199500D01*
X123937648Y-113199500D01*
X123921201Y-113202105D01*
X123735465Y-113231522D01*
X123540776Y-113294781D01*
X123358386Y-113387715D01*
X123192786Y-113508028D01*
X123048028Y-113652786D01*
X122927715Y-113818386D01*
X122880485Y-113911080D01*
X122832510Y-113961876D01*
X122764689Y-113978671D01*
X122698554Y-113956134D01*
X122659515Y-113911080D01*
X122658883Y-113909840D01*
X122612287Y-113818390D01*
X122574204Y-113765973D01*
X122491971Y-113652786D01*
X122347213Y-113508028D01*
X122181613Y-113387715D01*
X122181612Y-113387714D01*
X122181610Y-113387713D01*
X122122636Y-113357664D01*
X121999223Y-113294781D01*
X121804534Y-113231522D01*
X121618799Y-113202105D01*
X121602352Y-113199500D01*
X121397648Y-113199500D01*
X121381201Y-113202105D01*
X121195465Y-113231522D01*
X121000776Y-113294781D01*
X120818386Y-113387715D01*
X120652786Y-113508028D01*
X120508028Y-113652786D01*
X120384849Y-113822331D01*
X120383176Y-113821115D01*
X120337792Y-113862169D01*
X120283885Y-113874500D01*
X117644097Y-113874500D01*
X117577058Y-113854815D01*
X117533612Y-113806795D01*
X117512812Y-113765973D01*
X117383247Y-113587641D01*
X117383243Y-113587636D01*
X117227363Y-113431756D01*
X117227358Y-113431752D01*
X117049025Y-113302187D01*
X117049024Y-113302186D01*
X117049022Y-113302185D01*
X116931791Y-113242452D01*
X116852606Y-113202104D01*
X116852603Y-113202103D01*
X116642952Y-113133985D01*
X116534086Y-113116742D01*
X116425222Y-113099500D01*
X116204778Y-113099500D01*
X116132201Y-113110995D01*
X115987047Y-113133985D01*
X115777396Y-113202103D01*
X115777393Y-113202104D01*
X115580974Y-113302187D01*
X115402641Y-113431752D01*
X115402636Y-113431756D01*
X115352463Y-113481929D01*
X115291140Y-113515413D01*
X115221448Y-113510428D01*
X115165515Y-113468557D01*
X115148601Y-113437580D01*
X115118797Y-113357671D01*
X115118793Y-113357664D01*
X115032547Y-113242455D01*
X115032544Y-113242452D01*
X114917335Y-113156206D01*
X114917328Y-113156202D01*
X114782482Y-113105908D01*
X114782483Y-113105908D01*
X114722883Y-113099501D01*
X114722881Y-113099500D01*
X114722873Y-113099500D01*
X114722864Y-113099500D01*
X112827129Y-113099500D01*
X112827123Y-113099501D01*
X112767516Y-113105908D01*
X112632671Y-113156202D01*
X112632664Y-113156206D01*
X112517455Y-113242452D01*
X112517452Y-113242455D01*
X112431206Y-113357664D01*
X112431202Y-113357671D01*
X112380908Y-113492517D01*
X112374501Y-113552116D01*
X112374500Y-113552135D01*
X110936320Y-113552135D01*
X110892213Y-113508028D01*
X110726613Y-113387715D01*
X110726612Y-113387714D01*
X110726610Y-113387713D01*
X110667636Y-113357664D01*
X110544223Y-113294781D01*
X110349534Y-113231522D01*
X110163799Y-113202105D01*
X110147352Y-113199500D01*
X109942648Y-113199500D01*
X109926201Y-113202105D01*
X109740465Y-113231522D01*
X109545776Y-113294781D01*
X109363386Y-113387715D01*
X109197786Y-113508028D01*
X109053028Y-113652786D01*
X108932715Y-113818386D01*
X108885485Y-113911080D01*
X108837510Y-113961876D01*
X108769689Y-113978671D01*
X108703554Y-113956134D01*
X108664515Y-113911080D01*
X108663883Y-113909840D01*
X108617287Y-113818390D01*
X108579204Y-113765973D01*
X108496971Y-113652786D01*
X108352213Y-113508028D01*
X108186613Y-113387715D01*
X108186612Y-113387714D01*
X108186610Y-113387713D01*
X108127636Y-113357664D01*
X108004223Y-113294781D01*
X107809534Y-113231522D01*
X107623799Y-113202105D01*
X107607352Y-113199500D01*
X107402648Y-113199500D01*
X107386201Y-113202105D01*
X107200465Y-113231522D01*
X107005776Y-113294781D01*
X106823386Y-113387715D01*
X106657786Y-113508028D01*
X106513028Y-113652786D01*
X106389849Y-113822331D01*
X106388176Y-113821115D01*
X106342792Y-113862169D01*
X106288885Y-113874500D01*
X103874097Y-113874500D01*
X103807058Y-113854815D01*
X103763612Y-113806795D01*
X103742812Y-113765973D01*
X103613247Y-113587641D01*
X103613243Y-113587636D01*
X103457363Y-113431756D01*
X103457358Y-113431752D01*
X103279025Y-113302187D01*
X103279024Y-113302186D01*
X103279022Y-113302185D01*
X103161791Y-113242452D01*
X103082606Y-113202104D01*
X103082603Y-113202103D01*
X102872952Y-113133985D01*
X102764086Y-113116742D01*
X102655222Y-113099500D01*
X102434778Y-113099500D01*
X102362201Y-113110995D01*
X102217047Y-113133985D01*
X102007396Y-113202103D01*
X102007393Y-113202104D01*
X101810974Y-113302187D01*
X101632641Y-113431752D01*
X101632636Y-113431756D01*
X101582463Y-113481929D01*
X101521140Y-113515413D01*
X101451448Y-113510428D01*
X101395515Y-113468557D01*
X101378601Y-113437580D01*
X101348797Y-113357671D01*
X101348793Y-113357664D01*
X101262547Y-113242455D01*
X101262544Y-113242452D01*
X101147335Y-113156206D01*
X101147328Y-113156202D01*
X101012482Y-113105908D01*
X101012483Y-113105908D01*
X100952883Y-113099501D01*
X100952881Y-113099500D01*
X100952873Y-113099500D01*
X100952864Y-113099500D01*
X99057129Y-113099500D01*
X99057123Y-113099501D01*
X98997516Y-113105908D01*
X98862671Y-113156202D01*
X98862664Y-113156206D01*
X98747455Y-113242452D01*
X98747452Y-113242455D01*
X98661206Y-113357664D01*
X98661202Y-113357671D01*
X98610908Y-113492517D01*
X98604501Y-113552116D01*
X98604500Y-113552135D01*
X98604500Y-115447870D01*
X98604501Y-115447876D01*
X98610908Y-115507483D01*
X98661202Y-115642328D01*
X98661206Y-115642335D01*
X98747452Y-115757544D01*
X98747455Y-115757547D01*
X98862664Y-115843793D01*
X98862671Y-115843797D01*
X98907618Y-115860561D01*
X98997517Y-115894091D01*
X99057127Y-115900500D01*
X99255500Y-115900499D01*
X99322539Y-115920183D01*
X99368294Y-115972987D01*
X99379500Y-116024499D01*
X99379500Y-119763561D01*
X99359815Y-119830600D01*
X99307011Y-119876355D01*
X99293820Y-119881491D01*
X99222088Y-119904799D01*
X99010945Y-120012381D01*
X98969500Y-120042493D01*
X98819233Y-120151669D01*
X98819231Y-120151671D01*
X98819230Y-120151671D01*
X98651671Y-120319230D01*
X98651671Y-120319231D01*
X98651669Y-120319233D01*
X98639047Y-120336606D01*
X98512381Y-120510945D01*
X98404800Y-120722086D01*
X98404799Y-120722088D01*
X98404799Y-120722089D01*
X98392202Y-120760858D01*
X98331570Y-120947464D01*
X98294500Y-121181515D01*
X98294500Y-121373377D01*
X98277887Y-121435377D01*
X98226659Y-121524104D01*
X98226651Y-121524120D01*
X98138842Y-121736112D01*
X98138842Y-121736113D01*
X98088961Y-121922275D01*
X98079453Y-121957758D01*
X98079450Y-121957771D01*
X98049501Y-122185265D01*
X96473911Y-122185265D01*
X96467942Y-122147577D01*
X96394736Y-121922275D01*
X96287189Y-121711203D01*
X96226239Y-121627313D01*
X96226238Y-121627312D01*
X95487045Y-122366506D01*
X95470585Y-122305077D01*
X95404101Y-122189922D01*
X95310078Y-122095899D01*
X95194923Y-122029415D01*
X95133491Y-122012954D01*
X95872685Y-121273761D01*
X95872685Y-121273759D01*
X95788795Y-121212810D01*
X95577724Y-121105263D01*
X95352422Y-121032057D01*
X95118451Y-120995000D01*
X94881549Y-120995000D01*
X94647577Y-121032057D01*
X94422275Y-121105263D01*
X94211209Y-121212807D01*
X94127313Y-121273760D01*
X94866508Y-122012954D01*
X94805077Y-122029415D01*
X94689922Y-122095899D01*
X94595899Y-122189922D01*
X94529415Y-122305077D01*
X94512954Y-122366507D01*
X93773760Y-121627313D01*
X93712807Y-121711209D01*
X93605263Y-121922275D01*
X93532057Y-122147577D01*
X93495000Y-122381548D01*
X88357129Y-122381548D01*
X87600254Y-121624673D01*
X87566769Y-121563350D01*
X87571753Y-121493658D01*
X87613625Y-121437725D01*
X87679089Y-121413308D01*
X87735387Y-121422431D01*
X87817549Y-121456463D01*
X87938389Y-121480499D01*
X87938393Y-121480500D01*
X87938394Y-121480500D01*
X88061608Y-121480500D01*
X88061609Y-121480499D01*
X88182451Y-121456463D01*
X88227690Y-121437725D01*
X88283196Y-121414734D01*
X88296286Y-121409312D01*
X88398733Y-121340857D01*
X88485857Y-121253733D01*
X88486563Y-121252675D01*
X88486934Y-121252122D01*
X88486934Y-121252121D01*
X88524060Y-121196560D01*
X88554312Y-121151286D01*
X88601463Y-121037451D01*
X88625500Y-120916607D01*
X88625500Y-120793394D01*
X88601463Y-120672549D01*
X88554312Y-120558715D01*
X88485857Y-120456267D01*
X88343733Y-120314143D01*
X88342345Y-120313216D01*
X88241290Y-120245690D01*
X88241281Y-120245685D01*
X88127461Y-120198540D01*
X88127444Y-120198535D01*
X88006611Y-120174500D01*
X88006607Y-120174500D01*
X87883393Y-120174500D01*
X87883388Y-120174500D01*
X87762555Y-120198535D01*
X87762538Y-120198540D01*
X87648718Y-120245685D01*
X87648709Y-120245690D01*
X87546272Y-120314139D01*
X87546264Y-120314145D01*
X87459145Y-120401264D01*
X87459139Y-120401272D01*
X87390690Y-120503709D01*
X87390685Y-120503718D01*
X87343540Y-120617538D01*
X87343535Y-120617555D01*
X87319500Y-120738388D01*
X87319500Y-120861611D01*
X87343535Y-120982444D01*
X87343537Y-120982452D01*
X87377568Y-121064611D01*
X87385036Y-121134081D01*
X87353760Y-121196560D01*
X87293671Y-121232212D01*
X87223846Y-121229717D01*
X87175325Y-121199744D01*
X86554187Y-120578606D01*
X86542299Y-120556835D01*
X86526902Y-120537387D01*
X86525846Y-120526704D01*
X86520702Y-120517283D01*
X86522471Y-120492539D01*
X86520033Y-120467856D01*
X86525128Y-120455392D01*
X86525686Y-120447591D01*
X86531467Y-120434465D01*
X86534753Y-120428038D01*
X86559311Y-120391286D01*
X86581960Y-120336606D01*
X86606463Y-120277452D01*
X86630500Y-120156606D01*
X86630500Y-116024499D01*
X86650185Y-115957460D01*
X86702989Y-115911705D01*
X86754500Y-115900499D01*
X86952871Y-115900499D01*
X86952872Y-115900499D01*
X87012483Y-115894091D01*
X87147331Y-115843796D01*
X87262546Y-115757546D01*
X87348796Y-115642331D01*
X87376429Y-115568243D01*
X87378601Y-115562420D01*
X87420471Y-115506486D01*
X87485936Y-115482068D01*
X87554209Y-115496919D01*
X87582464Y-115518071D01*
X87632636Y-115568243D01*
X87632641Y-115568247D01*
X87693258Y-115612287D01*
X87810978Y-115697815D01*
X87939375Y-115763237D01*
X88007393Y-115797895D01*
X88007396Y-115797896D01*
X88112221Y-115831955D01*
X88217049Y-115866015D01*
X88434778Y-115900500D01*
X88434779Y-115900500D01*
X88655221Y-115900500D01*
X88655222Y-115900500D01*
X88872951Y-115866015D01*
X89082606Y-115797895D01*
X89279022Y-115697815D01*
X89457365Y-115568242D01*
X89613242Y-115412365D01*
X89742815Y-115234022D01*
X89763612Y-115193204D01*
X89811586Y-115142409D01*
X89874097Y-115125500D01*
X92288885Y-115125500D01*
X92355924Y-115145185D01*
X92388606Y-115178571D01*
X92389849Y-115177669D01*
X92513028Y-115347213D01*
X92657786Y-115491971D01*
X92812749Y-115604556D01*
X92823390Y-115612287D01*
X92939607Y-115671503D01*
X93005776Y-115705218D01*
X93005778Y-115705218D01*
X93005781Y-115705220D01*
X93110137Y-115739127D01*
X93200465Y-115768477D01*
X93301557Y-115784488D01*
X93402648Y-115800500D01*
X93402649Y-115800500D01*
X93607351Y-115800500D01*
X93607352Y-115800500D01*
X93809534Y-115768477D01*
X94004219Y-115705220D01*
X94186610Y-115612287D01*
X94279590Y-115544732D01*
X94352213Y-115491971D01*
X94352215Y-115491968D01*
X94352219Y-115491966D01*
X94496966Y-115347219D01*
X94496968Y-115347215D01*
X94496971Y-115347213D01*
X94617284Y-115181614D01*
X94617285Y-115181613D01*
X94617287Y-115181610D01*
X94664516Y-115088917D01*
X94712489Y-115038123D01*
X94780310Y-115021328D01*
X94846445Y-115043865D01*
X94885483Y-115088917D01*
X94912739Y-115142409D01*
X94932715Y-115181614D01*
X95053028Y-115347213D01*
X95197786Y-115491971D01*
X95352749Y-115604556D01*
X95363390Y-115612287D01*
X95479607Y-115671503D01*
X95545776Y-115705218D01*
X95545778Y-115705218D01*
X95545781Y-115705220D01*
X95650137Y-115739127D01*
X95740465Y-115768477D01*
X95841557Y-115784488D01*
X95942648Y-115800500D01*
X95942649Y-115800500D01*
X96147351Y-115800500D01*
X96147352Y-115800500D01*
X96349534Y-115768477D01*
X96544219Y-115705220D01*
X96726610Y-115612287D01*
X96819590Y-115544732D01*
X96892213Y-115491971D01*
X96892215Y-115491968D01*
X96892219Y-115491966D01*
X97036966Y-115347219D01*
X97036968Y-115347215D01*
X97036971Y-115347213D01*
X97089732Y-115274590D01*
X97157287Y-115181610D01*
X97250220Y-114999219D01*
X97313477Y-114804534D01*
X97345500Y-114602352D01*
X97345500Y-114397648D01*
X97313477Y-114195466D01*
X97250220Y-114000781D01*
X97250218Y-114000778D01*
X97250218Y-114000776D01*
X97204515Y-113911080D01*
X97157287Y-113818390D01*
X97119204Y-113765973D01*
X97036971Y-113652786D01*
X96892213Y-113508028D01*
X96726613Y-113387715D01*
X96726612Y-113387714D01*
X96726610Y-113387713D01*
X96667636Y-113357664D01*
X96544223Y-113294781D01*
X96349534Y-113231522D01*
X96163799Y-113202105D01*
X96147352Y-113199500D01*
X95942648Y-113199500D01*
X95926201Y-113202105D01*
X95740465Y-113231522D01*
X95545776Y-113294781D01*
X95363386Y-113387715D01*
X95197786Y-113508028D01*
X95053028Y-113652786D01*
X94932715Y-113818386D01*
X94885485Y-113911080D01*
X94837510Y-113961876D01*
X94769689Y-113978671D01*
X94703554Y-113956134D01*
X94664515Y-113911080D01*
X94663883Y-113909840D01*
X94617287Y-113818390D01*
X94579204Y-113765973D01*
X94496971Y-113652786D01*
X94352213Y-113508028D01*
X94186613Y-113387715D01*
X94186612Y-113387714D01*
X94186610Y-113387713D01*
X94127636Y-113357664D01*
X94004223Y-113294781D01*
X93809534Y-113231522D01*
X93623799Y-113202105D01*
X93607352Y-113199500D01*
X93402648Y-113199500D01*
X93386201Y-113202105D01*
X93200465Y-113231522D01*
X93005776Y-113294781D01*
X92823386Y-113387715D01*
X92657786Y-113508028D01*
X92513028Y-113652786D01*
X92389849Y-113822331D01*
X92388176Y-113821115D01*
X92342792Y-113862169D01*
X92288885Y-113874500D01*
X89874097Y-113874500D01*
X89807058Y-113854815D01*
X89763612Y-113806795D01*
X89742812Y-113765973D01*
X89613247Y-113587641D01*
X89613243Y-113587636D01*
X89457363Y-113431756D01*
X89457358Y-113431752D01*
X89279025Y-113302187D01*
X89279024Y-113302186D01*
X89279022Y-113302185D01*
X89161791Y-113242452D01*
X89082606Y-113202104D01*
X89082603Y-113202103D01*
X88872952Y-113133985D01*
X88764086Y-113116742D01*
X88655222Y-113099500D01*
X88434778Y-113099500D01*
X88362201Y-113110995D01*
X88217047Y-113133985D01*
X88007396Y-113202103D01*
X88007393Y-113202104D01*
X87810974Y-113302187D01*
X87632641Y-113431752D01*
X87632636Y-113431756D01*
X87582463Y-113481929D01*
X87521140Y-113515413D01*
X87451448Y-113510428D01*
X87395515Y-113468557D01*
X87378601Y-113437580D01*
X87348797Y-113357671D01*
X87348793Y-113357664D01*
X87262547Y-113242455D01*
X87262544Y-113242452D01*
X87147335Y-113156206D01*
X87147328Y-113156202D01*
X87012482Y-113105908D01*
X87012483Y-113105908D01*
X86952883Y-113099501D01*
X86952881Y-113099500D01*
X86952873Y-113099500D01*
X86952864Y-113099500D01*
X85057129Y-113099500D01*
X85057123Y-113099501D01*
X84997516Y-113105908D01*
X84862671Y-113156202D01*
X84862664Y-113156206D01*
X84747455Y-113242452D01*
X84747452Y-113242455D01*
X84661206Y-113357664D01*
X84661202Y-113357671D01*
X84610908Y-113492517D01*
X84604501Y-113552116D01*
X84604500Y-113552135D01*
X84604500Y-115447870D01*
X84604501Y-115447876D01*
X84610908Y-115507483D01*
X84661202Y-115642328D01*
X84661206Y-115642335D01*
X84747452Y-115757544D01*
X84747455Y-115757547D01*
X84862664Y-115843793D01*
X84862671Y-115843797D01*
X84907618Y-115860561D01*
X84997517Y-115894091D01*
X85057127Y-115900500D01*
X85255500Y-115900499D01*
X85322539Y-115920183D01*
X85368294Y-115972987D01*
X85379500Y-116024499D01*
X85379500Y-119481426D01*
X85359815Y-119548465D01*
X85307011Y-119594220D01*
X85237853Y-119604164D01*
X85223410Y-119601201D01*
X85142239Y-119579452D01*
X85142233Y-119579451D01*
X85142228Y-119579450D01*
X84914735Y-119549501D01*
X84914734Y-119549501D01*
X84685266Y-119549501D01*
X84685265Y-119549501D01*
X84457771Y-119579450D01*
X84457764Y-119579451D01*
X84457761Y-119579452D01*
X84402646Y-119594220D01*
X84236112Y-119638842D01*
X84024120Y-119726651D01*
X84024111Y-119726656D01*
X83825388Y-119841390D01*
X83825378Y-119841396D01*
X83699486Y-119937996D01*
X83634316Y-119963190D01*
X83565871Y-119949151D01*
X83515882Y-119900337D01*
X83500000Y-119839620D01*
X83500000Y-100537879D01*
X83519685Y-100470840D01*
X83572489Y-100425085D01*
X83641647Y-100415141D01*
X83699486Y-100439503D01*
X83773051Y-100495951D01*
X83825388Y-100536110D01*
X84024112Y-100650844D01*
X84024115Y-100650845D01*
X84024120Y-100650848D01*
X84102216Y-100683196D01*
X84236113Y-100738658D01*
X84457761Y-100798048D01*
X84618435Y-100819200D01*
X84685265Y-100827999D01*
X84892046Y-100827999D01*
X84959085Y-100847684D01*
X84979727Y-100864318D01*
X85883181Y-101767771D01*
X85916666Y-101829094D01*
X85919500Y-101855452D01*
X85919500Y-103975500D01*
X85899815Y-104042539D01*
X85847011Y-104088294D01*
X85795501Y-104099500D01*
X85597130Y-104099500D01*
X85597123Y-104099501D01*
X85537516Y-104105908D01*
X85402671Y-104156202D01*
X85402664Y-104156206D01*
X85287455Y-104242452D01*
X85287452Y-104242455D01*
X85201206Y-104357664D01*
X85201202Y-104357671D01*
X85150908Y-104492517D01*
X85144501Y-104552116D01*
X85144500Y-104552135D01*
X85144500Y-106447870D01*
X85144501Y-106447876D01*
X85150908Y-106507483D01*
X85201202Y-106642328D01*
X85201206Y-106642335D01*
X85287452Y-106757544D01*
X85287455Y-106757547D01*
X85402664Y-106843793D01*
X85402671Y-106843797D01*
X85537517Y-106894091D01*
X85537516Y-106894091D01*
X85544444Y-106894835D01*
X85597127Y-106900500D01*
X87492872Y-106900499D01*
X87552483Y-106894091D01*
X87687331Y-106843796D01*
X87802546Y-106757546D01*
X87888796Y-106642331D01*
X87916429Y-106568243D01*
X87918601Y-106562420D01*
X87960471Y-106506486D01*
X88025936Y-106482068D01*
X88094209Y-106496919D01*
X88122464Y-106518071D01*
X88172636Y-106568243D01*
X88172641Y-106568247D01*
X88233258Y-106612287D01*
X88350978Y-106697815D01*
X88479375Y-106763237D01*
X88547393Y-106797895D01*
X88547396Y-106797896D01*
X88652221Y-106831955D01*
X88757049Y-106866015D01*
X88974778Y-106900500D01*
X88974779Y-106900500D01*
X89195221Y-106900500D01*
X89195222Y-106900500D01*
X89412951Y-106866015D01*
X89622606Y-106797895D01*
X89819022Y-106697815D01*
X89997365Y-106568242D01*
X90153242Y-106412365D01*
X90282815Y-106234022D01*
X90303612Y-106193204D01*
X90351586Y-106142409D01*
X90414097Y-106125500D01*
X91828885Y-106125500D01*
X91895924Y-106145185D01*
X91928606Y-106178571D01*
X91929849Y-106177669D01*
X92053028Y-106347213D01*
X92197786Y-106491971D01*
X92352749Y-106604556D01*
X92363390Y-106612287D01*
X92479607Y-106671503D01*
X92545776Y-106705218D01*
X92545778Y-106705218D01*
X92545781Y-106705220D01*
X92650137Y-106739127D01*
X92740465Y-106768477D01*
X92841557Y-106784488D01*
X92942648Y-106800500D01*
X92942649Y-106800500D01*
X93147351Y-106800500D01*
X93147352Y-106800500D01*
X93349534Y-106768477D01*
X93544219Y-106705220D01*
X93726610Y-106612287D01*
X93838646Y-106530889D01*
X93892213Y-106491971D01*
X93892215Y-106491968D01*
X93892219Y-106491966D01*
X94036966Y-106347219D01*
X94036968Y-106347215D01*
X94036971Y-106347213D01*
X94157284Y-106181614D01*
X94157285Y-106181613D01*
X94157287Y-106181610D01*
X94204516Y-106088917D01*
X94252489Y-106038123D01*
X94320310Y-106021328D01*
X94386445Y-106043865D01*
X94425483Y-106088917D01*
X94452739Y-106142409D01*
X94472715Y-106181614D01*
X94593028Y-106347213D01*
X94737786Y-106491971D01*
X94892749Y-106604556D01*
X94903390Y-106612287D01*
X95019607Y-106671503D01*
X95085776Y-106705218D01*
X95085778Y-106705218D01*
X95085781Y-106705220D01*
X95190137Y-106739127D01*
X95280465Y-106768477D01*
X95381557Y-106784488D01*
X95482648Y-106800500D01*
X95482649Y-106800500D01*
X95687351Y-106800500D01*
X95687352Y-106800500D01*
X95889534Y-106768477D01*
X96084219Y-106705220D01*
X96266610Y-106612287D01*
X96378646Y-106530889D01*
X96432213Y-106491971D01*
X96432215Y-106491968D01*
X96432219Y-106491966D01*
X96576966Y-106347219D01*
X96576968Y-106347215D01*
X96576971Y-106347213D01*
X96629732Y-106274590D01*
X96697287Y-106181610D01*
X96790220Y-105999219D01*
X96853477Y-105804534D01*
X96885500Y-105602352D01*
X96885500Y-105397648D01*
X96853477Y-105195465D01*
X96790218Y-105000776D01*
X96744515Y-104911080D01*
X96697287Y-104818390D01*
X96659204Y-104765973D01*
X96576971Y-104652786D01*
X96432213Y-104508028D01*
X96266613Y-104387715D01*
X96266612Y-104387714D01*
X96266610Y-104387713D01*
X96207636Y-104357664D01*
X96084223Y-104294781D01*
X95889534Y-104231522D01*
X95703799Y-104202105D01*
X95687352Y-104199500D01*
X95482648Y-104199500D01*
X95466201Y-104202105D01*
X95280465Y-104231522D01*
X95085776Y-104294781D01*
X94903386Y-104387715D01*
X94737786Y-104508028D01*
X94593028Y-104652786D01*
X94472715Y-104818386D01*
X94425485Y-104911080D01*
X94377510Y-104961876D01*
X94309689Y-104978671D01*
X94243554Y-104956134D01*
X94204515Y-104911080D01*
X94203883Y-104909840D01*
X94157287Y-104818390D01*
X94119204Y-104765973D01*
X94036971Y-104652786D01*
X93892213Y-104508028D01*
X93726613Y-104387715D01*
X93726612Y-104387714D01*
X93726610Y-104387713D01*
X93667636Y-104357664D01*
X93544223Y-104294781D01*
X93349534Y-104231522D01*
X93163799Y-104202105D01*
X93147352Y-104199500D01*
X92942648Y-104199500D01*
X92926201Y-104202105D01*
X92740465Y-104231522D01*
X92545776Y-104294781D01*
X92363386Y-104387715D01*
X92197786Y-104508028D01*
X92053028Y-104652786D01*
X91929849Y-104822331D01*
X91928176Y-104821115D01*
X91882792Y-104862169D01*
X91828885Y-104874500D01*
X90414097Y-104874500D01*
X90347058Y-104854815D01*
X90303612Y-104806795D01*
X90282812Y-104765973D01*
X90153247Y-104587641D01*
X90153243Y-104587636D01*
X89997363Y-104431756D01*
X89997358Y-104431752D01*
X89819025Y-104302187D01*
X89819024Y-104302186D01*
X89819022Y-104302185D01*
X89701791Y-104242452D01*
X89622606Y-104202104D01*
X89622603Y-104202103D01*
X89412952Y-104133985D01*
X89304086Y-104116742D01*
X89195222Y-104099500D01*
X88974778Y-104099500D01*
X88902201Y-104110995D01*
X88757047Y-104133985D01*
X88547396Y-104202103D01*
X88547393Y-104202104D01*
X88350974Y-104302187D01*
X88172641Y-104431752D01*
X88172636Y-104431756D01*
X88122463Y-104481929D01*
X88061140Y-104515413D01*
X87991448Y-104510428D01*
X87935515Y-104468557D01*
X87918601Y-104437580D01*
X87888797Y-104357671D01*
X87888793Y-104357664D01*
X87802547Y-104242455D01*
X87802544Y-104242452D01*
X87687335Y-104156206D01*
X87687328Y-104156202D01*
X87552482Y-104105908D01*
X87552483Y-104105908D01*
X87492883Y-104099501D01*
X87492881Y-104099500D01*
X87492873Y-104099500D01*
X87492865Y-104099500D01*
X87294500Y-104099500D01*
X87227461Y-104079815D01*
X87181706Y-104027011D01*
X87170500Y-103975500D01*
X87170500Y-101613883D01*
X87170500Y-101606612D01*
X87170501Y-101606607D01*
X87170501Y-101483394D01*
X87146463Y-101362549D01*
X87099312Y-101248715D01*
X87030858Y-101146267D01*
X87030855Y-101146263D01*
X86206516Y-100321925D01*
X86202177Y-100313979D01*
X86194930Y-100308554D01*
X86185695Y-100283794D01*
X86173031Y-100260602D01*
X86173676Y-100251572D01*
X86170513Y-100243090D01*
X86176129Y-100217269D01*
X86178015Y-100190911D01*
X86183833Y-100181857D01*
X86185365Y-100174817D01*
X86197169Y-100159048D01*
X93495000Y-100159048D01*
X93495000Y-100395951D01*
X93532057Y-100629922D01*
X93605263Y-100855224D01*
X93712810Y-101066295D01*
X93773759Y-101150185D01*
X93773761Y-101150185D01*
X94512954Y-100410992D01*
X94529415Y-100472423D01*
X94595899Y-100587578D01*
X94689922Y-100681601D01*
X94805077Y-100748085D01*
X94866507Y-100764545D01*
X94127312Y-101503738D01*
X94127313Y-101503739D01*
X94211203Y-101564689D01*
X94422275Y-101672236D01*
X94647577Y-101745442D01*
X94881549Y-101782500D01*
X95118451Y-101782500D01*
X95352422Y-101745442D01*
X95577724Y-101672236D01*
X95788792Y-101564691D01*
X95872685Y-101503738D01*
X95872686Y-101503738D01*
X95133492Y-100764545D01*
X95194923Y-100748085D01*
X95310078Y-100681601D01*
X95404101Y-100587578D01*
X95470585Y-100472423D01*
X95487045Y-100410993D01*
X96226238Y-101150186D01*
X96226238Y-101150185D01*
X96287191Y-101066292D01*
X96394736Y-100855224D01*
X96467942Y-100629922D01*
X96505000Y-100395951D01*
X96505000Y-100159048D01*
X96467942Y-99925077D01*
X96394736Y-99699775D01*
X96287189Y-99488703D01*
X96226239Y-99404813D01*
X96226238Y-99404812D01*
X95487045Y-100144006D01*
X95470585Y-100082577D01*
X95404101Y-99967422D01*
X95310078Y-99873399D01*
X95194923Y-99806915D01*
X95133491Y-99790454D01*
X95872685Y-99051261D01*
X95872685Y-99051260D01*
X95788790Y-98990307D01*
X95734736Y-98962765D01*
X98049501Y-98962765D01*
X98049501Y-99192234D01*
X98079450Y-99419728D01*
X98079451Y-99419733D01*
X98079452Y-99419739D01*
X98124727Y-99588709D01*
X98138842Y-99641387D01*
X98226651Y-99853379D01*
X98226656Y-99853388D01*
X98341390Y-100052112D01*
X98341392Y-100052115D01*
X98341396Y-100052121D01*
X98481078Y-100234159D01*
X98481084Y-100234166D01*
X98643333Y-100396415D01*
X98643340Y-100396421D01*
X98825378Y-100536103D01*
X98825382Y-100536105D01*
X98825388Y-100536110D01*
X99024112Y-100650844D01*
X99097952Y-100681429D01*
X99152355Y-100725269D01*
X99174421Y-100791562D01*
X99174500Y-100795990D01*
X99174500Y-103975500D01*
X99154815Y-104042539D01*
X99102011Y-104088294D01*
X99050500Y-104099500D01*
X98557129Y-104099500D01*
X98557123Y-104099501D01*
X98497516Y-104105908D01*
X98362671Y-104156202D01*
X98362664Y-104156206D01*
X98247455Y-104242452D01*
X98247452Y-104242455D01*
X98161206Y-104357664D01*
X98161202Y-104357671D01*
X98110908Y-104492517D01*
X98104501Y-104552116D01*
X98104500Y-104552135D01*
X98104500Y-106447870D01*
X98104501Y-106447876D01*
X98110908Y-106507483D01*
X98161202Y-106642328D01*
X98161206Y-106642335D01*
X98247452Y-106757544D01*
X98247455Y-106757547D01*
X98362664Y-106843793D01*
X98362671Y-106843797D01*
X98497517Y-106894091D01*
X98497516Y-106894091D01*
X98504444Y-106894835D01*
X98557127Y-106900500D01*
X100452872Y-106900499D01*
X100512483Y-106894091D01*
X100647331Y-106843796D01*
X100762546Y-106757546D01*
X100848796Y-106642331D01*
X100876429Y-106568243D01*
X100878601Y-106562420D01*
X100920471Y-106506486D01*
X100985936Y-106482068D01*
X101054209Y-106496919D01*
X101082464Y-106518071D01*
X101132636Y-106568243D01*
X101132641Y-106568247D01*
X101193258Y-106612287D01*
X101310978Y-106697815D01*
X101439375Y-106763237D01*
X101507393Y-106797895D01*
X101507396Y-106797896D01*
X101612221Y-106831955D01*
X101717049Y-106866015D01*
X101934778Y-106900500D01*
X101934779Y-106900500D01*
X102155221Y-106900500D01*
X102155222Y-106900500D01*
X102372951Y-106866015D01*
X102582606Y-106797895D01*
X102779022Y-106697815D01*
X102957365Y-106568242D01*
X103113242Y-106412365D01*
X103242815Y-106234022D01*
X103263612Y-106193204D01*
X103311586Y-106142409D01*
X103374097Y-106125500D01*
X105288885Y-106125500D01*
X105355924Y-106145185D01*
X105388606Y-106178571D01*
X105389849Y-106177669D01*
X105513028Y-106347213D01*
X105657786Y-106491971D01*
X105812749Y-106604556D01*
X105823390Y-106612287D01*
X105939607Y-106671503D01*
X106005776Y-106705218D01*
X106005778Y-106705218D01*
X106005781Y-106705220D01*
X106110137Y-106739127D01*
X106200465Y-106768477D01*
X106301557Y-106784488D01*
X106402648Y-106800500D01*
X106402649Y-106800500D01*
X106607351Y-106800500D01*
X106607352Y-106800500D01*
X106809534Y-106768477D01*
X107004219Y-106705220D01*
X107186610Y-106612287D01*
X107298646Y-106530889D01*
X107352213Y-106491971D01*
X107352215Y-106491968D01*
X107352219Y-106491966D01*
X107496966Y-106347219D01*
X107496968Y-106347215D01*
X107496971Y-106347213D01*
X107617284Y-106181614D01*
X107617285Y-106181613D01*
X107617287Y-106181610D01*
X107664516Y-106088917D01*
X107712489Y-106038123D01*
X107780310Y-106021328D01*
X107846445Y-106043865D01*
X107885483Y-106088917D01*
X107912739Y-106142409D01*
X107932715Y-106181614D01*
X108053028Y-106347213D01*
X108197786Y-106491971D01*
X108352749Y-106604556D01*
X108363390Y-106612287D01*
X108479607Y-106671503D01*
X108545776Y-106705218D01*
X108545778Y-106705218D01*
X108545781Y-106705220D01*
X108650137Y-106739127D01*
X108740465Y-106768477D01*
X108841557Y-106784488D01*
X108942648Y-106800500D01*
X108942649Y-106800500D01*
X109147351Y-106800500D01*
X109147352Y-106800500D01*
X109349534Y-106768477D01*
X109544219Y-106705220D01*
X109726610Y-106612287D01*
X109838646Y-106530889D01*
X109892213Y-106491971D01*
X109892215Y-106491968D01*
X109892219Y-106491966D01*
X110036966Y-106347219D01*
X110036968Y-106347215D01*
X110036971Y-106347213D01*
X110089732Y-106274590D01*
X110157287Y-106181610D01*
X110250220Y-105999219D01*
X110313477Y-105804534D01*
X110345500Y-105602352D01*
X110345500Y-105397648D01*
X110313477Y-105195465D01*
X110250218Y-105000776D01*
X110204515Y-104911080D01*
X110157287Y-104818390D01*
X110119204Y-104765973D01*
X110036971Y-104652786D01*
X109936320Y-104552135D01*
X112599500Y-104552135D01*
X112599500Y-106447870D01*
X112599501Y-106447876D01*
X112605908Y-106507483D01*
X112656202Y-106642328D01*
X112656206Y-106642335D01*
X112742452Y-106757544D01*
X112742455Y-106757547D01*
X112857664Y-106843793D01*
X112857671Y-106843797D01*
X112992517Y-106894091D01*
X112992516Y-106894091D01*
X112999444Y-106894835D01*
X113052127Y-106900500D01*
X114947872Y-106900499D01*
X115007483Y-106894091D01*
X115142331Y-106843796D01*
X115257546Y-106757546D01*
X115343796Y-106642331D01*
X115371429Y-106568243D01*
X115373601Y-106562420D01*
X115415471Y-106506486D01*
X115480936Y-106482068D01*
X115549209Y-106496919D01*
X115577464Y-106518071D01*
X115627636Y-106568243D01*
X115627641Y-106568247D01*
X115688258Y-106612287D01*
X115805978Y-106697815D01*
X115934375Y-106763237D01*
X116002393Y-106797895D01*
X116002396Y-106797896D01*
X116107221Y-106831955D01*
X116212049Y-106866015D01*
X116429778Y-106900500D01*
X116429779Y-106900500D01*
X116650221Y-106900500D01*
X116650222Y-106900500D01*
X116867951Y-106866015D01*
X117077606Y-106797895D01*
X117274022Y-106697815D01*
X117452365Y-106568242D01*
X117608242Y-106412365D01*
X117737815Y-106234022D01*
X117758612Y-106193204D01*
X117806586Y-106142409D01*
X117869097Y-106125500D01*
X118788885Y-106125500D01*
X118855924Y-106145185D01*
X118888606Y-106178571D01*
X118889849Y-106177669D01*
X119013028Y-106347213D01*
X119157786Y-106491971D01*
X119312749Y-106604556D01*
X119323390Y-106612287D01*
X119439607Y-106671503D01*
X119505776Y-106705218D01*
X119505778Y-106705218D01*
X119505781Y-106705220D01*
X119610137Y-106739127D01*
X119700465Y-106768477D01*
X119801557Y-106784488D01*
X119902648Y-106800500D01*
X119902649Y-106800500D01*
X120107351Y-106800500D01*
X120107352Y-106800500D01*
X120309534Y-106768477D01*
X120504219Y-106705220D01*
X120686610Y-106612287D01*
X120798646Y-106530889D01*
X120852213Y-106491971D01*
X120852215Y-106491968D01*
X120852219Y-106491966D01*
X120996966Y-106347219D01*
X120996968Y-106347215D01*
X120996971Y-106347213D01*
X121117284Y-106181614D01*
X121117285Y-106181613D01*
X121117287Y-106181610D01*
X121164516Y-106088917D01*
X121212489Y-106038123D01*
X121280310Y-106021328D01*
X121346445Y-106043865D01*
X121385483Y-106088917D01*
X121412739Y-106142409D01*
X121432715Y-106181614D01*
X121553028Y-106347213D01*
X121697786Y-106491971D01*
X121852749Y-106604556D01*
X121863390Y-106612287D01*
X121979607Y-106671503D01*
X122045776Y-106705218D01*
X122045778Y-106705218D01*
X122045781Y-106705220D01*
X122150137Y-106739127D01*
X122240465Y-106768477D01*
X122341557Y-106784488D01*
X122442648Y-106800500D01*
X122442649Y-106800500D01*
X122647351Y-106800500D01*
X122647352Y-106800500D01*
X122849534Y-106768477D01*
X123044219Y-106705220D01*
X123226610Y-106612287D01*
X123338646Y-106530889D01*
X123392213Y-106491971D01*
X123392215Y-106491968D01*
X123392219Y-106491966D01*
X123536966Y-106347219D01*
X123536968Y-106347215D01*
X123536971Y-106347213D01*
X123589732Y-106274590D01*
X123657287Y-106181610D01*
X123750220Y-105999219D01*
X123813477Y-105804534D01*
X123845500Y-105602352D01*
X123845500Y-105397648D01*
X123813477Y-105195465D01*
X123750218Y-105000776D01*
X123704515Y-104911080D01*
X123657287Y-104818390D01*
X123619204Y-104765973D01*
X123536971Y-104652786D01*
X123436320Y-104552135D01*
X126604500Y-104552135D01*
X126604500Y-106447870D01*
X126604501Y-106447876D01*
X126610908Y-106507483D01*
X126661202Y-106642328D01*
X126661206Y-106642335D01*
X126747452Y-106757544D01*
X126747455Y-106757547D01*
X126862664Y-106843793D01*
X126862671Y-106843797D01*
X126997517Y-106894091D01*
X126997516Y-106894091D01*
X127004444Y-106894835D01*
X127057127Y-106900500D01*
X128952872Y-106900499D01*
X129012483Y-106894091D01*
X129147331Y-106843796D01*
X129262546Y-106757546D01*
X129348796Y-106642331D01*
X129376429Y-106568243D01*
X129378601Y-106562420D01*
X129420471Y-106506486D01*
X129485936Y-106482068D01*
X129554209Y-106496919D01*
X129582464Y-106518071D01*
X129632636Y-106568243D01*
X129632641Y-106568247D01*
X129693258Y-106612287D01*
X129810978Y-106697815D01*
X129939375Y-106763237D01*
X130007393Y-106797895D01*
X130007396Y-106797896D01*
X130112221Y-106831955D01*
X130217049Y-106866015D01*
X130434778Y-106900500D01*
X130434779Y-106900500D01*
X130655221Y-106900500D01*
X130655222Y-106900500D01*
X130872951Y-106866015D01*
X131082606Y-106797895D01*
X131279022Y-106697815D01*
X131457365Y-106568242D01*
X131613242Y-106412365D01*
X131742815Y-106234022D01*
X131763612Y-106193204D01*
X131811586Y-106142409D01*
X131874097Y-106125500D01*
X133238885Y-106125500D01*
X133305924Y-106145185D01*
X133338606Y-106178571D01*
X133339849Y-106177669D01*
X133463028Y-106347213D01*
X133607786Y-106491971D01*
X133762749Y-106604556D01*
X133773390Y-106612287D01*
X133889607Y-106671503D01*
X133955776Y-106705218D01*
X133955778Y-106705218D01*
X133955781Y-106705220D01*
X134060137Y-106739127D01*
X134150465Y-106768477D01*
X134251557Y-106784488D01*
X134352648Y-106800500D01*
X134352649Y-106800500D01*
X134557351Y-106800500D01*
X134557352Y-106800500D01*
X134759534Y-106768477D01*
X134954219Y-106705220D01*
X135136610Y-106612287D01*
X135248646Y-106530889D01*
X135302213Y-106491971D01*
X135302215Y-106491968D01*
X135302219Y-106491966D01*
X135446966Y-106347219D01*
X135446968Y-106347215D01*
X135446971Y-106347213D01*
X135567284Y-106181614D01*
X135567285Y-106181613D01*
X135567287Y-106181610D01*
X135614516Y-106088917D01*
X135662489Y-106038123D01*
X135730310Y-106021328D01*
X135796445Y-106043865D01*
X135835483Y-106088917D01*
X135862739Y-106142409D01*
X135882715Y-106181614D01*
X136003028Y-106347213D01*
X136147786Y-106491971D01*
X136302749Y-106604556D01*
X136313390Y-106612287D01*
X136429607Y-106671503D01*
X136495776Y-106705218D01*
X136495778Y-106705218D01*
X136495781Y-106705220D01*
X136600137Y-106739127D01*
X136690465Y-106768477D01*
X136791557Y-106784488D01*
X136892648Y-106800500D01*
X136892649Y-106800500D01*
X137097351Y-106800500D01*
X137097352Y-106800500D01*
X137299534Y-106768477D01*
X137494219Y-106705220D01*
X137631527Y-106635258D01*
X142617000Y-106635258D01*
X142617000Y-106864741D01*
X142641946Y-107054215D01*
X142646952Y-107092238D01*
X142646953Y-107092240D01*
X142706342Y-107313887D01*
X142794150Y-107525876D01*
X142794157Y-107525890D01*
X142908892Y-107724617D01*
X143048581Y-107906661D01*
X143048589Y-107906670D01*
X143210830Y-108068911D01*
X143210838Y-108068918D01*
X143392882Y-108208607D01*
X143392885Y-108208608D01*
X143392888Y-108208611D01*
X143591612Y-108323344D01*
X143591617Y-108323346D01*
X143591623Y-108323349D01*
X143682980Y-108361190D01*
X143803613Y-108411158D01*
X144025262Y-108470548D01*
X144252766Y-108500500D01*
X144252773Y-108500500D01*
X144482227Y-108500500D01*
X144482234Y-108500500D01*
X144709738Y-108470548D01*
X144931387Y-108411158D01*
X145143388Y-108323344D01*
X145342112Y-108208611D01*
X145524161Y-108068919D01*
X145524165Y-108068914D01*
X145524170Y-108068911D01*
X145686411Y-107906670D01*
X145686414Y-107906665D01*
X145686419Y-107906661D01*
X145826111Y-107724612D01*
X145940844Y-107525888D01*
X146028658Y-107313887D01*
X146088048Y-107092238D01*
X146118000Y-106864734D01*
X146118000Y-106635266D01*
X146088048Y-106407762D01*
X146028658Y-106186113D01*
X145960402Y-106021328D01*
X145940849Y-105974123D01*
X145940846Y-105974117D01*
X145940844Y-105974112D01*
X145826111Y-105775388D01*
X145826108Y-105775385D01*
X145826107Y-105775382D01*
X145686418Y-105593338D01*
X145686411Y-105593330D01*
X145524170Y-105431089D01*
X145524161Y-105431081D01*
X145342117Y-105291392D01*
X145143390Y-105176657D01*
X145143376Y-105176650D01*
X144931387Y-105088842D01*
X144709738Y-105029452D01*
X144671715Y-105024446D01*
X144482241Y-104999500D01*
X144482234Y-104999500D01*
X144252766Y-104999500D01*
X144252758Y-104999500D01*
X144036215Y-105028009D01*
X144025262Y-105029452D01*
X143931576Y-105054554D01*
X143803612Y-105088842D01*
X143591623Y-105176650D01*
X143591609Y-105176657D01*
X143392882Y-105291392D01*
X143210838Y-105431081D01*
X143048581Y-105593338D01*
X142908892Y-105775382D01*
X142794157Y-105974109D01*
X142794150Y-105974123D01*
X142706342Y-106186112D01*
X142646953Y-106407759D01*
X142646951Y-106407770D01*
X142617000Y-106635258D01*
X137631527Y-106635258D01*
X137676610Y-106612287D01*
X137686394Y-106605178D01*
X137788647Y-106530889D01*
X137842212Y-106491971D01*
X137842210Y-106491971D01*
X137842219Y-106491966D01*
X137986966Y-106347219D01*
X137986968Y-106347215D01*
X137986971Y-106347213D01*
X138039732Y-106274590D01*
X138107287Y-106181610D01*
X138200220Y-105999219D01*
X138263477Y-105804534D01*
X138295500Y-105602352D01*
X138295500Y-105397648D01*
X138263477Y-105195465D01*
X138200218Y-105000776D01*
X138154515Y-104911080D01*
X138107287Y-104818390D01*
X138069204Y-104765973D01*
X137986971Y-104652786D01*
X137842213Y-104508028D01*
X137676613Y-104387715D01*
X137676612Y-104387714D01*
X137676610Y-104387713D01*
X137617636Y-104357664D01*
X137494223Y-104294781D01*
X137299534Y-104231522D01*
X137113799Y-104202105D01*
X137097352Y-104199500D01*
X136892648Y-104199500D01*
X136876201Y-104202105D01*
X136690465Y-104231522D01*
X136495776Y-104294781D01*
X136313386Y-104387715D01*
X136147786Y-104508028D01*
X136003028Y-104652786D01*
X135882715Y-104818386D01*
X135835485Y-104911080D01*
X135787510Y-104961876D01*
X135719689Y-104978671D01*
X135653554Y-104956134D01*
X135614515Y-104911080D01*
X135613883Y-104909840D01*
X135567287Y-104818390D01*
X135529204Y-104765973D01*
X135446971Y-104652786D01*
X135302213Y-104508028D01*
X135136613Y-104387715D01*
X135136612Y-104387714D01*
X135136610Y-104387713D01*
X135077636Y-104357664D01*
X134954223Y-104294781D01*
X134759534Y-104231522D01*
X134573799Y-104202105D01*
X134557352Y-104199500D01*
X134352648Y-104199500D01*
X134336201Y-104202105D01*
X134150465Y-104231522D01*
X133955776Y-104294781D01*
X133773386Y-104387715D01*
X133607786Y-104508028D01*
X133463028Y-104652786D01*
X133339849Y-104822331D01*
X133338176Y-104821115D01*
X133292792Y-104862169D01*
X133238885Y-104874500D01*
X131874097Y-104874500D01*
X131807058Y-104854815D01*
X131763612Y-104806795D01*
X131742812Y-104765973D01*
X131613247Y-104587641D01*
X131613243Y-104587636D01*
X131457363Y-104431756D01*
X131457358Y-104431752D01*
X131279025Y-104302187D01*
X131279024Y-104302186D01*
X131279022Y-104302185D01*
X131161791Y-104242452D01*
X131082606Y-104202104D01*
X131082603Y-104202103D01*
X130872952Y-104133985D01*
X130764086Y-104116742D01*
X130655222Y-104099500D01*
X130434778Y-104099500D01*
X130362201Y-104110995D01*
X130217047Y-104133985D01*
X130007396Y-104202103D01*
X130007393Y-104202104D01*
X129810974Y-104302187D01*
X129632641Y-104431752D01*
X129632636Y-104431756D01*
X129582463Y-104481929D01*
X129521140Y-104515413D01*
X129451448Y-104510428D01*
X129395515Y-104468557D01*
X129378601Y-104437580D01*
X129348797Y-104357671D01*
X129348793Y-104357664D01*
X129262547Y-104242455D01*
X129262544Y-104242452D01*
X129147335Y-104156206D01*
X129147328Y-104156202D01*
X129012482Y-104105908D01*
X129012483Y-104105908D01*
X128952883Y-104099501D01*
X128952881Y-104099500D01*
X128952873Y-104099500D01*
X128952865Y-104099500D01*
X128754500Y-104099500D01*
X128687461Y-104079815D01*
X128641706Y-104027011D01*
X128630500Y-103975500D01*
X128630500Y-101282952D01*
X128650185Y-101215913D01*
X128666819Y-101195271D01*
X128795798Y-101066292D01*
X129027140Y-100834949D01*
X129088461Y-100801466D01*
X129158152Y-100806450D01*
X129162227Y-100808053D01*
X129236113Y-100838658D01*
X129457761Y-100898048D01*
X129618435Y-100919200D01*
X129685265Y-100927999D01*
X129685266Y-100927999D01*
X129914735Y-100927999D01*
X129966389Y-100921198D01*
X130142239Y-100898048D01*
X130363887Y-100838658D01*
X130530538Y-100769628D01*
X130575879Y-100750848D01*
X130575880Y-100750846D01*
X130575888Y-100750844D01*
X130774612Y-100636110D01*
X130956661Y-100496420D01*
X131109096Y-100343985D01*
X131194033Y-100259048D01*
X138495000Y-100259048D01*
X138495000Y-100495951D01*
X138532057Y-100729922D01*
X138605263Y-100955224D01*
X138712810Y-101166295D01*
X138773759Y-101250185D01*
X138773761Y-101250185D01*
X139512954Y-100510992D01*
X139529415Y-100572423D01*
X139595899Y-100687578D01*
X139689922Y-100781601D01*
X139805077Y-100848085D01*
X139866507Y-100864545D01*
X139127312Y-101603738D01*
X139127313Y-101603739D01*
X139211203Y-101664689D01*
X139422275Y-101772236D01*
X139647577Y-101845442D01*
X139881549Y-101882500D01*
X140118451Y-101882500D01*
X140352422Y-101845442D01*
X140577724Y-101772236D01*
X140788792Y-101664691D01*
X140872685Y-101603738D01*
X140872686Y-101603738D01*
X140133492Y-100864545D01*
X140194923Y-100848085D01*
X140310078Y-100781601D01*
X140404101Y-100687578D01*
X140470585Y-100572423D01*
X140487045Y-100510993D01*
X141226238Y-101250186D01*
X141226238Y-101250185D01*
X141287191Y-101166292D01*
X141394736Y-100955224D01*
X141467942Y-100729922D01*
X141505000Y-100495951D01*
X141505000Y-100259048D01*
X141467942Y-100025077D01*
X141394736Y-99799775D01*
X141287189Y-99588703D01*
X141226239Y-99504813D01*
X141226238Y-99504812D01*
X140487045Y-100244006D01*
X140470585Y-100182577D01*
X140404101Y-100067422D01*
X140310078Y-99973399D01*
X140194923Y-99906915D01*
X140133491Y-99890454D01*
X140872685Y-99151261D01*
X140872685Y-99151259D01*
X140788795Y-99090310D01*
X140577724Y-98982763D01*
X140352422Y-98909557D01*
X140118451Y-98872500D01*
X139881549Y-98872500D01*
X139647577Y-98909557D01*
X139422275Y-98982763D01*
X139211209Y-99090307D01*
X139127313Y-99151260D01*
X139866508Y-99890454D01*
X139805077Y-99906915D01*
X139689922Y-99973399D01*
X139595899Y-100067422D01*
X139529415Y-100182577D01*
X139512954Y-100244007D01*
X138773760Y-99504813D01*
X138712807Y-99588709D01*
X138605263Y-99799775D01*
X138532057Y-100025077D01*
X138495000Y-100259048D01*
X131194033Y-100259048D01*
X131286581Y-100166501D01*
X132342244Y-99110838D01*
X136818914Y-94634166D01*
X136818913Y-94634166D01*
X136818919Y-94634161D01*
X136958610Y-94452113D01*
X137073344Y-94253388D01*
X137161158Y-94041387D01*
X137220548Y-93819739D01*
X137220548Y-93819734D01*
X137220550Y-93819729D01*
X137224032Y-93793275D01*
X137224032Y-93793271D01*
X137250500Y-93592234D01*
X137250500Y-89385266D01*
X137220548Y-89157762D01*
X137161158Y-88936113D01*
X137137381Y-88878711D01*
X143649500Y-88878711D01*
X143649500Y-89121288D01*
X143681161Y-89361785D01*
X143743947Y-89596104D01*
X143812981Y-89762766D01*
X143836776Y-89820212D01*
X143958064Y-90030289D01*
X143958066Y-90030292D01*
X143958067Y-90030293D01*
X144105733Y-90222736D01*
X144105739Y-90222743D01*
X144277256Y-90394260D01*
X144277263Y-90394266D01*
X144390321Y-90481018D01*
X144469711Y-90541936D01*
X144679788Y-90663224D01*
X144903900Y-90756054D01*
X145138211Y-90818838D01*
X145318586Y-90842584D01*
X145378711Y-90850500D01*
X145378712Y-90850500D01*
X145621289Y-90850500D01*
X145669388Y-90844167D01*
X145861789Y-90818838D01*
X146096100Y-90756054D01*
X146320212Y-90663224D01*
X146530289Y-90541936D01*
X146722738Y-90394265D01*
X146894265Y-90222738D01*
X147041936Y-90030289D01*
X147163224Y-89820212D01*
X147256054Y-89596100D01*
X147318838Y-89361789D01*
X147350500Y-89121288D01*
X147350500Y-88878712D01*
X147318838Y-88638211D01*
X147256054Y-88403900D01*
X147163224Y-88179788D01*
X147041936Y-87969711D01*
X146909566Y-87797203D01*
X146894266Y-87777263D01*
X146894260Y-87777256D01*
X146722743Y-87605739D01*
X146722736Y-87605733D01*
X146530293Y-87458067D01*
X146530292Y-87458066D01*
X146530289Y-87458064D01*
X146320212Y-87336776D01*
X146320205Y-87336773D01*
X146096104Y-87243947D01*
X145861785Y-87181161D01*
X145621289Y-87149500D01*
X145621288Y-87149500D01*
X145378712Y-87149500D01*
X145378711Y-87149500D01*
X145138214Y-87181161D01*
X144903895Y-87243947D01*
X144679794Y-87336773D01*
X144679785Y-87336777D01*
X144469706Y-87458067D01*
X144277263Y-87605733D01*
X144277256Y-87605739D01*
X144105739Y-87777256D01*
X144105733Y-87777263D01*
X143958067Y-87969706D01*
X143836777Y-88179785D01*
X143836773Y-88179794D01*
X143743947Y-88403895D01*
X143681161Y-88638214D01*
X143649500Y-88878711D01*
X137137381Y-88878711D01*
X137073344Y-88724112D01*
X137057112Y-88695997D01*
X137040500Y-88633998D01*
X137040500Y-87899995D01*
X137040499Y-87899982D01*
X137029999Y-87797203D01*
X137029999Y-87797202D01*
X136974814Y-87630665D01*
X136882712Y-87481344D01*
X136758656Y-87357288D01*
X136609335Y-87265186D01*
X136442798Y-87210001D01*
X136442796Y-87210000D01*
X136340017Y-87199500D01*
X136340010Y-87199500D01*
X134659990Y-87199500D01*
X134659982Y-87199500D01*
X134557203Y-87210000D01*
X134557202Y-87210001D01*
X134474669Y-87237349D01*
X134390667Y-87265185D01*
X134390662Y-87265187D01*
X134241342Y-87357289D01*
X134117289Y-87481342D01*
X134025187Y-87630662D01*
X134025186Y-87630665D01*
X133970001Y-87797202D01*
X133970001Y-87797203D01*
X133970000Y-87797203D01*
X133959500Y-87899982D01*
X133959500Y-88633998D01*
X133942888Y-88695997D01*
X133926655Y-88724113D01*
X133926650Y-88724123D01*
X133838842Y-88936112D01*
X133779453Y-89157759D01*
X133779451Y-89157770D01*
X133749500Y-89385258D01*
X133749500Y-92701056D01*
X133729815Y-92768095D01*
X133713181Y-92788737D01*
X128481084Y-98020833D01*
X128481078Y-98020840D01*
X128341396Y-98202878D01*
X128341390Y-98202888D01*
X128226656Y-98401611D01*
X128226651Y-98401620D01*
X128138842Y-98613612D01*
X128079453Y-98835258D01*
X128079450Y-98835271D01*
X128049501Y-99062765D01*
X128049501Y-99292234D01*
X128079450Y-99519728D01*
X128079451Y-99519733D01*
X128079452Y-99519739D01*
X128127692Y-99699775D01*
X128138842Y-99741386D01*
X128138845Y-99741396D01*
X128169427Y-99815226D01*
X128176896Y-99884695D01*
X128145621Y-99947175D01*
X128142547Y-99950360D01*
X127606269Y-100486640D01*
X127519144Y-100573764D01*
X127519138Y-100573772D01*
X127450690Y-100676208D01*
X127450688Y-100676213D01*
X127419776Y-100750843D01*
X127419776Y-100750844D01*
X127403538Y-100790045D01*
X127403535Y-100790055D01*
X127379500Y-100910889D01*
X127379500Y-103975500D01*
X127359815Y-104042539D01*
X127307011Y-104088294D01*
X127255501Y-104099500D01*
X127057130Y-104099500D01*
X127057123Y-104099501D01*
X126997516Y-104105908D01*
X126862671Y-104156202D01*
X126862664Y-104156206D01*
X126747455Y-104242452D01*
X126747452Y-104242455D01*
X126661206Y-104357664D01*
X126661202Y-104357671D01*
X126610908Y-104492517D01*
X126604501Y-104552116D01*
X126604500Y-104552135D01*
X123436320Y-104552135D01*
X123392213Y-104508028D01*
X123226613Y-104387715D01*
X123226612Y-104387714D01*
X123226610Y-104387713D01*
X123167636Y-104357664D01*
X123044223Y-104294781D01*
X122849534Y-104231522D01*
X122663799Y-104202105D01*
X122647352Y-104199500D01*
X122442648Y-104199500D01*
X122426201Y-104202105D01*
X122240465Y-104231522D01*
X122045776Y-104294781D01*
X121863386Y-104387715D01*
X121697786Y-104508028D01*
X121553028Y-104652786D01*
X121432715Y-104818386D01*
X121385485Y-104911080D01*
X121337510Y-104961876D01*
X121269689Y-104978671D01*
X121203554Y-104956134D01*
X121164515Y-104911080D01*
X121163883Y-104909840D01*
X121117287Y-104818390D01*
X121079204Y-104765973D01*
X120996971Y-104652786D01*
X120852213Y-104508028D01*
X120686613Y-104387715D01*
X120686612Y-104387714D01*
X120686610Y-104387713D01*
X120627636Y-104357664D01*
X120504223Y-104294781D01*
X120309534Y-104231522D01*
X120123799Y-104202105D01*
X120107352Y-104199500D01*
X119902648Y-104199500D01*
X119886201Y-104202105D01*
X119700465Y-104231522D01*
X119505776Y-104294781D01*
X119323386Y-104387715D01*
X119157786Y-104508028D01*
X119013028Y-104652786D01*
X118889849Y-104822331D01*
X118888176Y-104821115D01*
X118842792Y-104862169D01*
X118788885Y-104874500D01*
X117869097Y-104874500D01*
X117802058Y-104854815D01*
X117758612Y-104806795D01*
X117737812Y-104765973D01*
X117608247Y-104587641D01*
X117608243Y-104587636D01*
X117452363Y-104431756D01*
X117452358Y-104431752D01*
X117274025Y-104302187D01*
X117274024Y-104302186D01*
X117274022Y-104302185D01*
X117156791Y-104242452D01*
X117077606Y-104202104D01*
X117077603Y-104202103D01*
X116867952Y-104133985D01*
X116759086Y-104116742D01*
X116650222Y-104099500D01*
X116429778Y-104099500D01*
X116357201Y-104110995D01*
X116212047Y-104133985D01*
X116002396Y-104202103D01*
X116002393Y-104202104D01*
X115805974Y-104302187D01*
X115623693Y-104434621D01*
X115622559Y-104433060D01*
X115566263Y-104458282D01*
X115497178Y-104447841D01*
X115444705Y-104401707D01*
X115425500Y-104335420D01*
X115425500Y-100795990D01*
X115445185Y-100728951D01*
X115497989Y-100683196D01*
X115502013Y-100681443D01*
X115575888Y-100650844D01*
X115774612Y-100536110D01*
X115956661Y-100396420D01*
X116118922Y-100234159D01*
X116194033Y-100159048D01*
X123495000Y-100159048D01*
X123495000Y-100395951D01*
X123532057Y-100629922D01*
X123605263Y-100855224D01*
X123712810Y-101066295D01*
X123773759Y-101150185D01*
X123773761Y-101150185D01*
X124512954Y-100410992D01*
X124529415Y-100472423D01*
X124595899Y-100587578D01*
X124689922Y-100681601D01*
X124805077Y-100748085D01*
X124866507Y-100764545D01*
X124127312Y-101503738D01*
X124127313Y-101503739D01*
X124211203Y-101564689D01*
X124422275Y-101672236D01*
X124647577Y-101745442D01*
X124881549Y-101782500D01*
X125118451Y-101782500D01*
X125352422Y-101745442D01*
X125577724Y-101672236D01*
X125788792Y-101564691D01*
X125872685Y-101503738D01*
X125872686Y-101503738D01*
X125133492Y-100764545D01*
X125194923Y-100748085D01*
X125310078Y-100681601D01*
X125404101Y-100587578D01*
X125470585Y-100472423D01*
X125487045Y-100410993D01*
X126226238Y-101150186D01*
X126226238Y-101150185D01*
X126287191Y-101066292D01*
X126394736Y-100855224D01*
X126467942Y-100629922D01*
X126505000Y-100395951D01*
X126505000Y-100159048D01*
X126467942Y-99925077D01*
X126394736Y-99699775D01*
X126287189Y-99488703D01*
X126226239Y-99404813D01*
X126226238Y-99404812D01*
X125487045Y-100144006D01*
X125470585Y-100082577D01*
X125404101Y-99967422D01*
X125310078Y-99873399D01*
X125194923Y-99806915D01*
X125133491Y-99790454D01*
X125872685Y-99051261D01*
X125872685Y-99051259D01*
X125788795Y-98990310D01*
X125577724Y-98882763D01*
X125352422Y-98809557D01*
X125118451Y-98772500D01*
X124881549Y-98772500D01*
X124647577Y-98809557D01*
X124422275Y-98882763D01*
X124211209Y-98990307D01*
X124127313Y-99051260D01*
X124866508Y-99790454D01*
X124805077Y-99806915D01*
X124689922Y-99873399D01*
X124595899Y-99967422D01*
X124529415Y-100082577D01*
X124512954Y-100144007D01*
X123773760Y-99404813D01*
X123712807Y-99488709D01*
X123605263Y-99699775D01*
X123532057Y-99925077D01*
X123495000Y-100159048D01*
X116194033Y-100159048D01*
X116286581Y-100066501D01*
X117342244Y-99010838D01*
X122818913Y-93534168D01*
X122818920Y-93534161D01*
X122888765Y-93443136D01*
X122958611Y-93352112D01*
X123015977Y-93252750D01*
X123073345Y-93153388D01*
X123135438Y-93003480D01*
X123161158Y-92941387D01*
X123171519Y-92902718D01*
X123220549Y-92719739D01*
X123236448Y-92598960D01*
X123250500Y-92492234D01*
X123250500Y-89385266D01*
X123220548Y-89157762D01*
X123161158Y-88936113D01*
X123073344Y-88724112D01*
X123057112Y-88695997D01*
X123052961Y-88680508D01*
X123045523Y-88668933D01*
X123040500Y-88633998D01*
X123040500Y-88618754D01*
X128879500Y-88618754D01*
X128879500Y-90381245D01*
X128917432Y-90620736D01*
X128992360Y-90851344D01*
X129102448Y-91067401D01*
X129244966Y-91263562D01*
X129244970Y-91263567D01*
X129416432Y-91435029D01*
X129416437Y-91435033D01*
X129531537Y-91518657D01*
X129612602Y-91577554D01*
X129790298Y-91668095D01*
X129828655Y-91687639D01*
X129927450Y-91719739D01*
X130059265Y-91762568D01*
X130170186Y-91780136D01*
X130298755Y-91800500D01*
X130298760Y-91800500D01*
X130541245Y-91800500D01*
X130657347Y-91782110D01*
X130780735Y-91762568D01*
X131011347Y-91687638D01*
X131227398Y-91577554D01*
X131423569Y-91435028D01*
X131595028Y-91263569D01*
X131737554Y-91067398D01*
X131847638Y-90851347D01*
X131922568Y-90620735D01*
X131950974Y-90441386D01*
X131960500Y-90381245D01*
X131960500Y-88618754D01*
X131938432Y-88479431D01*
X131922568Y-88379265D01*
X131885103Y-88263959D01*
X131847639Y-88148655D01*
X131847638Y-88148653D01*
X131737554Y-87932602D01*
X131713854Y-87899982D01*
X131595033Y-87736437D01*
X131595029Y-87736432D01*
X131423567Y-87564970D01*
X131423562Y-87564966D01*
X131227401Y-87422448D01*
X131227400Y-87422447D01*
X131227398Y-87422446D01*
X131059262Y-87336776D01*
X131011344Y-87312360D01*
X130780736Y-87237432D01*
X130541245Y-87199500D01*
X130541240Y-87199500D01*
X130298760Y-87199500D01*
X130298755Y-87199500D01*
X130059263Y-87237432D01*
X129828655Y-87312360D01*
X129612598Y-87422448D01*
X129416437Y-87564966D01*
X129416432Y-87564970D01*
X129244970Y-87736432D01*
X129244966Y-87736437D01*
X129102448Y-87932598D01*
X128992360Y-88148655D01*
X128917432Y-88379263D01*
X128879500Y-88618754D01*
X123040500Y-88618754D01*
X123040500Y-87899995D01*
X123040499Y-87899982D01*
X123029999Y-87797203D01*
X123029999Y-87797202D01*
X122974814Y-87630665D01*
X122882712Y-87481344D01*
X122758656Y-87357288D01*
X122609335Y-87265186D01*
X122442798Y-87210001D01*
X122442796Y-87210000D01*
X122340017Y-87199500D01*
X122340010Y-87199500D01*
X120659990Y-87199500D01*
X120659982Y-87199500D01*
X120557203Y-87210000D01*
X120557202Y-87210001D01*
X120474669Y-87237349D01*
X120390667Y-87265185D01*
X120390662Y-87265187D01*
X120241342Y-87357289D01*
X120117289Y-87481342D01*
X120025187Y-87630662D01*
X120025186Y-87630665D01*
X119970001Y-87797202D01*
X119970001Y-87797203D01*
X119970000Y-87797203D01*
X119959500Y-87899982D01*
X119959500Y-88633998D01*
X119942888Y-88695997D01*
X119926655Y-88724113D01*
X119926650Y-88724123D01*
X119838842Y-88936112D01*
X119779453Y-89157759D01*
X119779451Y-89157770D01*
X119749500Y-89385258D01*
X119749500Y-91601056D01*
X119729815Y-91668095D01*
X119713181Y-91688737D01*
X113481084Y-97920833D01*
X113481078Y-97920840D01*
X113341396Y-98102878D01*
X113341390Y-98102888D01*
X113226656Y-98301611D01*
X113226651Y-98301620D01*
X113138842Y-98513612D01*
X113079453Y-98735258D01*
X113079450Y-98735271D01*
X113049501Y-98962765D01*
X113049501Y-99192234D01*
X113079450Y-99419728D01*
X113079451Y-99419733D01*
X113079452Y-99419739D01*
X113124727Y-99588709D01*
X113138842Y-99641387D01*
X113226651Y-99853379D01*
X113226656Y-99853388D01*
X113341390Y-100052112D01*
X113341392Y-100052115D01*
X113341396Y-100052121D01*
X113481078Y-100234159D01*
X113481084Y-100234166D01*
X113643333Y-100396415D01*
X113643340Y-100396421D01*
X113825378Y-100536103D01*
X113825382Y-100536105D01*
X113825388Y-100536110D01*
X114024112Y-100650844D01*
X114097952Y-100681429D01*
X114152355Y-100725269D01*
X114174421Y-100791562D01*
X114174500Y-100795990D01*
X114174500Y-103975500D01*
X114154815Y-104042539D01*
X114102011Y-104088294D01*
X114050500Y-104099500D01*
X113052129Y-104099500D01*
X113052123Y-104099501D01*
X112992516Y-104105908D01*
X112857671Y-104156202D01*
X112857664Y-104156206D01*
X112742455Y-104242452D01*
X112742452Y-104242455D01*
X112656206Y-104357664D01*
X112656202Y-104357671D01*
X112605908Y-104492517D01*
X112599501Y-104552116D01*
X112599500Y-104552135D01*
X109936320Y-104552135D01*
X109892213Y-104508028D01*
X109726613Y-104387715D01*
X109726612Y-104387714D01*
X109726610Y-104387713D01*
X109667636Y-104357664D01*
X109544223Y-104294781D01*
X109349534Y-104231522D01*
X109163799Y-104202105D01*
X109147352Y-104199500D01*
X108942648Y-104199500D01*
X108926201Y-104202105D01*
X108740465Y-104231522D01*
X108545776Y-104294781D01*
X108363386Y-104387715D01*
X108197786Y-104508028D01*
X108053028Y-104652786D01*
X107932715Y-104818386D01*
X107885485Y-104911080D01*
X107837510Y-104961876D01*
X107769689Y-104978671D01*
X107703554Y-104956134D01*
X107664515Y-104911080D01*
X107663883Y-104909840D01*
X107617287Y-104818390D01*
X107579204Y-104765973D01*
X107496971Y-104652786D01*
X107352213Y-104508028D01*
X107186613Y-104387715D01*
X107186612Y-104387714D01*
X107186610Y-104387713D01*
X107127636Y-104357664D01*
X107004223Y-104294781D01*
X106809534Y-104231522D01*
X106623799Y-104202105D01*
X106607352Y-104199500D01*
X106402648Y-104199500D01*
X106386201Y-104202105D01*
X106200465Y-104231522D01*
X106005776Y-104294781D01*
X105823386Y-104387715D01*
X105657786Y-104508028D01*
X105513028Y-104652786D01*
X105389849Y-104822331D01*
X105388176Y-104821115D01*
X105342792Y-104862169D01*
X105288885Y-104874500D01*
X103374097Y-104874500D01*
X103307058Y-104854815D01*
X103263612Y-104806795D01*
X103242812Y-104765973D01*
X103113247Y-104587641D01*
X103113243Y-104587636D01*
X102957363Y-104431756D01*
X102957358Y-104431752D01*
X102779025Y-104302187D01*
X102779024Y-104302186D01*
X102779022Y-104302185D01*
X102661791Y-104242452D01*
X102582606Y-104202104D01*
X102582603Y-104202103D01*
X102372952Y-104133985D01*
X102264086Y-104116742D01*
X102155222Y-104099500D01*
X101934778Y-104099500D01*
X101862201Y-104110995D01*
X101717047Y-104133985D01*
X101507396Y-104202103D01*
X101507393Y-104202104D01*
X101310974Y-104302187D01*
X101132641Y-104431752D01*
X101132636Y-104431756D01*
X101082463Y-104481929D01*
X101021140Y-104515413D01*
X100951448Y-104510428D01*
X100895515Y-104468557D01*
X100878601Y-104437580D01*
X100848797Y-104357671D01*
X100848793Y-104357664D01*
X100762547Y-104242455D01*
X100762544Y-104242452D01*
X100647335Y-104156206D01*
X100647328Y-104156202D01*
X100506167Y-104103553D01*
X100450233Y-104061682D01*
X100425816Y-103996218D01*
X100425500Y-103987371D01*
X100425500Y-100795990D01*
X100445185Y-100728951D01*
X100497989Y-100683196D01*
X100502013Y-100681443D01*
X100575888Y-100650844D01*
X100774612Y-100536110D01*
X100956661Y-100396420D01*
X101118922Y-100234159D01*
X101194033Y-100159048D01*
X108495000Y-100159048D01*
X108495000Y-100395951D01*
X108532057Y-100629922D01*
X108605263Y-100855224D01*
X108712810Y-101066295D01*
X108773759Y-101150185D01*
X108773761Y-101150185D01*
X109512954Y-100410992D01*
X109529415Y-100472423D01*
X109595899Y-100587578D01*
X109689922Y-100681601D01*
X109805077Y-100748085D01*
X109866507Y-100764545D01*
X109127312Y-101503738D01*
X109127313Y-101503739D01*
X109211203Y-101564689D01*
X109422275Y-101672236D01*
X109647577Y-101745442D01*
X109881549Y-101782500D01*
X110118451Y-101782500D01*
X110352422Y-101745442D01*
X110577724Y-101672236D01*
X110788792Y-101564691D01*
X110872685Y-101503738D01*
X110872686Y-101503738D01*
X110133492Y-100764545D01*
X110194923Y-100748085D01*
X110310078Y-100681601D01*
X110404101Y-100587578D01*
X110470585Y-100472423D01*
X110487045Y-100410993D01*
X111226238Y-101150186D01*
X111226238Y-101150185D01*
X111287191Y-101066292D01*
X111394736Y-100855224D01*
X111467942Y-100629922D01*
X111505000Y-100395951D01*
X111505000Y-100159048D01*
X111467942Y-99925077D01*
X111394736Y-99699775D01*
X111287189Y-99488703D01*
X111226239Y-99404813D01*
X111226238Y-99404812D01*
X110487045Y-100144006D01*
X110470585Y-100082577D01*
X110404101Y-99967422D01*
X110310078Y-99873399D01*
X110194923Y-99806915D01*
X110133491Y-99790454D01*
X110872685Y-99051261D01*
X110872685Y-99051259D01*
X110788795Y-98990310D01*
X110577724Y-98882763D01*
X110352422Y-98809557D01*
X110118451Y-98772500D01*
X109881549Y-98772500D01*
X109647577Y-98809557D01*
X109422275Y-98882763D01*
X109211209Y-98990307D01*
X109127313Y-99051260D01*
X109866508Y-99790454D01*
X109805077Y-99806915D01*
X109689922Y-99873399D01*
X109595899Y-99967422D01*
X109529415Y-100082577D01*
X109512954Y-100144007D01*
X108773760Y-99404813D01*
X108712807Y-99488709D01*
X108605263Y-99699775D01*
X108532057Y-99925077D01*
X108495000Y-100159048D01*
X101194033Y-100159048D01*
X101286581Y-100066501D01*
X102342244Y-99010838D01*
X108818914Y-92534167D01*
X108818919Y-92534162D01*
X108958610Y-92352113D01*
X109073344Y-92153388D01*
X109161158Y-91941387D01*
X109220548Y-91719739D01*
X109230689Y-91642712D01*
X109250500Y-91492234D01*
X109250500Y-89385266D01*
X109220548Y-89157762D01*
X109161158Y-88936113D01*
X109073344Y-88724112D01*
X109057112Y-88695997D01*
X109052961Y-88680508D01*
X109045523Y-88668933D01*
X109040500Y-88633998D01*
X109040500Y-88618754D01*
X114879500Y-88618754D01*
X114879500Y-90381245D01*
X114917432Y-90620736D01*
X114992360Y-90851344D01*
X115102448Y-91067401D01*
X115244966Y-91263562D01*
X115244970Y-91263567D01*
X115416432Y-91435029D01*
X115416437Y-91435033D01*
X115531537Y-91518657D01*
X115612602Y-91577554D01*
X115790298Y-91668095D01*
X115828655Y-91687639D01*
X115927450Y-91719739D01*
X116059265Y-91762568D01*
X116170186Y-91780136D01*
X116298755Y-91800500D01*
X116298760Y-91800500D01*
X116541245Y-91800500D01*
X116657347Y-91782110D01*
X116780735Y-91762568D01*
X117011347Y-91687638D01*
X117227398Y-91577554D01*
X117423569Y-91435028D01*
X117595028Y-91263569D01*
X117737554Y-91067398D01*
X117847638Y-90851347D01*
X117922568Y-90620735D01*
X117950974Y-90441386D01*
X117960500Y-90381245D01*
X117960500Y-88618754D01*
X117938432Y-88479431D01*
X117922568Y-88379265D01*
X117885103Y-88263959D01*
X117847639Y-88148655D01*
X117847638Y-88148653D01*
X117737554Y-87932602D01*
X117713854Y-87899982D01*
X117595033Y-87736437D01*
X117595029Y-87736432D01*
X117423567Y-87564970D01*
X117423562Y-87564966D01*
X117227401Y-87422448D01*
X117227400Y-87422447D01*
X117227398Y-87422446D01*
X117059262Y-87336776D01*
X117011344Y-87312360D01*
X116780736Y-87237432D01*
X116541245Y-87199500D01*
X116541240Y-87199500D01*
X116298760Y-87199500D01*
X116298755Y-87199500D01*
X116059263Y-87237432D01*
X115828655Y-87312360D01*
X115612598Y-87422448D01*
X115416437Y-87564966D01*
X115416432Y-87564970D01*
X115244970Y-87736432D01*
X115244966Y-87736437D01*
X115102448Y-87932598D01*
X114992360Y-88148655D01*
X114917432Y-88379263D01*
X114879500Y-88618754D01*
X109040500Y-88618754D01*
X109040500Y-87899995D01*
X109040499Y-87899982D01*
X109029999Y-87797203D01*
X109029999Y-87797202D01*
X108974814Y-87630665D01*
X108882712Y-87481344D01*
X108758656Y-87357288D01*
X108609335Y-87265186D01*
X108442798Y-87210001D01*
X108442796Y-87210000D01*
X108340017Y-87199500D01*
X108340010Y-87199500D01*
X106659990Y-87199500D01*
X106659982Y-87199500D01*
X106557203Y-87210000D01*
X106557202Y-87210001D01*
X106474669Y-87237349D01*
X106390667Y-87265185D01*
X106390662Y-87265187D01*
X106241342Y-87357289D01*
X106117289Y-87481342D01*
X106025187Y-87630662D01*
X106025186Y-87630665D01*
X105970001Y-87797202D01*
X105970001Y-87797203D01*
X105970000Y-87797203D01*
X105959500Y-87899982D01*
X105959500Y-88633998D01*
X105942888Y-88695997D01*
X105926655Y-88724113D01*
X105926650Y-88724123D01*
X105838842Y-88936112D01*
X105779453Y-89157759D01*
X105779451Y-89157770D01*
X105749500Y-89385258D01*
X105749500Y-90601056D01*
X105729815Y-90668095D01*
X105713181Y-90688737D01*
X98481084Y-97920833D01*
X98481078Y-97920840D01*
X98341396Y-98102878D01*
X98341390Y-98102888D01*
X98226656Y-98301611D01*
X98226651Y-98301620D01*
X98138842Y-98513612D01*
X98079453Y-98735258D01*
X98079450Y-98735271D01*
X98049501Y-98962765D01*
X95734736Y-98962765D01*
X95577724Y-98882763D01*
X95352422Y-98809557D01*
X95118451Y-98772500D01*
X94881549Y-98772500D01*
X94647577Y-98809557D01*
X94422275Y-98882763D01*
X94211209Y-98990307D01*
X94127313Y-99051260D01*
X94866508Y-99790454D01*
X94805077Y-99806915D01*
X94689922Y-99873399D01*
X94595899Y-99967422D01*
X94529415Y-100082577D01*
X94512954Y-100144007D01*
X93773760Y-99404813D01*
X93712807Y-99488709D01*
X93605263Y-99699775D01*
X93532057Y-99925077D01*
X93495000Y-100159048D01*
X86197169Y-100159048D01*
X86206512Y-100146567D01*
X94516262Y-91836819D01*
X94577585Y-91803334D01*
X94603943Y-91800500D01*
X94840005Y-91800500D01*
X94840010Y-91800500D01*
X94942798Y-91789999D01*
X95109335Y-91734814D01*
X95258656Y-91642712D01*
X95382712Y-91518656D01*
X95474814Y-91369335D01*
X95529999Y-91202798D01*
X95540500Y-91100010D01*
X95540500Y-90743502D01*
X95557113Y-90681502D01*
X95573345Y-90653388D01*
X95661158Y-90441386D01*
X95720549Y-90219739D01*
X95750500Y-89992234D01*
X95750500Y-89762766D01*
X95720549Y-89535261D01*
X95661158Y-89313613D01*
X95661155Y-89313605D01*
X95573349Y-89101620D01*
X95573341Y-89101604D01*
X95557113Y-89073496D01*
X95540500Y-89011496D01*
X95540500Y-88618754D01*
X100879500Y-88618754D01*
X100879500Y-90381245D01*
X100917432Y-90620736D01*
X100992360Y-90851344D01*
X101102448Y-91067401D01*
X101244966Y-91263562D01*
X101244970Y-91263567D01*
X101416432Y-91435029D01*
X101416437Y-91435033D01*
X101531537Y-91518657D01*
X101612602Y-91577554D01*
X101790298Y-91668095D01*
X101828655Y-91687639D01*
X101927450Y-91719739D01*
X102059265Y-91762568D01*
X102170186Y-91780136D01*
X102298755Y-91800500D01*
X102298760Y-91800500D01*
X102541245Y-91800500D01*
X102657347Y-91782110D01*
X102780735Y-91762568D01*
X103011347Y-91687638D01*
X103227398Y-91577554D01*
X103423569Y-91435028D01*
X103595028Y-91263569D01*
X103737554Y-91067398D01*
X103847638Y-90851347D01*
X103922568Y-90620735D01*
X103950974Y-90441386D01*
X103960500Y-90381245D01*
X103960500Y-88618754D01*
X103938432Y-88479431D01*
X103922568Y-88379265D01*
X103885103Y-88263959D01*
X103847639Y-88148655D01*
X103847638Y-88148653D01*
X103737554Y-87932602D01*
X103713854Y-87899982D01*
X103595033Y-87736437D01*
X103595029Y-87736432D01*
X103423567Y-87564970D01*
X103423562Y-87564966D01*
X103227401Y-87422448D01*
X103227400Y-87422447D01*
X103227398Y-87422446D01*
X103059262Y-87336776D01*
X103011344Y-87312360D01*
X102780736Y-87237432D01*
X102541245Y-87199500D01*
X102541240Y-87199500D01*
X102298760Y-87199500D01*
X102298755Y-87199500D01*
X102059263Y-87237432D01*
X101828655Y-87312360D01*
X101612598Y-87422448D01*
X101416437Y-87564966D01*
X101416432Y-87564970D01*
X101244970Y-87736432D01*
X101244966Y-87736437D01*
X101102448Y-87932598D01*
X100992360Y-88148655D01*
X100917432Y-88379263D01*
X100879500Y-88618754D01*
X95540500Y-88618754D01*
X95540500Y-87899995D01*
X95540499Y-87899982D01*
X95529999Y-87797203D01*
X95529999Y-87797202D01*
X95474814Y-87630665D01*
X95382712Y-87481344D01*
X95258656Y-87357288D01*
X95109335Y-87265186D01*
X94942798Y-87210001D01*
X94942796Y-87210000D01*
X94840017Y-87199500D01*
X94840010Y-87199500D01*
X93159990Y-87199500D01*
X93159982Y-87199500D01*
X93057203Y-87210000D01*
X93057202Y-87210001D01*
X92974669Y-87237349D01*
X92890667Y-87265185D01*
X92890662Y-87265187D01*
X92741342Y-87357289D01*
X92617289Y-87481342D01*
X92525187Y-87630662D01*
X92525186Y-87630665D01*
X92470001Y-87797202D01*
X92470001Y-87797203D01*
X92470000Y-87797203D01*
X92459500Y-87899982D01*
X92459500Y-88891057D01*
X92439815Y-88958096D01*
X92423181Y-88978738D01*
X90615183Y-90786735D01*
X90553860Y-90820220D01*
X90484168Y-90815236D01*
X90428235Y-90773364D01*
X90403818Y-90707900D01*
X90409571Y-90660735D01*
X90412273Y-90652419D01*
X90422568Y-90620735D01*
X90450974Y-90441386D01*
X90460500Y-90381245D01*
X90460500Y-88618754D01*
X90438432Y-88479431D01*
X90422568Y-88379265D01*
X90385103Y-88263959D01*
X90347639Y-88148655D01*
X90347638Y-88148653D01*
X90237554Y-87932602D01*
X90213854Y-87899982D01*
X90095033Y-87736437D01*
X90095029Y-87736432D01*
X89923567Y-87564970D01*
X89923562Y-87564966D01*
X89727401Y-87422448D01*
X89727400Y-87422447D01*
X89727398Y-87422446D01*
X89559262Y-87336776D01*
X89511344Y-87312360D01*
X89280736Y-87237432D01*
X89041245Y-87199500D01*
X89041240Y-87199500D01*
X88798760Y-87199500D01*
X88798755Y-87199500D01*
X88559263Y-87237432D01*
X88328655Y-87312360D01*
X88112598Y-87422448D01*
X87916437Y-87564966D01*
X87916432Y-87564970D01*
X87744970Y-87736432D01*
X87744966Y-87736437D01*
X87602448Y-87932598D01*
X87492360Y-88148655D01*
X87417432Y-88379263D01*
X87379500Y-88618754D01*
X87379500Y-90381245D01*
X87417432Y-90620736D01*
X87492360Y-90851344D01*
X87602448Y-91067401D01*
X87744966Y-91263562D01*
X87744970Y-91263567D01*
X87916432Y-91435029D01*
X87916437Y-91435033D01*
X88031537Y-91518657D01*
X88112602Y-91577554D01*
X88290298Y-91668095D01*
X88328655Y-91687639D01*
X88427450Y-91719739D01*
X88559265Y-91762568D01*
X88670186Y-91780136D01*
X88798755Y-91800500D01*
X88798760Y-91800500D01*
X89041245Y-91800500D01*
X89212307Y-91773405D01*
X89280735Y-91762568D01*
X89320735Y-91749570D01*
X89390577Y-91747576D01*
X89450410Y-91783656D01*
X89481238Y-91846357D01*
X89473274Y-91915771D01*
X89446735Y-91955183D01*
X83711681Y-97690238D01*
X83650358Y-97723723D01*
X83580666Y-97718739D01*
X83524733Y-97676867D01*
X83500316Y-97611403D01*
X83500000Y-97602557D01*
X83500000Y-84124000D01*
X83519685Y-84056961D01*
X83572489Y-84011206D01*
X83624000Y-84000000D01*
X150876000Y-84000000D01*
X150943039Y-84019685D01*
G37*
%TD.AperFunction*%
%TD*%
M02*
