%TF.GenerationSoftware,KiCad,Pcbnew,9.0.7*%
%TF.CreationDate,2026-05-27T19:26:45+10:00*%
%TF.ProjectId,power_distro,706f7765-725f-4646-9973-74726f2e6b69,rev?*%
%TF.SameCoordinates,Original*%
%TF.FileFunction,Copper,L1,Top*%
%TF.FilePolarity,Positive*%
%FSLAX46Y46*%
G04 Gerber Fmt 4.6, Leading zero omitted, Abs format (unit mm)*
G04 Created by KiCad (PCBNEW 9.0.7) date 2026-05-27 19:26:45*
%MOMM*%
%LPD*%
G01*
G04 APERTURE LIST*
G04 Aperture macros list*
%AMRoundRect*
0 Rectangle with rounded corners*
0 $1 Rounding radius*
0 $2 $3 $4 $5 $6 $7 $8 $9 X,Y pos of 4 corners*
0 Add a 4 corners polygon primitive as box body*
4,1,4,$2,$3,$4,$5,$6,$7,$8,$9,$2,$3,0*
0 Add four circle primitives for the rounded corners*
1,1,$1+$1,$2,$3*
1,1,$1+$1,$4,$5*
1,1,$1+$1,$6,$7*
1,1,$1+$1,$8,$9*
0 Add four rect primitives between the rounded corners*
20,1,$1+$1,$2,$3,$4,$5,0*
20,1,$1+$1,$4,$5,$6,$7,0*
20,1,$1+$1,$6,$7,$8,$9,0*
20,1,$1+$1,$8,$9,$2,$3,0*%
G04 Aperture macros list end*
%TA.AperFunction,ComponentPad*%
%ADD10C,2.010000*%
%TD*%
%TA.AperFunction,ComponentPad*%
%ADD11RoundRect,0.249999X-0.790001X-1.550001X0.790001X-1.550001X0.790001X1.550001X-0.790001X1.550001X0*%
%TD*%
%TA.AperFunction,ComponentPad*%
%ADD12O,2.080000X3.600000*%
%TD*%
%TA.AperFunction,ComponentPad*%
%ADD13R,1.800000X1.800000*%
%TD*%
%TA.AperFunction,ComponentPad*%
%ADD14C,1.800000*%
%TD*%
%TA.AperFunction,ComponentPad*%
%ADD15RoundRect,0.249999X0.790001X1.550001X-0.790001X1.550001X-0.790001X-1.550001X0.790001X-1.550001X0*%
%TD*%
%TA.AperFunction,ComponentPad*%
%ADD16C,1.600000*%
%TD*%
%TA.AperFunction,ComponentPad*%
%ADD17RoundRect,0.250000X1.000000X-1.000000X1.000000X1.000000X-1.000000X1.000000X-1.000000X-1.000000X0*%
%TD*%
%TA.AperFunction,ComponentPad*%
%ADD18C,2.500000*%
%TD*%
%TA.AperFunction,Conductor*%
%ADD19C,2.500000*%
%TD*%
%TA.AperFunction,Conductor*%
%ADD20C,0.250000*%
%TD*%
%TA.AperFunction,Conductor*%
%ADD21C,2.000000*%
%TD*%
G04 APERTURE END LIST*
D10*
%TO.P,F4,1*%
%TO.N,VCC*%
X135095000Y-100377500D03*
%TO.P,F4,2*%
%TO.N,Net-(D4-K)*%
X129995000Y-99177500D03*
%TD*%
D11*
%TO.P,J7,1,Pin_1*%
%TO.N,Net-(D7-K)*%
X116000000Y-131722500D03*
D12*
%TO.P,J7,2,Pin_2*%
%TO.N,GND*%
X121080000Y-131722500D03*
%TD*%
D13*
%TO.P,D2,1,K*%
%TO.N,Net-(D2-K)*%
X99505000Y-105500000D03*
D14*
%TO.P,D2,2,A*%
%TO.N,Net-(D2-A)*%
X102045000Y-105500000D03*
%TD*%
D13*
%TO.P,D6,1,K*%
%TO.N,Net-(D6-K)*%
X100005000Y-114500000D03*
D14*
%TO.P,D6,2,A*%
%TO.N,Net-(D6-A)*%
X102545000Y-114500000D03*
%TD*%
D10*
%TO.P,F3,1*%
%TO.N,VCC*%
X121045000Y-100277500D03*
%TO.P,F3,2*%
%TO.N,Net-(D3-K)*%
X115945000Y-99077500D03*
%TD*%
D13*
%TO.P,D7,1,K*%
%TO.N,Net-(D7-K)*%
X113775000Y-114500000D03*
D14*
%TO.P,D7,2,A*%
%TO.N,Net-(D7-A)*%
X116315000Y-114500000D03*
%TD*%
D10*
%TO.P,F6,1*%
%TO.N,VCC*%
X107045000Y-122000000D03*
%TO.P,F6,2*%
%TO.N,Net-(D6-K)*%
X101945000Y-120800000D03*
%TD*%
D15*
%TO.P,J3,1,Pin_1*%
%TO.N,Net-(D3-K)*%
X121500000Y-89500000D03*
D12*
%TO.P,J3,2,Pin_2*%
%TO.N,GND*%
X116420000Y-89500000D03*
%TD*%
D16*
%TO.P,Re1,1*%
%TO.N,Net-(D1-A)*%
X93045000Y-105500000D03*
%TO.P,Re1,2*%
%TO.N,GND*%
X95585000Y-105500000D03*
%TD*%
D11*
%TO.P,J6,1,Pin_1*%
%TO.N,Net-(D6-K)*%
X102045000Y-132000000D03*
D12*
%TO.P,J6,2,Pin_2*%
%TO.N,GND*%
X107125000Y-132000000D03*
%TD*%
D13*
%TO.P,D3,1,K*%
%TO.N,Net-(D3-K)*%
X114000000Y-105500000D03*
D14*
%TO.P,D3,2,A*%
%TO.N,Net-(D3-A)*%
X116540000Y-105500000D03*
%TD*%
D10*
%TO.P,F8,1*%
%TO.N,VCC*%
X135095000Y-121700000D03*
%TO.P,F8,2*%
%TO.N,Net-(D8-K)*%
X129995000Y-120500000D03*
%TD*%
D11*
%TO.P,J8,1,Pin_1*%
%TO.N,Net-(D8-K)*%
X130000000Y-131722500D03*
D12*
%TO.P,J8,2,Pin_2*%
%TO.N,GND*%
X135080000Y-131722500D03*
%TD*%
D16*
%TO.P,R2,1*%
%TO.N,Net-(D2-A)*%
X106505000Y-105500000D03*
%TO.P,R2,2*%
%TO.N,GND*%
X109045000Y-105500000D03*
%TD*%
D13*
%TO.P,D5,1,K*%
%TO.N,Net-(D5-K)*%
X86005000Y-114500000D03*
D14*
%TO.P,D5,2,A*%
%TO.N,Net-(D5-A)*%
X88545000Y-114500000D03*
%TD*%
D13*
%TO.P,D1,1,K*%
%TO.N,Net-(D1-K)*%
X86545000Y-105500000D03*
D14*
%TO.P,D1,2,A*%
%TO.N,Net-(D1-A)*%
X89085000Y-105500000D03*
%TD*%
D16*
%TO.P,R8,1*%
%TO.N,Net-(D8-A)*%
X135505000Y-114500000D03*
%TO.P,R8,2*%
%TO.N,GND*%
X138045000Y-114500000D03*
%TD*%
D10*
%TO.P,F7,1*%
%TO.N,VCC*%
X121045000Y-122000000D03*
%TO.P,F7,2*%
%TO.N,Net-(D7-K)*%
X115945000Y-120800000D03*
%TD*%
D11*
%TO.P,J5,1,Pin_1*%
%TO.N,Net-(D5-K)*%
X88000000Y-131722500D03*
D12*
%TO.P,J5,2,Pin_2*%
%TO.N,GND*%
X93080000Y-131722500D03*
%TD*%
D10*
%TO.P,F2,1*%
%TO.N,VCC*%
X107045000Y-100277500D03*
%TO.P,F2,2*%
%TO.N,Net-(D2-K)*%
X101945000Y-99077500D03*
%TD*%
%TO.P,F1,1*%
%TO.N,VCC*%
X93545000Y-100277500D03*
%TO.P,F1,2*%
%TO.N,Net-(D1-K)*%
X88445000Y-99077500D03*
%TD*%
%TO.P,F5,1*%
%TO.N,VCC*%
X93045000Y-122000000D03*
%TO.P,F5,2*%
%TO.N,Net-(D5-K)*%
X87945000Y-120800000D03*
%TD*%
D16*
%TO.P,R6,1*%
%TO.N,Net-(D6-A)*%
X107505000Y-114500000D03*
%TO.P,R6,2*%
%TO.N,GND*%
X110045000Y-114500000D03*
%TD*%
%TO.P,R5,1*%
%TO.N,Net-(D5-A)*%
X93505000Y-114500000D03*
%TO.P,R5,2*%
%TO.N,GND*%
X96045000Y-114500000D03*
%TD*%
%TO.P,R3,1*%
%TO.N,Net-(D3-A)*%
X120005000Y-105500000D03*
%TO.P,R3,2*%
%TO.N,GND*%
X122545000Y-105500000D03*
%TD*%
D13*
%TO.P,D8,1,K*%
%TO.N,Net-(D8-K)*%
X127775000Y-114500000D03*
D14*
%TO.P,D8,2,A*%
%TO.N,Net-(D8-A)*%
X130315000Y-114500000D03*
%TD*%
D16*
%TO.P,R7,1*%
%TO.N,Net-(D7-A)*%
X121500000Y-114500000D03*
%TO.P,R7,2*%
%TO.N,GND*%
X124040000Y-114500000D03*
%TD*%
D13*
%TO.P,D4,1,K*%
%TO.N,Net-(D4-K)*%
X128005000Y-105500000D03*
D14*
%TO.P,D4,2,A*%
%TO.N,Net-(D4-A)*%
X130545000Y-105500000D03*
%TD*%
D16*
%TO.P,R4,1*%
%TO.N,Net-(D4-A)*%
X134455000Y-105500000D03*
%TO.P,R4,2*%
%TO.N,GND*%
X136995000Y-105500000D03*
%TD*%
D15*
%TO.P,J2,1,Pin_1*%
%TO.N,Net-(D2-K)*%
X107500000Y-89500000D03*
D12*
%TO.P,J2,2,Pin_2*%
%TO.N,GND*%
X102420000Y-89500000D03*
%TD*%
D15*
%TO.P,J1,1,Pin_1*%
%TO.N,Net-(D1-K)*%
X94000000Y-89500000D03*
D12*
%TO.P,J1,2,Pin_2*%
%TO.N,GND*%
X88920000Y-89500000D03*
%TD*%
D15*
%TO.P,J4,1,Pin_1*%
%TO.N,Net-(D4-K)*%
X135500000Y-89500000D03*
D12*
%TO.P,J4,2,Pin_2*%
%TO.N,GND*%
X130420000Y-89500000D03*
%TD*%
D17*
%TO.P,J_IN1,1,Pin_1*%
%TO.N,VCC*%
X144367500Y-114250000D03*
D18*
%TO.P,J_IN1,2,Pin_2*%
%TO.N,GND*%
X144367500Y-106750000D03*
%TD*%
D19*
%TO.N,Net-(D1-K)*%
X94000000Y-93522500D02*
X94000000Y-89500000D01*
X88445000Y-99077500D02*
X94000000Y-93522500D01*
%TO.N,Net-(D4-K)*%
X135500000Y-92000000D02*
X135500000Y-89500000D01*
X129995000Y-97505000D02*
X135500000Y-92000000D01*
X129995000Y-99177500D02*
X129995000Y-97505000D01*
%TO.N,Net-(D3-K)*%
X121500000Y-93500000D02*
X121500000Y-89500000D01*
X115945000Y-99055000D02*
X121500000Y-93500000D01*
D20*
X115945000Y-99077500D02*
X115945000Y-99055000D01*
D19*
%TO.N,Net-(D2-K)*%
X107500000Y-93522500D02*
X107500000Y-89500000D01*
X101945000Y-99077500D02*
X107500000Y-93522500D01*
D20*
%TO.N,Net-(D1-A)*%
X89085000Y-105500000D02*
X93045000Y-105500000D01*
%TO.N,Net-(D1-K)*%
X88445000Y-101555000D02*
X86545000Y-103455000D01*
X86545000Y-103455000D02*
X86545000Y-105500000D01*
X88445000Y-99077500D02*
X88445000Y-101555000D01*
%TO.N,Net-(D2-K)*%
X99505000Y-101517500D02*
X101945000Y-99077500D01*
X99505000Y-105500000D02*
X99505000Y-101517500D01*
%TO.N,Net-(D2-A)*%
X102045000Y-105500000D02*
X106005000Y-105500000D01*
X106005000Y-105500000D02*
X106505000Y-105000000D01*
%TO.N,Net-(D3-K)*%
X114005000Y-101017500D02*
X115945000Y-99077500D01*
X116500000Y-98522500D02*
X115945000Y-99077500D01*
X114005000Y-106000000D02*
X114005000Y-101017500D01*
%TO.N,Net-(D3-A)*%
X116540000Y-105500000D02*
X120005000Y-105500000D01*
%TO.N,Net-(D4-K)*%
X128005000Y-106000000D02*
X128005000Y-101167500D01*
%TO.N,GND*%
X129995000Y-91005000D02*
X130500000Y-90500000D01*
%TO.N,Net-(D4-K)*%
X128005000Y-101167500D02*
X129995000Y-99177500D01*
%TO.N,Net-(D4-A)*%
X130545000Y-105500000D02*
X134455000Y-105500000D01*
%TO.N,Net-(D5-K)*%
X86005000Y-114500000D02*
X86005000Y-118860000D01*
X88000000Y-120855000D02*
X87945000Y-120800000D01*
D21*
X88000000Y-131722500D02*
X88000000Y-120855000D01*
D20*
X86005000Y-118860000D02*
X87945000Y-120800000D01*
%TO.N,Net-(D5-A)*%
X88545000Y-114500000D02*
X93505000Y-114500000D01*
%TO.N,Net-(D6-A)*%
X102545000Y-114500000D02*
X107505000Y-114500000D01*
D21*
%TO.N,Net-(D6-K)*%
X101945000Y-120800000D02*
X101945000Y-131900000D01*
D20*
X101945000Y-131900000D02*
X102045000Y-132000000D01*
X100005000Y-118860000D02*
X101945000Y-120800000D01*
X100005000Y-114500000D02*
X100005000Y-118860000D01*
%TO.N,Net-(D7-K)*%
X115945000Y-131667500D02*
X116000000Y-131722500D01*
D21*
X115945000Y-120800000D02*
X115945000Y-131667500D01*
D20*
X113775000Y-114500000D02*
X113775000Y-118630000D01*
X113775000Y-118630000D02*
X115945000Y-120800000D01*
%TO.N,Net-(D7-A)*%
X116315000Y-114500000D02*
X121500000Y-114500000D01*
%TO.N,Net-(D8-K)*%
X129995000Y-131717500D02*
X130000000Y-131722500D01*
X127775000Y-118280000D02*
X129995000Y-120500000D01*
D21*
X129995000Y-120500000D02*
X129995000Y-131717500D01*
D20*
X127775000Y-114500000D02*
X127775000Y-118280000D01*
%TO.N,Net-(D8-A)*%
X130315000Y-114500000D02*
X135505000Y-114500000D01*
%TD*%
%TA.AperFunction,Conductor*%
%TO.N,VCC*%
G36*
X150943039Y-84019685D02*
G01*
X150988794Y-84072489D01*
X151000000Y-84124000D01*
X151000000Y-136876000D01*
X150980315Y-136943039D01*
X150927511Y-136988794D01*
X150876000Y-137000000D01*
X83624000Y-137000000D01*
X83556961Y-136980315D01*
X83511206Y-136927511D01*
X83500000Y-136876000D01*
X83500000Y-113552135D01*
X84604500Y-113552135D01*
X84604500Y-115447870D01*
X84604501Y-115447876D01*
X84610908Y-115507483D01*
X84661202Y-115642328D01*
X84661206Y-115642335D01*
X84747452Y-115757544D01*
X84747455Y-115757547D01*
X84862664Y-115843793D01*
X84862671Y-115843797D01*
X84907618Y-115860561D01*
X84997517Y-115894091D01*
X85057127Y-115900500D01*
X85255500Y-115900499D01*
X85322539Y-115920183D01*
X85368294Y-115972987D01*
X85379500Y-116024499D01*
X85379500Y-118921611D01*
X85403535Y-119042444D01*
X85403540Y-119042461D01*
X85450685Y-119156280D01*
X85450687Y-119156283D01*
X85450688Y-119156286D01*
X85484915Y-119207509D01*
X85519142Y-119258733D01*
X85606267Y-119345858D01*
X85606270Y-119345860D01*
X85613554Y-119353144D01*
X86479562Y-120219152D01*
X86513047Y-120280475D01*
X86509812Y-120345150D01*
X86476571Y-120447457D01*
X86439500Y-120681515D01*
X86439500Y-120918484D01*
X86476570Y-121152535D01*
X86476570Y-121152536D01*
X86476571Y-121152539D01*
X86490367Y-121195000D01*
X86493431Y-121204428D01*
X86499500Y-121242746D01*
X86499500Y-129910670D01*
X86493206Y-129949673D01*
X86470001Y-130019699D01*
X86470000Y-130019703D01*
X86459500Y-130122482D01*
X86459500Y-133322517D01*
X86470000Y-133425296D01*
X86525185Y-133591832D01*
X86525187Y-133591837D01*
X86530228Y-133600010D01*
X86617288Y-133741156D01*
X86741344Y-133865212D01*
X86890665Y-133957314D01*
X87057202Y-134012499D01*
X87159990Y-134023000D01*
X87159995Y-134023000D01*
X88840005Y-134023000D01*
X88840010Y-134023000D01*
X88942798Y-134012499D01*
X89109335Y-133957314D01*
X89258656Y-133865212D01*
X89382712Y-133741156D01*
X89474814Y-133591835D01*
X89529999Y-133425298D01*
X89540500Y-133322510D01*
X89540500Y-130841254D01*
X91539500Y-130841254D01*
X91539500Y-132603745D01*
X91577432Y-132843236D01*
X91652360Y-133073844D01*
X91762448Y-133289901D01*
X91904966Y-133486062D01*
X91904970Y-133486067D01*
X92076432Y-133657529D01*
X92076437Y-133657533D01*
X92247539Y-133781845D01*
X92272602Y-133800054D01*
X92457491Y-133894260D01*
X92488655Y-133910139D01*
X92565257Y-133935028D01*
X92719265Y-133985068D01*
X92830186Y-134002636D01*
X92958755Y-134023000D01*
X92958760Y-134023000D01*
X93201245Y-134023000D01*
X93317347Y-134004610D01*
X93440735Y-133985068D01*
X93671347Y-133910138D01*
X93887398Y-133800054D01*
X94083569Y-133657528D01*
X94255028Y-133486069D01*
X94397554Y-133289898D01*
X94507638Y-133073847D01*
X94582568Y-132843235D01*
X94617721Y-132621288D01*
X94620500Y-132603745D01*
X94620500Y-130841254D01*
X94590128Y-130649500D01*
X94582568Y-130601765D01*
X94527603Y-130432598D01*
X94507639Y-130371155D01*
X94438996Y-130236437D01*
X94397554Y-130155102D01*
X94332067Y-130064966D01*
X94255033Y-129958937D01*
X94255029Y-129958932D01*
X94083567Y-129787470D01*
X94083562Y-129787466D01*
X93887401Y-129644948D01*
X93887400Y-129644947D01*
X93887398Y-129644946D01*
X93779372Y-129589904D01*
X93671344Y-129534860D01*
X93440736Y-129459932D01*
X93201245Y-129422000D01*
X93201240Y-129422000D01*
X92958760Y-129422000D01*
X92958755Y-129422000D01*
X92719263Y-129459932D01*
X92488655Y-129534860D01*
X92272598Y-129644948D01*
X92076437Y-129787466D01*
X92076432Y-129787470D01*
X91904970Y-129958932D01*
X91904966Y-129958937D01*
X91762448Y-130155098D01*
X91652360Y-130371155D01*
X91577432Y-130601763D01*
X91539500Y-130841254D01*
X89540500Y-130841254D01*
X89540500Y-130122490D01*
X89529999Y-130019702D01*
X89511794Y-129964762D01*
X89506794Y-129949673D01*
X89500500Y-129910670D01*
X89500500Y-121881548D01*
X91540000Y-121881548D01*
X91540000Y-122118451D01*
X91577057Y-122352422D01*
X91650263Y-122577724D01*
X91757810Y-122788795D01*
X91818759Y-122872685D01*
X91818761Y-122872685D01*
X92557954Y-122133492D01*
X92574415Y-122194923D01*
X92640899Y-122310078D01*
X92734922Y-122404101D01*
X92850077Y-122470585D01*
X92911507Y-122487045D01*
X92172312Y-123226238D01*
X92172313Y-123226239D01*
X92256203Y-123287189D01*
X92467275Y-123394736D01*
X92692577Y-123467942D01*
X92926549Y-123505000D01*
X93163451Y-123505000D01*
X93397422Y-123467942D01*
X93622724Y-123394736D01*
X93833792Y-123287191D01*
X93917685Y-123226238D01*
X93917686Y-123226238D01*
X93178492Y-122487045D01*
X93239923Y-122470585D01*
X93355078Y-122404101D01*
X93449101Y-122310078D01*
X93515585Y-122194923D01*
X93532045Y-122133493D01*
X94271238Y-122872686D01*
X94271238Y-122872685D01*
X94332191Y-122788792D01*
X94439736Y-122577724D01*
X94512942Y-122352422D01*
X94550000Y-122118451D01*
X94550000Y-121881548D01*
X94512942Y-121647577D01*
X94439736Y-121422275D01*
X94332189Y-121211203D01*
X94271239Y-121127313D01*
X94271238Y-121127312D01*
X93532045Y-121866506D01*
X93515585Y-121805077D01*
X93449101Y-121689922D01*
X93355078Y-121595899D01*
X93239923Y-121529415D01*
X93178491Y-121512954D01*
X93917685Y-120773761D01*
X93917685Y-120773759D01*
X93833795Y-120712810D01*
X93622724Y-120605263D01*
X93397422Y-120532057D01*
X93163451Y-120495000D01*
X92926549Y-120495000D01*
X92692577Y-120532057D01*
X92467275Y-120605263D01*
X92256209Y-120712807D01*
X92172313Y-120773760D01*
X92911508Y-121512954D01*
X92850077Y-121529415D01*
X92734922Y-121595899D01*
X92640899Y-121689922D01*
X92574415Y-121805077D01*
X92557954Y-121866507D01*
X91818760Y-121127313D01*
X91757807Y-121211209D01*
X91650263Y-121422275D01*
X91577057Y-121647577D01*
X91540000Y-121881548D01*
X89500500Y-121881548D01*
X89500500Y-120736902D01*
X89463553Y-120503631D01*
X89399099Y-120305263D01*
X89390568Y-120279008D01*
X89390566Y-120279005D01*
X89390566Y-120279003D01*
X89283342Y-120068566D01*
X89144517Y-119877490D01*
X89119018Y-119851991D01*
X89106380Y-119837194D01*
X89093331Y-119819233D01*
X88925767Y-119651669D01*
X88734054Y-119512381D01*
X88522911Y-119404799D01*
X88297539Y-119331571D01*
X88297537Y-119331570D01*
X88297535Y-119331570D01*
X88134115Y-119305686D01*
X88063485Y-119294500D01*
X87826515Y-119294500D01*
X87779704Y-119301914D01*
X87592457Y-119331571D01*
X87490150Y-119364812D01*
X87420309Y-119366807D01*
X87364152Y-119334562D01*
X86666819Y-118637229D01*
X86633334Y-118575906D01*
X86630500Y-118549548D01*
X86630500Y-116024499D01*
X86650185Y-115957460D01*
X86702989Y-115911705D01*
X86754500Y-115900499D01*
X86952871Y-115900499D01*
X86952872Y-115900499D01*
X87012483Y-115894091D01*
X87147331Y-115843796D01*
X87262546Y-115757546D01*
X87348796Y-115642331D01*
X87376429Y-115568243D01*
X87378601Y-115562420D01*
X87420471Y-115506486D01*
X87485936Y-115482068D01*
X87554209Y-115496919D01*
X87582464Y-115518071D01*
X87632636Y-115568243D01*
X87632641Y-115568247D01*
X87693258Y-115612287D01*
X87810978Y-115697815D01*
X87939375Y-115763237D01*
X88007393Y-115797895D01*
X88007396Y-115797896D01*
X88112221Y-115831955D01*
X88217049Y-115866015D01*
X88434778Y-115900500D01*
X88434779Y-115900500D01*
X88655221Y-115900500D01*
X88655222Y-115900500D01*
X88872951Y-115866015D01*
X89082606Y-115797895D01*
X89279022Y-115697815D01*
X89457365Y-115568242D01*
X89613242Y-115412365D01*
X89742815Y-115234022D01*
X89763612Y-115193204D01*
X89811586Y-115142409D01*
X89874097Y-115125500D01*
X92288885Y-115125500D01*
X92355924Y-115145185D01*
X92388606Y-115178571D01*
X92389849Y-115177669D01*
X92513028Y-115347213D01*
X92657786Y-115491971D01*
X92812749Y-115604556D01*
X92823390Y-115612287D01*
X92939607Y-115671503D01*
X93005776Y-115705218D01*
X93005778Y-115705218D01*
X93005781Y-115705220D01*
X93110137Y-115739127D01*
X93200465Y-115768477D01*
X93301557Y-115784488D01*
X93402648Y-115800500D01*
X93402649Y-115800500D01*
X93607351Y-115800500D01*
X93607352Y-115800500D01*
X93809534Y-115768477D01*
X94004219Y-115705220D01*
X94186610Y-115612287D01*
X94279590Y-115544732D01*
X94352213Y-115491971D01*
X94352215Y-115491968D01*
X94352219Y-115491966D01*
X94496966Y-115347219D01*
X94496968Y-115347215D01*
X94496971Y-115347213D01*
X94617284Y-115181614D01*
X94617285Y-115181613D01*
X94617287Y-115181610D01*
X94664516Y-115088917D01*
X94712489Y-115038123D01*
X94780310Y-115021328D01*
X94846445Y-115043865D01*
X94885483Y-115088917D01*
X94912739Y-115142409D01*
X94932715Y-115181614D01*
X95053028Y-115347213D01*
X95197786Y-115491971D01*
X95352749Y-115604556D01*
X95363390Y-115612287D01*
X95479607Y-115671503D01*
X95545776Y-115705218D01*
X95545778Y-115705218D01*
X95545781Y-115705220D01*
X95650137Y-115739127D01*
X95740465Y-115768477D01*
X95841557Y-115784488D01*
X95942648Y-115800500D01*
X95942649Y-115800500D01*
X96147351Y-115800500D01*
X96147352Y-115800500D01*
X96349534Y-115768477D01*
X96544219Y-115705220D01*
X96726610Y-115612287D01*
X96819590Y-115544732D01*
X96892213Y-115491971D01*
X96892215Y-115491968D01*
X96892219Y-115491966D01*
X97036966Y-115347219D01*
X97036968Y-115347215D01*
X97036971Y-115347213D01*
X97089732Y-115274590D01*
X97157287Y-115181610D01*
X97250220Y-114999219D01*
X97313477Y-114804534D01*
X97345500Y-114602352D01*
X97345500Y-114397648D01*
X97313477Y-114195466D01*
X97250220Y-114000781D01*
X97250218Y-114000778D01*
X97250218Y-114000776D01*
X97204515Y-113911080D01*
X97157287Y-113818390D01*
X97119204Y-113765973D01*
X97036971Y-113652786D01*
X96936320Y-113552135D01*
X98604500Y-113552135D01*
X98604500Y-115447870D01*
X98604501Y-115447876D01*
X98610908Y-115507483D01*
X98661202Y-115642328D01*
X98661206Y-115642335D01*
X98747452Y-115757544D01*
X98747455Y-115757547D01*
X98862664Y-115843793D01*
X98862671Y-115843797D01*
X98907618Y-115860561D01*
X98997517Y-115894091D01*
X99057127Y-115900500D01*
X99255500Y-115900499D01*
X99322539Y-115920183D01*
X99368294Y-115972987D01*
X99379500Y-116024499D01*
X99379500Y-118921611D01*
X99403535Y-119042444D01*
X99403540Y-119042461D01*
X99450685Y-119156280D01*
X99450687Y-119156283D01*
X99450688Y-119156286D01*
X99484915Y-119207509D01*
X99519142Y-119258733D01*
X99606267Y-119345858D01*
X99606270Y-119345860D01*
X99613554Y-119353144D01*
X100479562Y-120219152D01*
X100513047Y-120280475D01*
X100509812Y-120345150D01*
X100476571Y-120447457D01*
X100439500Y-120681515D01*
X100439500Y-120918483D01*
X100442973Y-120940411D01*
X100444500Y-120959809D01*
X100444500Y-132018097D01*
X100481446Y-132251364D01*
X100481446Y-132251365D01*
X100498431Y-132303639D01*
X100504500Y-132341957D01*
X100504500Y-133600017D01*
X100515000Y-133702796D01*
X100570185Y-133869332D01*
X100570187Y-133869337D01*
X100595354Y-133910139D01*
X100662288Y-134018656D01*
X100786344Y-134142712D01*
X100935665Y-134234814D01*
X101102202Y-134289999D01*
X101204990Y-134300500D01*
X101204995Y-134300500D01*
X102885005Y-134300500D01*
X102885010Y-134300500D01*
X102987798Y-134289999D01*
X103154335Y-134234814D01*
X103303656Y-134142712D01*
X103427712Y-134018656D01*
X103519814Y-133869335D01*
X103574999Y-133702798D01*
X103585500Y-133600010D01*
X103585500Y-131118754D01*
X105584500Y-131118754D01*
X105584500Y-132881245D01*
X105622432Y-133120736D01*
X105697360Y-133351344D01*
X105807448Y-133567401D01*
X105949966Y-133763562D01*
X105949970Y-133763567D01*
X106121432Y-133935029D01*
X106121437Y-133935033D01*
X106268572Y-134041932D01*
X106317602Y-134077554D01*
X106485738Y-134163224D01*
X106533655Y-134187639D01*
X106648959Y-134225103D01*
X106764265Y-134262568D01*
X106875186Y-134280136D01*
X107003755Y-134300500D01*
X107003760Y-134300500D01*
X107246245Y-134300500D01*
X107362347Y-134282110D01*
X107485735Y-134262568D01*
X107716347Y-134187638D01*
X107932398Y-134077554D01*
X108128569Y-133935028D01*
X108300028Y-133763569D01*
X108442554Y-133567398D01*
X108552638Y-133351347D01*
X108627568Y-133120735D01*
X108647110Y-132997347D01*
X108665500Y-132881245D01*
X108665500Y-131118754D01*
X108640048Y-130958064D01*
X108627568Y-130879265D01*
X108563201Y-130681162D01*
X108552639Y-130648655D01*
X108528746Y-130601763D01*
X108442554Y-130432602D01*
X108397909Y-130371153D01*
X108300033Y-130236437D01*
X108300029Y-130236432D01*
X108128567Y-130064970D01*
X108128562Y-130064966D01*
X107932401Y-129922448D01*
X107932400Y-129922447D01*
X107932398Y-129922446D01*
X107796427Y-129853165D01*
X107716344Y-129812360D01*
X107485736Y-129737432D01*
X107246245Y-129699500D01*
X107246240Y-129699500D01*
X107003760Y-129699500D01*
X107003755Y-129699500D01*
X106764263Y-129737432D01*
X106533655Y-129812360D01*
X106317598Y-129922448D01*
X106121437Y-130064966D01*
X106121432Y-130064970D01*
X105949970Y-130236432D01*
X105949966Y-130236437D01*
X105807448Y-130432598D01*
X105697360Y-130648655D01*
X105622432Y-130879263D01*
X105584500Y-131118754D01*
X103585500Y-131118754D01*
X103585500Y-130399990D01*
X103574999Y-130297202D01*
X103519814Y-130130665D01*
X103463961Y-130040112D01*
X103445500Y-129975016D01*
X103445500Y-121881548D01*
X105540000Y-121881548D01*
X105540000Y-122118451D01*
X105577057Y-122352422D01*
X105650263Y-122577724D01*
X105757810Y-122788795D01*
X105818759Y-122872685D01*
X105818761Y-122872685D01*
X106557954Y-122133492D01*
X106574415Y-122194923D01*
X106640899Y-122310078D01*
X106734922Y-122404101D01*
X106850077Y-122470585D01*
X106911507Y-122487045D01*
X106172312Y-123226238D01*
X106172313Y-123226239D01*
X106256203Y-123287189D01*
X106467275Y-123394736D01*
X106692577Y-123467942D01*
X106926549Y-123505000D01*
X107163451Y-123505000D01*
X107397422Y-123467942D01*
X107622724Y-123394736D01*
X107833792Y-123287191D01*
X107917685Y-123226238D01*
X107917686Y-123226238D01*
X107178492Y-122487045D01*
X107239923Y-122470585D01*
X107355078Y-122404101D01*
X107449101Y-122310078D01*
X107515585Y-122194923D01*
X107532045Y-122133493D01*
X108271238Y-122872686D01*
X108271238Y-122872685D01*
X108332191Y-122788792D01*
X108439736Y-122577724D01*
X108512942Y-122352422D01*
X108550000Y-122118451D01*
X108550000Y-121881548D01*
X108512942Y-121647577D01*
X108439736Y-121422275D01*
X108332189Y-121211203D01*
X108271239Y-121127313D01*
X108271238Y-121127312D01*
X107532045Y-121866506D01*
X107515585Y-121805077D01*
X107449101Y-121689922D01*
X107355078Y-121595899D01*
X107239923Y-121529415D01*
X107178491Y-121512954D01*
X107917685Y-120773761D01*
X107917685Y-120773759D01*
X107833795Y-120712810D01*
X107622724Y-120605263D01*
X107397422Y-120532057D01*
X107163451Y-120495000D01*
X106926549Y-120495000D01*
X106692577Y-120532057D01*
X106467275Y-120605263D01*
X106256209Y-120712807D01*
X106172313Y-120773760D01*
X106911508Y-121512954D01*
X106850077Y-121529415D01*
X106734922Y-121595899D01*
X106640899Y-121689922D01*
X106574415Y-121805077D01*
X106557954Y-121866507D01*
X105818760Y-121127313D01*
X105757807Y-121211209D01*
X105650263Y-121422275D01*
X105577057Y-121647577D01*
X105540000Y-121881548D01*
X103445500Y-121881548D01*
X103445500Y-120959809D01*
X103445580Y-120955345D01*
X103445850Y-120947841D01*
X103450500Y-120918485D01*
X103450500Y-120681515D01*
X103413429Y-120447461D01*
X103340201Y-120222089D01*
X103232619Y-120010946D01*
X103093331Y-119819233D01*
X102925767Y-119651669D01*
X102734054Y-119512381D01*
X102522911Y-119404799D01*
X102297539Y-119331571D01*
X102297537Y-119331570D01*
X102297535Y-119331570D01*
X102134115Y-119305686D01*
X102063485Y-119294500D01*
X101826515Y-119294500D01*
X101779704Y-119301914D01*
X101592457Y-119331571D01*
X101490150Y-119364812D01*
X101420309Y-119366807D01*
X101364152Y-119334562D01*
X100666819Y-118637229D01*
X100633334Y-118575906D01*
X100630500Y-118549548D01*
X100630500Y-116024499D01*
X100650185Y-115957460D01*
X100702989Y-115911705D01*
X100754500Y-115900499D01*
X100952871Y-115900499D01*
X100952872Y-115900499D01*
X101012483Y-115894091D01*
X101147331Y-115843796D01*
X101262546Y-115757546D01*
X101348796Y-115642331D01*
X101376429Y-115568243D01*
X101378601Y-115562420D01*
X101420471Y-115506486D01*
X101485936Y-115482068D01*
X101554209Y-115496919D01*
X101582464Y-115518071D01*
X101632636Y-115568243D01*
X101632641Y-115568247D01*
X101693258Y-115612287D01*
X101810978Y-115697815D01*
X101939375Y-115763237D01*
X102007393Y-115797895D01*
X102007396Y-115797896D01*
X102112221Y-115831955D01*
X102217049Y-115866015D01*
X102434778Y-115900500D01*
X102434779Y-115900500D01*
X102655221Y-115900500D01*
X102655222Y-115900500D01*
X102872951Y-115866015D01*
X103082606Y-115797895D01*
X103279022Y-115697815D01*
X103457365Y-115568242D01*
X103613242Y-115412365D01*
X103742815Y-115234022D01*
X103763612Y-115193204D01*
X103811586Y-115142409D01*
X103874097Y-115125500D01*
X106288885Y-115125500D01*
X106355924Y-115145185D01*
X106388606Y-115178571D01*
X106389849Y-115177669D01*
X106513028Y-115347213D01*
X106657786Y-115491971D01*
X106812749Y-115604556D01*
X106823390Y-115612287D01*
X106939607Y-115671503D01*
X107005776Y-115705218D01*
X107005778Y-115705218D01*
X107005781Y-115705220D01*
X107110137Y-115739127D01*
X107200465Y-115768477D01*
X107301557Y-115784488D01*
X107402648Y-115800500D01*
X107402649Y-115800500D01*
X107607351Y-115800500D01*
X107607352Y-115800500D01*
X107809534Y-115768477D01*
X108004219Y-115705220D01*
X108186610Y-115612287D01*
X108279590Y-115544732D01*
X108352213Y-115491971D01*
X108352215Y-115491968D01*
X108352219Y-115491966D01*
X108496966Y-115347219D01*
X108496968Y-115347215D01*
X108496971Y-115347213D01*
X108617284Y-115181614D01*
X108617285Y-115181613D01*
X108617287Y-115181610D01*
X108664516Y-115088917D01*
X108712489Y-115038123D01*
X108780310Y-115021328D01*
X108846445Y-115043865D01*
X108885483Y-115088917D01*
X108912739Y-115142409D01*
X108932715Y-115181614D01*
X109053028Y-115347213D01*
X109197786Y-115491971D01*
X109352749Y-115604556D01*
X109363390Y-115612287D01*
X109479607Y-115671503D01*
X109545776Y-115705218D01*
X109545778Y-115705218D01*
X109545781Y-115705220D01*
X109650137Y-115739127D01*
X109740465Y-115768477D01*
X109841557Y-115784488D01*
X109942648Y-115800500D01*
X109942649Y-115800500D01*
X110147351Y-115800500D01*
X110147352Y-115800500D01*
X110349534Y-115768477D01*
X110544219Y-115705220D01*
X110726610Y-115612287D01*
X110819590Y-115544732D01*
X110892213Y-115491971D01*
X110892215Y-115491968D01*
X110892219Y-115491966D01*
X111036966Y-115347219D01*
X111036968Y-115347215D01*
X111036971Y-115347213D01*
X111089732Y-115274590D01*
X111157287Y-115181610D01*
X111250220Y-114999219D01*
X111313477Y-114804534D01*
X111345500Y-114602352D01*
X111345500Y-114397648D01*
X111313477Y-114195466D01*
X111250220Y-114000781D01*
X111250218Y-114000778D01*
X111250218Y-114000776D01*
X111204515Y-113911080D01*
X111157287Y-113818390D01*
X111119204Y-113765973D01*
X111036971Y-113652786D01*
X110936320Y-113552135D01*
X112374500Y-113552135D01*
X112374500Y-115447870D01*
X112374501Y-115447876D01*
X112380908Y-115507483D01*
X112431202Y-115642328D01*
X112431206Y-115642335D01*
X112517452Y-115757544D01*
X112517455Y-115757547D01*
X112632664Y-115843793D01*
X112632671Y-115843797D01*
X112677618Y-115860561D01*
X112767517Y-115894091D01*
X112827127Y-115900500D01*
X113025500Y-115900499D01*
X113092539Y-115920183D01*
X113138294Y-115972987D01*
X113149500Y-116024499D01*
X113149500Y-118691610D01*
X113173535Y-118812444D01*
X113173537Y-118812452D01*
X113187347Y-118845792D01*
X113220688Y-118926286D01*
X113254915Y-118977509D01*
X113258802Y-118983326D01*
X113258803Y-118983328D01*
X113289140Y-119028731D01*
X113289141Y-119028732D01*
X113289142Y-119028733D01*
X113376267Y-119115858D01*
X113376268Y-119115858D01*
X113383335Y-119122925D01*
X113383334Y-119122925D01*
X113383338Y-119122928D01*
X114479562Y-120219152D01*
X114513047Y-120280475D01*
X114509812Y-120345150D01*
X114476571Y-120447457D01*
X114439500Y-120681515D01*
X114439500Y-120918483D01*
X114442973Y-120940411D01*
X114444500Y-120959809D01*
X114444500Y-131785596D01*
X114457973Y-131870657D01*
X114459500Y-131890056D01*
X114459500Y-133322517D01*
X114470000Y-133425296D01*
X114525185Y-133591832D01*
X114525187Y-133591837D01*
X114530228Y-133600010D01*
X114617288Y-133741156D01*
X114741344Y-133865212D01*
X114890665Y-133957314D01*
X115057202Y-134012499D01*
X115159990Y-134023000D01*
X115159995Y-134023000D01*
X116840005Y-134023000D01*
X116840010Y-134023000D01*
X116942798Y-134012499D01*
X117109335Y-133957314D01*
X117258656Y-133865212D01*
X117382712Y-133741156D01*
X117474814Y-133591835D01*
X117529999Y-133425298D01*
X117540500Y-133322510D01*
X117540500Y-130841254D01*
X119539500Y-130841254D01*
X119539500Y-132603745D01*
X119577432Y-132843236D01*
X119652360Y-133073844D01*
X119762448Y-133289901D01*
X119904966Y-133486062D01*
X119904970Y-133486067D01*
X120076432Y-133657529D01*
X120076437Y-133657533D01*
X120247539Y-133781845D01*
X120272602Y-133800054D01*
X120457491Y-133894260D01*
X120488655Y-133910139D01*
X120565257Y-133935028D01*
X120719265Y-133985068D01*
X120830186Y-134002636D01*
X120958755Y-134023000D01*
X120958760Y-134023000D01*
X121201245Y-134023000D01*
X121317347Y-134004610D01*
X121440735Y-133985068D01*
X121671347Y-133910138D01*
X121887398Y-133800054D01*
X122083569Y-133657528D01*
X122255028Y-133486069D01*
X122397554Y-133289898D01*
X122507638Y-133073847D01*
X122582568Y-132843235D01*
X122617721Y-132621288D01*
X122620500Y-132603745D01*
X122620500Y-130841254D01*
X122590128Y-130649500D01*
X122582568Y-130601765D01*
X122527603Y-130432598D01*
X122507639Y-130371155D01*
X122438996Y-130236437D01*
X122397554Y-130155102D01*
X122332067Y-130064966D01*
X122255033Y-129958937D01*
X122255029Y-129958932D01*
X122083567Y-129787470D01*
X122083562Y-129787466D01*
X121887401Y-129644948D01*
X121887400Y-129644947D01*
X121887398Y-129644946D01*
X121779372Y-129589904D01*
X121671344Y-129534860D01*
X121440736Y-129459932D01*
X121201245Y-129422000D01*
X121201240Y-129422000D01*
X120958760Y-129422000D01*
X120958755Y-129422000D01*
X120719263Y-129459932D01*
X120488655Y-129534860D01*
X120272598Y-129644948D01*
X120076437Y-129787466D01*
X120076432Y-129787470D01*
X119904970Y-129958932D01*
X119904966Y-129958937D01*
X119762448Y-130155098D01*
X119652360Y-130371155D01*
X119577432Y-130601763D01*
X119539500Y-130841254D01*
X117540500Y-130841254D01*
X117540500Y-130122490D01*
X117529999Y-130019702D01*
X117474814Y-129853165D01*
X117463961Y-129835569D01*
X117445500Y-129770473D01*
X117445500Y-121881548D01*
X119540000Y-121881548D01*
X119540000Y-122118451D01*
X119577057Y-122352422D01*
X119650263Y-122577724D01*
X119757810Y-122788795D01*
X119818759Y-122872685D01*
X119818761Y-122872685D01*
X120557954Y-122133492D01*
X120574415Y-122194923D01*
X120640899Y-122310078D01*
X120734922Y-122404101D01*
X120850077Y-122470585D01*
X120911507Y-122487045D01*
X120172312Y-123226238D01*
X120172313Y-123226239D01*
X120256203Y-123287189D01*
X120467275Y-123394736D01*
X120692577Y-123467942D01*
X120926549Y-123505000D01*
X121163451Y-123505000D01*
X121397422Y-123467942D01*
X121622724Y-123394736D01*
X121833792Y-123287191D01*
X121917685Y-123226238D01*
X121917686Y-123226238D01*
X121178492Y-122487045D01*
X121239923Y-122470585D01*
X121355078Y-122404101D01*
X121449101Y-122310078D01*
X121515585Y-122194923D01*
X121532045Y-122133493D01*
X122271238Y-122872686D01*
X122271238Y-122872685D01*
X122332191Y-122788792D01*
X122439736Y-122577724D01*
X122512942Y-122352422D01*
X122550000Y-122118451D01*
X122550000Y-121881548D01*
X122512942Y-121647577D01*
X122439736Y-121422275D01*
X122332189Y-121211203D01*
X122271239Y-121127313D01*
X122271238Y-121127312D01*
X121532045Y-121866506D01*
X121515585Y-121805077D01*
X121449101Y-121689922D01*
X121355078Y-121595899D01*
X121239923Y-121529415D01*
X121178491Y-121512954D01*
X121917685Y-120773761D01*
X121917685Y-120773759D01*
X121833795Y-120712810D01*
X121622724Y-120605263D01*
X121397422Y-120532057D01*
X121163451Y-120495000D01*
X120926549Y-120495000D01*
X120692577Y-120532057D01*
X120467275Y-120605263D01*
X120256209Y-120712807D01*
X120172313Y-120773760D01*
X120911508Y-121512954D01*
X120850077Y-121529415D01*
X120734922Y-121595899D01*
X120640899Y-121689922D01*
X120574415Y-121805077D01*
X120557954Y-121866507D01*
X119818760Y-121127313D01*
X119757807Y-121211209D01*
X119650263Y-121422275D01*
X119577057Y-121647577D01*
X119540000Y-121881548D01*
X117445500Y-121881548D01*
X117445500Y-120959809D01*
X117445580Y-120955345D01*
X117445850Y-120947841D01*
X117450500Y-120918485D01*
X117450500Y-120681515D01*
X117413429Y-120447461D01*
X117340201Y-120222089D01*
X117232619Y-120010946D01*
X117093331Y-119819233D01*
X116925767Y-119651669D01*
X116734054Y-119512381D01*
X116522911Y-119404799D01*
X116297539Y-119331571D01*
X116297537Y-119331570D01*
X116297535Y-119331570D01*
X116134115Y-119305686D01*
X116063485Y-119294500D01*
X115826515Y-119294500D01*
X115779704Y-119301914D01*
X115592457Y-119331571D01*
X115490150Y-119364812D01*
X115420309Y-119366807D01*
X115364152Y-119334562D01*
X114436819Y-118407228D01*
X114403334Y-118345905D01*
X114400500Y-118319547D01*
X114400500Y-116024499D01*
X114420185Y-115957460D01*
X114472989Y-115911705D01*
X114524500Y-115900499D01*
X114722871Y-115900499D01*
X114722872Y-115900499D01*
X114782483Y-115894091D01*
X114917331Y-115843796D01*
X115032546Y-115757546D01*
X115118796Y-115642331D01*
X115146429Y-115568243D01*
X115148601Y-115562420D01*
X115190471Y-115506486D01*
X115255936Y-115482068D01*
X115324209Y-115496919D01*
X115352464Y-115518071D01*
X115402636Y-115568243D01*
X115402641Y-115568247D01*
X115463258Y-115612287D01*
X115580978Y-115697815D01*
X115709375Y-115763237D01*
X115777393Y-115797895D01*
X115777396Y-115797896D01*
X115882221Y-115831955D01*
X115987049Y-115866015D01*
X116204778Y-115900500D01*
X116204779Y-115900500D01*
X116425221Y-115900500D01*
X116425222Y-115900500D01*
X116642951Y-115866015D01*
X116852606Y-115797895D01*
X117049022Y-115697815D01*
X117227365Y-115568242D01*
X117383242Y-115412365D01*
X117512815Y-115234022D01*
X117533612Y-115193204D01*
X117581586Y-115142409D01*
X117644097Y-115125500D01*
X120283885Y-115125500D01*
X120350924Y-115145185D01*
X120383606Y-115178571D01*
X120384849Y-115177669D01*
X120508028Y-115347213D01*
X120652786Y-115491971D01*
X120807749Y-115604556D01*
X120818390Y-115612287D01*
X120934607Y-115671503D01*
X121000776Y-115705218D01*
X121000778Y-115705218D01*
X121000781Y-115705220D01*
X121105137Y-115739127D01*
X121195465Y-115768477D01*
X121296557Y-115784488D01*
X121397648Y-115800500D01*
X121397649Y-115800500D01*
X121602351Y-115800500D01*
X121602352Y-115800500D01*
X121804534Y-115768477D01*
X121999219Y-115705220D01*
X122181610Y-115612287D01*
X122274590Y-115544732D01*
X122347213Y-115491971D01*
X122347215Y-115491968D01*
X122347219Y-115491966D01*
X122491966Y-115347219D01*
X122491968Y-115347215D01*
X122491971Y-115347213D01*
X122612284Y-115181614D01*
X122612285Y-115181613D01*
X122612287Y-115181610D01*
X122659516Y-115088917D01*
X122707489Y-115038123D01*
X122775310Y-115021328D01*
X122841445Y-115043865D01*
X122880483Y-115088917D01*
X122907739Y-115142409D01*
X122927715Y-115181614D01*
X123048028Y-115347213D01*
X123192786Y-115491971D01*
X123347749Y-115604556D01*
X123358390Y-115612287D01*
X123474607Y-115671503D01*
X123540776Y-115705218D01*
X123540778Y-115705218D01*
X123540781Y-115705220D01*
X123645137Y-115739127D01*
X123735465Y-115768477D01*
X123836557Y-115784488D01*
X123937648Y-115800500D01*
X123937649Y-115800500D01*
X124142351Y-115800500D01*
X124142352Y-115800500D01*
X124344534Y-115768477D01*
X124539219Y-115705220D01*
X124721610Y-115612287D01*
X124814590Y-115544732D01*
X124887213Y-115491971D01*
X124887215Y-115491968D01*
X124887219Y-115491966D01*
X125031966Y-115347219D01*
X125031968Y-115347215D01*
X125031971Y-115347213D01*
X125084732Y-115274590D01*
X125152287Y-115181610D01*
X125245220Y-114999219D01*
X125308477Y-114804534D01*
X125340500Y-114602352D01*
X125340500Y-114397648D01*
X125308477Y-114195466D01*
X125245220Y-114000781D01*
X125245218Y-114000778D01*
X125245218Y-114000776D01*
X125199515Y-113911080D01*
X125152287Y-113818390D01*
X125114204Y-113765973D01*
X125031971Y-113652786D01*
X124931320Y-113552135D01*
X126374500Y-113552135D01*
X126374500Y-115447870D01*
X126374501Y-115447876D01*
X126380908Y-115507483D01*
X126431202Y-115642328D01*
X126431206Y-115642335D01*
X126517452Y-115757544D01*
X126517455Y-115757547D01*
X126632664Y-115843793D01*
X126632671Y-115843797D01*
X126677618Y-115860561D01*
X126767517Y-115894091D01*
X126827127Y-115900500D01*
X127025500Y-115900499D01*
X127092539Y-115920183D01*
X127138294Y-115972987D01*
X127149500Y-116024499D01*
X127149500Y-118341611D01*
X127173535Y-118462444D01*
X127173540Y-118462461D01*
X127220685Y-118576280D01*
X127220687Y-118576283D01*
X127220688Y-118576286D01*
X127254915Y-118627509D01*
X127289142Y-118678733D01*
X127376267Y-118765858D01*
X127376270Y-118765860D01*
X127383554Y-118773144D01*
X128529562Y-119919152D01*
X128563047Y-119980475D01*
X128559812Y-120045150D01*
X128526571Y-120147457D01*
X128489500Y-120381515D01*
X128489500Y-120618483D01*
X128492973Y-120640411D01*
X128494500Y-120659809D01*
X128494500Y-129925759D01*
X128488206Y-129964762D01*
X128470001Y-130019699D01*
X128470000Y-130019703D01*
X128459500Y-130122482D01*
X128459500Y-133322517D01*
X128470000Y-133425296D01*
X128525185Y-133591832D01*
X128525187Y-133591837D01*
X128530228Y-133600010D01*
X128617288Y-133741156D01*
X128741344Y-133865212D01*
X128890665Y-133957314D01*
X129057202Y-134012499D01*
X129159990Y-134023000D01*
X129159995Y-134023000D01*
X130840005Y-134023000D01*
X130840010Y-134023000D01*
X130942798Y-134012499D01*
X131109335Y-133957314D01*
X131258656Y-133865212D01*
X131382712Y-133741156D01*
X131474814Y-133591835D01*
X131529999Y-133425298D01*
X131540500Y-133322510D01*
X131540500Y-130841254D01*
X133539500Y-130841254D01*
X133539500Y-132603745D01*
X133577432Y-132843236D01*
X133652360Y-133073844D01*
X133762448Y-133289901D01*
X133904966Y-133486062D01*
X133904970Y-133486067D01*
X134076432Y-133657529D01*
X134076437Y-133657533D01*
X134247539Y-133781845D01*
X134272602Y-133800054D01*
X134457491Y-133894260D01*
X134488655Y-133910139D01*
X134565257Y-133935028D01*
X134719265Y-133985068D01*
X134830186Y-134002636D01*
X134958755Y-134023000D01*
X134958760Y-134023000D01*
X135201245Y-134023000D01*
X135317347Y-134004610D01*
X135440735Y-133985068D01*
X135671347Y-133910138D01*
X135887398Y-133800054D01*
X136083569Y-133657528D01*
X136255028Y-133486069D01*
X136397554Y-133289898D01*
X136507638Y-133073847D01*
X136582568Y-132843235D01*
X136617721Y-132621288D01*
X136620500Y-132603745D01*
X136620500Y-132378711D01*
X144149500Y-132378711D01*
X144149500Y-132621288D01*
X144181161Y-132861785D01*
X144243947Y-133096104D01*
X144324221Y-133289901D01*
X144336776Y-133320212D01*
X144458064Y-133530289D01*
X144458066Y-133530292D01*
X144458067Y-133530293D01*
X144605733Y-133722736D01*
X144605739Y-133722743D01*
X144777256Y-133894260D01*
X144777262Y-133894265D01*
X144969711Y-134041936D01*
X145179788Y-134163224D01*
X145403900Y-134256054D01*
X145638211Y-134318838D01*
X145818586Y-134342584D01*
X145878711Y-134350500D01*
X145878712Y-134350500D01*
X146121289Y-134350500D01*
X146169388Y-134344167D01*
X146361789Y-134318838D01*
X146596100Y-134256054D01*
X146820212Y-134163224D01*
X147030289Y-134041936D01*
X147222738Y-133894265D01*
X147394265Y-133722738D01*
X147541936Y-133530289D01*
X147663224Y-133320212D01*
X147756054Y-133096100D01*
X147818838Y-132861789D01*
X147850500Y-132621288D01*
X147850500Y-132378712D01*
X147818838Y-132138211D01*
X147756054Y-131903900D01*
X147663224Y-131679788D01*
X147541936Y-131469711D01*
X147394265Y-131277262D01*
X147394260Y-131277256D01*
X147222743Y-131105739D01*
X147222736Y-131105733D01*
X147030293Y-130958067D01*
X147030292Y-130958066D01*
X147030289Y-130958064D01*
X146820212Y-130836776D01*
X146820205Y-130836773D01*
X146596104Y-130743947D01*
X146361785Y-130681161D01*
X146121289Y-130649500D01*
X146121288Y-130649500D01*
X145878712Y-130649500D01*
X145878711Y-130649500D01*
X145638214Y-130681161D01*
X145403895Y-130743947D01*
X145179794Y-130836773D01*
X145179785Y-130836777D01*
X144969706Y-130958067D01*
X144777263Y-131105733D01*
X144777256Y-131105739D01*
X144605739Y-131277256D01*
X144605733Y-131277263D01*
X144458067Y-131469706D01*
X144336777Y-131679785D01*
X144336773Y-131679794D01*
X144243947Y-131903895D01*
X144181161Y-132138214D01*
X144149500Y-132378711D01*
X136620500Y-132378711D01*
X136620500Y-130841254D01*
X136590128Y-130649500D01*
X136582568Y-130601765D01*
X136527603Y-130432598D01*
X136507639Y-130371155D01*
X136438996Y-130236437D01*
X136397554Y-130155102D01*
X136332067Y-130064966D01*
X136255033Y-129958937D01*
X136255029Y-129958932D01*
X136083567Y-129787470D01*
X136083562Y-129787466D01*
X135887401Y-129644948D01*
X135887400Y-129644947D01*
X135887398Y-129644946D01*
X135779372Y-129589904D01*
X135671344Y-129534860D01*
X135440736Y-129459932D01*
X135201245Y-129422000D01*
X135201240Y-129422000D01*
X134958760Y-129422000D01*
X134958755Y-129422000D01*
X134719263Y-129459932D01*
X134488655Y-129534860D01*
X134272598Y-129644948D01*
X134076437Y-129787466D01*
X134076432Y-129787470D01*
X133904970Y-129958932D01*
X133904966Y-129958937D01*
X133762448Y-130155098D01*
X133652360Y-130371155D01*
X133577432Y-130601763D01*
X133539500Y-130841254D01*
X131540500Y-130841254D01*
X131540500Y-130122490D01*
X131529999Y-130019702D01*
X131511794Y-129964762D01*
X131501794Y-129934584D01*
X131495500Y-129895581D01*
X131495500Y-121581548D01*
X133590000Y-121581548D01*
X133590000Y-121818451D01*
X133627057Y-122052422D01*
X133700263Y-122277724D01*
X133807810Y-122488795D01*
X133868759Y-122572685D01*
X133868761Y-122572685D01*
X134607954Y-121833492D01*
X134624415Y-121894923D01*
X134690899Y-122010078D01*
X134784922Y-122104101D01*
X134900077Y-122170585D01*
X134961507Y-122187045D01*
X134222312Y-122926238D01*
X134222313Y-122926239D01*
X134306203Y-122987189D01*
X134517275Y-123094736D01*
X134742577Y-123167942D01*
X134976549Y-123205000D01*
X135213451Y-123205000D01*
X135447422Y-123167942D01*
X135672724Y-123094736D01*
X135883792Y-122987191D01*
X135967685Y-122926238D01*
X135967686Y-122926238D01*
X135228492Y-122187045D01*
X135289923Y-122170585D01*
X135405078Y-122104101D01*
X135499101Y-122010078D01*
X135565585Y-121894923D01*
X135582045Y-121833493D01*
X136321238Y-122572686D01*
X136321238Y-122572685D01*
X136382191Y-122488792D01*
X136489736Y-122277724D01*
X136562942Y-122052422D01*
X136600000Y-121818451D01*
X136600000Y-121581548D01*
X136562942Y-121347577D01*
X136489736Y-121122275D01*
X136382189Y-120911203D01*
X136321239Y-120827313D01*
X136321238Y-120827312D01*
X135582045Y-121566506D01*
X135565585Y-121505077D01*
X135499101Y-121389922D01*
X135405078Y-121295899D01*
X135289923Y-121229415D01*
X135228491Y-121212954D01*
X135967685Y-120473761D01*
X135967685Y-120473759D01*
X135883795Y-120412810D01*
X135672724Y-120305263D01*
X135447422Y-120232057D01*
X135213451Y-120195000D01*
X134976549Y-120195000D01*
X134742577Y-120232057D01*
X134517275Y-120305263D01*
X134306209Y-120412807D01*
X134222313Y-120473760D01*
X134961508Y-121212954D01*
X134900077Y-121229415D01*
X134784922Y-121295899D01*
X134690899Y-121389922D01*
X134624415Y-121505077D01*
X134607954Y-121566507D01*
X133868760Y-120827313D01*
X133807807Y-120911209D01*
X133700263Y-121122275D01*
X133627057Y-121347577D01*
X133590000Y-121581548D01*
X131495500Y-121581548D01*
X131495500Y-120659809D01*
X131495580Y-120655345D01*
X131495850Y-120647841D01*
X131500500Y-120618485D01*
X131500500Y-120381515D01*
X131463429Y-120147461D01*
X131390201Y-119922089D01*
X131282619Y-119710946D01*
X131143331Y-119519233D01*
X130975767Y-119351669D01*
X130784054Y-119212381D01*
X130572911Y-119104799D01*
X130347539Y-119031571D01*
X130347537Y-119031570D01*
X130347535Y-119031570D01*
X130184115Y-119005686D01*
X130113485Y-118994500D01*
X129876515Y-118994500D01*
X129829704Y-119001914D01*
X129642457Y-119031571D01*
X129540150Y-119064812D01*
X129470309Y-119066807D01*
X129414152Y-119034562D01*
X128436819Y-118057229D01*
X128403334Y-117995906D01*
X128400500Y-117969548D01*
X128400500Y-116024499D01*
X128420185Y-115957460D01*
X128472989Y-115911705D01*
X128524500Y-115900499D01*
X128722871Y-115900499D01*
X128722872Y-115900499D01*
X128782483Y-115894091D01*
X128917331Y-115843796D01*
X129032546Y-115757546D01*
X129118796Y-115642331D01*
X129146429Y-115568243D01*
X129148601Y-115562420D01*
X129190471Y-115506486D01*
X129255936Y-115482068D01*
X129324209Y-115496919D01*
X129352464Y-115518071D01*
X129402636Y-115568243D01*
X129402641Y-115568247D01*
X129463258Y-115612287D01*
X129580978Y-115697815D01*
X129709375Y-115763237D01*
X129777393Y-115797895D01*
X129777396Y-115797896D01*
X129882221Y-115831955D01*
X129987049Y-115866015D01*
X130204778Y-115900500D01*
X130204779Y-115900500D01*
X130425221Y-115900500D01*
X130425222Y-115900500D01*
X130642951Y-115866015D01*
X130852606Y-115797895D01*
X131049022Y-115697815D01*
X131227365Y-115568242D01*
X131383242Y-115412365D01*
X131512815Y-115234022D01*
X131533612Y-115193204D01*
X131581586Y-115142409D01*
X131644097Y-115125500D01*
X134288885Y-115125500D01*
X134355924Y-115145185D01*
X134388606Y-115178571D01*
X134389849Y-115177669D01*
X134513028Y-115347213D01*
X134657786Y-115491971D01*
X134812749Y-115604556D01*
X134823390Y-115612287D01*
X134939607Y-115671503D01*
X135005776Y-115705218D01*
X135005778Y-115705218D01*
X135005781Y-115705220D01*
X135110137Y-115739127D01*
X135200465Y-115768477D01*
X135301557Y-115784488D01*
X135402648Y-115800500D01*
X135402649Y-115800500D01*
X135607351Y-115800500D01*
X135607352Y-115800500D01*
X135809534Y-115768477D01*
X136004219Y-115705220D01*
X136186610Y-115612287D01*
X136279590Y-115544732D01*
X136352213Y-115491971D01*
X136352215Y-115491968D01*
X136352219Y-115491966D01*
X136496966Y-115347219D01*
X136496968Y-115347215D01*
X136496971Y-115347213D01*
X136617284Y-115181614D01*
X136617285Y-115181613D01*
X136617287Y-115181610D01*
X136664516Y-115088917D01*
X136712489Y-115038123D01*
X136780310Y-115021328D01*
X136846445Y-115043865D01*
X136885483Y-115088917D01*
X136912739Y-115142409D01*
X136932715Y-115181614D01*
X137053028Y-115347213D01*
X137197786Y-115491971D01*
X137352749Y-115604556D01*
X137363390Y-115612287D01*
X137479607Y-115671503D01*
X137545776Y-115705218D01*
X137545778Y-115705218D01*
X137545781Y-115705220D01*
X137650137Y-115739127D01*
X137740465Y-115768477D01*
X137841557Y-115784488D01*
X137942648Y-115800500D01*
X137942649Y-115800500D01*
X138147351Y-115800500D01*
X138147352Y-115800500D01*
X138349534Y-115768477D01*
X138544219Y-115705220D01*
X138726610Y-115612287D01*
X138819590Y-115544732D01*
X138892213Y-115491971D01*
X138892215Y-115491968D01*
X138892219Y-115491966D01*
X139036966Y-115347219D01*
X139036968Y-115347215D01*
X139036971Y-115347213D01*
X139089732Y-115274590D01*
X139157287Y-115181610D01*
X139250220Y-114999219D01*
X139313477Y-114804534D01*
X139345500Y-114602352D01*
X139345500Y-114397648D01*
X139313477Y-114195466D01*
X139250220Y-114000781D01*
X139250218Y-114000778D01*
X139250218Y-114000776D01*
X139204515Y-113911080D01*
X139157287Y-113818390D01*
X139119204Y-113765973D01*
X139036971Y-113652786D01*
X138892213Y-113508028D01*
X138726613Y-113387715D01*
X138726612Y-113387714D01*
X138726610Y-113387713D01*
X138667636Y-113357664D01*
X138544223Y-113294781D01*
X138349534Y-113231522D01*
X138163799Y-113202105D01*
X138147352Y-113199500D01*
X137942648Y-113199500D01*
X137926201Y-113202105D01*
X137740465Y-113231522D01*
X137545776Y-113294781D01*
X137363386Y-113387715D01*
X137197786Y-113508028D01*
X137053028Y-113652786D01*
X136932715Y-113818386D01*
X136885485Y-113911080D01*
X136837510Y-113961876D01*
X136769689Y-113978671D01*
X136703554Y-113956134D01*
X136664515Y-113911080D01*
X136663883Y-113909840D01*
X136617287Y-113818390D01*
X136579204Y-113765973D01*
X136496971Y-113652786D01*
X136352213Y-113508028D01*
X136186613Y-113387715D01*
X136186612Y-113387714D01*
X136186610Y-113387713D01*
X136127636Y-113357664D01*
X136004223Y-113294781D01*
X135809534Y-113231522D01*
X135623799Y-113202105D01*
X135607352Y-113199500D01*
X135402648Y-113199500D01*
X135386201Y-113202105D01*
X135200465Y-113231522D01*
X135005776Y-113294781D01*
X134823386Y-113387715D01*
X134657786Y-113508028D01*
X134513028Y-113652786D01*
X134389849Y-113822331D01*
X134388176Y-113821115D01*
X134342792Y-113862169D01*
X134288885Y-113874500D01*
X131644097Y-113874500D01*
X131577058Y-113854815D01*
X131533612Y-113806795D01*
X131512812Y-113765973D01*
X131383247Y-113587641D01*
X131383243Y-113587636D01*
X131227363Y-113431756D01*
X131227358Y-113431752D01*
X131049025Y-113302187D01*
X131049024Y-113302186D01*
X131049022Y-113302185D01*
X130931791Y-113242452D01*
X130852606Y-113202104D01*
X130852603Y-113202103D01*
X130642952Y-113133985D01*
X130534086Y-113116742D01*
X130425222Y-113099500D01*
X130204778Y-113099500D01*
X130132201Y-113110995D01*
X129987047Y-113133985D01*
X129777396Y-113202103D01*
X129777393Y-113202104D01*
X129580974Y-113302187D01*
X129402641Y-113431752D01*
X129402636Y-113431756D01*
X129352463Y-113481929D01*
X129291140Y-113515413D01*
X129221448Y-113510428D01*
X129165515Y-113468557D01*
X129148601Y-113437580D01*
X129118797Y-113357671D01*
X129118793Y-113357664D01*
X129032547Y-113242455D01*
X129032544Y-113242452D01*
X128917335Y-113156206D01*
X128917328Y-113156202D01*
X128782482Y-113105908D01*
X128782483Y-113105908D01*
X128722883Y-113099501D01*
X128722881Y-113099500D01*
X128722873Y-113099500D01*
X128722864Y-113099500D01*
X126827129Y-113099500D01*
X126827123Y-113099501D01*
X126767516Y-113105908D01*
X126632671Y-113156202D01*
X126632664Y-113156206D01*
X126517455Y-113242452D01*
X126517452Y-113242455D01*
X126431206Y-113357664D01*
X126431202Y-113357671D01*
X126380908Y-113492517D01*
X126374501Y-113552116D01*
X126374500Y-113552135D01*
X124931320Y-113552135D01*
X124887213Y-113508028D01*
X124721613Y-113387715D01*
X124721612Y-113387714D01*
X124721610Y-113387713D01*
X124662636Y-113357664D01*
X124539223Y-113294781D01*
X124344534Y-113231522D01*
X124158799Y-113202105D01*
X124142352Y-113199500D01*
X123937648Y-113199500D01*
X123921201Y-113202105D01*
X123735465Y-113231522D01*
X123540776Y-113294781D01*
X123358386Y-113387715D01*
X123192786Y-113508028D01*
X123048028Y-113652786D01*
X122927715Y-113818386D01*
X122880485Y-113911080D01*
X122832510Y-113961876D01*
X122764689Y-113978671D01*
X122698554Y-113956134D01*
X122659515Y-113911080D01*
X122658883Y-113909840D01*
X122612287Y-113818390D01*
X122574204Y-113765973D01*
X122491971Y-113652786D01*
X122347213Y-113508028D01*
X122181613Y-113387715D01*
X122181612Y-113387714D01*
X122181610Y-113387713D01*
X122122636Y-113357664D01*
X121999223Y-113294781D01*
X121804534Y-113231522D01*
X121618799Y-113202105D01*
X121602352Y-113199500D01*
X121397648Y-113199500D01*
X121381201Y-113202105D01*
X121195465Y-113231522D01*
X121000776Y-113294781D01*
X120818386Y-113387715D01*
X120652786Y-113508028D01*
X120508028Y-113652786D01*
X120384849Y-113822331D01*
X120383176Y-113821115D01*
X120337792Y-113862169D01*
X120283885Y-113874500D01*
X117644097Y-113874500D01*
X117577058Y-113854815D01*
X117533612Y-113806795D01*
X117512812Y-113765973D01*
X117383247Y-113587641D01*
X117383243Y-113587636D01*
X117227363Y-113431756D01*
X117227358Y-113431752D01*
X117049025Y-113302187D01*
X117049024Y-113302186D01*
X117049022Y-113302185D01*
X116931791Y-113242452D01*
X116852606Y-113202104D01*
X116852603Y-113202103D01*
X116642952Y-113133985D01*
X116534086Y-113116742D01*
X116425222Y-113099500D01*
X116204778Y-113099500D01*
X116132201Y-113110995D01*
X115987047Y-113133985D01*
X115777396Y-113202103D01*
X115777393Y-113202104D01*
X115580974Y-113302187D01*
X115402641Y-113431752D01*
X115402636Y-113431756D01*
X115352463Y-113481929D01*
X115291140Y-113515413D01*
X115221448Y-113510428D01*
X115165515Y-113468557D01*
X115148601Y-113437580D01*
X115118797Y-113357671D01*
X115118793Y-113357664D01*
X115032547Y-113242455D01*
X115032544Y-113242452D01*
X114917335Y-113156206D01*
X114917328Y-113156202D01*
X114782482Y-113105908D01*
X114782483Y-113105908D01*
X114722883Y-113099501D01*
X114722881Y-113099500D01*
X114722873Y-113099500D01*
X114722864Y-113099500D01*
X112827129Y-113099500D01*
X112827123Y-113099501D01*
X112767516Y-113105908D01*
X112632671Y-113156202D01*
X112632664Y-113156206D01*
X112517455Y-113242452D01*
X112517452Y-113242455D01*
X112431206Y-113357664D01*
X112431202Y-113357671D01*
X112380908Y-113492517D01*
X112374501Y-113552116D01*
X112374500Y-113552135D01*
X110936320Y-113552135D01*
X110892213Y-113508028D01*
X110726613Y-113387715D01*
X110726612Y-113387714D01*
X110726610Y-113387713D01*
X110667636Y-113357664D01*
X110544223Y-113294781D01*
X110349534Y-113231522D01*
X110163799Y-113202105D01*
X110147352Y-113199500D01*
X109942648Y-113199500D01*
X109926201Y-113202105D01*
X109740465Y-113231522D01*
X109545776Y-113294781D01*
X109363386Y-113387715D01*
X109197786Y-113508028D01*
X109053028Y-113652786D01*
X108932715Y-113818386D01*
X108885485Y-113911080D01*
X108837510Y-113961876D01*
X108769689Y-113978671D01*
X108703554Y-113956134D01*
X108664515Y-113911080D01*
X108663883Y-113909840D01*
X108617287Y-113818390D01*
X108579204Y-113765973D01*
X108496971Y-113652786D01*
X108352213Y-113508028D01*
X108186613Y-113387715D01*
X108186612Y-113387714D01*
X108186610Y-113387713D01*
X108127636Y-113357664D01*
X108004223Y-113294781D01*
X107809534Y-113231522D01*
X107623799Y-113202105D01*
X107607352Y-113199500D01*
X107402648Y-113199500D01*
X107386201Y-113202105D01*
X107200465Y-113231522D01*
X107005776Y-113294781D01*
X106823386Y-113387715D01*
X106657786Y-113508028D01*
X106513028Y-113652786D01*
X106389849Y-113822331D01*
X106388176Y-113821115D01*
X106342792Y-113862169D01*
X106288885Y-113874500D01*
X103874097Y-113874500D01*
X103807058Y-113854815D01*
X103763612Y-113806795D01*
X103742812Y-113765973D01*
X103613247Y-113587641D01*
X103613243Y-113587636D01*
X103457363Y-113431756D01*
X103457358Y-113431752D01*
X103279025Y-113302187D01*
X103279024Y-113302186D01*
X103279022Y-113302185D01*
X103161791Y-113242452D01*
X103082606Y-113202104D01*
X103082603Y-113202103D01*
X102872952Y-113133985D01*
X102764086Y-113116742D01*
X102655222Y-113099500D01*
X102434778Y-113099500D01*
X102362201Y-113110995D01*
X102217047Y-113133985D01*
X102007396Y-113202103D01*
X102007393Y-113202104D01*
X101810974Y-113302187D01*
X101632641Y-113431752D01*
X101632636Y-113431756D01*
X101582463Y-113481929D01*
X101521140Y-113515413D01*
X101451448Y-113510428D01*
X101395515Y-113468557D01*
X101378601Y-113437580D01*
X101348797Y-113357671D01*
X101348793Y-113357664D01*
X101262547Y-113242455D01*
X101262544Y-113242452D01*
X101147335Y-113156206D01*
X101147328Y-113156202D01*
X101012482Y-113105908D01*
X101012483Y-113105908D01*
X100952883Y-113099501D01*
X100952881Y-113099500D01*
X100952873Y-113099500D01*
X100952864Y-113099500D01*
X99057129Y-113099500D01*
X99057123Y-113099501D01*
X98997516Y-113105908D01*
X98862671Y-113156202D01*
X98862664Y-113156206D01*
X98747455Y-113242452D01*
X98747452Y-113242455D01*
X98661206Y-113357664D01*
X98661202Y-113357671D01*
X98610908Y-113492517D01*
X98604501Y-113552116D01*
X98604500Y-113552135D01*
X96936320Y-113552135D01*
X96892213Y-113508028D01*
X96726613Y-113387715D01*
X96726612Y-113387714D01*
X96726610Y-113387713D01*
X96667636Y-113357664D01*
X96544223Y-113294781D01*
X96349534Y-113231522D01*
X96163799Y-113202105D01*
X96147352Y-113199500D01*
X95942648Y-113199500D01*
X95926201Y-113202105D01*
X95740465Y-113231522D01*
X95545776Y-113294781D01*
X95363386Y-113387715D01*
X95197786Y-113508028D01*
X95053028Y-113652786D01*
X94932715Y-113818386D01*
X94885485Y-113911080D01*
X94837510Y-113961876D01*
X94769689Y-113978671D01*
X94703554Y-113956134D01*
X94664515Y-113911080D01*
X94663883Y-113909840D01*
X94617287Y-113818390D01*
X94579204Y-113765973D01*
X94496971Y-113652786D01*
X94352213Y-113508028D01*
X94186613Y-113387715D01*
X94186612Y-113387714D01*
X94186610Y-113387713D01*
X94127636Y-113357664D01*
X94004223Y-113294781D01*
X93809534Y-113231522D01*
X93623799Y-113202105D01*
X93607352Y-113199500D01*
X93402648Y-113199500D01*
X93386201Y-113202105D01*
X93200465Y-113231522D01*
X93005776Y-113294781D01*
X92823386Y-113387715D01*
X92657786Y-113508028D01*
X92513028Y-113652786D01*
X92389849Y-113822331D01*
X92388176Y-113821115D01*
X92342792Y-113862169D01*
X92288885Y-113874500D01*
X89874097Y-113874500D01*
X89807058Y-113854815D01*
X89763612Y-113806795D01*
X89742812Y-113765973D01*
X89613247Y-113587641D01*
X89613243Y-113587636D01*
X89457363Y-113431756D01*
X89457358Y-113431752D01*
X89279025Y-113302187D01*
X89279024Y-113302186D01*
X89279022Y-113302185D01*
X89161791Y-113242452D01*
X89082606Y-113202104D01*
X89082603Y-113202103D01*
X88872952Y-113133985D01*
X88764086Y-113116742D01*
X88655222Y-113099500D01*
X88434778Y-113099500D01*
X88362201Y-113110995D01*
X88217047Y-113133985D01*
X88007396Y-113202103D01*
X88007393Y-113202104D01*
X87810974Y-113302187D01*
X87632641Y-113431752D01*
X87632636Y-113431756D01*
X87582463Y-113481929D01*
X87521140Y-113515413D01*
X87451448Y-113510428D01*
X87395515Y-113468557D01*
X87378601Y-113437580D01*
X87348797Y-113357671D01*
X87348793Y-113357664D01*
X87262547Y-113242455D01*
X87262544Y-113242452D01*
X87147335Y-113156206D01*
X87147328Y-113156202D01*
X87012482Y-113105908D01*
X87012483Y-113105908D01*
X86952883Y-113099501D01*
X86952881Y-113099500D01*
X86952873Y-113099500D01*
X86952864Y-113099500D01*
X85057129Y-113099500D01*
X85057123Y-113099501D01*
X84997516Y-113105908D01*
X84862671Y-113156202D01*
X84862664Y-113156206D01*
X84747455Y-113242452D01*
X84747452Y-113242455D01*
X84661206Y-113357664D01*
X84661202Y-113357671D01*
X84610908Y-113492517D01*
X84604501Y-113552116D01*
X84604500Y-113552135D01*
X83500000Y-113552135D01*
X83500000Y-104552135D01*
X85144500Y-104552135D01*
X85144500Y-106447870D01*
X85144501Y-106447876D01*
X85150908Y-106507483D01*
X85201202Y-106642328D01*
X85201206Y-106642335D01*
X85287452Y-106757544D01*
X85287455Y-106757547D01*
X85402664Y-106843793D01*
X85402671Y-106843797D01*
X85537517Y-106894091D01*
X85537516Y-106894091D01*
X85544444Y-106894835D01*
X85597127Y-106900500D01*
X87492872Y-106900499D01*
X87552483Y-106894091D01*
X87687331Y-106843796D01*
X87802546Y-106757546D01*
X87888796Y-106642331D01*
X87916429Y-106568243D01*
X87918601Y-106562420D01*
X87960471Y-106506486D01*
X88025936Y-106482068D01*
X88094209Y-106496919D01*
X88122464Y-106518071D01*
X88172636Y-106568243D01*
X88172641Y-106568247D01*
X88233258Y-106612287D01*
X88350978Y-106697815D01*
X88479375Y-106763237D01*
X88547393Y-106797895D01*
X88547396Y-106797896D01*
X88652221Y-106831955D01*
X88757049Y-106866015D01*
X88974778Y-106900500D01*
X88974779Y-106900500D01*
X89195221Y-106900500D01*
X89195222Y-106900500D01*
X89412951Y-106866015D01*
X89622606Y-106797895D01*
X89819022Y-106697815D01*
X89997365Y-106568242D01*
X90153242Y-106412365D01*
X90282815Y-106234022D01*
X90303612Y-106193204D01*
X90351586Y-106142409D01*
X90414097Y-106125500D01*
X91828885Y-106125500D01*
X91895924Y-106145185D01*
X91928606Y-106178571D01*
X91929849Y-106177669D01*
X92053028Y-106347213D01*
X92197786Y-106491971D01*
X92352749Y-106604556D01*
X92363390Y-106612287D01*
X92479607Y-106671503D01*
X92545776Y-106705218D01*
X92545778Y-106705218D01*
X92545781Y-106705220D01*
X92650137Y-106739127D01*
X92740465Y-106768477D01*
X92841557Y-106784488D01*
X92942648Y-106800500D01*
X92942649Y-106800500D01*
X93147351Y-106800500D01*
X93147352Y-106800500D01*
X93349534Y-106768477D01*
X93544219Y-106705220D01*
X93726610Y-106612287D01*
X93838646Y-106530889D01*
X93892213Y-106491971D01*
X93892215Y-106491968D01*
X93892219Y-106491966D01*
X94036966Y-106347219D01*
X94036968Y-106347215D01*
X94036971Y-106347213D01*
X94157284Y-106181614D01*
X94157285Y-106181613D01*
X94157287Y-106181610D01*
X94204516Y-106088917D01*
X94252489Y-106038123D01*
X94320310Y-106021328D01*
X94386445Y-106043865D01*
X94425483Y-106088917D01*
X94452739Y-106142409D01*
X94472715Y-106181614D01*
X94593028Y-106347213D01*
X94737786Y-106491971D01*
X94892749Y-106604556D01*
X94903390Y-106612287D01*
X95019607Y-106671503D01*
X95085776Y-106705218D01*
X95085778Y-106705218D01*
X95085781Y-106705220D01*
X95190137Y-106739127D01*
X95280465Y-106768477D01*
X95381557Y-106784488D01*
X95482648Y-106800500D01*
X95482649Y-106800500D01*
X95687351Y-106800500D01*
X95687352Y-106800500D01*
X95889534Y-106768477D01*
X96084219Y-106705220D01*
X96266610Y-106612287D01*
X96378646Y-106530889D01*
X96432213Y-106491971D01*
X96432215Y-106491968D01*
X96432219Y-106491966D01*
X96576966Y-106347219D01*
X96576968Y-106347215D01*
X96576971Y-106347213D01*
X96629732Y-106274590D01*
X96697287Y-106181610D01*
X96790220Y-105999219D01*
X96853477Y-105804534D01*
X96885500Y-105602352D01*
X96885500Y-105397648D01*
X96853477Y-105195465D01*
X96790218Y-105000776D01*
X96744515Y-104911080D01*
X96697287Y-104818390D01*
X96659204Y-104765973D01*
X96576971Y-104652786D01*
X96476320Y-104552135D01*
X98104500Y-104552135D01*
X98104500Y-106447870D01*
X98104501Y-106447876D01*
X98110908Y-106507483D01*
X98161202Y-106642328D01*
X98161206Y-106642335D01*
X98247452Y-106757544D01*
X98247455Y-106757547D01*
X98362664Y-106843793D01*
X98362671Y-106843797D01*
X98497517Y-106894091D01*
X98497516Y-106894091D01*
X98504444Y-106894835D01*
X98557127Y-106900500D01*
X100452872Y-106900499D01*
X100512483Y-106894091D01*
X100647331Y-106843796D01*
X100762546Y-106757546D01*
X100848796Y-106642331D01*
X100876429Y-106568243D01*
X100878601Y-106562420D01*
X100920471Y-106506486D01*
X100985936Y-106482068D01*
X101054209Y-106496919D01*
X101082464Y-106518071D01*
X101132636Y-106568243D01*
X101132641Y-106568247D01*
X101193258Y-106612287D01*
X101310978Y-106697815D01*
X101439375Y-106763237D01*
X101507393Y-106797895D01*
X101507396Y-106797896D01*
X101612221Y-106831955D01*
X101717049Y-106866015D01*
X101934778Y-106900500D01*
X101934779Y-106900500D01*
X102155221Y-106900500D01*
X102155222Y-106900500D01*
X102372951Y-106866015D01*
X102582606Y-106797895D01*
X102779022Y-106697815D01*
X102957365Y-106568242D01*
X103113242Y-106412365D01*
X103242815Y-106234022D01*
X103263612Y-106193204D01*
X103311586Y-106142409D01*
X103374097Y-106125500D01*
X105288885Y-106125500D01*
X105355924Y-106145185D01*
X105388606Y-106178571D01*
X105389849Y-106177669D01*
X105513028Y-106347213D01*
X105657786Y-106491971D01*
X105812749Y-106604556D01*
X105823390Y-106612287D01*
X105939607Y-106671503D01*
X106005776Y-106705218D01*
X106005778Y-106705218D01*
X106005781Y-106705220D01*
X106110137Y-106739127D01*
X106200465Y-106768477D01*
X106301557Y-106784488D01*
X106402648Y-106800500D01*
X106402649Y-106800500D01*
X106607351Y-106800500D01*
X106607352Y-106800500D01*
X106809534Y-106768477D01*
X107004219Y-106705220D01*
X107186610Y-106612287D01*
X107298646Y-106530889D01*
X107352213Y-106491971D01*
X107352215Y-106491968D01*
X107352219Y-106491966D01*
X107496966Y-106347219D01*
X107496968Y-106347215D01*
X107496971Y-106347213D01*
X107617284Y-106181614D01*
X107617285Y-106181613D01*
X107617287Y-106181610D01*
X107664516Y-106088917D01*
X107712489Y-106038123D01*
X107780310Y-106021328D01*
X107846445Y-106043865D01*
X107885483Y-106088917D01*
X107912739Y-106142409D01*
X107932715Y-106181614D01*
X108053028Y-106347213D01*
X108197786Y-106491971D01*
X108352749Y-106604556D01*
X108363390Y-106612287D01*
X108479607Y-106671503D01*
X108545776Y-106705218D01*
X108545778Y-106705218D01*
X108545781Y-106705220D01*
X108650137Y-106739127D01*
X108740465Y-106768477D01*
X108841557Y-106784488D01*
X108942648Y-106800500D01*
X108942649Y-106800500D01*
X109147351Y-106800500D01*
X109147352Y-106800500D01*
X109349534Y-106768477D01*
X109544219Y-106705220D01*
X109726610Y-106612287D01*
X109838646Y-106530889D01*
X109892213Y-106491971D01*
X109892215Y-106491968D01*
X109892219Y-106491966D01*
X110036966Y-106347219D01*
X110036968Y-106347215D01*
X110036971Y-106347213D01*
X110089732Y-106274590D01*
X110157287Y-106181610D01*
X110250220Y-105999219D01*
X110313477Y-105804534D01*
X110345500Y-105602352D01*
X110345500Y-105397648D01*
X110313477Y-105195465D01*
X110250218Y-105000776D01*
X110204515Y-104911080D01*
X110157287Y-104818390D01*
X110119204Y-104765973D01*
X110036971Y-104652786D01*
X109936320Y-104552135D01*
X112599500Y-104552135D01*
X112599500Y-106447870D01*
X112599501Y-106447876D01*
X112605908Y-106507483D01*
X112656202Y-106642328D01*
X112656206Y-106642335D01*
X112742452Y-106757544D01*
X112742455Y-106757547D01*
X112857664Y-106843793D01*
X112857671Y-106843797D01*
X112992517Y-106894091D01*
X112992516Y-106894091D01*
X112999444Y-106894835D01*
X113052127Y-106900500D01*
X114947872Y-106900499D01*
X115007483Y-106894091D01*
X115142331Y-106843796D01*
X115257546Y-106757546D01*
X115343796Y-106642331D01*
X115371429Y-106568243D01*
X115373601Y-106562420D01*
X115415471Y-106506486D01*
X115480936Y-106482068D01*
X115549209Y-106496919D01*
X115577464Y-106518071D01*
X115627636Y-106568243D01*
X115627641Y-106568247D01*
X115688258Y-106612287D01*
X115805978Y-106697815D01*
X115934375Y-106763237D01*
X116002393Y-106797895D01*
X116002396Y-106797896D01*
X116107221Y-106831955D01*
X116212049Y-106866015D01*
X116429778Y-106900500D01*
X116429779Y-106900500D01*
X116650221Y-106900500D01*
X116650222Y-106900500D01*
X116867951Y-106866015D01*
X117077606Y-106797895D01*
X117274022Y-106697815D01*
X117452365Y-106568242D01*
X117608242Y-106412365D01*
X117737815Y-106234022D01*
X117758612Y-106193204D01*
X117806586Y-106142409D01*
X117869097Y-106125500D01*
X118788885Y-106125500D01*
X118855924Y-106145185D01*
X118888606Y-106178571D01*
X118889849Y-106177669D01*
X119013028Y-106347213D01*
X119157786Y-106491971D01*
X119312749Y-106604556D01*
X119323390Y-106612287D01*
X119439607Y-106671503D01*
X119505776Y-106705218D01*
X119505778Y-106705218D01*
X119505781Y-106705220D01*
X119610137Y-106739127D01*
X119700465Y-106768477D01*
X119801557Y-106784488D01*
X119902648Y-106800500D01*
X119902649Y-106800500D01*
X120107351Y-106800500D01*
X120107352Y-106800500D01*
X120309534Y-106768477D01*
X120504219Y-106705220D01*
X120686610Y-106612287D01*
X120798646Y-106530889D01*
X120852213Y-106491971D01*
X120852215Y-106491968D01*
X120852219Y-106491966D01*
X120996966Y-106347219D01*
X120996968Y-106347215D01*
X120996971Y-106347213D01*
X121117284Y-106181614D01*
X121117285Y-106181613D01*
X121117287Y-106181610D01*
X121164516Y-106088917D01*
X121212489Y-106038123D01*
X121280310Y-106021328D01*
X121346445Y-106043865D01*
X121385483Y-106088917D01*
X121412739Y-106142409D01*
X121432715Y-106181614D01*
X121553028Y-106347213D01*
X121697786Y-106491971D01*
X121852749Y-106604556D01*
X121863390Y-106612287D01*
X121979607Y-106671503D01*
X122045776Y-106705218D01*
X122045778Y-106705218D01*
X122045781Y-106705220D01*
X122150137Y-106739127D01*
X122240465Y-106768477D01*
X122341557Y-106784488D01*
X122442648Y-106800500D01*
X122442649Y-106800500D01*
X122647351Y-106800500D01*
X122647352Y-106800500D01*
X122849534Y-106768477D01*
X123044219Y-106705220D01*
X123226610Y-106612287D01*
X123338646Y-106530889D01*
X123392213Y-106491971D01*
X123392215Y-106491968D01*
X123392219Y-106491966D01*
X123536966Y-106347219D01*
X123536968Y-106347215D01*
X123536971Y-106347213D01*
X123589732Y-106274590D01*
X123657287Y-106181610D01*
X123750220Y-105999219D01*
X123813477Y-105804534D01*
X123845500Y-105602352D01*
X123845500Y-105397648D01*
X123813477Y-105195465D01*
X123750218Y-105000776D01*
X123704515Y-104911080D01*
X123657287Y-104818390D01*
X123619204Y-104765973D01*
X123536971Y-104652786D01*
X123436320Y-104552135D01*
X126604500Y-104552135D01*
X126604500Y-106447870D01*
X126604501Y-106447876D01*
X126610908Y-106507483D01*
X126661202Y-106642328D01*
X126661206Y-106642335D01*
X126747452Y-106757544D01*
X126747455Y-106757547D01*
X126862664Y-106843793D01*
X126862671Y-106843797D01*
X126997517Y-106894091D01*
X126997516Y-106894091D01*
X127004444Y-106894835D01*
X127057127Y-106900500D01*
X128952872Y-106900499D01*
X129012483Y-106894091D01*
X129147331Y-106843796D01*
X129262546Y-106757546D01*
X129348796Y-106642331D01*
X129376429Y-106568243D01*
X129378601Y-106562420D01*
X129420471Y-106506486D01*
X129485936Y-106482068D01*
X129554209Y-106496919D01*
X129582464Y-106518071D01*
X129632636Y-106568243D01*
X129632641Y-106568247D01*
X129693258Y-106612287D01*
X129810978Y-106697815D01*
X129939375Y-106763237D01*
X130007393Y-106797895D01*
X130007396Y-106797896D01*
X130112221Y-106831955D01*
X130217049Y-106866015D01*
X130434778Y-106900500D01*
X130434779Y-106900500D01*
X130655221Y-106900500D01*
X130655222Y-106900500D01*
X130872951Y-106866015D01*
X131082606Y-106797895D01*
X131279022Y-106697815D01*
X131457365Y-106568242D01*
X131613242Y-106412365D01*
X131742815Y-106234022D01*
X131763612Y-106193204D01*
X131811586Y-106142409D01*
X131874097Y-106125500D01*
X133238885Y-106125500D01*
X133305924Y-106145185D01*
X133338606Y-106178571D01*
X133339849Y-106177669D01*
X133463028Y-106347213D01*
X133607786Y-106491971D01*
X133762749Y-106604556D01*
X133773390Y-106612287D01*
X133889607Y-106671503D01*
X133955776Y-106705218D01*
X133955778Y-106705218D01*
X133955781Y-106705220D01*
X134060137Y-106739127D01*
X134150465Y-106768477D01*
X134251557Y-106784488D01*
X134352648Y-106800500D01*
X134352649Y-106800500D01*
X134557351Y-106800500D01*
X134557352Y-106800500D01*
X134759534Y-106768477D01*
X134954219Y-106705220D01*
X135136610Y-106612287D01*
X135248646Y-106530889D01*
X135302213Y-106491971D01*
X135302215Y-106491968D01*
X135302219Y-106491966D01*
X135446966Y-106347219D01*
X135446968Y-106347215D01*
X135446971Y-106347213D01*
X135567284Y-106181614D01*
X135567285Y-106181613D01*
X135567287Y-106181610D01*
X135614516Y-106088917D01*
X135662489Y-106038123D01*
X135730310Y-106021328D01*
X135796445Y-106043865D01*
X135835483Y-106088917D01*
X135862739Y-106142409D01*
X135882715Y-106181614D01*
X136003028Y-106347213D01*
X136147786Y-106491971D01*
X136302749Y-106604556D01*
X136313390Y-106612287D01*
X136429607Y-106671503D01*
X136495776Y-106705218D01*
X136495778Y-106705218D01*
X136495781Y-106705220D01*
X136600137Y-106739127D01*
X136690465Y-106768477D01*
X136791557Y-106784488D01*
X136892648Y-106800500D01*
X136892649Y-106800500D01*
X137097351Y-106800500D01*
X137097352Y-106800500D01*
X137299534Y-106768477D01*
X137494219Y-106705220D01*
X137631527Y-106635258D01*
X142617000Y-106635258D01*
X142617000Y-106864741D01*
X142641946Y-107054215D01*
X142646952Y-107092238D01*
X142646953Y-107092240D01*
X142706342Y-107313887D01*
X142794150Y-107525876D01*
X142794157Y-107525890D01*
X142908892Y-107724617D01*
X143048581Y-107906661D01*
X143048589Y-107906670D01*
X143210830Y-108068911D01*
X143210838Y-108068918D01*
X143392882Y-108208607D01*
X143392885Y-108208608D01*
X143392888Y-108208611D01*
X143591612Y-108323344D01*
X143591617Y-108323346D01*
X143591623Y-108323349D01*
X143682980Y-108361190D01*
X143803613Y-108411158D01*
X144025262Y-108470548D01*
X144252766Y-108500500D01*
X144252773Y-108500500D01*
X144482227Y-108500500D01*
X144482234Y-108500500D01*
X144709738Y-108470548D01*
X144931387Y-108411158D01*
X145143388Y-108323344D01*
X145342112Y-108208611D01*
X145524161Y-108068919D01*
X145524165Y-108068914D01*
X145524170Y-108068911D01*
X145686411Y-107906670D01*
X145686414Y-107906665D01*
X145686419Y-107906661D01*
X145826111Y-107724612D01*
X145940844Y-107525888D01*
X146028658Y-107313887D01*
X146088048Y-107092238D01*
X146118000Y-106864734D01*
X146118000Y-106635266D01*
X146088048Y-106407762D01*
X146028658Y-106186113D01*
X145960402Y-106021328D01*
X145940849Y-105974123D01*
X145940846Y-105974117D01*
X145940844Y-105974112D01*
X145826111Y-105775388D01*
X145826108Y-105775385D01*
X145826107Y-105775382D01*
X145686418Y-105593338D01*
X145686411Y-105593330D01*
X145524170Y-105431089D01*
X145524161Y-105431081D01*
X145342117Y-105291392D01*
X145143390Y-105176657D01*
X145143376Y-105176650D01*
X144931387Y-105088842D01*
X144709738Y-105029452D01*
X144671715Y-105024446D01*
X144482241Y-104999500D01*
X144482234Y-104999500D01*
X144252766Y-104999500D01*
X144252758Y-104999500D01*
X144036215Y-105028009D01*
X144025262Y-105029452D01*
X143931576Y-105054554D01*
X143803612Y-105088842D01*
X143591623Y-105176650D01*
X143591609Y-105176657D01*
X143392882Y-105291392D01*
X143210838Y-105431081D01*
X143048581Y-105593338D01*
X142908892Y-105775382D01*
X142794157Y-105974109D01*
X142794150Y-105974123D01*
X142706342Y-106186112D01*
X142646953Y-106407759D01*
X142646951Y-106407770D01*
X142617000Y-106635258D01*
X137631527Y-106635258D01*
X137676610Y-106612287D01*
X137686394Y-106605178D01*
X137788647Y-106530889D01*
X137842212Y-106491971D01*
X137842210Y-106491971D01*
X137842219Y-106491966D01*
X137986966Y-106347219D01*
X137986968Y-106347215D01*
X137986971Y-106347213D01*
X138039732Y-106274590D01*
X138107287Y-106181610D01*
X138200220Y-105999219D01*
X138263477Y-105804534D01*
X138295500Y-105602352D01*
X138295500Y-105397648D01*
X138263477Y-105195465D01*
X138200218Y-105000776D01*
X138154515Y-104911080D01*
X138107287Y-104818390D01*
X138069204Y-104765973D01*
X137986971Y-104652786D01*
X137842213Y-104508028D01*
X137676613Y-104387715D01*
X137676612Y-104387714D01*
X137676610Y-104387713D01*
X137617636Y-104357664D01*
X137494223Y-104294781D01*
X137299534Y-104231522D01*
X137113799Y-104202105D01*
X137097352Y-104199500D01*
X136892648Y-104199500D01*
X136876201Y-104202105D01*
X136690465Y-104231522D01*
X136495776Y-104294781D01*
X136313386Y-104387715D01*
X136147786Y-104508028D01*
X136003028Y-104652786D01*
X135882715Y-104818386D01*
X135835485Y-104911080D01*
X135787510Y-104961876D01*
X135719689Y-104978671D01*
X135653554Y-104956134D01*
X135614515Y-104911080D01*
X135613883Y-104909840D01*
X135567287Y-104818390D01*
X135529204Y-104765973D01*
X135446971Y-104652786D01*
X135302213Y-104508028D01*
X135136613Y-104387715D01*
X135136612Y-104387714D01*
X135136610Y-104387713D01*
X135077636Y-104357664D01*
X134954223Y-104294781D01*
X134759534Y-104231522D01*
X134573799Y-104202105D01*
X134557352Y-104199500D01*
X134352648Y-104199500D01*
X134336201Y-104202105D01*
X134150465Y-104231522D01*
X133955776Y-104294781D01*
X133773386Y-104387715D01*
X133607786Y-104508028D01*
X133463028Y-104652786D01*
X133339849Y-104822331D01*
X133338176Y-104821115D01*
X133292792Y-104862169D01*
X133238885Y-104874500D01*
X131874097Y-104874500D01*
X131807058Y-104854815D01*
X131763612Y-104806795D01*
X131742812Y-104765973D01*
X131613247Y-104587641D01*
X131613243Y-104587636D01*
X131457363Y-104431756D01*
X131457358Y-104431752D01*
X131279025Y-104302187D01*
X131279024Y-104302186D01*
X131279022Y-104302185D01*
X131161791Y-104242452D01*
X131082606Y-104202104D01*
X131082603Y-104202103D01*
X130872952Y-104133985D01*
X130764086Y-104116742D01*
X130655222Y-104099500D01*
X130434778Y-104099500D01*
X130362201Y-104110995D01*
X130217047Y-104133985D01*
X130007396Y-104202103D01*
X130007393Y-104202104D01*
X129810974Y-104302187D01*
X129632641Y-104431752D01*
X129632636Y-104431756D01*
X129582463Y-104481929D01*
X129521140Y-104515413D01*
X129451448Y-104510428D01*
X129395515Y-104468557D01*
X129378601Y-104437580D01*
X129348797Y-104357671D01*
X129348793Y-104357664D01*
X129262547Y-104242455D01*
X129262544Y-104242452D01*
X129147335Y-104156206D01*
X129147328Y-104156202D01*
X129012482Y-104105908D01*
X129012483Y-104105908D01*
X128952883Y-104099501D01*
X128952881Y-104099500D01*
X128952873Y-104099500D01*
X128952865Y-104099500D01*
X128754500Y-104099500D01*
X128687461Y-104079815D01*
X128641706Y-104027011D01*
X128630500Y-103975500D01*
X128630500Y-101477951D01*
X128650185Y-101410912D01*
X128666815Y-101390274D01*
X129222139Y-100834949D01*
X129283460Y-100801466D01*
X129353151Y-100806450D01*
X129357217Y-100808049D01*
X129431113Y-100838658D01*
X129652762Y-100898048D01*
X129880266Y-100928000D01*
X129880273Y-100928000D01*
X130109727Y-100928000D01*
X130109734Y-100928000D01*
X130337238Y-100898048D01*
X130558887Y-100838658D01*
X130770888Y-100750844D01*
X130969612Y-100636111D01*
X131151661Y-100496419D01*
X131151665Y-100496414D01*
X131151670Y-100496411D01*
X131313911Y-100334170D01*
X131313914Y-100334165D01*
X131313919Y-100334161D01*
X131453611Y-100152112D01*
X131568344Y-99953388D01*
X131656158Y-99741387D01*
X131715548Y-99519738D01*
X131745500Y-99292234D01*
X131745500Y-98281443D01*
X131765185Y-98214404D01*
X131781819Y-98193762D01*
X136818913Y-93156668D01*
X136818920Y-93156661D01*
X136888765Y-93065636D01*
X136958611Y-92974612D01*
X137015977Y-92875250D01*
X137073345Y-92775888D01*
X137161158Y-92563886D01*
X137220549Y-92342239D01*
X137250500Y-92114733D01*
X137250500Y-91885266D01*
X137250500Y-89385266D01*
X137220548Y-89157762D01*
X137161158Y-88936113D01*
X137137381Y-88878711D01*
X143649500Y-88878711D01*
X143649500Y-89121288D01*
X143681161Y-89361785D01*
X143743947Y-89596104D01*
X143836773Y-89820205D01*
X143836776Y-89820212D01*
X143958064Y-90030289D01*
X143958066Y-90030292D01*
X143958067Y-90030293D01*
X144105733Y-90222736D01*
X144105739Y-90222743D01*
X144277256Y-90394260D01*
X144277262Y-90394265D01*
X144469711Y-90541936D01*
X144679788Y-90663224D01*
X144903900Y-90756054D01*
X145138211Y-90818838D01*
X145318586Y-90842584D01*
X145378711Y-90850500D01*
X145378712Y-90850500D01*
X145621289Y-90850500D01*
X145669388Y-90844167D01*
X145861789Y-90818838D01*
X146096100Y-90756054D01*
X146320212Y-90663224D01*
X146530289Y-90541936D01*
X146722738Y-90394265D01*
X146894265Y-90222738D01*
X147041936Y-90030289D01*
X147163224Y-89820212D01*
X147256054Y-89596100D01*
X147318838Y-89361789D01*
X147350500Y-89121288D01*
X147350500Y-88878712D01*
X147318838Y-88638211D01*
X147256054Y-88403900D01*
X147163224Y-88179788D01*
X147041936Y-87969711D01*
X146909566Y-87797203D01*
X146894266Y-87777263D01*
X146894260Y-87777256D01*
X146722743Y-87605739D01*
X146722736Y-87605733D01*
X146530293Y-87458067D01*
X146530292Y-87458066D01*
X146530289Y-87458064D01*
X146320212Y-87336776D01*
X146320205Y-87336773D01*
X146096104Y-87243947D01*
X145861785Y-87181161D01*
X145621289Y-87149500D01*
X145621288Y-87149500D01*
X145378712Y-87149500D01*
X145378711Y-87149500D01*
X145138214Y-87181161D01*
X144903895Y-87243947D01*
X144679794Y-87336773D01*
X144679785Y-87336777D01*
X144469706Y-87458067D01*
X144277263Y-87605733D01*
X144277256Y-87605739D01*
X144105739Y-87777256D01*
X144105733Y-87777263D01*
X143958067Y-87969706D01*
X143836777Y-88179785D01*
X143836773Y-88179794D01*
X143743947Y-88403895D01*
X143681161Y-88638214D01*
X143649500Y-88878711D01*
X137137381Y-88878711D01*
X137073344Y-88724112D01*
X137057112Y-88695997D01*
X137040500Y-88633998D01*
X137040500Y-87899995D01*
X137040499Y-87899982D01*
X137029999Y-87797203D01*
X137029999Y-87797202D01*
X136974814Y-87630665D01*
X136882712Y-87481344D01*
X136758656Y-87357288D01*
X136609335Y-87265186D01*
X136442798Y-87210001D01*
X136442796Y-87210000D01*
X136340017Y-87199500D01*
X136340010Y-87199500D01*
X134659990Y-87199500D01*
X134659982Y-87199500D01*
X134557203Y-87210000D01*
X134557202Y-87210001D01*
X134474669Y-87237349D01*
X134390667Y-87265185D01*
X134390662Y-87265187D01*
X134241342Y-87357289D01*
X134117289Y-87481342D01*
X134025187Y-87630662D01*
X134025186Y-87630665D01*
X133970001Y-87797202D01*
X133970001Y-87797203D01*
X133970000Y-87797203D01*
X133959500Y-87899982D01*
X133959500Y-88633998D01*
X133942888Y-88695997D01*
X133926655Y-88724113D01*
X133926650Y-88724123D01*
X133838842Y-88936112D01*
X133779453Y-89157759D01*
X133779451Y-89157770D01*
X133749500Y-89385258D01*
X133749500Y-91223556D01*
X133729815Y-91290595D01*
X133713181Y-91311237D01*
X128676084Y-96348333D01*
X128676078Y-96348340D01*
X128606235Y-96439363D01*
X128574670Y-96480499D01*
X128536385Y-96530392D01*
X128421657Y-96729108D01*
X128421650Y-96729123D01*
X128333842Y-96941112D01*
X128274453Y-97162759D01*
X128274451Y-97162770D01*
X128244500Y-97390258D01*
X128244500Y-99292241D01*
X128261287Y-99419741D01*
X128274452Y-99519738D01*
X128326833Y-99715228D01*
X128333842Y-99741386D01*
X128333847Y-99741402D01*
X128364427Y-99815228D01*
X128371896Y-99884697D01*
X128340621Y-99947176D01*
X128337547Y-99950361D01*
X127606270Y-100681639D01*
X127519144Y-100768764D01*
X127519138Y-100768772D01*
X127450690Y-100871208D01*
X127450688Y-100871213D01*
X127427167Y-100927999D01*
X127403538Y-100985044D01*
X127403535Y-100985056D01*
X127379500Y-101105889D01*
X127379500Y-103975500D01*
X127359815Y-104042539D01*
X127307011Y-104088294D01*
X127255501Y-104099500D01*
X127057130Y-104099500D01*
X127057123Y-104099501D01*
X126997516Y-104105908D01*
X126862671Y-104156202D01*
X126862664Y-104156206D01*
X126747455Y-104242452D01*
X126747452Y-104242455D01*
X126661206Y-104357664D01*
X126661202Y-104357671D01*
X126610908Y-104492517D01*
X126604501Y-104552116D01*
X126604500Y-104552135D01*
X123436320Y-104552135D01*
X123392213Y-104508028D01*
X123226613Y-104387715D01*
X123226612Y-104387714D01*
X123226610Y-104387713D01*
X123167636Y-104357664D01*
X123044223Y-104294781D01*
X122849534Y-104231522D01*
X122663799Y-104202105D01*
X122647352Y-104199500D01*
X122442648Y-104199500D01*
X122426201Y-104202105D01*
X122240465Y-104231522D01*
X122045776Y-104294781D01*
X121863386Y-104387715D01*
X121697786Y-104508028D01*
X121553028Y-104652786D01*
X121432715Y-104818386D01*
X121385485Y-104911080D01*
X121337510Y-104961876D01*
X121269689Y-104978671D01*
X121203554Y-104956134D01*
X121164515Y-104911080D01*
X121163883Y-104909840D01*
X121117287Y-104818390D01*
X121079204Y-104765973D01*
X120996971Y-104652786D01*
X120852213Y-104508028D01*
X120686613Y-104387715D01*
X120686612Y-104387714D01*
X120686610Y-104387713D01*
X120627636Y-104357664D01*
X120504223Y-104294781D01*
X120309534Y-104231522D01*
X120123799Y-104202105D01*
X120107352Y-104199500D01*
X119902648Y-104199500D01*
X119886201Y-104202105D01*
X119700465Y-104231522D01*
X119505776Y-104294781D01*
X119323386Y-104387715D01*
X119157786Y-104508028D01*
X119013028Y-104652786D01*
X118889849Y-104822331D01*
X118888176Y-104821115D01*
X118842792Y-104862169D01*
X118788885Y-104874500D01*
X117869097Y-104874500D01*
X117802058Y-104854815D01*
X117758612Y-104806795D01*
X117737812Y-104765973D01*
X117608247Y-104587641D01*
X117608243Y-104587636D01*
X117452363Y-104431756D01*
X117452358Y-104431752D01*
X117274025Y-104302187D01*
X117274024Y-104302186D01*
X117274022Y-104302185D01*
X117156791Y-104242452D01*
X117077606Y-104202104D01*
X117077603Y-104202103D01*
X116867952Y-104133985D01*
X116759086Y-104116742D01*
X116650222Y-104099500D01*
X116429778Y-104099500D01*
X116357201Y-104110995D01*
X116212047Y-104133985D01*
X116002396Y-104202103D01*
X116002393Y-104202104D01*
X115805974Y-104302187D01*
X115627641Y-104431752D01*
X115627636Y-104431756D01*
X115577463Y-104481929D01*
X115516140Y-104515413D01*
X115446448Y-104510428D01*
X115390515Y-104468557D01*
X115373601Y-104437580D01*
X115343797Y-104357671D01*
X115343793Y-104357664D01*
X115257547Y-104242455D01*
X115257544Y-104242452D01*
X115142335Y-104156206D01*
X115142328Y-104156202D01*
X115007482Y-104105908D01*
X115007483Y-104105908D01*
X114947883Y-104099501D01*
X114947881Y-104099500D01*
X114947873Y-104099500D01*
X114947865Y-104099500D01*
X114754500Y-104099500D01*
X114687461Y-104079815D01*
X114641706Y-104027011D01*
X114630500Y-103975500D01*
X114630500Y-101327951D01*
X114650185Y-101260912D01*
X114666815Y-101240274D01*
X115188049Y-100719039D01*
X115249370Y-100685556D01*
X115319061Y-100690540D01*
X115323172Y-100692158D01*
X115381113Y-100716158D01*
X115602761Y-100775548D01*
X115724402Y-100791562D01*
X115830265Y-100805499D01*
X115830266Y-100805499D01*
X116059735Y-100805499D01*
X116111389Y-100798698D01*
X116287239Y-100775548D01*
X116508887Y-100716158D01*
X116702147Y-100636107D01*
X116720879Y-100628348D01*
X116720880Y-100628346D01*
X116720888Y-100628344D01*
X116919612Y-100513610D01*
X117101661Y-100373920D01*
X122818919Y-94656661D01*
X122958610Y-94474613D01*
X123073344Y-94275888D01*
X123161158Y-94063887D01*
X123220548Y-93842239D01*
X123220548Y-93842234D01*
X123220550Y-93842229D01*
X123224032Y-93815775D01*
X123224032Y-93815771D01*
X123250500Y-93614734D01*
X123250500Y-89385266D01*
X123220548Y-89157762D01*
X123161158Y-88936113D01*
X123073344Y-88724112D01*
X123057112Y-88695997D01*
X123052961Y-88680508D01*
X123045523Y-88668933D01*
X123040500Y-88633998D01*
X123040500Y-88618754D01*
X128879500Y-88618754D01*
X128879500Y-90381245D01*
X128917432Y-90620736D01*
X128992360Y-90851344D01*
X129102448Y-91067401D01*
X129244966Y-91263562D01*
X129244970Y-91263567D01*
X129416432Y-91435029D01*
X129416437Y-91435033D01*
X129587539Y-91559345D01*
X129612602Y-91577554D01*
X129828653Y-91687638D01*
X129828655Y-91687639D01*
X129943959Y-91725103D01*
X130059265Y-91762568D01*
X130170186Y-91780136D01*
X130298755Y-91800500D01*
X130298760Y-91800500D01*
X130541245Y-91800500D01*
X130657347Y-91782110D01*
X130780735Y-91762568D01*
X131011347Y-91687638D01*
X131227398Y-91577554D01*
X131423569Y-91435028D01*
X131595028Y-91263569D01*
X131737554Y-91067398D01*
X131847638Y-90851347D01*
X131922568Y-90620735D01*
X131942110Y-90497347D01*
X131960500Y-90381245D01*
X131960500Y-88618754D01*
X131938432Y-88479431D01*
X131922568Y-88379265D01*
X131885103Y-88263959D01*
X131847639Y-88148655D01*
X131847638Y-88148653D01*
X131737554Y-87932602D01*
X131713854Y-87899982D01*
X131595033Y-87736437D01*
X131595029Y-87736432D01*
X131423567Y-87564970D01*
X131423562Y-87564966D01*
X131227401Y-87422448D01*
X131227400Y-87422447D01*
X131227398Y-87422446D01*
X131059262Y-87336776D01*
X131011344Y-87312360D01*
X130780736Y-87237432D01*
X130541245Y-87199500D01*
X130541240Y-87199500D01*
X130298760Y-87199500D01*
X130298755Y-87199500D01*
X130059263Y-87237432D01*
X129828655Y-87312360D01*
X129612598Y-87422448D01*
X129416437Y-87564966D01*
X129416432Y-87564970D01*
X129244970Y-87736432D01*
X129244966Y-87736437D01*
X129102448Y-87932598D01*
X128992360Y-88148655D01*
X128917432Y-88379263D01*
X128879500Y-88618754D01*
X123040500Y-88618754D01*
X123040500Y-87899995D01*
X123040499Y-87899982D01*
X123029999Y-87797203D01*
X123029999Y-87797202D01*
X122974814Y-87630665D01*
X122882712Y-87481344D01*
X122758656Y-87357288D01*
X122609335Y-87265186D01*
X122442798Y-87210001D01*
X122442796Y-87210000D01*
X122340017Y-87199500D01*
X122340010Y-87199500D01*
X120659990Y-87199500D01*
X120659982Y-87199500D01*
X120557203Y-87210000D01*
X120557202Y-87210001D01*
X120474669Y-87237349D01*
X120390667Y-87265185D01*
X120390662Y-87265187D01*
X120241342Y-87357289D01*
X120117289Y-87481342D01*
X120025187Y-87630662D01*
X120025186Y-87630665D01*
X119970001Y-87797202D01*
X119970001Y-87797203D01*
X119970000Y-87797203D01*
X119959500Y-87899982D01*
X119959500Y-88633998D01*
X119942888Y-88695997D01*
X119926655Y-88724113D01*
X119926650Y-88724123D01*
X119838842Y-88936112D01*
X119779453Y-89157759D01*
X119779451Y-89157770D01*
X119749500Y-89385258D01*
X119749500Y-92723556D01*
X119729815Y-92790595D01*
X119713181Y-92811237D01*
X114626084Y-97898333D01*
X114626078Y-97898340D01*
X114486396Y-98080378D01*
X114486390Y-98080388D01*
X114371656Y-98279111D01*
X114371651Y-98279120D01*
X114283842Y-98491112D01*
X114224453Y-98712758D01*
X114224450Y-98712771D01*
X114194501Y-98940265D01*
X114194501Y-99169734D01*
X114224450Y-99397228D01*
X114224451Y-99397233D01*
X114224452Y-99397239D01*
X114254147Y-99508063D01*
X114283841Y-99618885D01*
X114321018Y-99708636D01*
X114328487Y-99778105D01*
X114297212Y-99840584D01*
X114294138Y-99843770D01*
X113903750Y-100234159D01*
X113606270Y-100531639D01*
X113606267Y-100531642D01*
X113562703Y-100575205D01*
X113519140Y-100618768D01*
X113503760Y-100641787D01*
X113503757Y-100641792D01*
X113500993Y-100645929D01*
X113450688Y-100721214D01*
X113428183Y-100775548D01*
X113425425Y-100782205D01*
X113425424Y-100782208D01*
X113403538Y-100835045D01*
X113403535Y-100835055D01*
X113379500Y-100955889D01*
X113379500Y-103975500D01*
X113359815Y-104042539D01*
X113307011Y-104088294D01*
X113255501Y-104099500D01*
X113052130Y-104099500D01*
X113052123Y-104099501D01*
X112992516Y-104105908D01*
X112857671Y-104156202D01*
X112857664Y-104156206D01*
X112742455Y-104242452D01*
X112742452Y-104242455D01*
X112656206Y-104357664D01*
X112656202Y-104357671D01*
X112605908Y-104492517D01*
X112599501Y-104552116D01*
X112599500Y-104552135D01*
X109936320Y-104552135D01*
X109892213Y-104508028D01*
X109726613Y-104387715D01*
X109726612Y-104387714D01*
X109726610Y-104387713D01*
X109667636Y-104357664D01*
X109544223Y-104294781D01*
X109349534Y-104231522D01*
X109163799Y-104202105D01*
X109147352Y-104199500D01*
X108942648Y-104199500D01*
X108926201Y-104202105D01*
X108740465Y-104231522D01*
X108545776Y-104294781D01*
X108363386Y-104387715D01*
X108197786Y-104508028D01*
X108053028Y-104652786D01*
X107932715Y-104818386D01*
X107885485Y-104911080D01*
X107837510Y-104961876D01*
X107769689Y-104978671D01*
X107703554Y-104956134D01*
X107664515Y-104911080D01*
X107663883Y-104909840D01*
X107617287Y-104818390D01*
X107579204Y-104765973D01*
X107496971Y-104652786D01*
X107352213Y-104508028D01*
X107186613Y-104387715D01*
X107186612Y-104387714D01*
X107186610Y-104387713D01*
X107127636Y-104357664D01*
X107004223Y-104294781D01*
X106809534Y-104231522D01*
X106623799Y-104202105D01*
X106607352Y-104199500D01*
X106402648Y-104199500D01*
X106386201Y-104202105D01*
X106200465Y-104231522D01*
X106005776Y-104294781D01*
X105823386Y-104387715D01*
X105657786Y-104508028D01*
X105513028Y-104652786D01*
X105389849Y-104822331D01*
X105388176Y-104821115D01*
X105342792Y-104862169D01*
X105288885Y-104874500D01*
X103374097Y-104874500D01*
X103307058Y-104854815D01*
X103263612Y-104806795D01*
X103242812Y-104765973D01*
X103113247Y-104587641D01*
X103113243Y-104587636D01*
X102957363Y-104431756D01*
X102957358Y-104431752D01*
X102779025Y-104302187D01*
X102779024Y-104302186D01*
X102779022Y-104302185D01*
X102661791Y-104242452D01*
X102582606Y-104202104D01*
X102582603Y-104202103D01*
X102372952Y-104133985D01*
X102264086Y-104116742D01*
X102155222Y-104099500D01*
X101934778Y-104099500D01*
X101862201Y-104110995D01*
X101717047Y-104133985D01*
X101507396Y-104202103D01*
X101507393Y-104202104D01*
X101310974Y-104302187D01*
X101132641Y-104431752D01*
X101132636Y-104431756D01*
X101082463Y-104481929D01*
X101021140Y-104515413D01*
X100951448Y-104510428D01*
X100895515Y-104468557D01*
X100878601Y-104437580D01*
X100848797Y-104357671D01*
X100848793Y-104357664D01*
X100762547Y-104242455D01*
X100762544Y-104242452D01*
X100647335Y-104156206D01*
X100647328Y-104156202D01*
X100512482Y-104105908D01*
X100512483Y-104105908D01*
X100452883Y-104099501D01*
X100452881Y-104099500D01*
X100452873Y-104099500D01*
X100452865Y-104099500D01*
X100254500Y-104099500D01*
X100187461Y-104079815D01*
X100141706Y-104027011D01*
X100130500Y-103975500D01*
X100130500Y-101827951D01*
X100150185Y-101760912D01*
X100166814Y-101740274D01*
X101172139Y-100734949D01*
X101233460Y-100701466D01*
X101303152Y-100706450D01*
X101307217Y-100708049D01*
X101381113Y-100738658D01*
X101602761Y-100798048D01*
X101763435Y-100819200D01*
X101830265Y-100827999D01*
X101830266Y-100827999D01*
X102059735Y-100827999D01*
X102111389Y-100821198D01*
X102287239Y-100798048D01*
X102508887Y-100738658D01*
X102697685Y-100660455D01*
X102720879Y-100650848D01*
X102720880Y-100650846D01*
X102720888Y-100650844D01*
X102919612Y-100536110D01*
X103101661Y-100396420D01*
X108818919Y-94679161D01*
X108958610Y-94497113D01*
X108965478Y-94485216D01*
X108971604Y-94474609D01*
X109073342Y-94298391D01*
X109073344Y-94298388D01*
X109161158Y-94086387D01*
X109220548Y-93864738D01*
X109250500Y-93637234D01*
X109250500Y-89385266D01*
X109220548Y-89157762D01*
X109161158Y-88936113D01*
X109073344Y-88724112D01*
X109057112Y-88695997D01*
X109052961Y-88680508D01*
X109045523Y-88668933D01*
X109040500Y-88633998D01*
X109040500Y-88618754D01*
X114879500Y-88618754D01*
X114879500Y-90381245D01*
X114917432Y-90620736D01*
X114992360Y-90851344D01*
X115102448Y-91067401D01*
X115244966Y-91263562D01*
X115244970Y-91263567D01*
X115416432Y-91435029D01*
X115416437Y-91435033D01*
X115587539Y-91559345D01*
X115612602Y-91577554D01*
X115828653Y-91687638D01*
X115828655Y-91687639D01*
X115943959Y-91725103D01*
X116059265Y-91762568D01*
X116170186Y-91780136D01*
X116298755Y-91800500D01*
X116298760Y-91800500D01*
X116541245Y-91800500D01*
X116657347Y-91782110D01*
X116780735Y-91762568D01*
X117011347Y-91687638D01*
X117227398Y-91577554D01*
X117423569Y-91435028D01*
X117595028Y-91263569D01*
X117737554Y-91067398D01*
X117847638Y-90851347D01*
X117922568Y-90620735D01*
X117942110Y-90497347D01*
X117960500Y-90381245D01*
X117960500Y-88618754D01*
X117938432Y-88479431D01*
X117922568Y-88379265D01*
X117885103Y-88263959D01*
X117847639Y-88148655D01*
X117847638Y-88148653D01*
X117737554Y-87932602D01*
X117713854Y-87899982D01*
X117595033Y-87736437D01*
X117595029Y-87736432D01*
X117423567Y-87564970D01*
X117423562Y-87564966D01*
X117227401Y-87422448D01*
X117227400Y-87422447D01*
X117227398Y-87422446D01*
X117059262Y-87336776D01*
X117011344Y-87312360D01*
X116780736Y-87237432D01*
X116541245Y-87199500D01*
X116541240Y-87199500D01*
X116298760Y-87199500D01*
X116298755Y-87199500D01*
X116059263Y-87237432D01*
X115828655Y-87312360D01*
X115612598Y-87422448D01*
X115416437Y-87564966D01*
X115416432Y-87564970D01*
X115244970Y-87736432D01*
X115244966Y-87736437D01*
X115102448Y-87932598D01*
X114992360Y-88148655D01*
X114917432Y-88379263D01*
X114879500Y-88618754D01*
X109040500Y-88618754D01*
X109040500Y-87899995D01*
X109040499Y-87899982D01*
X109029999Y-87797203D01*
X109029999Y-87797202D01*
X108974814Y-87630665D01*
X108882712Y-87481344D01*
X108758656Y-87357288D01*
X108609335Y-87265186D01*
X108442798Y-87210001D01*
X108442796Y-87210000D01*
X108340017Y-87199500D01*
X108340010Y-87199500D01*
X106659990Y-87199500D01*
X106659982Y-87199500D01*
X106557203Y-87210000D01*
X106557202Y-87210001D01*
X106474669Y-87237349D01*
X106390667Y-87265185D01*
X106390662Y-87265187D01*
X106241342Y-87357289D01*
X106117289Y-87481342D01*
X106025187Y-87630662D01*
X106025186Y-87630665D01*
X105970001Y-87797202D01*
X105970001Y-87797203D01*
X105970000Y-87797203D01*
X105959500Y-87899982D01*
X105959500Y-88633998D01*
X105942888Y-88695997D01*
X105926655Y-88724113D01*
X105926650Y-88724123D01*
X105838842Y-88936112D01*
X105779453Y-89157759D01*
X105779451Y-89157770D01*
X105749500Y-89385258D01*
X105749500Y-92746056D01*
X105729815Y-92813095D01*
X105713181Y-92833737D01*
X100626084Y-97920833D01*
X100626078Y-97920840D01*
X100486396Y-98102878D01*
X100486390Y-98102888D01*
X100371656Y-98301611D01*
X100371651Y-98301620D01*
X100283842Y-98513612D01*
X100224453Y-98735258D01*
X100224450Y-98735271D01*
X100194501Y-98962765D01*
X100194501Y-99192234D01*
X100224450Y-99419728D01*
X100224451Y-99419733D01*
X100224452Y-99419739D01*
X100251247Y-99519740D01*
X100283842Y-99641386D01*
X100283847Y-99641402D01*
X100314427Y-99715228D01*
X100321896Y-99784697D01*
X100290621Y-99847176D01*
X100287547Y-99850361D01*
X99106270Y-101031639D01*
X99019144Y-101118764D01*
X99019138Y-101118772D01*
X98950692Y-101221205D01*
X98950684Y-101221219D01*
X98919748Y-101295910D01*
X98917347Y-101301707D01*
X98913255Y-101311586D01*
X98903537Y-101335045D01*
X98903535Y-101335053D01*
X98879500Y-101455889D01*
X98879500Y-103975500D01*
X98859815Y-104042539D01*
X98807011Y-104088294D01*
X98755501Y-104099500D01*
X98557130Y-104099500D01*
X98557123Y-104099501D01*
X98497516Y-104105908D01*
X98362671Y-104156202D01*
X98362664Y-104156206D01*
X98247455Y-104242452D01*
X98247452Y-104242455D01*
X98161206Y-104357664D01*
X98161202Y-104357671D01*
X98110908Y-104492517D01*
X98104501Y-104552116D01*
X98104500Y-104552135D01*
X96476320Y-104552135D01*
X96432213Y-104508028D01*
X96266613Y-104387715D01*
X96266612Y-104387714D01*
X96266610Y-104387713D01*
X96207636Y-104357664D01*
X96084223Y-104294781D01*
X95889534Y-104231522D01*
X95703799Y-104202105D01*
X95687352Y-104199500D01*
X95482648Y-104199500D01*
X95466201Y-104202105D01*
X95280465Y-104231522D01*
X95085776Y-104294781D01*
X94903386Y-104387715D01*
X94737786Y-104508028D01*
X94593028Y-104652786D01*
X94472715Y-104818386D01*
X94425485Y-104911080D01*
X94377510Y-104961876D01*
X94309689Y-104978671D01*
X94243554Y-104956134D01*
X94204515Y-104911080D01*
X94203883Y-104909840D01*
X94157287Y-104818390D01*
X94119204Y-104765973D01*
X94036971Y-104652786D01*
X93892213Y-104508028D01*
X93726613Y-104387715D01*
X93726612Y-104387714D01*
X93726610Y-104387713D01*
X93667636Y-104357664D01*
X93544223Y-104294781D01*
X93349534Y-104231522D01*
X93163799Y-104202105D01*
X93147352Y-104199500D01*
X92942648Y-104199500D01*
X92926201Y-104202105D01*
X92740465Y-104231522D01*
X92545776Y-104294781D01*
X92363386Y-104387715D01*
X92197786Y-104508028D01*
X92053028Y-104652786D01*
X91929849Y-104822331D01*
X91928176Y-104821115D01*
X91882792Y-104862169D01*
X91828885Y-104874500D01*
X90414097Y-104874500D01*
X90347058Y-104854815D01*
X90303612Y-104806795D01*
X90282812Y-104765973D01*
X90153247Y-104587641D01*
X90153243Y-104587636D01*
X89997363Y-104431756D01*
X89997358Y-104431752D01*
X89819025Y-104302187D01*
X89819024Y-104302186D01*
X89819022Y-104302185D01*
X89701791Y-104242452D01*
X89622606Y-104202104D01*
X89622603Y-104202103D01*
X89412952Y-104133985D01*
X89304086Y-104116742D01*
X89195222Y-104099500D01*
X88974778Y-104099500D01*
X88902201Y-104110995D01*
X88757047Y-104133985D01*
X88547396Y-104202103D01*
X88547393Y-104202104D01*
X88350974Y-104302187D01*
X88172641Y-104431752D01*
X88172636Y-104431756D01*
X88122463Y-104481929D01*
X88061140Y-104515413D01*
X87991448Y-104510428D01*
X87935515Y-104468557D01*
X87918601Y-104437580D01*
X87888797Y-104357671D01*
X87888793Y-104357664D01*
X87802547Y-104242455D01*
X87802544Y-104242452D01*
X87687335Y-104156206D01*
X87687328Y-104156202D01*
X87552482Y-104105908D01*
X87552483Y-104105908D01*
X87492883Y-104099501D01*
X87492881Y-104099500D01*
X87492873Y-104099500D01*
X87492865Y-104099500D01*
X87294500Y-104099500D01*
X87285814Y-104096949D01*
X87276853Y-104098238D01*
X87252812Y-104087259D01*
X87227461Y-104079815D01*
X87221533Y-104072974D01*
X87213297Y-104069213D01*
X87199007Y-104046978D01*
X87181706Y-104027011D01*
X87179418Y-104016496D01*
X87175523Y-104010435D01*
X87170500Y-103975500D01*
X87170500Y-103765451D01*
X87190185Y-103698412D01*
X87206814Y-103677775D01*
X88843729Y-102040860D01*
X88843733Y-102040858D01*
X88930858Y-101953733D01*
X88999311Y-101851286D01*
X88999312Y-101851285D01*
X89026932Y-101784603D01*
X89046463Y-101737452D01*
X89070500Y-101616606D01*
X89070500Y-100795990D01*
X89090185Y-100728951D01*
X89142989Y-100683196D01*
X89147013Y-100681443D01*
X89220888Y-100650844D01*
X89419612Y-100536110D01*
X89601661Y-100396420D01*
X95318919Y-94679161D01*
X95458610Y-94497113D01*
X95465478Y-94485216D01*
X95471604Y-94474609D01*
X95573342Y-94298391D01*
X95573344Y-94298388D01*
X95661158Y-94086387D01*
X95720548Y-93864738D01*
X95750500Y-93637234D01*
X95750500Y-89385266D01*
X95720548Y-89157762D01*
X95661158Y-88936113D01*
X95573344Y-88724112D01*
X95557112Y-88695997D01*
X95552961Y-88680508D01*
X95545523Y-88668933D01*
X95540500Y-88633998D01*
X95540500Y-88618754D01*
X100879500Y-88618754D01*
X100879500Y-90381245D01*
X100917432Y-90620736D01*
X100992360Y-90851344D01*
X101102448Y-91067401D01*
X101244966Y-91263562D01*
X101244970Y-91263567D01*
X101416432Y-91435029D01*
X101416437Y-91435033D01*
X101587539Y-91559345D01*
X101612602Y-91577554D01*
X101828653Y-91687638D01*
X101828655Y-91687639D01*
X101943959Y-91725103D01*
X102059265Y-91762568D01*
X102170186Y-91780136D01*
X102298755Y-91800500D01*
X102298760Y-91800500D01*
X102541245Y-91800500D01*
X102657347Y-91782110D01*
X102780735Y-91762568D01*
X103011347Y-91687638D01*
X103227398Y-91577554D01*
X103423569Y-91435028D01*
X103595028Y-91263569D01*
X103737554Y-91067398D01*
X103847638Y-90851347D01*
X103922568Y-90620735D01*
X103942110Y-90497347D01*
X103960500Y-90381245D01*
X103960500Y-88618754D01*
X103938432Y-88479431D01*
X103922568Y-88379265D01*
X103885103Y-88263959D01*
X103847639Y-88148655D01*
X103847638Y-88148653D01*
X103737554Y-87932602D01*
X103713854Y-87899982D01*
X103595033Y-87736437D01*
X103595029Y-87736432D01*
X103423567Y-87564970D01*
X103423562Y-87564966D01*
X103227401Y-87422448D01*
X103227400Y-87422447D01*
X103227398Y-87422446D01*
X103059262Y-87336776D01*
X103011344Y-87312360D01*
X102780736Y-87237432D01*
X102541245Y-87199500D01*
X102541240Y-87199500D01*
X102298760Y-87199500D01*
X102298755Y-87199500D01*
X102059263Y-87237432D01*
X101828655Y-87312360D01*
X101612598Y-87422448D01*
X101416437Y-87564966D01*
X101416432Y-87564970D01*
X101244970Y-87736432D01*
X101244966Y-87736437D01*
X101102448Y-87932598D01*
X100992360Y-88148655D01*
X100917432Y-88379263D01*
X100879500Y-88618754D01*
X95540500Y-88618754D01*
X95540500Y-87899995D01*
X95540499Y-87899982D01*
X95529999Y-87797203D01*
X95529999Y-87797202D01*
X95474814Y-87630665D01*
X95382712Y-87481344D01*
X95258656Y-87357288D01*
X95109335Y-87265186D01*
X94942798Y-87210001D01*
X94942796Y-87210000D01*
X94840017Y-87199500D01*
X94840010Y-87199500D01*
X93159990Y-87199500D01*
X93159982Y-87199500D01*
X93057203Y-87210000D01*
X93057202Y-87210001D01*
X92974669Y-87237349D01*
X92890667Y-87265185D01*
X92890662Y-87265187D01*
X92741342Y-87357289D01*
X92617289Y-87481342D01*
X92525187Y-87630662D01*
X92525186Y-87630665D01*
X92470001Y-87797202D01*
X92470001Y-87797203D01*
X92470000Y-87797203D01*
X92459500Y-87899982D01*
X92459500Y-88633998D01*
X92442888Y-88695997D01*
X92426655Y-88724113D01*
X92426650Y-88724123D01*
X92338842Y-88936112D01*
X92279453Y-89157759D01*
X92279451Y-89157770D01*
X92249500Y-89385258D01*
X92249500Y-92746056D01*
X92229815Y-92813095D01*
X92213181Y-92833737D01*
X87126084Y-97920833D01*
X87126078Y-97920840D01*
X86986396Y-98102878D01*
X86986390Y-98102888D01*
X86871656Y-98301611D01*
X86871651Y-98301620D01*
X86783842Y-98513612D01*
X86724453Y-98735258D01*
X86724450Y-98735271D01*
X86694501Y-98962765D01*
X86694501Y-99192234D01*
X86724450Y-99419728D01*
X86724451Y-99419733D01*
X86724452Y-99419739D01*
X86751247Y-99519740D01*
X86783842Y-99641387D01*
X86871651Y-99853379D01*
X86871656Y-99853388D01*
X86986390Y-100052112D01*
X86986392Y-100052115D01*
X86986396Y-100052121D01*
X87126078Y-100234159D01*
X87126084Y-100234166D01*
X87288333Y-100396415D01*
X87288340Y-100396421D01*
X87470378Y-100536103D01*
X87470382Y-100536105D01*
X87470388Y-100536110D01*
X87669112Y-100650844D01*
X87742952Y-100681429D01*
X87797355Y-100725269D01*
X87819421Y-100791562D01*
X87819500Y-100795990D01*
X87819500Y-101244547D01*
X87799815Y-101311586D01*
X87783181Y-101332228D01*
X86059144Y-103056264D01*
X86059138Y-103056272D01*
X85990692Y-103158705D01*
X85990684Y-103158719D01*
X85957347Y-103239207D01*
X85951823Y-103252543D01*
X85943537Y-103272545D01*
X85943535Y-103272553D01*
X85919500Y-103393389D01*
X85919500Y-103975500D01*
X85899815Y-104042539D01*
X85847011Y-104088294D01*
X85795501Y-104099500D01*
X85597130Y-104099500D01*
X85597123Y-104099501D01*
X85537516Y-104105908D01*
X85402671Y-104156202D01*
X85402664Y-104156206D01*
X85287455Y-104242452D01*
X85287452Y-104242455D01*
X85201206Y-104357664D01*
X85201202Y-104357671D01*
X85150908Y-104492517D01*
X85144501Y-104552116D01*
X85144500Y-104552135D01*
X83500000Y-104552135D01*
X83500000Y-88618754D01*
X87379500Y-88618754D01*
X87379500Y-90381245D01*
X87417432Y-90620736D01*
X87492360Y-90851344D01*
X87602448Y-91067401D01*
X87744966Y-91263562D01*
X87744970Y-91263567D01*
X87916432Y-91435029D01*
X87916437Y-91435033D01*
X88087539Y-91559345D01*
X88112602Y-91577554D01*
X88328653Y-91687638D01*
X88328655Y-91687639D01*
X88443959Y-91725103D01*
X88559265Y-91762568D01*
X88670186Y-91780136D01*
X88798755Y-91800500D01*
X88798760Y-91800500D01*
X89041245Y-91800500D01*
X89157347Y-91782110D01*
X89280735Y-91762568D01*
X89511347Y-91687638D01*
X89727398Y-91577554D01*
X89923569Y-91435028D01*
X90095028Y-91263569D01*
X90237554Y-91067398D01*
X90347638Y-90851347D01*
X90422568Y-90620735D01*
X90442110Y-90497347D01*
X90460500Y-90381245D01*
X90460500Y-88618754D01*
X90438432Y-88479431D01*
X90422568Y-88379265D01*
X90385103Y-88263959D01*
X90347639Y-88148655D01*
X90347638Y-88148653D01*
X90237554Y-87932602D01*
X90213854Y-87899982D01*
X90095033Y-87736437D01*
X90095029Y-87736432D01*
X89923567Y-87564970D01*
X89923562Y-87564966D01*
X89727401Y-87422448D01*
X89727400Y-87422447D01*
X89727398Y-87422446D01*
X89559262Y-87336776D01*
X89511344Y-87312360D01*
X89280736Y-87237432D01*
X89041245Y-87199500D01*
X89041240Y-87199500D01*
X88798760Y-87199500D01*
X88798755Y-87199500D01*
X88559263Y-87237432D01*
X88328655Y-87312360D01*
X88112598Y-87422448D01*
X87916437Y-87564966D01*
X87916432Y-87564970D01*
X87744970Y-87736432D01*
X87744966Y-87736437D01*
X87602448Y-87932598D01*
X87492360Y-88148655D01*
X87417432Y-88379263D01*
X87379500Y-88618754D01*
X83500000Y-88618754D01*
X83500000Y-84124000D01*
X83519685Y-84056961D01*
X83572489Y-84011206D01*
X83624000Y-84000000D01*
X150876000Y-84000000D01*
X150943039Y-84019685D01*
G37*
%TD.AperFunction*%
%TD*%
M02*
