M48
; DRILL file {KiCad 9.0.7} date 2026-06-25T17:20:24+1000
; FORMAT={-:-/ absolute / metric / decimal}
; #@! TF.CreationDate,2026-06-25T17:20:24+10:00
; #@! TF.GenerationSoftware,Kicad,Pcbnew,9.0.7
; #@! TF.FileFunction,Plated,1,2,PTH
FMAT,2
METRIC
; #@! TA.AperFunction,Plated,PTH,ComponentDrill
T1C0.800
; #@! TA.AperFunction,Plated,PTH,ComponentDrill
T2C0.900
; #@! TA.AperFunction,Plated,PTH,ComponentDrill
T3C1.010
; #@! TA.AperFunction,Plated,PTH,ComponentDrill
T4C1.300
; #@! TA.AperFunction,Plated,PTH,ComponentDrill
T5C1.400
%
G90
G05
T1
X93.045Y-105.5
X93.505Y-114.5
X95.585Y-105.5
X96.045Y-114.5
X106.505Y-105.5
X107.505Y-114.5
X109.045Y-105.5
X110.045Y-114.5
X120.005Y-105.5
X121.5Y-114.5
X122.545Y-105.5
X124.04Y-114.5
X134.455Y-105.5
X135.505Y-114.5
X136.995Y-105.5
X138.045Y-114.5
T2
X86.005Y-114.5
X86.545Y-105.5
X88.545Y-114.5
X89.085Y-105.5
X99.505Y-105.5
X100.005Y-114.5
X102.045Y-105.5
X102.545Y-114.5
X113.775Y-114.5
X114.0Y-105.5
X116.315Y-114.5
X116.54Y-105.5
X127.775Y-114.5
X128.005Y-105.5
X130.315Y-114.5
X130.545Y-105.5
T3
X84.8Y-99.078
X84.8Y-121.3
X95.0Y-100.277
X95.0Y-122.5
X99.8Y-99.078
X99.8Y-121.3
X110.0Y-100.277
X110.0Y-122.5
X114.8Y-99.078
X114.8Y-121.3
X125.0Y-100.277
X125.0Y-122.5
X129.8Y-99.177
X129.8Y-121.3
X140.0Y-100.377
X140.0Y-122.5
T4
X144.368Y-106.75
X144.368Y-114.25
T5
X88.0Y-131.722
X88.92Y-89.5
X93.08Y-131.722
X94.0Y-89.5
X102.045Y-132.0
X102.42Y-89.5
X107.125Y-132.0
X107.5Y-89.5
X116.0Y-131.722
X116.42Y-89.5
X121.08Y-131.722
X121.5Y-89.5
X130.0Y-131.722
X130.42Y-89.5
X135.08Y-131.722
X135.5Y-89.5
M30
