%TF.GenerationSoftware,KiCad,Pcbnew,9.0.7*%
%TF.CreationDate,2026-05-19T16:55:39+10:00*%
%TF.ProjectId,power_distro,706f7765-725f-4646-9973-74726f2e6b69,rev?*%
%TF.SameCoordinates,Original*%
%TF.FileFunction,Legend,Top*%
%TF.FilePolarity,Positive*%
%FSLAX46Y46*%
G04 Gerber Fmt 4.6, Leading zero omitted, Abs format (unit mm)*
G04 Created by KiCad (PCBNEW 9.0.7) date 2026-05-19 16:55:39*
%MOMM*%
%LPD*%
G01*
G04 APERTURE LIST*
%ADD10C,0.100000*%
%ADD11C,0.150000*%
%ADD12C,0.120000*%
G04 APERTURE END LIST*
D10*
X96434211Y-84991466D02*
X97196116Y-84991466D01*
X110434211Y-84991466D02*
X111196116Y-84991466D01*
X124434211Y-84991466D02*
X125196116Y-84991466D01*
X138434211Y-84991466D02*
X139196116Y-84991466D01*
X150161466Y-105065788D02*
X150161466Y-104303884D01*
X137934211Y-136661466D02*
X138696116Y-136661466D01*
X123934211Y-136661466D02*
X124696116Y-136661466D01*
X109934211Y-136661466D02*
X110696116Y-136661466D01*
X95934211Y-136661466D02*
X96696116Y-136661466D01*
X149481384Y-117356466D02*
X150243289Y-117356466D01*
X149862336Y-117737419D02*
X149862336Y-116975514D01*
X126653884Y-136293966D02*
X127415789Y-136293966D01*
X127034836Y-136674919D02*
X127034836Y-135913014D01*
X112653884Y-136293966D02*
X113415789Y-136293966D01*
X113034836Y-136674919D02*
X113034836Y-135913014D01*
X98698884Y-136571466D02*
X99460789Y-136571466D01*
X99079836Y-136952419D02*
X99079836Y-136190514D01*
X84653884Y-136293966D02*
X85415789Y-136293966D01*
X85034836Y-136674919D02*
X85034836Y-135913014D01*
X127153884Y-85081466D02*
X127915789Y-85081466D01*
X127534836Y-85462419D02*
X127534836Y-84700514D01*
X113153884Y-85081466D02*
X113915789Y-85081466D01*
X113534836Y-85462419D02*
X113534836Y-84700514D01*
X99153884Y-85081466D02*
X99915789Y-85081466D01*
X99534836Y-85462419D02*
X99534836Y-84700514D01*
X85303884Y-84491466D02*
X86065789Y-84491466D01*
X85684836Y-84872419D02*
X85684836Y-84110514D01*
D11*
X108608333Y-112584819D02*
X108275000Y-112108628D01*
X108036905Y-112584819D02*
X108036905Y-111584819D01*
X108036905Y-111584819D02*
X108417857Y-111584819D01*
X108417857Y-111584819D02*
X108513095Y-111632438D01*
X108513095Y-111632438D02*
X108560714Y-111680057D01*
X108560714Y-111680057D02*
X108608333Y-111775295D01*
X108608333Y-111775295D02*
X108608333Y-111918152D01*
X108608333Y-111918152D02*
X108560714Y-112013390D01*
X108560714Y-112013390D02*
X108513095Y-112061009D01*
X108513095Y-112061009D02*
X108417857Y-112108628D01*
X108417857Y-112108628D02*
X108036905Y-112108628D01*
X109465476Y-111584819D02*
X109275000Y-111584819D01*
X109275000Y-111584819D02*
X109179762Y-111632438D01*
X109179762Y-111632438D02*
X109132143Y-111680057D01*
X109132143Y-111680057D02*
X109036905Y-111822914D01*
X109036905Y-111822914D02*
X108989286Y-112013390D01*
X108989286Y-112013390D02*
X108989286Y-112394342D01*
X108989286Y-112394342D02*
X109036905Y-112489580D01*
X109036905Y-112489580D02*
X109084524Y-112537200D01*
X109084524Y-112537200D02*
X109179762Y-112584819D01*
X109179762Y-112584819D02*
X109370238Y-112584819D01*
X109370238Y-112584819D02*
X109465476Y-112537200D01*
X109465476Y-112537200D02*
X109513095Y-112489580D01*
X109513095Y-112489580D02*
X109560714Y-112394342D01*
X109560714Y-112394342D02*
X109560714Y-112156247D01*
X109560714Y-112156247D02*
X109513095Y-112061009D01*
X109513095Y-112061009D02*
X109465476Y-112013390D01*
X109465476Y-112013390D02*
X109370238Y-111965771D01*
X109370238Y-111965771D02*
X109179762Y-111965771D01*
X109179762Y-111965771D02*
X109084524Y-112013390D01*
X109084524Y-112013390D02*
X109036905Y-112061009D01*
X109036905Y-112061009D02*
X108989286Y-112156247D01*
X86536905Y-111994819D02*
X86536905Y-110994819D01*
X86536905Y-110994819D02*
X86775000Y-110994819D01*
X86775000Y-110994819D02*
X86917857Y-111042438D01*
X86917857Y-111042438D02*
X87013095Y-111137676D01*
X87013095Y-111137676D02*
X87060714Y-111232914D01*
X87060714Y-111232914D02*
X87108333Y-111423390D01*
X87108333Y-111423390D02*
X87108333Y-111566247D01*
X87108333Y-111566247D02*
X87060714Y-111756723D01*
X87060714Y-111756723D02*
X87013095Y-111851961D01*
X87013095Y-111851961D02*
X86917857Y-111947200D01*
X86917857Y-111947200D02*
X86775000Y-111994819D01*
X86775000Y-111994819D02*
X86536905Y-111994819D01*
X88013095Y-110994819D02*
X87536905Y-110994819D01*
X87536905Y-110994819D02*
X87489286Y-111471009D01*
X87489286Y-111471009D02*
X87536905Y-111423390D01*
X87536905Y-111423390D02*
X87632143Y-111375771D01*
X87632143Y-111375771D02*
X87870238Y-111375771D01*
X87870238Y-111375771D02*
X87965476Y-111423390D01*
X87965476Y-111423390D02*
X88013095Y-111471009D01*
X88013095Y-111471009D02*
X88060714Y-111566247D01*
X88060714Y-111566247D02*
X88060714Y-111804342D01*
X88060714Y-111804342D02*
X88013095Y-111899580D01*
X88013095Y-111899580D02*
X87965476Y-111947200D01*
X87965476Y-111947200D02*
X87870238Y-111994819D01*
X87870238Y-111994819D02*
X87632143Y-111994819D01*
X87632143Y-111994819D02*
X87536905Y-111947200D01*
X87536905Y-111947200D02*
X87489286Y-111899580D01*
X107608333Y-103084819D02*
X107275000Y-102608628D01*
X107036905Y-103084819D02*
X107036905Y-102084819D01*
X107036905Y-102084819D02*
X107417857Y-102084819D01*
X107417857Y-102084819D02*
X107513095Y-102132438D01*
X107513095Y-102132438D02*
X107560714Y-102180057D01*
X107560714Y-102180057D02*
X107608333Y-102275295D01*
X107608333Y-102275295D02*
X107608333Y-102418152D01*
X107608333Y-102418152D02*
X107560714Y-102513390D01*
X107560714Y-102513390D02*
X107513095Y-102561009D01*
X107513095Y-102561009D02*
X107417857Y-102608628D01*
X107417857Y-102608628D02*
X107036905Y-102608628D01*
X107989286Y-102180057D02*
X108036905Y-102132438D01*
X108036905Y-102132438D02*
X108132143Y-102084819D01*
X108132143Y-102084819D02*
X108370238Y-102084819D01*
X108370238Y-102084819D02*
X108465476Y-102132438D01*
X108465476Y-102132438D02*
X108513095Y-102180057D01*
X108513095Y-102180057D02*
X108560714Y-102275295D01*
X108560714Y-102275295D02*
X108560714Y-102370533D01*
X108560714Y-102370533D02*
X108513095Y-102513390D01*
X108513095Y-102513390D02*
X107941667Y-103084819D01*
X107941667Y-103084819D02*
X108560714Y-103084819D01*
X94608333Y-112584819D02*
X94275000Y-112108628D01*
X94036905Y-112584819D02*
X94036905Y-111584819D01*
X94036905Y-111584819D02*
X94417857Y-111584819D01*
X94417857Y-111584819D02*
X94513095Y-111632438D01*
X94513095Y-111632438D02*
X94560714Y-111680057D01*
X94560714Y-111680057D02*
X94608333Y-111775295D01*
X94608333Y-111775295D02*
X94608333Y-111918152D01*
X94608333Y-111918152D02*
X94560714Y-112013390D01*
X94560714Y-112013390D02*
X94513095Y-112061009D01*
X94513095Y-112061009D02*
X94417857Y-112108628D01*
X94417857Y-112108628D02*
X94036905Y-112108628D01*
X95513095Y-111584819D02*
X95036905Y-111584819D01*
X95036905Y-111584819D02*
X94989286Y-112061009D01*
X94989286Y-112061009D02*
X95036905Y-112013390D01*
X95036905Y-112013390D02*
X95132143Y-111965771D01*
X95132143Y-111965771D02*
X95370238Y-111965771D01*
X95370238Y-111965771D02*
X95465476Y-112013390D01*
X95465476Y-112013390D02*
X95513095Y-112061009D01*
X95513095Y-112061009D02*
X95560714Y-112156247D01*
X95560714Y-112156247D02*
X95560714Y-112394342D01*
X95560714Y-112394342D02*
X95513095Y-112489580D01*
X95513095Y-112489580D02*
X95465476Y-112537200D01*
X95465476Y-112537200D02*
X95370238Y-112584819D01*
X95370238Y-112584819D02*
X95132143Y-112584819D01*
X95132143Y-112584819D02*
X95036905Y-112537200D01*
X95036905Y-112537200D02*
X94989286Y-112489580D01*
X121108333Y-104084819D02*
X120775000Y-103608628D01*
X120536905Y-104084819D02*
X120536905Y-103084819D01*
X120536905Y-103084819D02*
X120917857Y-103084819D01*
X120917857Y-103084819D02*
X121013095Y-103132438D01*
X121013095Y-103132438D02*
X121060714Y-103180057D01*
X121060714Y-103180057D02*
X121108333Y-103275295D01*
X121108333Y-103275295D02*
X121108333Y-103418152D01*
X121108333Y-103418152D02*
X121060714Y-103513390D01*
X121060714Y-103513390D02*
X121013095Y-103561009D01*
X121013095Y-103561009D02*
X120917857Y-103608628D01*
X120917857Y-103608628D02*
X120536905Y-103608628D01*
X121441667Y-103084819D02*
X122060714Y-103084819D01*
X122060714Y-103084819D02*
X121727381Y-103465771D01*
X121727381Y-103465771D02*
X121870238Y-103465771D01*
X121870238Y-103465771D02*
X121965476Y-103513390D01*
X121965476Y-103513390D02*
X122013095Y-103561009D01*
X122013095Y-103561009D02*
X122060714Y-103656247D01*
X122060714Y-103656247D02*
X122060714Y-103894342D01*
X122060714Y-103894342D02*
X122013095Y-103989580D01*
X122013095Y-103989580D02*
X121965476Y-104037200D01*
X121965476Y-104037200D02*
X121870238Y-104084819D01*
X121870238Y-104084819D02*
X121584524Y-104084819D01*
X121584524Y-104084819D02*
X121489286Y-104037200D01*
X121489286Y-104037200D02*
X121441667Y-103989580D01*
X93719761Y-103084819D02*
X93386428Y-102608628D01*
X93148333Y-103084819D02*
X93148333Y-102084819D01*
X93148333Y-102084819D02*
X93529285Y-102084819D01*
X93529285Y-102084819D02*
X93624523Y-102132438D01*
X93624523Y-102132438D02*
X93672142Y-102180057D01*
X93672142Y-102180057D02*
X93719761Y-102275295D01*
X93719761Y-102275295D02*
X93719761Y-102418152D01*
X93719761Y-102418152D02*
X93672142Y-102513390D01*
X93672142Y-102513390D02*
X93624523Y-102561009D01*
X93624523Y-102561009D02*
X93529285Y-102608628D01*
X93529285Y-102608628D02*
X93148333Y-102608628D01*
X94529285Y-103037200D02*
X94434047Y-103084819D01*
X94434047Y-103084819D02*
X94243571Y-103084819D01*
X94243571Y-103084819D02*
X94148333Y-103037200D01*
X94148333Y-103037200D02*
X94100714Y-102941961D01*
X94100714Y-102941961D02*
X94100714Y-102561009D01*
X94100714Y-102561009D02*
X94148333Y-102465771D01*
X94148333Y-102465771D02*
X94243571Y-102418152D01*
X94243571Y-102418152D02*
X94434047Y-102418152D01*
X94434047Y-102418152D02*
X94529285Y-102465771D01*
X94529285Y-102465771D02*
X94576904Y-102561009D01*
X94576904Y-102561009D02*
X94576904Y-102656247D01*
X94576904Y-102656247D02*
X94100714Y-102751485D01*
X95529285Y-103084819D02*
X94957857Y-103084819D01*
X95243571Y-103084819D02*
X95243571Y-102084819D01*
X95243571Y-102084819D02*
X95148333Y-102227676D01*
X95148333Y-102227676D02*
X95053095Y-102322914D01*
X95053095Y-102322914D02*
X94957857Y-102370533D01*
X136148333Y-104084819D02*
X135815000Y-103608628D01*
X135576905Y-104084819D02*
X135576905Y-103084819D01*
X135576905Y-103084819D02*
X135957857Y-103084819D01*
X135957857Y-103084819D02*
X136053095Y-103132438D01*
X136053095Y-103132438D02*
X136100714Y-103180057D01*
X136100714Y-103180057D02*
X136148333Y-103275295D01*
X136148333Y-103275295D02*
X136148333Y-103418152D01*
X136148333Y-103418152D02*
X136100714Y-103513390D01*
X136100714Y-103513390D02*
X136053095Y-103561009D01*
X136053095Y-103561009D02*
X135957857Y-103608628D01*
X135957857Y-103608628D02*
X135576905Y-103608628D01*
X137005476Y-103418152D02*
X137005476Y-104084819D01*
X136767381Y-103037200D02*
X136529286Y-103751485D01*
X136529286Y-103751485D02*
X137148333Y-103751485D01*
X136608333Y-112584819D02*
X136275000Y-112108628D01*
X136036905Y-112584819D02*
X136036905Y-111584819D01*
X136036905Y-111584819D02*
X136417857Y-111584819D01*
X136417857Y-111584819D02*
X136513095Y-111632438D01*
X136513095Y-111632438D02*
X136560714Y-111680057D01*
X136560714Y-111680057D02*
X136608333Y-111775295D01*
X136608333Y-111775295D02*
X136608333Y-111918152D01*
X136608333Y-111918152D02*
X136560714Y-112013390D01*
X136560714Y-112013390D02*
X136513095Y-112061009D01*
X136513095Y-112061009D02*
X136417857Y-112108628D01*
X136417857Y-112108628D02*
X136036905Y-112108628D01*
X137179762Y-112013390D02*
X137084524Y-111965771D01*
X137084524Y-111965771D02*
X137036905Y-111918152D01*
X137036905Y-111918152D02*
X136989286Y-111822914D01*
X136989286Y-111822914D02*
X136989286Y-111775295D01*
X136989286Y-111775295D02*
X137036905Y-111680057D01*
X137036905Y-111680057D02*
X137084524Y-111632438D01*
X137084524Y-111632438D02*
X137179762Y-111584819D01*
X137179762Y-111584819D02*
X137370238Y-111584819D01*
X137370238Y-111584819D02*
X137465476Y-111632438D01*
X137465476Y-111632438D02*
X137513095Y-111680057D01*
X137513095Y-111680057D02*
X137560714Y-111775295D01*
X137560714Y-111775295D02*
X137560714Y-111822914D01*
X137560714Y-111822914D02*
X137513095Y-111918152D01*
X137513095Y-111918152D02*
X137465476Y-111965771D01*
X137465476Y-111965771D02*
X137370238Y-112013390D01*
X137370238Y-112013390D02*
X137179762Y-112013390D01*
X137179762Y-112013390D02*
X137084524Y-112061009D01*
X137084524Y-112061009D02*
X137036905Y-112108628D01*
X137036905Y-112108628D02*
X136989286Y-112203866D01*
X136989286Y-112203866D02*
X136989286Y-112394342D01*
X136989286Y-112394342D02*
X137036905Y-112489580D01*
X137036905Y-112489580D02*
X137084524Y-112537200D01*
X137084524Y-112537200D02*
X137179762Y-112584819D01*
X137179762Y-112584819D02*
X137370238Y-112584819D01*
X137370238Y-112584819D02*
X137465476Y-112537200D01*
X137465476Y-112537200D02*
X137513095Y-112489580D01*
X137513095Y-112489580D02*
X137560714Y-112394342D01*
X137560714Y-112394342D02*
X137560714Y-112203866D01*
X137560714Y-112203866D02*
X137513095Y-112108628D01*
X137513095Y-112108628D02*
X137465476Y-112061009D01*
X137465476Y-112061009D02*
X137370238Y-112013390D01*
X122603333Y-112584819D02*
X122270000Y-112108628D01*
X122031905Y-112584819D02*
X122031905Y-111584819D01*
X122031905Y-111584819D02*
X122412857Y-111584819D01*
X122412857Y-111584819D02*
X122508095Y-111632438D01*
X122508095Y-111632438D02*
X122555714Y-111680057D01*
X122555714Y-111680057D02*
X122603333Y-111775295D01*
X122603333Y-111775295D02*
X122603333Y-111918152D01*
X122603333Y-111918152D02*
X122555714Y-112013390D01*
X122555714Y-112013390D02*
X122508095Y-112061009D01*
X122508095Y-112061009D02*
X122412857Y-112108628D01*
X122412857Y-112108628D02*
X122031905Y-112108628D01*
X122936667Y-111584819D02*
X123603333Y-111584819D01*
X123603333Y-111584819D02*
X123174762Y-112584819D01*
X100036905Y-102994819D02*
X100036905Y-101994819D01*
X100036905Y-101994819D02*
X100275000Y-101994819D01*
X100275000Y-101994819D02*
X100417857Y-102042438D01*
X100417857Y-102042438D02*
X100513095Y-102137676D01*
X100513095Y-102137676D02*
X100560714Y-102232914D01*
X100560714Y-102232914D02*
X100608333Y-102423390D01*
X100608333Y-102423390D02*
X100608333Y-102566247D01*
X100608333Y-102566247D02*
X100560714Y-102756723D01*
X100560714Y-102756723D02*
X100513095Y-102851961D01*
X100513095Y-102851961D02*
X100417857Y-102947200D01*
X100417857Y-102947200D02*
X100275000Y-102994819D01*
X100275000Y-102994819D02*
X100036905Y-102994819D01*
X100989286Y-102090057D02*
X101036905Y-102042438D01*
X101036905Y-102042438D02*
X101132143Y-101994819D01*
X101132143Y-101994819D02*
X101370238Y-101994819D01*
X101370238Y-101994819D02*
X101465476Y-102042438D01*
X101465476Y-102042438D02*
X101513095Y-102090057D01*
X101513095Y-102090057D02*
X101560714Y-102185295D01*
X101560714Y-102185295D02*
X101560714Y-102280533D01*
X101560714Y-102280533D02*
X101513095Y-102423390D01*
X101513095Y-102423390D02*
X100941667Y-102994819D01*
X100941667Y-102994819D02*
X101560714Y-102994819D01*
X114536905Y-103494819D02*
X114536905Y-102494819D01*
X114536905Y-102494819D02*
X114775000Y-102494819D01*
X114775000Y-102494819D02*
X114917857Y-102542438D01*
X114917857Y-102542438D02*
X115013095Y-102637676D01*
X115013095Y-102637676D02*
X115060714Y-102732914D01*
X115060714Y-102732914D02*
X115108333Y-102923390D01*
X115108333Y-102923390D02*
X115108333Y-103066247D01*
X115108333Y-103066247D02*
X115060714Y-103256723D01*
X115060714Y-103256723D02*
X115013095Y-103351961D01*
X115013095Y-103351961D02*
X114917857Y-103447200D01*
X114917857Y-103447200D02*
X114775000Y-103494819D01*
X114775000Y-103494819D02*
X114536905Y-103494819D01*
X115441667Y-102494819D02*
X116060714Y-102494819D01*
X116060714Y-102494819D02*
X115727381Y-102875771D01*
X115727381Y-102875771D02*
X115870238Y-102875771D01*
X115870238Y-102875771D02*
X115965476Y-102923390D01*
X115965476Y-102923390D02*
X116013095Y-102971009D01*
X116013095Y-102971009D02*
X116060714Y-103066247D01*
X116060714Y-103066247D02*
X116060714Y-103304342D01*
X116060714Y-103304342D02*
X116013095Y-103399580D01*
X116013095Y-103399580D02*
X115965476Y-103447200D01*
X115965476Y-103447200D02*
X115870238Y-103494819D01*
X115870238Y-103494819D02*
X115584524Y-103494819D01*
X115584524Y-103494819D02*
X115489286Y-103447200D01*
X115489286Y-103447200D02*
X115441667Y-103399580D01*
X128536905Y-103494819D02*
X128536905Y-102494819D01*
X128536905Y-102494819D02*
X128775000Y-102494819D01*
X128775000Y-102494819D02*
X128917857Y-102542438D01*
X128917857Y-102542438D02*
X129013095Y-102637676D01*
X129013095Y-102637676D02*
X129060714Y-102732914D01*
X129060714Y-102732914D02*
X129108333Y-102923390D01*
X129108333Y-102923390D02*
X129108333Y-103066247D01*
X129108333Y-103066247D02*
X129060714Y-103256723D01*
X129060714Y-103256723D02*
X129013095Y-103351961D01*
X129013095Y-103351961D02*
X128917857Y-103447200D01*
X128917857Y-103447200D02*
X128775000Y-103494819D01*
X128775000Y-103494819D02*
X128536905Y-103494819D01*
X129965476Y-102828152D02*
X129965476Y-103494819D01*
X129727381Y-102447200D02*
X129489286Y-103161485D01*
X129489286Y-103161485D02*
X130108333Y-103161485D01*
X128306905Y-111994819D02*
X128306905Y-110994819D01*
X128306905Y-110994819D02*
X128545000Y-110994819D01*
X128545000Y-110994819D02*
X128687857Y-111042438D01*
X128687857Y-111042438D02*
X128783095Y-111137676D01*
X128783095Y-111137676D02*
X128830714Y-111232914D01*
X128830714Y-111232914D02*
X128878333Y-111423390D01*
X128878333Y-111423390D02*
X128878333Y-111566247D01*
X128878333Y-111566247D02*
X128830714Y-111756723D01*
X128830714Y-111756723D02*
X128783095Y-111851961D01*
X128783095Y-111851961D02*
X128687857Y-111947200D01*
X128687857Y-111947200D02*
X128545000Y-111994819D01*
X128545000Y-111994819D02*
X128306905Y-111994819D01*
X129449762Y-111423390D02*
X129354524Y-111375771D01*
X129354524Y-111375771D02*
X129306905Y-111328152D01*
X129306905Y-111328152D02*
X129259286Y-111232914D01*
X129259286Y-111232914D02*
X129259286Y-111185295D01*
X129259286Y-111185295D02*
X129306905Y-111090057D01*
X129306905Y-111090057D02*
X129354524Y-111042438D01*
X129354524Y-111042438D02*
X129449762Y-110994819D01*
X129449762Y-110994819D02*
X129640238Y-110994819D01*
X129640238Y-110994819D02*
X129735476Y-111042438D01*
X129735476Y-111042438D02*
X129783095Y-111090057D01*
X129783095Y-111090057D02*
X129830714Y-111185295D01*
X129830714Y-111185295D02*
X129830714Y-111232914D01*
X129830714Y-111232914D02*
X129783095Y-111328152D01*
X129783095Y-111328152D02*
X129735476Y-111375771D01*
X129735476Y-111375771D02*
X129640238Y-111423390D01*
X129640238Y-111423390D02*
X129449762Y-111423390D01*
X129449762Y-111423390D02*
X129354524Y-111471009D01*
X129354524Y-111471009D02*
X129306905Y-111518628D01*
X129306905Y-111518628D02*
X129259286Y-111613866D01*
X129259286Y-111613866D02*
X129259286Y-111804342D01*
X129259286Y-111804342D02*
X129306905Y-111899580D01*
X129306905Y-111899580D02*
X129354524Y-111947200D01*
X129354524Y-111947200D02*
X129449762Y-111994819D01*
X129449762Y-111994819D02*
X129640238Y-111994819D01*
X129640238Y-111994819D02*
X129735476Y-111947200D01*
X129735476Y-111947200D02*
X129783095Y-111899580D01*
X129783095Y-111899580D02*
X129830714Y-111804342D01*
X129830714Y-111804342D02*
X129830714Y-111613866D01*
X129830714Y-111613866D02*
X129783095Y-111518628D01*
X129783095Y-111518628D02*
X129735476Y-111471009D01*
X129735476Y-111471009D02*
X129640238Y-111423390D01*
X132206666Y-125177319D02*
X132206666Y-125891604D01*
X132206666Y-125891604D02*
X132159047Y-126034461D01*
X132159047Y-126034461D02*
X132063809Y-126129700D01*
X132063809Y-126129700D02*
X131920952Y-126177319D01*
X131920952Y-126177319D02*
X131825714Y-126177319D01*
X132825714Y-125605890D02*
X132730476Y-125558271D01*
X132730476Y-125558271D02*
X132682857Y-125510652D01*
X132682857Y-125510652D02*
X132635238Y-125415414D01*
X132635238Y-125415414D02*
X132635238Y-125367795D01*
X132635238Y-125367795D02*
X132682857Y-125272557D01*
X132682857Y-125272557D02*
X132730476Y-125224938D01*
X132730476Y-125224938D02*
X132825714Y-125177319D01*
X132825714Y-125177319D02*
X133016190Y-125177319D01*
X133016190Y-125177319D02*
X133111428Y-125224938D01*
X133111428Y-125224938D02*
X133159047Y-125272557D01*
X133159047Y-125272557D02*
X133206666Y-125367795D01*
X133206666Y-125367795D02*
X133206666Y-125415414D01*
X133206666Y-125415414D02*
X133159047Y-125510652D01*
X133159047Y-125510652D02*
X133111428Y-125558271D01*
X133111428Y-125558271D02*
X133016190Y-125605890D01*
X133016190Y-125605890D02*
X132825714Y-125605890D01*
X132825714Y-125605890D02*
X132730476Y-125653509D01*
X132730476Y-125653509D02*
X132682857Y-125701128D01*
X132682857Y-125701128D02*
X132635238Y-125796366D01*
X132635238Y-125796366D02*
X132635238Y-125986842D01*
X132635238Y-125986842D02*
X132682857Y-126082080D01*
X132682857Y-126082080D02*
X132730476Y-126129700D01*
X132730476Y-126129700D02*
X132825714Y-126177319D01*
X132825714Y-126177319D02*
X133016190Y-126177319D01*
X133016190Y-126177319D02*
X133111428Y-126129700D01*
X133111428Y-126129700D02*
X133159047Y-126082080D01*
X133159047Y-126082080D02*
X133206666Y-125986842D01*
X133206666Y-125986842D02*
X133206666Y-125796366D01*
X133206666Y-125796366D02*
X133159047Y-125701128D01*
X133159047Y-125701128D02*
X133111428Y-125653509D01*
X133111428Y-125653509D02*
X133016190Y-125605890D01*
X114306905Y-111994819D02*
X114306905Y-110994819D01*
X114306905Y-110994819D02*
X114545000Y-110994819D01*
X114545000Y-110994819D02*
X114687857Y-111042438D01*
X114687857Y-111042438D02*
X114783095Y-111137676D01*
X114783095Y-111137676D02*
X114830714Y-111232914D01*
X114830714Y-111232914D02*
X114878333Y-111423390D01*
X114878333Y-111423390D02*
X114878333Y-111566247D01*
X114878333Y-111566247D02*
X114830714Y-111756723D01*
X114830714Y-111756723D02*
X114783095Y-111851961D01*
X114783095Y-111851961D02*
X114687857Y-111947200D01*
X114687857Y-111947200D02*
X114545000Y-111994819D01*
X114545000Y-111994819D02*
X114306905Y-111994819D01*
X115211667Y-110994819D02*
X115878333Y-110994819D01*
X115878333Y-110994819D02*
X115449762Y-111994819D01*
X132706666Y-83954819D02*
X132706666Y-84669104D01*
X132706666Y-84669104D02*
X132659047Y-84811961D01*
X132659047Y-84811961D02*
X132563809Y-84907200D01*
X132563809Y-84907200D02*
X132420952Y-84954819D01*
X132420952Y-84954819D02*
X132325714Y-84954819D01*
X133611428Y-84288152D02*
X133611428Y-84954819D01*
X133373333Y-83907200D02*
X133135238Y-84621485D01*
X133135238Y-84621485D02*
X133754285Y-84621485D01*
X87076905Y-102994819D02*
X87076905Y-101994819D01*
X87076905Y-101994819D02*
X87315000Y-101994819D01*
X87315000Y-101994819D02*
X87457857Y-102042438D01*
X87457857Y-102042438D02*
X87553095Y-102137676D01*
X87553095Y-102137676D02*
X87600714Y-102232914D01*
X87600714Y-102232914D02*
X87648333Y-102423390D01*
X87648333Y-102423390D02*
X87648333Y-102566247D01*
X87648333Y-102566247D02*
X87600714Y-102756723D01*
X87600714Y-102756723D02*
X87553095Y-102851961D01*
X87553095Y-102851961D02*
X87457857Y-102947200D01*
X87457857Y-102947200D02*
X87315000Y-102994819D01*
X87315000Y-102994819D02*
X87076905Y-102994819D01*
X88600714Y-102994819D02*
X88029286Y-102994819D01*
X88315000Y-102994819D02*
X88315000Y-101994819D01*
X88315000Y-101994819D02*
X88219762Y-102137676D01*
X88219762Y-102137676D02*
X88124524Y-102232914D01*
X88124524Y-102232914D02*
X88029286Y-102280533D01*
X100536905Y-111994819D02*
X100536905Y-110994819D01*
X100536905Y-110994819D02*
X100775000Y-110994819D01*
X100775000Y-110994819D02*
X100917857Y-111042438D01*
X100917857Y-111042438D02*
X101013095Y-111137676D01*
X101013095Y-111137676D02*
X101060714Y-111232914D01*
X101060714Y-111232914D02*
X101108333Y-111423390D01*
X101108333Y-111423390D02*
X101108333Y-111566247D01*
X101108333Y-111566247D02*
X101060714Y-111756723D01*
X101060714Y-111756723D02*
X101013095Y-111851961D01*
X101013095Y-111851961D02*
X100917857Y-111947200D01*
X100917857Y-111947200D02*
X100775000Y-111994819D01*
X100775000Y-111994819D02*
X100536905Y-111994819D01*
X101965476Y-110994819D02*
X101775000Y-110994819D01*
X101775000Y-110994819D02*
X101679762Y-111042438D01*
X101679762Y-111042438D02*
X101632143Y-111090057D01*
X101632143Y-111090057D02*
X101536905Y-111232914D01*
X101536905Y-111232914D02*
X101489286Y-111423390D01*
X101489286Y-111423390D02*
X101489286Y-111804342D01*
X101489286Y-111804342D02*
X101536905Y-111899580D01*
X101536905Y-111899580D02*
X101584524Y-111947200D01*
X101584524Y-111947200D02*
X101679762Y-111994819D01*
X101679762Y-111994819D02*
X101870238Y-111994819D01*
X101870238Y-111994819D02*
X101965476Y-111947200D01*
X101965476Y-111947200D02*
X102013095Y-111899580D01*
X102013095Y-111899580D02*
X102060714Y-111804342D01*
X102060714Y-111804342D02*
X102060714Y-111566247D01*
X102060714Y-111566247D02*
X102013095Y-111471009D01*
X102013095Y-111471009D02*
X101965476Y-111423390D01*
X101965476Y-111423390D02*
X101870238Y-111375771D01*
X101870238Y-111375771D02*
X101679762Y-111375771D01*
X101679762Y-111375771D02*
X101584524Y-111423390D01*
X101584524Y-111423390D02*
X101536905Y-111471009D01*
X101536905Y-111471009D02*
X101489286Y-111566247D01*
X118706666Y-83954819D02*
X118706666Y-84669104D01*
X118706666Y-84669104D02*
X118659047Y-84811961D01*
X118659047Y-84811961D02*
X118563809Y-84907200D01*
X118563809Y-84907200D02*
X118420952Y-84954819D01*
X118420952Y-84954819D02*
X118325714Y-84954819D01*
X119087619Y-83954819D02*
X119706666Y-83954819D01*
X119706666Y-83954819D02*
X119373333Y-84335771D01*
X119373333Y-84335771D02*
X119516190Y-84335771D01*
X119516190Y-84335771D02*
X119611428Y-84383390D01*
X119611428Y-84383390D02*
X119659047Y-84431009D01*
X119659047Y-84431009D02*
X119706666Y-84526247D01*
X119706666Y-84526247D02*
X119706666Y-84764342D01*
X119706666Y-84764342D02*
X119659047Y-84859580D01*
X119659047Y-84859580D02*
X119611428Y-84907200D01*
X119611428Y-84907200D02*
X119516190Y-84954819D01*
X119516190Y-84954819D02*
X119230476Y-84954819D01*
X119230476Y-84954819D02*
X119135238Y-84907200D01*
X119135238Y-84907200D02*
X119087619Y-84859580D01*
X90206666Y-125177319D02*
X90206666Y-125891604D01*
X90206666Y-125891604D02*
X90159047Y-126034461D01*
X90159047Y-126034461D02*
X90063809Y-126129700D01*
X90063809Y-126129700D02*
X89920952Y-126177319D01*
X89920952Y-126177319D02*
X89825714Y-126177319D01*
X91159047Y-125177319D02*
X90682857Y-125177319D01*
X90682857Y-125177319D02*
X90635238Y-125653509D01*
X90635238Y-125653509D02*
X90682857Y-125605890D01*
X90682857Y-125605890D02*
X90778095Y-125558271D01*
X90778095Y-125558271D02*
X91016190Y-125558271D01*
X91016190Y-125558271D02*
X91111428Y-125605890D01*
X91111428Y-125605890D02*
X91159047Y-125653509D01*
X91159047Y-125653509D02*
X91206666Y-125748747D01*
X91206666Y-125748747D02*
X91206666Y-125986842D01*
X91206666Y-125986842D02*
X91159047Y-126082080D01*
X91159047Y-126082080D02*
X91111428Y-126129700D01*
X91111428Y-126129700D02*
X91016190Y-126177319D01*
X91016190Y-126177319D02*
X90778095Y-126177319D01*
X90778095Y-126177319D02*
X90682857Y-126129700D01*
X90682857Y-126129700D02*
X90635238Y-126082080D01*
X104251666Y-125454819D02*
X104251666Y-126169104D01*
X104251666Y-126169104D02*
X104204047Y-126311961D01*
X104204047Y-126311961D02*
X104108809Y-126407200D01*
X104108809Y-126407200D02*
X103965952Y-126454819D01*
X103965952Y-126454819D02*
X103870714Y-126454819D01*
X105156428Y-125454819D02*
X104965952Y-125454819D01*
X104965952Y-125454819D02*
X104870714Y-125502438D01*
X104870714Y-125502438D02*
X104823095Y-125550057D01*
X104823095Y-125550057D02*
X104727857Y-125692914D01*
X104727857Y-125692914D02*
X104680238Y-125883390D01*
X104680238Y-125883390D02*
X104680238Y-126264342D01*
X104680238Y-126264342D02*
X104727857Y-126359580D01*
X104727857Y-126359580D02*
X104775476Y-126407200D01*
X104775476Y-126407200D02*
X104870714Y-126454819D01*
X104870714Y-126454819D02*
X105061190Y-126454819D01*
X105061190Y-126454819D02*
X105156428Y-126407200D01*
X105156428Y-126407200D02*
X105204047Y-126359580D01*
X105204047Y-126359580D02*
X105251666Y-126264342D01*
X105251666Y-126264342D02*
X105251666Y-126026247D01*
X105251666Y-126026247D02*
X105204047Y-125931009D01*
X105204047Y-125931009D02*
X105156428Y-125883390D01*
X105156428Y-125883390D02*
X105061190Y-125835771D01*
X105061190Y-125835771D02*
X104870714Y-125835771D01*
X104870714Y-125835771D02*
X104775476Y-125883390D01*
X104775476Y-125883390D02*
X104727857Y-125931009D01*
X104727857Y-125931009D02*
X104680238Y-126026247D01*
X118206666Y-125177319D02*
X118206666Y-125891604D01*
X118206666Y-125891604D02*
X118159047Y-126034461D01*
X118159047Y-126034461D02*
X118063809Y-126129700D01*
X118063809Y-126129700D02*
X117920952Y-126177319D01*
X117920952Y-126177319D02*
X117825714Y-126177319D01*
X118587619Y-125177319D02*
X119254285Y-125177319D01*
X119254285Y-125177319D02*
X118825714Y-126177319D01*
X138722319Y-111981190D02*
X139436604Y-111981190D01*
X139436604Y-111981190D02*
X139579461Y-112028809D01*
X139579461Y-112028809D02*
X139674700Y-112124047D01*
X139674700Y-112124047D02*
X139722319Y-112266904D01*
X139722319Y-112266904D02*
X139722319Y-112362142D01*
X139817557Y-111743095D02*
X139817557Y-110981190D01*
X139722319Y-110743094D02*
X138722319Y-110743094D01*
X139722319Y-110266904D02*
X138722319Y-110266904D01*
X138722319Y-110266904D02*
X139722319Y-109695476D01*
X139722319Y-109695476D02*
X138722319Y-109695476D01*
X139722319Y-108695476D02*
X139722319Y-109266904D01*
X139722319Y-108981190D02*
X138722319Y-108981190D01*
X138722319Y-108981190D02*
X138865176Y-109076428D01*
X138865176Y-109076428D02*
X138960414Y-109171666D01*
X138960414Y-109171666D02*
X139008033Y-109266904D01*
X132211666Y-124031009D02*
X131878333Y-124031009D01*
X131878333Y-124554819D02*
X131878333Y-123554819D01*
X131878333Y-123554819D02*
X132354523Y-123554819D01*
X132878333Y-123983390D02*
X132783095Y-123935771D01*
X132783095Y-123935771D02*
X132735476Y-123888152D01*
X132735476Y-123888152D02*
X132687857Y-123792914D01*
X132687857Y-123792914D02*
X132687857Y-123745295D01*
X132687857Y-123745295D02*
X132735476Y-123650057D01*
X132735476Y-123650057D02*
X132783095Y-123602438D01*
X132783095Y-123602438D02*
X132878333Y-123554819D01*
X132878333Y-123554819D02*
X133068809Y-123554819D01*
X133068809Y-123554819D02*
X133164047Y-123602438D01*
X133164047Y-123602438D02*
X133211666Y-123650057D01*
X133211666Y-123650057D02*
X133259285Y-123745295D01*
X133259285Y-123745295D02*
X133259285Y-123792914D01*
X133259285Y-123792914D02*
X133211666Y-123888152D01*
X133211666Y-123888152D02*
X133164047Y-123935771D01*
X133164047Y-123935771D02*
X133068809Y-123983390D01*
X133068809Y-123983390D02*
X132878333Y-123983390D01*
X132878333Y-123983390D02*
X132783095Y-124031009D01*
X132783095Y-124031009D02*
X132735476Y-124078628D01*
X132735476Y-124078628D02*
X132687857Y-124173866D01*
X132687857Y-124173866D02*
X132687857Y-124364342D01*
X132687857Y-124364342D02*
X132735476Y-124459580D01*
X132735476Y-124459580D02*
X132783095Y-124507200D01*
X132783095Y-124507200D02*
X132878333Y-124554819D01*
X132878333Y-124554819D02*
X133068809Y-124554819D01*
X133068809Y-124554819D02*
X133164047Y-124507200D01*
X133164047Y-124507200D02*
X133211666Y-124459580D01*
X133211666Y-124459580D02*
X133259285Y-124364342D01*
X133259285Y-124364342D02*
X133259285Y-124173866D01*
X133259285Y-124173866D02*
X133211666Y-124078628D01*
X133211666Y-124078628D02*
X133164047Y-124031009D01*
X133164047Y-124031009D02*
X133068809Y-123983390D01*
X132211666Y-102208509D02*
X131878333Y-102208509D01*
X131878333Y-102732319D02*
X131878333Y-101732319D01*
X131878333Y-101732319D02*
X132354523Y-101732319D01*
X133164047Y-102065652D02*
X133164047Y-102732319D01*
X132925952Y-101684700D02*
X132687857Y-102398985D01*
X132687857Y-102398985D02*
X133306904Y-102398985D01*
X104211666Y-124431009D02*
X103878333Y-124431009D01*
X103878333Y-124954819D02*
X103878333Y-123954819D01*
X103878333Y-123954819D02*
X104354523Y-123954819D01*
X105164047Y-123954819D02*
X104973571Y-123954819D01*
X104973571Y-123954819D02*
X104878333Y-124002438D01*
X104878333Y-124002438D02*
X104830714Y-124050057D01*
X104830714Y-124050057D02*
X104735476Y-124192914D01*
X104735476Y-124192914D02*
X104687857Y-124383390D01*
X104687857Y-124383390D02*
X104687857Y-124764342D01*
X104687857Y-124764342D02*
X104735476Y-124859580D01*
X104735476Y-124859580D02*
X104783095Y-124907200D01*
X104783095Y-124907200D02*
X104878333Y-124954819D01*
X104878333Y-124954819D02*
X105068809Y-124954819D01*
X105068809Y-124954819D02*
X105164047Y-124907200D01*
X105164047Y-124907200D02*
X105211666Y-124859580D01*
X105211666Y-124859580D02*
X105259285Y-124764342D01*
X105259285Y-124764342D02*
X105259285Y-124526247D01*
X105259285Y-124526247D02*
X105211666Y-124431009D01*
X105211666Y-124431009D02*
X105164047Y-124383390D01*
X105164047Y-124383390D02*
X105068809Y-124335771D01*
X105068809Y-124335771D02*
X104878333Y-124335771D01*
X104878333Y-124335771D02*
X104783095Y-124383390D01*
X104783095Y-124383390D02*
X104735476Y-124431009D01*
X104735476Y-124431009D02*
X104687857Y-124526247D01*
X90211666Y-123931009D02*
X89878333Y-123931009D01*
X89878333Y-124454819D02*
X89878333Y-123454819D01*
X89878333Y-123454819D02*
X90354523Y-123454819D01*
X91211666Y-123454819D02*
X90735476Y-123454819D01*
X90735476Y-123454819D02*
X90687857Y-123931009D01*
X90687857Y-123931009D02*
X90735476Y-123883390D01*
X90735476Y-123883390D02*
X90830714Y-123835771D01*
X90830714Y-123835771D02*
X91068809Y-123835771D01*
X91068809Y-123835771D02*
X91164047Y-123883390D01*
X91164047Y-123883390D02*
X91211666Y-123931009D01*
X91211666Y-123931009D02*
X91259285Y-124026247D01*
X91259285Y-124026247D02*
X91259285Y-124264342D01*
X91259285Y-124264342D02*
X91211666Y-124359580D01*
X91211666Y-124359580D02*
X91164047Y-124407200D01*
X91164047Y-124407200D02*
X91068809Y-124454819D01*
X91068809Y-124454819D02*
X90830714Y-124454819D01*
X90830714Y-124454819D02*
X90735476Y-124407200D01*
X90735476Y-124407200D02*
X90687857Y-124359580D01*
X118211666Y-123931009D02*
X117878333Y-123931009D01*
X117878333Y-124454819D02*
X117878333Y-123454819D01*
X117878333Y-123454819D02*
X118354523Y-123454819D01*
X118640238Y-123454819D02*
X119306904Y-123454819D01*
X119306904Y-123454819D02*
X118878333Y-124454819D01*
X118211666Y-102208509D02*
X117878333Y-102208509D01*
X117878333Y-102732319D02*
X117878333Y-101732319D01*
X117878333Y-101732319D02*
X118354523Y-101732319D01*
X118640238Y-101732319D02*
X119259285Y-101732319D01*
X119259285Y-101732319D02*
X118925952Y-102113271D01*
X118925952Y-102113271D02*
X119068809Y-102113271D01*
X119068809Y-102113271D02*
X119164047Y-102160890D01*
X119164047Y-102160890D02*
X119211666Y-102208509D01*
X119211666Y-102208509D02*
X119259285Y-102303747D01*
X119259285Y-102303747D02*
X119259285Y-102541842D01*
X119259285Y-102541842D02*
X119211666Y-102637080D01*
X119211666Y-102637080D02*
X119164047Y-102684700D01*
X119164047Y-102684700D02*
X119068809Y-102732319D01*
X119068809Y-102732319D02*
X118783095Y-102732319D01*
X118783095Y-102732319D02*
X118687857Y-102684700D01*
X118687857Y-102684700D02*
X118640238Y-102637080D01*
X90706666Y-83954819D02*
X90706666Y-84669104D01*
X90706666Y-84669104D02*
X90659047Y-84811961D01*
X90659047Y-84811961D02*
X90563809Y-84907200D01*
X90563809Y-84907200D02*
X90420952Y-84954819D01*
X90420952Y-84954819D02*
X90325714Y-84954819D01*
X91706666Y-84954819D02*
X91135238Y-84954819D01*
X91420952Y-84954819D02*
X91420952Y-83954819D01*
X91420952Y-83954819D02*
X91325714Y-84097676D01*
X91325714Y-84097676D02*
X91230476Y-84192914D01*
X91230476Y-84192914D02*
X91135238Y-84240533D01*
X104706666Y-83954819D02*
X104706666Y-84669104D01*
X104706666Y-84669104D02*
X104659047Y-84811961D01*
X104659047Y-84811961D02*
X104563809Y-84907200D01*
X104563809Y-84907200D02*
X104420952Y-84954819D01*
X104420952Y-84954819D02*
X104325714Y-84954819D01*
X105135238Y-84050057D02*
X105182857Y-84002438D01*
X105182857Y-84002438D02*
X105278095Y-83954819D01*
X105278095Y-83954819D02*
X105516190Y-83954819D01*
X105516190Y-83954819D02*
X105611428Y-84002438D01*
X105611428Y-84002438D02*
X105659047Y-84050057D01*
X105659047Y-84050057D02*
X105706666Y-84145295D01*
X105706666Y-84145295D02*
X105706666Y-84240533D01*
X105706666Y-84240533D02*
X105659047Y-84383390D01*
X105659047Y-84383390D02*
X105087619Y-84954819D01*
X105087619Y-84954819D02*
X105706666Y-84954819D01*
X104161666Y-102108509D02*
X103828333Y-102108509D01*
X103828333Y-102632319D02*
X103828333Y-101632319D01*
X103828333Y-101632319D02*
X104304523Y-101632319D01*
X104637857Y-101727557D02*
X104685476Y-101679938D01*
X104685476Y-101679938D02*
X104780714Y-101632319D01*
X104780714Y-101632319D02*
X105018809Y-101632319D01*
X105018809Y-101632319D02*
X105114047Y-101679938D01*
X105114047Y-101679938D02*
X105161666Y-101727557D01*
X105161666Y-101727557D02*
X105209285Y-101822795D01*
X105209285Y-101822795D02*
X105209285Y-101918033D01*
X105209285Y-101918033D02*
X105161666Y-102060890D01*
X105161666Y-102060890D02*
X104590238Y-102632319D01*
X104590238Y-102632319D02*
X105209285Y-102632319D01*
X90661666Y-102108509D02*
X90328333Y-102108509D01*
X90328333Y-102632319D02*
X90328333Y-101632319D01*
X90328333Y-101632319D02*
X90804523Y-101632319D01*
X91709285Y-102632319D02*
X91137857Y-102632319D01*
X91423571Y-102632319D02*
X91423571Y-101632319D01*
X91423571Y-101632319D02*
X91328333Y-101775176D01*
X91328333Y-101775176D02*
X91233095Y-101870414D01*
X91233095Y-101870414D02*
X91137857Y-101918033D01*
D12*
%TO.C,R6*%
X108875000Y-114500000D02*
G75*
G02*
X106135000Y-114500000I-1370000J0D01*
G01*
X106135000Y-114500000D02*
G75*
G02*
X108875000Y-114500000I1370000J0D01*
G01*
X108875000Y-114500000D02*
X108945000Y-114500000D01*
%TO.C,D5*%
X88946437Y-115580000D02*
G75*
G02*
X85715000Y-115735516I-1671437J1080000D01*
G01*
X88315961Y-115580000D02*
G75*
G02*
X86234039Y-115580000I-1040961J1080000D01*
G01*
X86234039Y-113420000D02*
G75*
G02*
X88315961Y-113420000I1040961J-1080000D01*
G01*
X85715000Y-113264484D02*
G75*
G02*
X88946437Y-113420000I1560000J-1235516D01*
G01*
X85715000Y-115580000D02*
X85715000Y-115736000D01*
X85715000Y-113264000D02*
X85715000Y-113420000D01*
%TO.C,R2*%
X107875000Y-105000000D02*
G75*
G02*
X105135000Y-105000000I-1370000J0D01*
G01*
X105135000Y-105000000D02*
G75*
G02*
X107875000Y-105000000I1370000J0D01*
G01*
X107875000Y-105000000D02*
X107945000Y-105000000D01*
%TO.C,R5*%
X94875000Y-114500000D02*
G75*
G02*
X92135000Y-114500000I-1370000J0D01*
G01*
X92135000Y-114500000D02*
G75*
G02*
X94875000Y-114500000I1370000J0D01*
G01*
X94875000Y-114500000D02*
X94945000Y-114500000D01*
%TO.C,R3*%
X121375000Y-106000000D02*
G75*
G02*
X118635000Y-106000000I-1370000J0D01*
G01*
X118635000Y-106000000D02*
G75*
G02*
X121375000Y-106000000I1370000J0D01*
G01*
X121375000Y-106000000D02*
X121445000Y-106000000D01*
%TO.C,Re1*%
X94415000Y-105000000D02*
G75*
G02*
X91675000Y-105000000I-1370000J0D01*
G01*
X91675000Y-105000000D02*
G75*
G02*
X94415000Y-105000000I1370000J0D01*
G01*
X94415000Y-105000000D02*
X94485000Y-105000000D01*
%TO.C,R4*%
X136415000Y-106000000D02*
G75*
G02*
X133675000Y-106000000I-1370000J0D01*
G01*
X133675000Y-106000000D02*
G75*
G02*
X136415000Y-106000000I1370000J0D01*
G01*
X136415000Y-106000000D02*
X136485000Y-106000000D01*
%TO.C,R8*%
X136875000Y-114500000D02*
G75*
G02*
X134135000Y-114500000I-1370000J0D01*
G01*
X134135000Y-114500000D02*
G75*
G02*
X136875000Y-114500000I1370000J0D01*
G01*
X136875000Y-114500000D02*
X136945000Y-114500000D01*
%TO.C,R7*%
X122870000Y-114500000D02*
G75*
G02*
X120130000Y-114500000I-1370000J0D01*
G01*
X120130000Y-114500000D02*
G75*
G02*
X122870000Y-114500000I1370000J0D01*
G01*
X122870000Y-114500000D02*
X122940000Y-114500000D01*
%TO.C,D2*%
X102446437Y-106580000D02*
G75*
G02*
X99215000Y-106735516I-1671437J1080000D01*
G01*
X101815961Y-106580000D02*
G75*
G02*
X99734039Y-106580000I-1040961J1080000D01*
G01*
X99734039Y-104420000D02*
G75*
G02*
X101815961Y-104420000I1040961J-1080000D01*
G01*
X99215000Y-104264484D02*
G75*
G02*
X102446437Y-104420000I1560000J-1235516D01*
G01*
X99215000Y-106580000D02*
X99215000Y-106736000D01*
X99215000Y-104264000D02*
X99215000Y-104420000D01*
%TO.C,D3*%
X116946437Y-107080000D02*
G75*
G02*
X113715000Y-107235516I-1671437J1080000D01*
G01*
X116315961Y-107080000D02*
G75*
G02*
X114234039Y-107080000I-1040961J1080000D01*
G01*
X114234039Y-104920000D02*
G75*
G02*
X116315961Y-104920000I1040961J-1080000D01*
G01*
X113715000Y-104764484D02*
G75*
G02*
X116946437Y-104920000I1560000J-1235516D01*
G01*
X113715000Y-107080000D02*
X113715000Y-107236000D01*
X113715000Y-104764000D02*
X113715000Y-104920000D01*
%TO.C,D4*%
X130946437Y-107080000D02*
G75*
G02*
X127715000Y-107235516I-1671437J1080000D01*
G01*
X130315961Y-107080000D02*
G75*
G02*
X128234039Y-107080000I-1040961J1080000D01*
G01*
X128234039Y-104920000D02*
G75*
G02*
X130315961Y-104920000I1040961J-1080000D01*
G01*
X127715000Y-104764484D02*
G75*
G02*
X130946437Y-104920000I1560000J-1235516D01*
G01*
X127715000Y-107080000D02*
X127715000Y-107236000D01*
X127715000Y-104764000D02*
X127715000Y-104920000D01*
%TO.C,D8*%
X130716437Y-115580000D02*
G75*
G02*
X127485000Y-115735516I-1671437J1080000D01*
G01*
X130085961Y-115580000D02*
G75*
G02*
X128004039Y-115580000I-1040961J1080000D01*
G01*
X128004039Y-113420000D02*
G75*
G02*
X130085961Y-113420000I1040961J-1080000D01*
G01*
X127485000Y-113264484D02*
G75*
G02*
X130716437Y-113420000I1560000J-1235516D01*
G01*
X127485000Y-115580000D02*
X127485000Y-115736000D01*
X127485000Y-113264000D02*
X127485000Y-113420000D01*
%TO.C,J8*%
X137066842Y-133938321D02*
G75*
G02*
X133080000Y-133922500I-1986842J1665821D01*
G01*
X131986842Y-133938321D02*
G75*
G02*
X128000000Y-133922500I-1986842J1665821D01*
G01*
X134080000Y-126812500D02*
X136080000Y-126812500D01*
X136080000Y-128622500D01*
X134080000Y-128622500D01*
X134080000Y-126812500D01*
X129000000Y-126812500D02*
X131000000Y-126812500D01*
X131000000Y-128622500D01*
X129000000Y-128622500D01*
X129000000Y-126812500D01*
X126350000Y-126812500D02*
X138730000Y-126812500D01*
X138730000Y-135632500D01*
X126350000Y-135632500D01*
X126350000Y-126812500D01*
X138730000Y-127622500D02*
X136190000Y-127622500D01*
X137820000Y-133922500D02*
X137080000Y-133922500D01*
X137820000Y-128622500D02*
X137820000Y-133922500D01*
X132000000Y-133922500D02*
X133080000Y-133922500D01*
X131000000Y-127622500D02*
X134080000Y-127622500D01*
X130300000Y-126012500D02*
X130000000Y-126612500D01*
X130000000Y-126612500D02*
X129700000Y-126012500D01*
X129700000Y-126012500D02*
X130300000Y-126012500D01*
X128000000Y-133922500D02*
X127260000Y-133922500D01*
X127260000Y-133922500D02*
X127260000Y-128622500D01*
X127260000Y-128622500D02*
X137820000Y-128622500D01*
X126350000Y-127622500D02*
X128890000Y-127622500D01*
%TO.C,D7*%
X116716437Y-115580000D02*
G75*
G02*
X113485000Y-115735516I-1671437J1080000D01*
G01*
X116085961Y-115580000D02*
G75*
G02*
X114004039Y-115580000I-1040961J1080000D01*
G01*
X114004039Y-113420000D02*
G75*
G02*
X116085961Y-113420000I1040961J-1080000D01*
G01*
X113485000Y-113264484D02*
G75*
G02*
X116716437Y-113420000I1560000J-1235516D01*
G01*
X113485000Y-115580000D02*
X113485000Y-115736000D01*
X113485000Y-113264000D02*
X113485000Y-113420000D01*
%TO.C,J4*%
X137566842Y-92715821D02*
G75*
G02*
X133580000Y-92700000I-1986842J1665821D01*
G01*
X132486842Y-92715821D02*
G75*
G02*
X128500000Y-92700000I-1986842J1665821D01*
G01*
X134580000Y-85590000D02*
X136580000Y-85590000D01*
X136580000Y-87400000D01*
X134580000Y-87400000D01*
X134580000Y-85590000D01*
X129500000Y-85590000D02*
X131500000Y-85590000D01*
X131500000Y-87400000D01*
X129500000Y-87400000D01*
X129500000Y-85590000D01*
X126850000Y-85590000D02*
X139230000Y-85590000D01*
X139230000Y-94410000D01*
X126850000Y-94410000D01*
X126850000Y-85590000D01*
X139230000Y-86400000D02*
X136690000Y-86400000D01*
X138320000Y-92700000D02*
X137580000Y-92700000D01*
X138320000Y-87400000D02*
X138320000Y-92700000D01*
X132500000Y-92700000D02*
X133580000Y-92700000D01*
X131500000Y-86400000D02*
X134580000Y-86400000D01*
X130800000Y-84790000D02*
X130500000Y-85390000D01*
X130500000Y-85390000D02*
X130200000Y-84790000D01*
X130200000Y-84790000D02*
X130800000Y-84790000D01*
X128500000Y-92700000D02*
X127760000Y-92700000D01*
X127760000Y-92700000D02*
X127760000Y-87400000D01*
X127760000Y-87400000D02*
X138320000Y-87400000D01*
X126850000Y-86400000D02*
X129390000Y-86400000D01*
%TO.C,D1*%
X89486437Y-106580000D02*
G75*
G02*
X86255000Y-106735516I-1671437J1080000D01*
G01*
X88855961Y-106580000D02*
G75*
G02*
X86774039Y-106580000I-1040961J1080000D01*
G01*
X86774039Y-104420000D02*
G75*
G02*
X88855961Y-104420000I1040961J-1080000D01*
G01*
X86255000Y-104264484D02*
G75*
G02*
X89486437Y-104420000I1560000J-1235516D01*
G01*
X86255000Y-106580000D02*
X86255000Y-106736000D01*
X86255000Y-104264000D02*
X86255000Y-104420000D01*
%TO.C,D6*%
X102946437Y-115580000D02*
G75*
G02*
X99715000Y-115735516I-1671437J1080000D01*
G01*
X102315961Y-115580000D02*
G75*
G02*
X100234039Y-115580000I-1040961J1080000D01*
G01*
X100234039Y-113420000D02*
G75*
G02*
X102315961Y-113420000I1040961J-1080000D01*
G01*
X99715000Y-113264484D02*
G75*
G02*
X102946437Y-113420000I1560000J-1235516D01*
G01*
X99715000Y-115580000D02*
X99715000Y-115736000D01*
X99715000Y-113264000D02*
X99715000Y-113420000D01*
%TO.C,J3*%
X123566842Y-92715821D02*
G75*
G02*
X119580000Y-92700000I-1986842J1665821D01*
G01*
X118486842Y-92715821D02*
G75*
G02*
X114500000Y-92700000I-1986842J1665821D01*
G01*
X120580000Y-85590000D02*
X122580000Y-85590000D01*
X122580000Y-87400000D01*
X120580000Y-87400000D01*
X120580000Y-85590000D01*
X115500000Y-85590000D02*
X117500000Y-85590000D01*
X117500000Y-87400000D01*
X115500000Y-87400000D01*
X115500000Y-85590000D01*
X112850000Y-85590000D02*
X125230000Y-85590000D01*
X125230000Y-94410000D01*
X112850000Y-94410000D01*
X112850000Y-85590000D01*
X125230000Y-86400000D02*
X122690000Y-86400000D01*
X124320000Y-92700000D02*
X123580000Y-92700000D01*
X124320000Y-87400000D02*
X124320000Y-92700000D01*
X118500000Y-92700000D02*
X119580000Y-92700000D01*
X117500000Y-86400000D02*
X120580000Y-86400000D01*
X116800000Y-84790000D02*
X116500000Y-85390000D01*
X116500000Y-85390000D02*
X116200000Y-84790000D01*
X116200000Y-84790000D02*
X116800000Y-84790000D01*
X114500000Y-92700000D02*
X113760000Y-92700000D01*
X113760000Y-92700000D02*
X113760000Y-87400000D01*
X113760000Y-87400000D02*
X124320000Y-87400000D01*
X112850000Y-86400000D02*
X115390000Y-86400000D01*
%TO.C,J5*%
X95066842Y-133938321D02*
G75*
G02*
X91080000Y-133922500I-1986842J1665821D01*
G01*
X89986842Y-133938321D02*
G75*
G02*
X86000000Y-133922500I-1986842J1665821D01*
G01*
X92080000Y-126812500D02*
X94080000Y-126812500D01*
X94080000Y-128622500D01*
X92080000Y-128622500D01*
X92080000Y-126812500D01*
X87000000Y-126812500D02*
X89000000Y-126812500D01*
X89000000Y-128622500D01*
X87000000Y-128622500D01*
X87000000Y-126812500D01*
X84350000Y-126812500D02*
X96730000Y-126812500D01*
X96730000Y-135632500D01*
X84350000Y-135632500D01*
X84350000Y-126812500D01*
X96730000Y-127622500D02*
X94190000Y-127622500D01*
X95820000Y-133922500D02*
X95080000Y-133922500D01*
X95820000Y-128622500D02*
X95820000Y-133922500D01*
X90000000Y-133922500D02*
X91080000Y-133922500D01*
X89000000Y-127622500D02*
X92080000Y-127622500D01*
X88300000Y-126012500D02*
X88000000Y-126612500D01*
X88000000Y-126612500D02*
X87700000Y-126012500D01*
X87700000Y-126012500D02*
X88300000Y-126012500D01*
X86000000Y-133922500D02*
X85260000Y-133922500D01*
X85260000Y-133922500D02*
X85260000Y-128622500D01*
X85260000Y-128622500D02*
X95820000Y-128622500D01*
X84350000Y-127622500D02*
X86890000Y-127622500D01*
%TO.C,J6*%
X109111842Y-134215821D02*
G75*
G02*
X105125000Y-134200000I-1986842J1665821D01*
G01*
X104031842Y-134215821D02*
G75*
G02*
X100045000Y-134200000I-1986842J1665821D01*
G01*
X106125000Y-127090000D02*
X108125000Y-127090000D01*
X108125000Y-128900000D01*
X106125000Y-128900000D01*
X106125000Y-127090000D01*
X101045000Y-127090000D02*
X103045000Y-127090000D01*
X103045000Y-128900000D01*
X101045000Y-128900000D01*
X101045000Y-127090000D01*
X98395000Y-127090000D02*
X110775000Y-127090000D01*
X110775000Y-135910000D01*
X98395000Y-135910000D01*
X98395000Y-127090000D01*
X110775000Y-127900000D02*
X108235000Y-127900000D01*
X109865000Y-134200000D02*
X109125000Y-134200000D01*
X109865000Y-128900000D02*
X109865000Y-134200000D01*
X104045000Y-134200000D02*
X105125000Y-134200000D01*
X103045000Y-127900000D02*
X106125000Y-127900000D01*
X102345000Y-126290000D02*
X102045000Y-126890000D01*
X102045000Y-126890000D02*
X101745000Y-126290000D01*
X101745000Y-126290000D02*
X102345000Y-126290000D01*
X100045000Y-134200000D02*
X99305000Y-134200000D01*
X99305000Y-134200000D02*
X99305000Y-128900000D01*
X99305000Y-128900000D02*
X109865000Y-128900000D01*
X98395000Y-127900000D02*
X100935000Y-127900000D01*
%TO.C,J7*%
X123066842Y-133938321D02*
G75*
G02*
X119080000Y-133922500I-1986842J1665821D01*
G01*
X117986842Y-133938321D02*
G75*
G02*
X114000000Y-133922500I-1986842J1665821D01*
G01*
X120080000Y-126812500D02*
X122080000Y-126812500D01*
X122080000Y-128622500D01*
X120080000Y-128622500D01*
X120080000Y-126812500D01*
X115000000Y-126812500D02*
X117000000Y-126812500D01*
X117000000Y-128622500D01*
X115000000Y-128622500D01*
X115000000Y-126812500D01*
X112350000Y-126812500D02*
X124730000Y-126812500D01*
X124730000Y-135632500D01*
X112350000Y-135632500D01*
X112350000Y-126812500D01*
X124730000Y-127622500D02*
X122190000Y-127622500D01*
X123820000Y-133922500D02*
X123080000Y-133922500D01*
X123820000Y-128622500D02*
X123820000Y-133922500D01*
X118000000Y-133922500D02*
X119080000Y-133922500D01*
X117000000Y-127622500D02*
X120080000Y-127622500D01*
X116300000Y-126012500D02*
X116000000Y-126612500D01*
X116000000Y-126612500D02*
X115700000Y-126012500D01*
X115700000Y-126012500D02*
X116300000Y-126012500D01*
X114000000Y-133922500D02*
X113260000Y-133922500D01*
X113260000Y-133922500D02*
X113260000Y-128622500D01*
X113260000Y-128622500D02*
X123820000Y-128622500D01*
X112350000Y-127622500D02*
X114890000Y-127622500D01*
%TO.C,J_IN1*%
X147483321Y-105978158D02*
G75*
G02*
X147467500Y-109965000I-1665821J-1986842D01*
G01*
X147483321Y-111058158D02*
G75*
G02*
X147467500Y-115045000I-1665821J-1986842D01*
G01*
X140357500Y-108965000D02*
X142167500Y-108965000D01*
X142167500Y-106965000D01*
X140357500Y-106965000D01*
X140357500Y-108965000D01*
X140357500Y-114045000D02*
X142167500Y-114045000D01*
X142167500Y-112045000D01*
X140357500Y-112045000D01*
X140357500Y-114045000D01*
X140357500Y-116695000D02*
X149177500Y-116695000D01*
X149177500Y-104315000D01*
X140357500Y-104315000D01*
X140357500Y-116695000D01*
X141167500Y-104315000D02*
X141167500Y-106855000D01*
X147467500Y-105225000D02*
X147467500Y-105965000D01*
X142167500Y-105225000D02*
X147467500Y-105225000D01*
X147467500Y-111045000D02*
X147467500Y-109965000D01*
X141167500Y-112045000D02*
X141167500Y-108965000D01*
X139557500Y-112745000D02*
X140157500Y-113045000D01*
X140157500Y-113045000D02*
X139557500Y-113345000D01*
X139557500Y-113345000D02*
X139557500Y-112745000D01*
X147467500Y-115045000D02*
X147467500Y-115785000D01*
X147467500Y-115785000D02*
X142167500Y-115785000D01*
X142167500Y-115785000D02*
X142167500Y-105225000D01*
X141167500Y-116695000D02*
X141167500Y-114155000D01*
%TO.C,F8*%
X126845000Y-119500000D02*
X129157000Y-119500000D01*
X126845000Y-122700000D02*
X126845000Y-119500000D01*
X130833000Y-119500000D02*
X138245000Y-119500000D01*
X134257000Y-122700000D02*
X126845000Y-122700000D01*
X138245000Y-119500000D02*
X138245000Y-122700000D01*
X138245000Y-122700000D02*
X135933000Y-122700000D01*
%TO.C,F4*%
X126845000Y-98177500D02*
X129157000Y-98177500D01*
X126845000Y-101377500D02*
X126845000Y-98177500D01*
X130833000Y-98177500D02*
X138245000Y-98177500D01*
X134257000Y-101377500D02*
X126845000Y-101377500D01*
X138245000Y-98177500D02*
X138245000Y-101377500D01*
X138245000Y-101377500D02*
X135933000Y-101377500D01*
%TO.C,F6*%
X98795000Y-119800000D02*
X101107000Y-119800000D01*
X98795000Y-123000000D02*
X98795000Y-119800000D01*
X102783000Y-119800000D02*
X110195000Y-119800000D01*
X106207000Y-123000000D02*
X98795000Y-123000000D01*
X110195000Y-119800000D02*
X110195000Y-123000000D01*
X110195000Y-123000000D02*
X107883000Y-123000000D01*
%TO.C,F5*%
X84795000Y-119800000D02*
X87107000Y-119800000D01*
X84795000Y-123000000D02*
X84795000Y-119800000D01*
X88783000Y-119800000D02*
X96195000Y-119800000D01*
X92207000Y-123000000D02*
X84795000Y-123000000D01*
X96195000Y-119800000D02*
X96195000Y-123000000D01*
X96195000Y-123000000D02*
X93883000Y-123000000D01*
%TO.C,F7*%
X112795000Y-119800000D02*
X115107000Y-119800000D01*
X112795000Y-123000000D02*
X112795000Y-119800000D01*
X116783000Y-119800000D02*
X124195000Y-119800000D01*
X120207000Y-123000000D02*
X112795000Y-123000000D01*
X124195000Y-119800000D02*
X124195000Y-123000000D01*
X124195000Y-123000000D02*
X121883000Y-123000000D01*
%TO.C,F3*%
X112795000Y-98077500D02*
X115107000Y-98077500D01*
X112795000Y-101277500D02*
X112795000Y-98077500D01*
X116783000Y-98077500D02*
X124195000Y-98077500D01*
X120207000Y-101277500D02*
X112795000Y-101277500D01*
X124195000Y-98077500D02*
X124195000Y-101277500D01*
X124195000Y-101277500D02*
X121883000Y-101277500D01*
%TO.C,J1*%
X84850000Y-86400000D02*
X87390000Y-86400000D01*
X85760000Y-87400000D02*
X96320000Y-87400000D01*
X85760000Y-92700000D02*
X85760000Y-87400000D01*
X86500000Y-92700000D02*
X85760000Y-92700000D01*
X88200000Y-84790000D02*
X88800000Y-84790000D01*
X88500000Y-85390000D02*
X88200000Y-84790000D01*
X88800000Y-84790000D02*
X88500000Y-85390000D01*
X89500000Y-86400000D02*
X92580000Y-86400000D01*
X90500000Y-92700000D02*
X91580000Y-92700000D01*
X96320000Y-87400000D02*
X96320000Y-92700000D01*
X96320000Y-92700000D02*
X95580000Y-92700000D01*
X97230000Y-86400000D02*
X94690000Y-86400000D01*
X84850000Y-85590000D02*
X97230000Y-85590000D01*
X97230000Y-94410000D01*
X84850000Y-94410000D01*
X84850000Y-85590000D01*
X87500000Y-85590000D02*
X89500000Y-85590000D01*
X89500000Y-87400000D01*
X87500000Y-87400000D01*
X87500000Y-85590000D01*
X92580000Y-85590000D02*
X94580000Y-85590000D01*
X94580000Y-87400000D01*
X92580000Y-87400000D01*
X92580000Y-85590000D01*
X90486842Y-92715821D02*
G75*
G02*
X86500000Y-92700000I-1986842J1665821D01*
G01*
X95566842Y-92715821D02*
G75*
G02*
X91580000Y-92700000I-1986842J1665821D01*
G01*
%TO.C,J2*%
X98850000Y-86400000D02*
X101390000Y-86400000D01*
X99760000Y-87400000D02*
X110320000Y-87400000D01*
X99760000Y-92700000D02*
X99760000Y-87400000D01*
X100500000Y-92700000D02*
X99760000Y-92700000D01*
X102200000Y-84790000D02*
X102800000Y-84790000D01*
X102500000Y-85390000D02*
X102200000Y-84790000D01*
X102800000Y-84790000D02*
X102500000Y-85390000D01*
X103500000Y-86400000D02*
X106580000Y-86400000D01*
X104500000Y-92700000D02*
X105580000Y-92700000D01*
X110320000Y-87400000D02*
X110320000Y-92700000D01*
X110320000Y-92700000D02*
X109580000Y-92700000D01*
X111230000Y-86400000D02*
X108690000Y-86400000D01*
X98850000Y-85590000D02*
X111230000Y-85590000D01*
X111230000Y-94410000D01*
X98850000Y-94410000D01*
X98850000Y-85590000D01*
X101500000Y-85590000D02*
X103500000Y-85590000D01*
X103500000Y-87400000D01*
X101500000Y-87400000D01*
X101500000Y-85590000D01*
X106580000Y-85590000D02*
X108580000Y-85590000D01*
X108580000Y-87400000D01*
X106580000Y-87400000D01*
X106580000Y-85590000D01*
X104486842Y-92715821D02*
G75*
G02*
X100500000Y-92700000I-1986842J1665821D01*
G01*
X109566842Y-92715821D02*
G75*
G02*
X105580000Y-92700000I-1986842J1665821D01*
G01*
%TO.C,F2*%
X110195000Y-101277500D02*
X107883000Y-101277500D01*
X110195000Y-98077500D02*
X110195000Y-101277500D01*
X106207000Y-101277500D02*
X98795000Y-101277500D01*
X102783000Y-98077500D02*
X110195000Y-98077500D01*
X98795000Y-101277500D02*
X98795000Y-98077500D01*
X98795000Y-98077500D02*
X101107000Y-98077500D01*
%TO.C,F1*%
X96695000Y-101277500D02*
X94383000Y-101277500D01*
X96695000Y-98077500D02*
X96695000Y-101277500D01*
X92707000Y-101277500D02*
X85295000Y-101277500D01*
X89283000Y-98077500D02*
X96695000Y-98077500D01*
X85295000Y-101277500D02*
X85295000Y-98077500D01*
X85295000Y-98077500D02*
X87607000Y-98077500D01*
%TD*%
M02*
