%TF.GenerationSoftware,KiCad,Pcbnew,9.0.7*%
%TF.CreationDate,2026-05-27T19:35:06+10:00*%
%TF.ProjectId,power_distro,706f7765-725f-4646-9973-74726f2e6b69,rev?*%
%TF.SameCoordinates,Original*%
%TF.FileFunction,Copper,L2,Bot*%
%TF.FilePolarity,Positive*%
%FSLAX46Y46*%
G04 Gerber Fmt 4.6, Leading zero omitted, Abs format (unit mm)*
G04 Created by KiCad (PCBNEW 9.0.7) date 2026-05-27 19:35:06*
%MOMM*%
%LPD*%
G01*
G04 APERTURE LIST*
G04 Aperture macros list*
%AMRoundRect*
0 Rectangle with rounded corners*
0 $1 Rounding radius*
0 $2 $3 $4 $5 $6 $7 $8 $9 X,Y pos of 4 corners*
0 Add a 4 corners polygon primitive as box body*
4,1,4,$2,$3,$4,$5,$6,$7,$8,$9,$2,$3,0*
0 Add four circle primitives for the rounded corners*
1,1,$1+$1,$2,$3*
1,1,$1+$1,$4,$5*
1,1,$1+$1,$6,$7*
1,1,$1+$1,$8,$9*
0 Add four rect primitives between the rounded corners*
20,1,$1+$1,$2,$3,$4,$5,0*
20,1,$1+$1,$4,$5,$6,$7,0*
20,1,$1+$1,$6,$7,$8,$9,0*
20,1,$1+$1,$8,$9,$2,$3,0*%
G04 Aperture macros list end*
%TA.AperFunction,ComponentPad*%
%ADD10C,2.010000*%
%TD*%
%TA.AperFunction,ComponentPad*%
%ADD11RoundRect,0.249999X-0.790001X-1.550001X0.790001X-1.550001X0.790001X1.550001X-0.790001X1.550001X0*%
%TD*%
%TA.AperFunction,ComponentPad*%
%ADD12O,2.080000X3.600000*%
%TD*%
%TA.AperFunction,ComponentPad*%
%ADD13R,1.800000X1.800000*%
%TD*%
%TA.AperFunction,ComponentPad*%
%ADD14C,1.800000*%
%TD*%
%TA.AperFunction,ComponentPad*%
%ADD15RoundRect,0.249999X0.790001X1.550001X-0.790001X1.550001X-0.790001X-1.550001X0.790001X-1.550001X0*%
%TD*%
%TA.AperFunction,ComponentPad*%
%ADD16C,1.600000*%
%TD*%
%TA.AperFunction,ComponentPad*%
%ADD17RoundRect,0.250000X1.000000X-1.000000X1.000000X1.000000X-1.000000X1.000000X-1.000000X-1.000000X0*%
%TD*%
%TA.AperFunction,ComponentPad*%
%ADD18C,2.500000*%
%TD*%
G04 APERTURE END LIST*
D10*
%TO.P,F4,1*%
%TO.N,VCC*%
X135095000Y-100377500D03*
%TO.P,F4,2*%
%TO.N,Net-(D4-K)*%
X129995000Y-99177500D03*
%TD*%
D11*
%TO.P,J7,1,Pin_1*%
%TO.N,Net-(D7-K)*%
X116000000Y-131722500D03*
D12*
%TO.P,J7,2,Pin_2*%
%TO.N,GND*%
X121080000Y-131722500D03*
%TD*%
D13*
%TO.P,D2,1,K*%
%TO.N,Net-(D2-K)*%
X99505000Y-105500000D03*
D14*
%TO.P,D2,2,A*%
%TO.N,Net-(D2-A)*%
X102045000Y-105500000D03*
%TD*%
D13*
%TO.P,D6,1,K*%
%TO.N,Net-(D6-K)*%
X100005000Y-114500000D03*
D14*
%TO.P,D6,2,A*%
%TO.N,Net-(D6-A)*%
X102545000Y-114500000D03*
%TD*%
D10*
%TO.P,F3,1*%
%TO.N,VCC*%
X121045000Y-100277500D03*
%TO.P,F3,2*%
%TO.N,Net-(D3-K)*%
X115945000Y-99077500D03*
%TD*%
D13*
%TO.P,D7,1,K*%
%TO.N,Net-(D7-K)*%
X113775000Y-114500000D03*
D14*
%TO.P,D7,2,A*%
%TO.N,Net-(D7-A)*%
X116315000Y-114500000D03*
%TD*%
D10*
%TO.P,F6,1*%
%TO.N,VCC*%
X107045000Y-122000000D03*
%TO.P,F6,2*%
%TO.N,Net-(D6-K)*%
X101945000Y-120800000D03*
%TD*%
D15*
%TO.P,J3,1,Pin_1*%
%TO.N,Net-(D3-K)*%
X121500000Y-89500000D03*
D12*
%TO.P,J3,2,Pin_2*%
%TO.N,GND*%
X116420000Y-89500000D03*
%TD*%
D16*
%TO.P,Re1,1*%
%TO.N,Net-(D1-A)*%
X93045000Y-105500000D03*
%TO.P,Re1,2*%
%TO.N,GND*%
X95585000Y-105500000D03*
%TD*%
D11*
%TO.P,J6,1,Pin_1*%
%TO.N,Net-(D6-K)*%
X102045000Y-132000000D03*
D12*
%TO.P,J6,2,Pin_2*%
%TO.N,GND*%
X107125000Y-132000000D03*
%TD*%
D13*
%TO.P,D3,1,K*%
%TO.N,Net-(D3-K)*%
X114000000Y-105500000D03*
D14*
%TO.P,D3,2,A*%
%TO.N,Net-(D3-A)*%
X116540000Y-105500000D03*
%TD*%
D10*
%TO.P,F8,1*%
%TO.N,VCC*%
X135095000Y-121700000D03*
%TO.P,F8,2*%
%TO.N,Net-(D8-K)*%
X129995000Y-120500000D03*
%TD*%
D11*
%TO.P,J8,1,Pin_1*%
%TO.N,Net-(D8-K)*%
X130000000Y-131722500D03*
D12*
%TO.P,J8,2,Pin_2*%
%TO.N,GND*%
X135080000Y-131722500D03*
%TD*%
D16*
%TO.P,R2,1*%
%TO.N,Net-(D2-A)*%
X106505000Y-105500000D03*
%TO.P,R2,2*%
%TO.N,GND*%
X109045000Y-105500000D03*
%TD*%
D13*
%TO.P,D5,1,K*%
%TO.N,Net-(D5-K)*%
X86005000Y-114500000D03*
D14*
%TO.P,D5,2,A*%
%TO.N,Net-(D5-A)*%
X88545000Y-114500000D03*
%TD*%
D13*
%TO.P,D1,1,K*%
%TO.N,Net-(D1-K)*%
X86545000Y-105500000D03*
D14*
%TO.P,D1,2,A*%
%TO.N,Net-(D1-A)*%
X89085000Y-105500000D03*
%TD*%
D16*
%TO.P,R8,1*%
%TO.N,Net-(D8-A)*%
X135505000Y-114500000D03*
%TO.P,R8,2*%
%TO.N,GND*%
X138045000Y-114500000D03*
%TD*%
D10*
%TO.P,F7,1*%
%TO.N,VCC*%
X121045000Y-122000000D03*
%TO.P,F7,2*%
%TO.N,Net-(D7-K)*%
X115945000Y-120800000D03*
%TD*%
D11*
%TO.P,J5,1,Pin_1*%
%TO.N,Net-(D5-K)*%
X88000000Y-131722500D03*
D12*
%TO.P,J5,2,Pin_2*%
%TO.N,GND*%
X93080000Y-131722500D03*
%TD*%
D10*
%TO.P,F2,1*%
%TO.N,VCC*%
X107045000Y-100277500D03*
%TO.P,F2,2*%
%TO.N,Net-(D2-K)*%
X101945000Y-99077500D03*
%TD*%
%TO.P,F1,1*%
%TO.N,VCC*%
X93545000Y-100277500D03*
%TO.P,F1,2*%
%TO.N,Net-(D1-K)*%
X88445000Y-99077500D03*
%TD*%
%TO.P,F5,1*%
%TO.N,VCC*%
X93045000Y-122000000D03*
%TO.P,F5,2*%
%TO.N,Net-(D5-K)*%
X87945000Y-120800000D03*
%TD*%
D16*
%TO.P,R6,1*%
%TO.N,Net-(D6-A)*%
X107505000Y-114500000D03*
%TO.P,R6,2*%
%TO.N,GND*%
X110045000Y-114500000D03*
%TD*%
%TO.P,R5,1*%
%TO.N,Net-(D5-A)*%
X93505000Y-114500000D03*
%TO.P,R5,2*%
%TO.N,GND*%
X96045000Y-114500000D03*
%TD*%
%TO.P,R3,1*%
%TO.N,Net-(D3-A)*%
X120005000Y-105500000D03*
%TO.P,R3,2*%
%TO.N,GND*%
X122545000Y-105500000D03*
%TD*%
D13*
%TO.P,D8,1,K*%
%TO.N,Net-(D8-K)*%
X127775000Y-114500000D03*
D14*
%TO.P,D8,2,A*%
%TO.N,Net-(D8-A)*%
X130315000Y-114500000D03*
%TD*%
D16*
%TO.P,R7,1*%
%TO.N,Net-(D7-A)*%
X121500000Y-114500000D03*
%TO.P,R7,2*%
%TO.N,GND*%
X124040000Y-114500000D03*
%TD*%
D13*
%TO.P,D4,1,K*%
%TO.N,Net-(D4-K)*%
X128005000Y-105500000D03*
D14*
%TO.P,D4,2,A*%
%TO.N,Net-(D4-A)*%
X130545000Y-105500000D03*
%TD*%
D16*
%TO.P,R4,1*%
%TO.N,Net-(D4-A)*%
X134455000Y-105500000D03*
%TO.P,R4,2*%
%TO.N,GND*%
X136995000Y-105500000D03*
%TD*%
D15*
%TO.P,J2,1,Pin_1*%
%TO.N,Net-(D2-K)*%
X107500000Y-89500000D03*
D12*
%TO.P,J2,2,Pin_2*%
%TO.N,GND*%
X102420000Y-89500000D03*
%TD*%
D15*
%TO.P,J1,1,Pin_1*%
%TO.N,Net-(D1-K)*%
X94000000Y-89500000D03*
D12*
%TO.P,J1,2,Pin_2*%
%TO.N,GND*%
X88920000Y-89500000D03*
%TD*%
D15*
%TO.P,J4,1,Pin_1*%
%TO.N,Net-(D4-K)*%
X135500000Y-89500000D03*
D12*
%TO.P,J4,2,Pin_2*%
%TO.N,GND*%
X130420000Y-89500000D03*
%TD*%
D17*
%TO.P,J_IN1,1,Pin_1*%
%TO.N,VCC*%
X144367500Y-114250000D03*
D18*
%TO.P,J_IN1,2,Pin_2*%
%TO.N,GND*%
X144367500Y-106750000D03*
%TD*%
%TA.AperFunction,Conductor*%
%TO.N,GND*%
G36*
X150943039Y-84019685D02*
G01*
X150988794Y-84072489D01*
X151000000Y-84124000D01*
X151000000Y-136876000D01*
X150980315Y-136943039D01*
X150927511Y-136988794D01*
X150876000Y-137000000D01*
X83624000Y-137000000D01*
X83556961Y-136980315D01*
X83511206Y-136927511D01*
X83500000Y-136876000D01*
X83500000Y-130122482D01*
X86459500Y-130122482D01*
X86459500Y-133322517D01*
X86470000Y-133425296D01*
X86525185Y-133591832D01*
X86525187Y-133591837D01*
X86530228Y-133600010D01*
X86617288Y-133741156D01*
X86741344Y-133865212D01*
X86890665Y-133957314D01*
X87057202Y-134012499D01*
X87159990Y-134023000D01*
X87159995Y-134023000D01*
X88840005Y-134023000D01*
X88840010Y-134023000D01*
X88942798Y-134012499D01*
X89109335Y-133957314D01*
X89258656Y-133865212D01*
X89382712Y-133741156D01*
X89474814Y-133591835D01*
X89529999Y-133425298D01*
X89540500Y-133322510D01*
X89540500Y-130399982D01*
X100504500Y-130399982D01*
X100504500Y-133600017D01*
X100515000Y-133702796D01*
X100570185Y-133869332D01*
X100570187Y-133869337D01*
X100605070Y-133925890D01*
X100662288Y-134018656D01*
X100786344Y-134142712D01*
X100935665Y-134234814D01*
X101102202Y-134289999D01*
X101204990Y-134300500D01*
X101204995Y-134300500D01*
X102885005Y-134300500D01*
X102885010Y-134300500D01*
X102987798Y-134289999D01*
X103154335Y-134234814D01*
X103303656Y-134142712D01*
X103427712Y-134018656D01*
X103519814Y-133869335D01*
X103574999Y-133702798D01*
X103585500Y-133600010D01*
X103585500Y-130399990D01*
X103574999Y-130297202D01*
X103519814Y-130130665D01*
X103514767Y-130122482D01*
X114459500Y-130122482D01*
X114459500Y-133322517D01*
X114470000Y-133425296D01*
X114525185Y-133591832D01*
X114525187Y-133591837D01*
X114530228Y-133600010D01*
X114617288Y-133741156D01*
X114741344Y-133865212D01*
X114890665Y-133957314D01*
X115057202Y-134012499D01*
X115159990Y-134023000D01*
X115159995Y-134023000D01*
X116840005Y-134023000D01*
X116840010Y-134023000D01*
X116942798Y-134012499D01*
X117109335Y-133957314D01*
X117258656Y-133865212D01*
X117382712Y-133741156D01*
X117474814Y-133591835D01*
X117529999Y-133425298D01*
X117540500Y-133322510D01*
X117540500Y-130122490D01*
X117540499Y-130122482D01*
X128459500Y-130122482D01*
X128459500Y-133322517D01*
X128470000Y-133425296D01*
X128525185Y-133591832D01*
X128525187Y-133591837D01*
X128530228Y-133600010D01*
X128617288Y-133741156D01*
X128741344Y-133865212D01*
X128890665Y-133957314D01*
X129057202Y-134012499D01*
X129159990Y-134023000D01*
X129159995Y-134023000D01*
X130840005Y-134023000D01*
X130840010Y-134023000D01*
X130942798Y-134012499D01*
X131109335Y-133957314D01*
X131258656Y-133865212D01*
X131382712Y-133741156D01*
X131474814Y-133591835D01*
X131529999Y-133425298D01*
X131540500Y-133322510D01*
X131540500Y-132378711D01*
X144149500Y-132378711D01*
X144149500Y-132621288D01*
X144181161Y-132861785D01*
X144243947Y-133096104D01*
X144336773Y-133320205D01*
X144336776Y-133320212D01*
X144458064Y-133530289D01*
X144458066Y-133530292D01*
X144458067Y-133530293D01*
X144605733Y-133722736D01*
X144605739Y-133722743D01*
X144777256Y-133894260D01*
X144777262Y-133894265D01*
X144969711Y-134041936D01*
X145179788Y-134163224D01*
X145403900Y-134256054D01*
X145638211Y-134318838D01*
X145818586Y-134342584D01*
X145878711Y-134350500D01*
X145878712Y-134350500D01*
X146121289Y-134350500D01*
X146169388Y-134344167D01*
X146361789Y-134318838D01*
X146596100Y-134256054D01*
X146820212Y-134163224D01*
X147030289Y-134041936D01*
X147222738Y-133894265D01*
X147394265Y-133722738D01*
X147541936Y-133530289D01*
X147663224Y-133320212D01*
X147756054Y-133096100D01*
X147818838Y-132861789D01*
X147850500Y-132621288D01*
X147850500Y-132378712D01*
X147818838Y-132138211D01*
X147756054Y-131903900D01*
X147663224Y-131679788D01*
X147541936Y-131469711D01*
X147394265Y-131277262D01*
X147394260Y-131277256D01*
X147222743Y-131105739D01*
X147222736Y-131105733D01*
X147030293Y-130958067D01*
X147030292Y-130958066D01*
X147030289Y-130958064D01*
X146820212Y-130836776D01*
X146820205Y-130836773D01*
X146596104Y-130743947D01*
X146361785Y-130681161D01*
X146121289Y-130649500D01*
X146121288Y-130649500D01*
X145878712Y-130649500D01*
X145878711Y-130649500D01*
X145638214Y-130681161D01*
X145403895Y-130743947D01*
X145179794Y-130836773D01*
X145179785Y-130836777D01*
X144969706Y-130958067D01*
X144777263Y-131105733D01*
X144777256Y-131105739D01*
X144605739Y-131277256D01*
X144605733Y-131277263D01*
X144458067Y-131469706D01*
X144336777Y-131679785D01*
X144336773Y-131679794D01*
X144243947Y-131903895D01*
X144181161Y-132138214D01*
X144149500Y-132378711D01*
X131540500Y-132378711D01*
X131540500Y-130122490D01*
X131529999Y-130019702D01*
X131474814Y-129853165D01*
X131382712Y-129703844D01*
X131258656Y-129579788D01*
X131109335Y-129487686D01*
X130942798Y-129432501D01*
X130942796Y-129432500D01*
X130840017Y-129422000D01*
X130840010Y-129422000D01*
X129159990Y-129422000D01*
X129159982Y-129422000D01*
X129057203Y-129432500D01*
X129057202Y-129432501D01*
X128974669Y-129459849D01*
X128890667Y-129487685D01*
X128890662Y-129487687D01*
X128741342Y-129579789D01*
X128617289Y-129703842D01*
X128525187Y-129853162D01*
X128525185Y-129853167D01*
X128523819Y-129857289D01*
X128470001Y-130019702D01*
X128470001Y-130019703D01*
X128470000Y-130019703D01*
X128459500Y-130122482D01*
X117540499Y-130122482D01*
X117529999Y-130019702D01*
X117474814Y-129853165D01*
X117382712Y-129703844D01*
X117258656Y-129579788D01*
X117109335Y-129487686D01*
X116942798Y-129432501D01*
X116942796Y-129432500D01*
X116840017Y-129422000D01*
X116840010Y-129422000D01*
X115159990Y-129422000D01*
X115159982Y-129422000D01*
X115057203Y-129432500D01*
X115057202Y-129432501D01*
X114974669Y-129459849D01*
X114890667Y-129487685D01*
X114890662Y-129487687D01*
X114741342Y-129579789D01*
X114617289Y-129703842D01*
X114525187Y-129853162D01*
X114525185Y-129853167D01*
X114523819Y-129857289D01*
X114470001Y-130019702D01*
X114470001Y-130019703D01*
X114470000Y-130019703D01*
X114459500Y-130122482D01*
X103514767Y-130122482D01*
X103427712Y-129981344D01*
X103303656Y-129857288D01*
X103154335Y-129765186D01*
X102987798Y-129710001D01*
X102987796Y-129710000D01*
X102885017Y-129699500D01*
X102885010Y-129699500D01*
X101204990Y-129699500D01*
X101204982Y-129699500D01*
X101102203Y-129710000D01*
X101102202Y-129710001D01*
X101019669Y-129737349D01*
X100935667Y-129765185D01*
X100935662Y-129765187D01*
X100786342Y-129857289D01*
X100662289Y-129981342D01*
X100570187Y-130130662D01*
X100570186Y-130130665D01*
X100515001Y-130297202D01*
X100515001Y-130297203D01*
X100515000Y-130297203D01*
X100504500Y-130399982D01*
X89540500Y-130399982D01*
X89540500Y-130122490D01*
X89529999Y-130019702D01*
X89474814Y-129853165D01*
X89382712Y-129703844D01*
X89258656Y-129579788D01*
X89109335Y-129487686D01*
X88942798Y-129432501D01*
X88942796Y-129432500D01*
X88840017Y-129422000D01*
X88840010Y-129422000D01*
X87159990Y-129422000D01*
X87159982Y-129422000D01*
X87057203Y-129432500D01*
X87057202Y-129432501D01*
X86974669Y-129459849D01*
X86890667Y-129487685D01*
X86890662Y-129487687D01*
X86741342Y-129579789D01*
X86617289Y-129703842D01*
X86525187Y-129853162D01*
X86525185Y-129853167D01*
X86523819Y-129857289D01*
X86470001Y-130019702D01*
X86470001Y-130019703D01*
X86470000Y-130019703D01*
X86459500Y-130122482D01*
X83500000Y-130122482D01*
X83500000Y-120681515D01*
X86439500Y-120681515D01*
X86439500Y-120918484D01*
X86471747Y-121122086D01*
X86476571Y-121152539D01*
X86549799Y-121377911D01*
X86657381Y-121589054D01*
X86796669Y-121780767D01*
X86964233Y-121948331D01*
X87155946Y-122087619D01*
X87367089Y-122195201D01*
X87592461Y-122268429D01*
X87826515Y-122305500D01*
X87826516Y-122305500D01*
X88063484Y-122305500D01*
X88063485Y-122305500D01*
X88297539Y-122268429D01*
X88522911Y-122195201D01*
X88734054Y-122087619D01*
X88925767Y-121948331D01*
X88992583Y-121881515D01*
X91539500Y-121881515D01*
X91539500Y-122118484D01*
X91569120Y-122305500D01*
X91576571Y-122352539D01*
X91649799Y-122577911D01*
X91757381Y-122789054D01*
X91896669Y-122980767D01*
X92064233Y-123148331D01*
X92255946Y-123287619D01*
X92467089Y-123395201D01*
X92692461Y-123468429D01*
X92926515Y-123505500D01*
X92926516Y-123505500D01*
X93163484Y-123505500D01*
X93163485Y-123505500D01*
X93397539Y-123468429D01*
X93622911Y-123395201D01*
X93834054Y-123287619D01*
X94025767Y-123148331D01*
X94193331Y-122980767D01*
X94332619Y-122789054D01*
X94440201Y-122577911D01*
X94513429Y-122352539D01*
X94550500Y-122118485D01*
X94550500Y-121881515D01*
X94513429Y-121647461D01*
X94440201Y-121422089D01*
X94332619Y-121210946D01*
X94193331Y-121019233D01*
X94025767Y-120851669D01*
X93834054Y-120712381D01*
X93773476Y-120681515D01*
X100439500Y-120681515D01*
X100439500Y-120918484D01*
X100471747Y-121122086D01*
X100476571Y-121152539D01*
X100549799Y-121377911D01*
X100657381Y-121589054D01*
X100796669Y-121780767D01*
X100964233Y-121948331D01*
X101155946Y-122087619D01*
X101367089Y-122195201D01*
X101592461Y-122268429D01*
X101826515Y-122305500D01*
X101826516Y-122305500D01*
X102063484Y-122305500D01*
X102063485Y-122305500D01*
X102297539Y-122268429D01*
X102522911Y-122195201D01*
X102734054Y-122087619D01*
X102925767Y-121948331D01*
X102992583Y-121881515D01*
X105539500Y-121881515D01*
X105539500Y-122118484D01*
X105569120Y-122305500D01*
X105576571Y-122352539D01*
X105649799Y-122577911D01*
X105757381Y-122789054D01*
X105896669Y-122980767D01*
X106064233Y-123148331D01*
X106255946Y-123287619D01*
X106467089Y-123395201D01*
X106692461Y-123468429D01*
X106926515Y-123505500D01*
X106926516Y-123505500D01*
X107163484Y-123505500D01*
X107163485Y-123505500D01*
X107397539Y-123468429D01*
X107622911Y-123395201D01*
X107834054Y-123287619D01*
X108025767Y-123148331D01*
X108193331Y-122980767D01*
X108332619Y-122789054D01*
X108440201Y-122577911D01*
X108513429Y-122352539D01*
X108550500Y-122118485D01*
X108550500Y-121881515D01*
X108513429Y-121647461D01*
X108440201Y-121422089D01*
X108332619Y-121210946D01*
X108193331Y-121019233D01*
X108025767Y-120851669D01*
X107834054Y-120712381D01*
X107773476Y-120681515D01*
X114439500Y-120681515D01*
X114439500Y-120918484D01*
X114471747Y-121122086D01*
X114476571Y-121152539D01*
X114549799Y-121377911D01*
X114657381Y-121589054D01*
X114796669Y-121780767D01*
X114964233Y-121948331D01*
X115155946Y-122087619D01*
X115367089Y-122195201D01*
X115592461Y-122268429D01*
X115826515Y-122305500D01*
X115826516Y-122305500D01*
X116063484Y-122305500D01*
X116063485Y-122305500D01*
X116297539Y-122268429D01*
X116522911Y-122195201D01*
X116734054Y-122087619D01*
X116925767Y-121948331D01*
X116992583Y-121881515D01*
X119539500Y-121881515D01*
X119539500Y-122118484D01*
X119569120Y-122305500D01*
X119576571Y-122352539D01*
X119649799Y-122577911D01*
X119757381Y-122789054D01*
X119896669Y-122980767D01*
X120064233Y-123148331D01*
X120255946Y-123287619D01*
X120467089Y-123395201D01*
X120692461Y-123468429D01*
X120926515Y-123505500D01*
X120926516Y-123505500D01*
X121163484Y-123505500D01*
X121163485Y-123505500D01*
X121397539Y-123468429D01*
X121622911Y-123395201D01*
X121834054Y-123287619D01*
X122025767Y-123148331D01*
X122193331Y-122980767D01*
X122332619Y-122789054D01*
X122440201Y-122577911D01*
X122513429Y-122352539D01*
X122550500Y-122118485D01*
X122550500Y-121881515D01*
X122513429Y-121647461D01*
X122440201Y-121422089D01*
X122332619Y-121210946D01*
X122193331Y-121019233D01*
X122025767Y-120851669D01*
X121834054Y-120712381D01*
X121773476Y-120681515D01*
X121622913Y-120604800D01*
X121622912Y-120604799D01*
X121622911Y-120604799D01*
X121397539Y-120531571D01*
X121397537Y-120531570D01*
X121397535Y-120531570D01*
X121249699Y-120508155D01*
X121163485Y-120494500D01*
X120926515Y-120494500D01*
X120872257Y-120503093D01*
X120692464Y-120531570D01*
X120467086Y-120604800D01*
X120255945Y-120712381D01*
X120167059Y-120776961D01*
X120064233Y-120851669D01*
X120064231Y-120851671D01*
X120064230Y-120851671D01*
X119896671Y-121019230D01*
X119896671Y-121019231D01*
X119896669Y-121019233D01*
X119836850Y-121101566D01*
X119757381Y-121210945D01*
X119649800Y-121422086D01*
X119576570Y-121647464D01*
X119539500Y-121881515D01*
X116992583Y-121881515D01*
X117093331Y-121780767D01*
X117232619Y-121589054D01*
X117340201Y-121377911D01*
X117413429Y-121152539D01*
X117450500Y-120918485D01*
X117450500Y-120681515D01*
X117413429Y-120447461D01*
X117392002Y-120381515D01*
X128489500Y-120381515D01*
X128489500Y-120618484D01*
X128526433Y-120851671D01*
X128526571Y-120852539D01*
X128599799Y-121077911D01*
X128707381Y-121289054D01*
X128846669Y-121480767D01*
X129014233Y-121648331D01*
X129205946Y-121787619D01*
X129417089Y-121895201D01*
X129642461Y-121968429D01*
X129876515Y-122005500D01*
X129876516Y-122005500D01*
X130113484Y-122005500D01*
X130113485Y-122005500D01*
X130347539Y-121968429D01*
X130572911Y-121895201D01*
X130784054Y-121787619D01*
X130975767Y-121648331D01*
X131042583Y-121581515D01*
X133589500Y-121581515D01*
X133589500Y-121818484D01*
X133619120Y-122005500D01*
X133626571Y-122052539D01*
X133699799Y-122277911D01*
X133807381Y-122489054D01*
X133946669Y-122680767D01*
X134114233Y-122848331D01*
X134305946Y-122987619D01*
X134517089Y-123095201D01*
X134742461Y-123168429D01*
X134976515Y-123205500D01*
X134976516Y-123205500D01*
X135213484Y-123205500D01*
X135213485Y-123205500D01*
X135447539Y-123168429D01*
X135672911Y-123095201D01*
X135884054Y-122987619D01*
X136075767Y-122848331D01*
X136243331Y-122680767D01*
X136382619Y-122489054D01*
X136490201Y-122277911D01*
X136563429Y-122052539D01*
X136600500Y-121818485D01*
X136600500Y-121581515D01*
X136563429Y-121347461D01*
X136490201Y-121122089D01*
X136382619Y-120910946D01*
X136243331Y-120719233D01*
X136075767Y-120551669D01*
X135884054Y-120412381D01*
X135672911Y-120304799D01*
X135447539Y-120231571D01*
X135447537Y-120231570D01*
X135447535Y-120231570D01*
X135284115Y-120205686D01*
X135213485Y-120194500D01*
X134976515Y-120194500D01*
X134922257Y-120203093D01*
X134742464Y-120231570D01*
X134517086Y-120304800D01*
X134305945Y-120412381D01*
X134196566Y-120491850D01*
X134114233Y-120551669D01*
X134114231Y-120551671D01*
X134114230Y-120551671D01*
X133946671Y-120719230D01*
X133946671Y-120719231D01*
X133946669Y-120719233D01*
X133904727Y-120776961D01*
X133807381Y-120910945D01*
X133699800Y-121122086D01*
X133626570Y-121347464D01*
X133589500Y-121581515D01*
X131042583Y-121581515D01*
X131143331Y-121480767D01*
X131282619Y-121289054D01*
X131390201Y-121077911D01*
X131463429Y-120852539D01*
X131500500Y-120618485D01*
X131500500Y-120381515D01*
X131463429Y-120147461D01*
X131390201Y-119922089D01*
X131282619Y-119710946D01*
X131143331Y-119519233D01*
X130975767Y-119351669D01*
X130784054Y-119212381D01*
X130572911Y-119104799D01*
X130347539Y-119031571D01*
X130347537Y-119031570D01*
X130347535Y-119031570D01*
X130184115Y-119005686D01*
X130113485Y-118994500D01*
X129876515Y-118994500D01*
X129822257Y-119003093D01*
X129642464Y-119031570D01*
X129417086Y-119104800D01*
X129205945Y-119212381D01*
X129096566Y-119291850D01*
X129014233Y-119351669D01*
X129014231Y-119351671D01*
X129014230Y-119351671D01*
X128846671Y-119519230D01*
X128846671Y-119519231D01*
X128846669Y-119519233D01*
X128786850Y-119601566D01*
X128707381Y-119710945D01*
X128599800Y-119922086D01*
X128526570Y-120147464D01*
X128489500Y-120381515D01*
X117392002Y-120381515D01*
X117340201Y-120222089D01*
X117232619Y-120010946D01*
X117093331Y-119819233D01*
X116925767Y-119651669D01*
X116734054Y-119512381D01*
X116522911Y-119404799D01*
X116297539Y-119331571D01*
X116297537Y-119331570D01*
X116297535Y-119331570D01*
X116134115Y-119305686D01*
X116063485Y-119294500D01*
X115826515Y-119294500D01*
X115772257Y-119303093D01*
X115592464Y-119331570D01*
X115367086Y-119404800D01*
X115155945Y-119512381D01*
X115046566Y-119591850D01*
X114964233Y-119651669D01*
X114964231Y-119651671D01*
X114964230Y-119651671D01*
X114796671Y-119819230D01*
X114796671Y-119819231D01*
X114796669Y-119819233D01*
X114736850Y-119901566D01*
X114657381Y-120010945D01*
X114549800Y-120222086D01*
X114549799Y-120222088D01*
X114549799Y-120222089D01*
X114513185Y-120334775D01*
X114476570Y-120447464D01*
X114439500Y-120681515D01*
X107773476Y-120681515D01*
X107622913Y-120604800D01*
X107622912Y-120604799D01*
X107622911Y-120604799D01*
X107397539Y-120531571D01*
X107397537Y-120531570D01*
X107397535Y-120531570D01*
X107234115Y-120505686D01*
X107163485Y-120494500D01*
X106926515Y-120494500D01*
X106872257Y-120503093D01*
X106692464Y-120531570D01*
X106467086Y-120604800D01*
X106255945Y-120712381D01*
X106167059Y-120776961D01*
X106064233Y-120851669D01*
X106064231Y-120851671D01*
X106064230Y-120851671D01*
X105896671Y-121019230D01*
X105896671Y-121019231D01*
X105896669Y-121019233D01*
X105836850Y-121101566D01*
X105757381Y-121210945D01*
X105649800Y-121422086D01*
X105576570Y-121647464D01*
X105539500Y-121881515D01*
X102992583Y-121881515D01*
X103093331Y-121780767D01*
X103232619Y-121589054D01*
X103340201Y-121377911D01*
X103413429Y-121152539D01*
X103450500Y-120918485D01*
X103450500Y-120681515D01*
X103413429Y-120447461D01*
X103340201Y-120222089D01*
X103232619Y-120010946D01*
X103093331Y-119819233D01*
X102925767Y-119651669D01*
X102734054Y-119512381D01*
X102522911Y-119404799D01*
X102297539Y-119331571D01*
X102297537Y-119331570D01*
X102297535Y-119331570D01*
X102134115Y-119305686D01*
X102063485Y-119294500D01*
X101826515Y-119294500D01*
X101772257Y-119303093D01*
X101592464Y-119331570D01*
X101367086Y-119404800D01*
X101155945Y-119512381D01*
X101046566Y-119591850D01*
X100964233Y-119651669D01*
X100964231Y-119651671D01*
X100964230Y-119651671D01*
X100796671Y-119819230D01*
X100796671Y-119819231D01*
X100796669Y-119819233D01*
X100736850Y-119901566D01*
X100657381Y-120010945D01*
X100549800Y-120222086D01*
X100549799Y-120222088D01*
X100549799Y-120222089D01*
X100513185Y-120334775D01*
X100476570Y-120447464D01*
X100439500Y-120681515D01*
X93773476Y-120681515D01*
X93622913Y-120604800D01*
X93622912Y-120604799D01*
X93622911Y-120604799D01*
X93397539Y-120531571D01*
X93397537Y-120531570D01*
X93397535Y-120531570D01*
X93234115Y-120505686D01*
X93163485Y-120494500D01*
X92926515Y-120494500D01*
X92872257Y-120503093D01*
X92692464Y-120531570D01*
X92467086Y-120604800D01*
X92255945Y-120712381D01*
X92167059Y-120776961D01*
X92064233Y-120851669D01*
X92064231Y-120851671D01*
X92064230Y-120851671D01*
X91896671Y-121019230D01*
X91896671Y-121019231D01*
X91896669Y-121019233D01*
X91836850Y-121101566D01*
X91757381Y-121210945D01*
X91649800Y-121422086D01*
X91576570Y-121647464D01*
X91539500Y-121881515D01*
X88992583Y-121881515D01*
X89093331Y-121780767D01*
X89232619Y-121589054D01*
X89340201Y-121377911D01*
X89413429Y-121152539D01*
X89450500Y-120918485D01*
X89450500Y-120681515D01*
X89413429Y-120447461D01*
X89340201Y-120222089D01*
X89232619Y-120010946D01*
X89093331Y-119819233D01*
X88925767Y-119651669D01*
X88734054Y-119512381D01*
X88522911Y-119404799D01*
X88297539Y-119331571D01*
X88297537Y-119331570D01*
X88297535Y-119331570D01*
X88134115Y-119305686D01*
X88063485Y-119294500D01*
X87826515Y-119294500D01*
X87772257Y-119303093D01*
X87592464Y-119331570D01*
X87367086Y-119404800D01*
X87155945Y-119512381D01*
X87046566Y-119591850D01*
X86964233Y-119651669D01*
X86964231Y-119651671D01*
X86964230Y-119651671D01*
X86796671Y-119819230D01*
X86796671Y-119819231D01*
X86796669Y-119819233D01*
X86736850Y-119901566D01*
X86657381Y-120010945D01*
X86549800Y-120222086D01*
X86549799Y-120222088D01*
X86549799Y-120222089D01*
X86513185Y-120334775D01*
X86476570Y-120447464D01*
X86439500Y-120681515D01*
X83500000Y-120681515D01*
X83500000Y-113552135D01*
X84604500Y-113552135D01*
X84604500Y-115447870D01*
X84604501Y-115447876D01*
X84610908Y-115507483D01*
X84661202Y-115642328D01*
X84661206Y-115642335D01*
X84747452Y-115757544D01*
X84747455Y-115757547D01*
X84862664Y-115843793D01*
X84862671Y-115843797D01*
X84997517Y-115894091D01*
X84997516Y-115894091D01*
X85004444Y-115894835D01*
X85057127Y-115900500D01*
X86952872Y-115900499D01*
X87012483Y-115894091D01*
X87147331Y-115843796D01*
X87262546Y-115757546D01*
X87348796Y-115642331D01*
X87376429Y-115568243D01*
X87378601Y-115562420D01*
X87420471Y-115506486D01*
X87485936Y-115482068D01*
X87554209Y-115496919D01*
X87582464Y-115518071D01*
X87632636Y-115568243D01*
X87632641Y-115568247D01*
X87693258Y-115612287D01*
X87810978Y-115697815D01*
X87939375Y-115763237D01*
X88007393Y-115797895D01*
X88007396Y-115797896D01*
X88112221Y-115831955D01*
X88217049Y-115866015D01*
X88434778Y-115900500D01*
X88434779Y-115900500D01*
X88655221Y-115900500D01*
X88655222Y-115900500D01*
X88872951Y-115866015D01*
X89082606Y-115797895D01*
X89279022Y-115697815D01*
X89457365Y-115568242D01*
X89613242Y-115412365D01*
X89742815Y-115234022D01*
X89842895Y-115037606D01*
X89911015Y-114827951D01*
X89945500Y-114610222D01*
X89945500Y-114397648D01*
X92204500Y-114397648D01*
X92204500Y-114602351D01*
X92236522Y-114804534D01*
X92299781Y-114999223D01*
X92363691Y-115124653D01*
X92392585Y-115181359D01*
X92392715Y-115181613D01*
X92513028Y-115347213D01*
X92657786Y-115491971D01*
X92778226Y-115579474D01*
X92823390Y-115612287D01*
X92939607Y-115671503D01*
X93005776Y-115705218D01*
X93005778Y-115705218D01*
X93005781Y-115705220D01*
X93110137Y-115739127D01*
X93200465Y-115768477D01*
X93301557Y-115784488D01*
X93402648Y-115800500D01*
X93402649Y-115800500D01*
X93607351Y-115800500D01*
X93607352Y-115800500D01*
X93809534Y-115768477D01*
X94004219Y-115705220D01*
X94186610Y-115612287D01*
X94279590Y-115544732D01*
X94352213Y-115491971D01*
X94352215Y-115491968D01*
X94352219Y-115491966D01*
X94496966Y-115347219D01*
X94496968Y-115347215D01*
X94496971Y-115347213D01*
X94617286Y-115181611D01*
X94617415Y-115181359D01*
X94664795Y-115088369D01*
X94712769Y-115037573D01*
X94780590Y-115020778D01*
X94846725Y-115043315D01*
X94885765Y-115088369D01*
X94933141Y-115181350D01*
X94933147Y-115181359D01*
X94965523Y-115225921D01*
X94965524Y-115225922D01*
X95645000Y-114546446D01*
X95645000Y-114552661D01*
X95672259Y-114654394D01*
X95724920Y-114745606D01*
X95799394Y-114820080D01*
X95890606Y-114872741D01*
X95992339Y-114900000D01*
X95998553Y-114900000D01*
X95319076Y-115579474D01*
X95363650Y-115611859D01*
X95545968Y-115704755D01*
X95740582Y-115767990D01*
X95942683Y-115800000D01*
X96147317Y-115800000D01*
X96349417Y-115767990D01*
X96544031Y-115704755D01*
X96726349Y-115611859D01*
X96770921Y-115579474D01*
X96091447Y-114900000D01*
X96097661Y-114900000D01*
X96199394Y-114872741D01*
X96290606Y-114820080D01*
X96365080Y-114745606D01*
X96417741Y-114654394D01*
X96445000Y-114552661D01*
X96445000Y-114546447D01*
X97124474Y-115225921D01*
X97156859Y-115181349D01*
X97249755Y-114999031D01*
X97312990Y-114804417D01*
X97345000Y-114602317D01*
X97345000Y-114397682D01*
X97312990Y-114195582D01*
X97249755Y-114000968D01*
X97156859Y-113818650D01*
X97124474Y-113774077D01*
X97124474Y-113774076D01*
X96445000Y-114453551D01*
X96445000Y-114447339D01*
X96417741Y-114345606D01*
X96365080Y-114254394D01*
X96290606Y-114179920D01*
X96199394Y-114127259D01*
X96097661Y-114100000D01*
X96091446Y-114100000D01*
X96639312Y-113552135D01*
X98604500Y-113552135D01*
X98604500Y-115447870D01*
X98604501Y-115447876D01*
X98610908Y-115507483D01*
X98661202Y-115642328D01*
X98661206Y-115642335D01*
X98747452Y-115757544D01*
X98747455Y-115757547D01*
X98862664Y-115843793D01*
X98862671Y-115843797D01*
X98997517Y-115894091D01*
X98997516Y-115894091D01*
X99004444Y-115894835D01*
X99057127Y-115900500D01*
X100952872Y-115900499D01*
X101012483Y-115894091D01*
X101147331Y-115843796D01*
X101262546Y-115757546D01*
X101348796Y-115642331D01*
X101376429Y-115568243D01*
X101378601Y-115562420D01*
X101420471Y-115506486D01*
X101485936Y-115482068D01*
X101554209Y-115496919D01*
X101582464Y-115518071D01*
X101632636Y-115568243D01*
X101632641Y-115568247D01*
X101693258Y-115612287D01*
X101810978Y-115697815D01*
X101939375Y-115763237D01*
X102007393Y-115797895D01*
X102007396Y-115797896D01*
X102112221Y-115831955D01*
X102217049Y-115866015D01*
X102434778Y-115900500D01*
X102434779Y-115900500D01*
X102655221Y-115900500D01*
X102655222Y-115900500D01*
X102872951Y-115866015D01*
X103082606Y-115797895D01*
X103279022Y-115697815D01*
X103457365Y-115568242D01*
X103613242Y-115412365D01*
X103742815Y-115234022D01*
X103842895Y-115037606D01*
X103911015Y-114827951D01*
X103945500Y-114610222D01*
X103945500Y-114397648D01*
X106204500Y-114397648D01*
X106204500Y-114602351D01*
X106236522Y-114804534D01*
X106299781Y-114999223D01*
X106363691Y-115124653D01*
X106392585Y-115181359D01*
X106392715Y-115181613D01*
X106513028Y-115347213D01*
X106657786Y-115491971D01*
X106778226Y-115579474D01*
X106823390Y-115612287D01*
X106939607Y-115671503D01*
X107005776Y-115705218D01*
X107005778Y-115705218D01*
X107005781Y-115705220D01*
X107110137Y-115739127D01*
X107200465Y-115768477D01*
X107301557Y-115784488D01*
X107402648Y-115800500D01*
X107402649Y-115800500D01*
X107607351Y-115800500D01*
X107607352Y-115800500D01*
X107809534Y-115768477D01*
X108004219Y-115705220D01*
X108186610Y-115612287D01*
X108279590Y-115544732D01*
X108352213Y-115491971D01*
X108352215Y-115491968D01*
X108352219Y-115491966D01*
X108496966Y-115347219D01*
X108496968Y-115347215D01*
X108496971Y-115347213D01*
X108617286Y-115181611D01*
X108617415Y-115181359D01*
X108664795Y-115088369D01*
X108712769Y-115037573D01*
X108780590Y-115020778D01*
X108846725Y-115043315D01*
X108885765Y-115088369D01*
X108933141Y-115181350D01*
X108933147Y-115181359D01*
X108965523Y-115225921D01*
X108965524Y-115225922D01*
X109645000Y-114546446D01*
X109645000Y-114552661D01*
X109672259Y-114654394D01*
X109724920Y-114745606D01*
X109799394Y-114820080D01*
X109890606Y-114872741D01*
X109992339Y-114900000D01*
X109998553Y-114900000D01*
X109319076Y-115579474D01*
X109363650Y-115611859D01*
X109545968Y-115704755D01*
X109740582Y-115767990D01*
X109942683Y-115800000D01*
X110147317Y-115800000D01*
X110349417Y-115767990D01*
X110544031Y-115704755D01*
X110726349Y-115611859D01*
X110770921Y-115579474D01*
X110091447Y-114900000D01*
X110097661Y-114900000D01*
X110199394Y-114872741D01*
X110290606Y-114820080D01*
X110365080Y-114745606D01*
X110417741Y-114654394D01*
X110445000Y-114552661D01*
X110445000Y-114546447D01*
X111124474Y-115225921D01*
X111156859Y-115181349D01*
X111249755Y-114999031D01*
X111312990Y-114804417D01*
X111345000Y-114602317D01*
X111345000Y-114397682D01*
X111312990Y-114195582D01*
X111249755Y-114000968D01*
X111156859Y-113818650D01*
X111124474Y-113774077D01*
X111124474Y-113774076D01*
X110445000Y-114453551D01*
X110445000Y-114447339D01*
X110417741Y-114345606D01*
X110365080Y-114254394D01*
X110290606Y-114179920D01*
X110199394Y-114127259D01*
X110097661Y-114100000D01*
X110091446Y-114100000D01*
X110639312Y-113552135D01*
X112374500Y-113552135D01*
X112374500Y-115447870D01*
X112374501Y-115447876D01*
X112380908Y-115507483D01*
X112431202Y-115642328D01*
X112431206Y-115642335D01*
X112517452Y-115757544D01*
X112517455Y-115757547D01*
X112632664Y-115843793D01*
X112632671Y-115843797D01*
X112767517Y-115894091D01*
X112767516Y-115894091D01*
X112774444Y-115894835D01*
X112827127Y-115900500D01*
X114722872Y-115900499D01*
X114782483Y-115894091D01*
X114917331Y-115843796D01*
X115032546Y-115757546D01*
X115118796Y-115642331D01*
X115146429Y-115568243D01*
X115148601Y-115562420D01*
X115190471Y-115506486D01*
X115255936Y-115482068D01*
X115324209Y-115496919D01*
X115352464Y-115518071D01*
X115402636Y-115568243D01*
X115402641Y-115568247D01*
X115463258Y-115612287D01*
X115580978Y-115697815D01*
X115709375Y-115763237D01*
X115777393Y-115797895D01*
X115777396Y-115797896D01*
X115882221Y-115831955D01*
X115987049Y-115866015D01*
X116204778Y-115900500D01*
X116204779Y-115900500D01*
X116425221Y-115900500D01*
X116425222Y-115900500D01*
X116642951Y-115866015D01*
X116852606Y-115797895D01*
X117049022Y-115697815D01*
X117227365Y-115568242D01*
X117383242Y-115412365D01*
X117512815Y-115234022D01*
X117612895Y-115037606D01*
X117681015Y-114827951D01*
X117715500Y-114610222D01*
X117715500Y-114397648D01*
X120199500Y-114397648D01*
X120199500Y-114602351D01*
X120231522Y-114804534D01*
X120294781Y-114999223D01*
X120358691Y-115124653D01*
X120387585Y-115181359D01*
X120387715Y-115181613D01*
X120508028Y-115347213D01*
X120652786Y-115491971D01*
X120773226Y-115579474D01*
X120818390Y-115612287D01*
X120934607Y-115671503D01*
X121000776Y-115705218D01*
X121000778Y-115705218D01*
X121000781Y-115705220D01*
X121105137Y-115739127D01*
X121195465Y-115768477D01*
X121296557Y-115784488D01*
X121397648Y-115800500D01*
X121397649Y-115800500D01*
X121602351Y-115800500D01*
X121602352Y-115800500D01*
X121804534Y-115768477D01*
X121999219Y-115705220D01*
X122181610Y-115612287D01*
X122274590Y-115544732D01*
X122347213Y-115491971D01*
X122347215Y-115491968D01*
X122347219Y-115491966D01*
X122491966Y-115347219D01*
X122491968Y-115347215D01*
X122491971Y-115347213D01*
X122612286Y-115181611D01*
X122612415Y-115181359D01*
X122659795Y-115088369D01*
X122707769Y-115037573D01*
X122775590Y-115020778D01*
X122841725Y-115043315D01*
X122880765Y-115088369D01*
X122928141Y-115181350D01*
X122928147Y-115181359D01*
X122960523Y-115225921D01*
X122960524Y-115225922D01*
X123640000Y-114546446D01*
X123640000Y-114552661D01*
X123667259Y-114654394D01*
X123719920Y-114745606D01*
X123794394Y-114820080D01*
X123885606Y-114872741D01*
X123987339Y-114900000D01*
X123993553Y-114900000D01*
X123314076Y-115579474D01*
X123358650Y-115611859D01*
X123540968Y-115704755D01*
X123735582Y-115767990D01*
X123937683Y-115800000D01*
X124142317Y-115800000D01*
X124344417Y-115767990D01*
X124539031Y-115704755D01*
X124721349Y-115611859D01*
X124765921Y-115579474D01*
X124086447Y-114900000D01*
X124092661Y-114900000D01*
X124194394Y-114872741D01*
X124285606Y-114820080D01*
X124360080Y-114745606D01*
X124412741Y-114654394D01*
X124440000Y-114552661D01*
X124440000Y-114546448D01*
X125119474Y-115225922D01*
X125119474Y-115225921D01*
X125151859Y-115181349D01*
X125244755Y-114999031D01*
X125307990Y-114804417D01*
X125340000Y-114602317D01*
X125340000Y-114397682D01*
X125307990Y-114195582D01*
X125244755Y-114000968D01*
X125151859Y-113818650D01*
X125119474Y-113774077D01*
X125119474Y-113774076D01*
X124440000Y-114453551D01*
X124440000Y-114447339D01*
X124412741Y-114345606D01*
X124360080Y-114254394D01*
X124285606Y-114179920D01*
X124194394Y-114127259D01*
X124092661Y-114100000D01*
X124086446Y-114100000D01*
X124634312Y-113552135D01*
X126374500Y-113552135D01*
X126374500Y-115447870D01*
X126374501Y-115447876D01*
X126380908Y-115507483D01*
X126431202Y-115642328D01*
X126431206Y-115642335D01*
X126517452Y-115757544D01*
X126517455Y-115757547D01*
X126632664Y-115843793D01*
X126632671Y-115843797D01*
X126767517Y-115894091D01*
X126767516Y-115894091D01*
X126774444Y-115894835D01*
X126827127Y-115900500D01*
X128722872Y-115900499D01*
X128782483Y-115894091D01*
X128917331Y-115843796D01*
X129032546Y-115757546D01*
X129118796Y-115642331D01*
X129146429Y-115568243D01*
X129148601Y-115562420D01*
X129190471Y-115506486D01*
X129255936Y-115482068D01*
X129324209Y-115496919D01*
X129352464Y-115518071D01*
X129402636Y-115568243D01*
X129402641Y-115568247D01*
X129463258Y-115612287D01*
X129580978Y-115697815D01*
X129709375Y-115763237D01*
X129777393Y-115797895D01*
X129777396Y-115797896D01*
X129882221Y-115831955D01*
X129987049Y-115866015D01*
X130204778Y-115900500D01*
X130204779Y-115900500D01*
X130425221Y-115900500D01*
X130425222Y-115900500D01*
X130642951Y-115866015D01*
X130852606Y-115797895D01*
X131049022Y-115697815D01*
X131227365Y-115568242D01*
X131383242Y-115412365D01*
X131512815Y-115234022D01*
X131612895Y-115037606D01*
X131681015Y-114827951D01*
X131715500Y-114610222D01*
X131715500Y-114397648D01*
X134204500Y-114397648D01*
X134204500Y-114602351D01*
X134236522Y-114804534D01*
X134299781Y-114999223D01*
X134363691Y-115124653D01*
X134392585Y-115181359D01*
X134392715Y-115181613D01*
X134513028Y-115347213D01*
X134657786Y-115491971D01*
X134778226Y-115579474D01*
X134823390Y-115612287D01*
X134939607Y-115671503D01*
X135005776Y-115705218D01*
X135005778Y-115705218D01*
X135005781Y-115705220D01*
X135110137Y-115739127D01*
X135200465Y-115768477D01*
X135301557Y-115784488D01*
X135402648Y-115800500D01*
X135402649Y-115800500D01*
X135607351Y-115800500D01*
X135607352Y-115800500D01*
X135809534Y-115768477D01*
X136004219Y-115705220D01*
X136186610Y-115612287D01*
X136279590Y-115544732D01*
X136352213Y-115491971D01*
X136352215Y-115491968D01*
X136352219Y-115491966D01*
X136496966Y-115347219D01*
X136496968Y-115347215D01*
X136496971Y-115347213D01*
X136617286Y-115181611D01*
X136617415Y-115181359D01*
X136664795Y-115088369D01*
X136712769Y-115037573D01*
X136780590Y-115020778D01*
X136846725Y-115043315D01*
X136885765Y-115088369D01*
X136933141Y-115181350D01*
X136933147Y-115181359D01*
X136965523Y-115225921D01*
X136965524Y-115225922D01*
X137645000Y-114546446D01*
X137645000Y-114552661D01*
X137672259Y-114654394D01*
X137724920Y-114745606D01*
X137799394Y-114820080D01*
X137890606Y-114872741D01*
X137992339Y-114900000D01*
X137998553Y-114900000D01*
X137319076Y-115579474D01*
X137363650Y-115611859D01*
X137545968Y-115704755D01*
X137740582Y-115767990D01*
X137942683Y-115800000D01*
X138147317Y-115800000D01*
X138349417Y-115767990D01*
X138544031Y-115704755D01*
X138726349Y-115611859D01*
X138770921Y-115579474D01*
X138091447Y-114900000D01*
X138097661Y-114900000D01*
X138199394Y-114872741D01*
X138290606Y-114820080D01*
X138365080Y-114745606D01*
X138417741Y-114654394D01*
X138445000Y-114552661D01*
X138445000Y-114546447D01*
X139124474Y-115225921D01*
X139156859Y-115181349D01*
X139249755Y-114999031D01*
X139312990Y-114804417D01*
X139345000Y-114602317D01*
X139345000Y-114397682D01*
X139312990Y-114195582D01*
X139249755Y-114000968D01*
X139156859Y-113818650D01*
X139124474Y-113774077D01*
X139124474Y-113774076D01*
X138445000Y-114453551D01*
X138445000Y-114447339D01*
X138417741Y-114345606D01*
X138365080Y-114254394D01*
X138290606Y-114179920D01*
X138199394Y-114127259D01*
X138097661Y-114100000D01*
X138091446Y-114100000D01*
X138770922Y-113420524D01*
X138770921Y-113420523D01*
X138726359Y-113388147D01*
X138726350Y-113388141D01*
X138567728Y-113307319D01*
X138567726Y-113307317D01*
X138544034Y-113295245D01*
X138349417Y-113232009D01*
X138147317Y-113200000D01*
X137942683Y-113200000D01*
X137740582Y-113232009D01*
X137545968Y-113295244D01*
X137363644Y-113388143D01*
X137319077Y-113420523D01*
X137319077Y-113420524D01*
X137998554Y-114100000D01*
X137992339Y-114100000D01*
X137890606Y-114127259D01*
X137799394Y-114179920D01*
X137724920Y-114254394D01*
X137672259Y-114345606D01*
X137645000Y-114447339D01*
X137645000Y-114453553D01*
X136965524Y-113774077D01*
X136965523Y-113774077D01*
X136933143Y-113818644D01*
X136885765Y-113911630D01*
X136837790Y-113962426D01*
X136769969Y-113979221D01*
X136703834Y-113956683D01*
X136664795Y-113911630D01*
X136617284Y-113818385D01*
X136496971Y-113652786D01*
X136352213Y-113508028D01*
X136186613Y-113387715D01*
X136186612Y-113387714D01*
X136186610Y-113387713D01*
X136127636Y-113357664D01*
X136004223Y-113294781D01*
X135809534Y-113231522D01*
X135623799Y-113202105D01*
X135610401Y-113199983D01*
X142617000Y-113199983D01*
X142617000Y-115300001D01*
X142617001Y-115300018D01*
X142627500Y-115402796D01*
X142627501Y-115402799D01*
X142665699Y-115518071D01*
X142682686Y-115569334D01*
X142774788Y-115718656D01*
X142898844Y-115842712D01*
X143048166Y-115934814D01*
X143214703Y-115989999D01*
X143317491Y-116000500D01*
X145417508Y-116000499D01*
X145520297Y-115989999D01*
X145686834Y-115934814D01*
X145836156Y-115842712D01*
X145960212Y-115718656D01*
X146052314Y-115569334D01*
X146107499Y-115402797D01*
X146118000Y-115300009D01*
X146117999Y-113199992D01*
X146107499Y-113097203D01*
X146052314Y-112930666D01*
X145960212Y-112781344D01*
X145836156Y-112657288D01*
X145686834Y-112565186D01*
X145520297Y-112510001D01*
X145520295Y-112510000D01*
X145417510Y-112499500D01*
X143317498Y-112499500D01*
X143317481Y-112499501D01*
X143214703Y-112510000D01*
X143214700Y-112510001D01*
X143048168Y-112565185D01*
X143048163Y-112565187D01*
X142898842Y-112657289D01*
X142774789Y-112781342D01*
X142682687Y-112930663D01*
X142682686Y-112930666D01*
X142627501Y-113097203D01*
X142627501Y-113097204D01*
X142627500Y-113097204D01*
X142617000Y-113199983D01*
X135610401Y-113199983D01*
X135607352Y-113199500D01*
X135402648Y-113199500D01*
X135386201Y-113202105D01*
X135200465Y-113231522D01*
X135005776Y-113294781D01*
X134823386Y-113387715D01*
X134657786Y-113508028D01*
X134513028Y-113652786D01*
X134392715Y-113818386D01*
X134299781Y-114000776D01*
X134236522Y-114195465D01*
X134204500Y-114397648D01*
X131715500Y-114397648D01*
X131715500Y-114389778D01*
X131681015Y-114172049D01*
X131625366Y-114000776D01*
X131612896Y-113962396D01*
X131612895Y-113962393D01*
X131578237Y-113894375D01*
X131512815Y-113765978D01*
X131430573Y-113652781D01*
X131383247Y-113587641D01*
X131383243Y-113587636D01*
X131227363Y-113431756D01*
X131227358Y-113431752D01*
X131049025Y-113302187D01*
X131049024Y-113302186D01*
X131049022Y-113302185D01*
X130931791Y-113242452D01*
X130852606Y-113202104D01*
X130852603Y-113202103D01*
X130642952Y-113133985D01*
X130534086Y-113116742D01*
X130425222Y-113099500D01*
X130204778Y-113099500D01*
X130132201Y-113110995D01*
X129987047Y-113133985D01*
X129777396Y-113202103D01*
X129777393Y-113202104D01*
X129580974Y-113302187D01*
X129402641Y-113431752D01*
X129402636Y-113431756D01*
X129352463Y-113481929D01*
X129291140Y-113515413D01*
X129221448Y-113510428D01*
X129165515Y-113468557D01*
X129148601Y-113437580D01*
X129118797Y-113357671D01*
X129118793Y-113357664D01*
X129032547Y-113242455D01*
X129032544Y-113242452D01*
X128917335Y-113156206D01*
X128917328Y-113156202D01*
X128782482Y-113105908D01*
X128782483Y-113105908D01*
X128722883Y-113099501D01*
X128722881Y-113099500D01*
X128722873Y-113099500D01*
X128722864Y-113099500D01*
X126827129Y-113099500D01*
X126827123Y-113099501D01*
X126767516Y-113105908D01*
X126632671Y-113156202D01*
X126632664Y-113156206D01*
X126517455Y-113242452D01*
X126517452Y-113242455D01*
X126431206Y-113357664D01*
X126431202Y-113357671D01*
X126380908Y-113492517D01*
X126374501Y-113552116D01*
X126374500Y-113552135D01*
X124634312Y-113552135D01*
X124725322Y-113461125D01*
X124765922Y-113420524D01*
X124765921Y-113420523D01*
X124721359Y-113388147D01*
X124721350Y-113388141D01*
X124539031Y-113295244D01*
X124344417Y-113232009D01*
X124142317Y-113200000D01*
X123937683Y-113200000D01*
X123735582Y-113232009D01*
X123540968Y-113295244D01*
X123358644Y-113388143D01*
X123314077Y-113420523D01*
X123314077Y-113420524D01*
X123993554Y-114100000D01*
X123987339Y-114100000D01*
X123885606Y-114127259D01*
X123794394Y-114179920D01*
X123719920Y-114254394D01*
X123667259Y-114345606D01*
X123640000Y-114447339D01*
X123640000Y-114453553D01*
X122960524Y-113774077D01*
X122960523Y-113774077D01*
X122928143Y-113818644D01*
X122880765Y-113911630D01*
X122832790Y-113962426D01*
X122764969Y-113979221D01*
X122698834Y-113956683D01*
X122659795Y-113911630D01*
X122612284Y-113818385D01*
X122491971Y-113652786D01*
X122347213Y-113508028D01*
X122181613Y-113387715D01*
X122181612Y-113387714D01*
X122181610Y-113387713D01*
X122122636Y-113357664D01*
X121999223Y-113294781D01*
X121804534Y-113231522D01*
X121618799Y-113202105D01*
X121602352Y-113199500D01*
X121397648Y-113199500D01*
X121381201Y-113202105D01*
X121195465Y-113231522D01*
X121000776Y-113294781D01*
X120818386Y-113387715D01*
X120652786Y-113508028D01*
X120508028Y-113652786D01*
X120387715Y-113818386D01*
X120294781Y-114000776D01*
X120231522Y-114195465D01*
X120199500Y-114397648D01*
X117715500Y-114397648D01*
X117715500Y-114389778D01*
X117681015Y-114172049D01*
X117625366Y-114000776D01*
X117612896Y-113962396D01*
X117612895Y-113962393D01*
X117578237Y-113894375D01*
X117512815Y-113765978D01*
X117430573Y-113652781D01*
X117383247Y-113587641D01*
X117383243Y-113587636D01*
X117227363Y-113431756D01*
X117227358Y-113431752D01*
X117049025Y-113302187D01*
X117049024Y-113302186D01*
X117049022Y-113302185D01*
X116931791Y-113242452D01*
X116852606Y-113202104D01*
X116852603Y-113202103D01*
X116642952Y-113133985D01*
X116534086Y-113116742D01*
X116425222Y-113099500D01*
X116204778Y-113099500D01*
X116132201Y-113110995D01*
X115987047Y-113133985D01*
X115777396Y-113202103D01*
X115777393Y-113202104D01*
X115580974Y-113302187D01*
X115402641Y-113431752D01*
X115402636Y-113431756D01*
X115352463Y-113481929D01*
X115291140Y-113515413D01*
X115221448Y-113510428D01*
X115165515Y-113468557D01*
X115148601Y-113437580D01*
X115118797Y-113357671D01*
X115118793Y-113357664D01*
X115032547Y-113242455D01*
X115032544Y-113242452D01*
X114917335Y-113156206D01*
X114917328Y-113156202D01*
X114782482Y-113105908D01*
X114782483Y-113105908D01*
X114722883Y-113099501D01*
X114722881Y-113099500D01*
X114722873Y-113099500D01*
X114722864Y-113099500D01*
X112827129Y-113099500D01*
X112827123Y-113099501D01*
X112767516Y-113105908D01*
X112632671Y-113156202D01*
X112632664Y-113156206D01*
X112517455Y-113242452D01*
X112517452Y-113242455D01*
X112431206Y-113357664D01*
X112431202Y-113357671D01*
X112380908Y-113492517D01*
X112374501Y-113552116D01*
X112374500Y-113552135D01*
X110639312Y-113552135D01*
X110730322Y-113461125D01*
X110770922Y-113420524D01*
X110770921Y-113420523D01*
X110726359Y-113388147D01*
X110726350Y-113388141D01*
X110544031Y-113295244D01*
X110349417Y-113232009D01*
X110147317Y-113200000D01*
X109942683Y-113200000D01*
X109740582Y-113232009D01*
X109545968Y-113295244D01*
X109363644Y-113388143D01*
X109319077Y-113420523D01*
X109319077Y-113420524D01*
X109998554Y-114100000D01*
X109992339Y-114100000D01*
X109890606Y-114127259D01*
X109799394Y-114179920D01*
X109724920Y-114254394D01*
X109672259Y-114345606D01*
X109645000Y-114447339D01*
X109645000Y-114453553D01*
X108965524Y-113774077D01*
X108965523Y-113774077D01*
X108933143Y-113818644D01*
X108885765Y-113911630D01*
X108837790Y-113962426D01*
X108769969Y-113979221D01*
X108703834Y-113956683D01*
X108664795Y-113911630D01*
X108617284Y-113818385D01*
X108496971Y-113652786D01*
X108352213Y-113508028D01*
X108186613Y-113387715D01*
X108186612Y-113387714D01*
X108186610Y-113387713D01*
X108127636Y-113357664D01*
X108004223Y-113294781D01*
X107809534Y-113231522D01*
X107623799Y-113202105D01*
X107607352Y-113199500D01*
X107402648Y-113199500D01*
X107386201Y-113202105D01*
X107200465Y-113231522D01*
X107005776Y-113294781D01*
X106823386Y-113387715D01*
X106657786Y-113508028D01*
X106513028Y-113652786D01*
X106392715Y-113818386D01*
X106299781Y-114000776D01*
X106236522Y-114195465D01*
X106204500Y-114397648D01*
X103945500Y-114397648D01*
X103945500Y-114389778D01*
X103911015Y-114172049D01*
X103855366Y-114000776D01*
X103842896Y-113962396D01*
X103842895Y-113962393D01*
X103808237Y-113894375D01*
X103742815Y-113765978D01*
X103660573Y-113652781D01*
X103613247Y-113587641D01*
X103613243Y-113587636D01*
X103457363Y-113431756D01*
X103457358Y-113431752D01*
X103279025Y-113302187D01*
X103279024Y-113302186D01*
X103279022Y-113302185D01*
X103161791Y-113242452D01*
X103082606Y-113202104D01*
X103082603Y-113202103D01*
X102872952Y-113133985D01*
X102764086Y-113116742D01*
X102655222Y-113099500D01*
X102434778Y-113099500D01*
X102362201Y-113110995D01*
X102217047Y-113133985D01*
X102007396Y-113202103D01*
X102007393Y-113202104D01*
X101810974Y-113302187D01*
X101632641Y-113431752D01*
X101632636Y-113431756D01*
X101582463Y-113481929D01*
X101521140Y-113515413D01*
X101451448Y-113510428D01*
X101395515Y-113468557D01*
X101378601Y-113437580D01*
X101348797Y-113357671D01*
X101348793Y-113357664D01*
X101262547Y-113242455D01*
X101262544Y-113242452D01*
X101147335Y-113156206D01*
X101147328Y-113156202D01*
X101012482Y-113105908D01*
X101012483Y-113105908D01*
X100952883Y-113099501D01*
X100952881Y-113099500D01*
X100952873Y-113099500D01*
X100952864Y-113099500D01*
X99057129Y-113099500D01*
X99057123Y-113099501D01*
X98997516Y-113105908D01*
X98862671Y-113156202D01*
X98862664Y-113156206D01*
X98747455Y-113242452D01*
X98747452Y-113242455D01*
X98661206Y-113357664D01*
X98661202Y-113357671D01*
X98610908Y-113492517D01*
X98604501Y-113552116D01*
X98604500Y-113552135D01*
X96639312Y-113552135D01*
X96730322Y-113461125D01*
X96770922Y-113420524D01*
X96770921Y-113420523D01*
X96726359Y-113388147D01*
X96726350Y-113388141D01*
X96544031Y-113295244D01*
X96349417Y-113232009D01*
X96147317Y-113200000D01*
X95942683Y-113200000D01*
X95740582Y-113232009D01*
X95545968Y-113295244D01*
X95363644Y-113388143D01*
X95319077Y-113420523D01*
X95319077Y-113420524D01*
X95998554Y-114100000D01*
X95992339Y-114100000D01*
X95890606Y-114127259D01*
X95799394Y-114179920D01*
X95724920Y-114254394D01*
X95672259Y-114345606D01*
X95645000Y-114447339D01*
X95645000Y-114453553D01*
X94965524Y-113774077D01*
X94965523Y-113774077D01*
X94933143Y-113818644D01*
X94885765Y-113911630D01*
X94837790Y-113962426D01*
X94769969Y-113979221D01*
X94703834Y-113956683D01*
X94664795Y-113911630D01*
X94617284Y-113818385D01*
X94496971Y-113652786D01*
X94352213Y-113508028D01*
X94186613Y-113387715D01*
X94186612Y-113387714D01*
X94186610Y-113387713D01*
X94127636Y-113357664D01*
X94004223Y-113294781D01*
X93809534Y-113231522D01*
X93623799Y-113202105D01*
X93607352Y-113199500D01*
X93402648Y-113199500D01*
X93386201Y-113202105D01*
X93200465Y-113231522D01*
X93005776Y-113294781D01*
X92823386Y-113387715D01*
X92657786Y-113508028D01*
X92513028Y-113652786D01*
X92392715Y-113818386D01*
X92299781Y-114000776D01*
X92236522Y-114195465D01*
X92204500Y-114397648D01*
X89945500Y-114397648D01*
X89945500Y-114389778D01*
X89911015Y-114172049D01*
X89855366Y-114000776D01*
X89842896Y-113962396D01*
X89842895Y-113962393D01*
X89808237Y-113894375D01*
X89742815Y-113765978D01*
X89660573Y-113652781D01*
X89613247Y-113587641D01*
X89613243Y-113587636D01*
X89457363Y-113431756D01*
X89457358Y-113431752D01*
X89279025Y-113302187D01*
X89279024Y-113302186D01*
X89279022Y-113302185D01*
X89161791Y-113242452D01*
X89082606Y-113202104D01*
X89082603Y-113202103D01*
X88872952Y-113133985D01*
X88764086Y-113116742D01*
X88655222Y-113099500D01*
X88434778Y-113099500D01*
X88362201Y-113110995D01*
X88217047Y-113133985D01*
X88007396Y-113202103D01*
X88007393Y-113202104D01*
X87810974Y-113302187D01*
X87632641Y-113431752D01*
X87632636Y-113431756D01*
X87582463Y-113481929D01*
X87521140Y-113515413D01*
X87451448Y-113510428D01*
X87395515Y-113468557D01*
X87378601Y-113437580D01*
X87348797Y-113357671D01*
X87348793Y-113357664D01*
X87262547Y-113242455D01*
X87262544Y-113242452D01*
X87147335Y-113156206D01*
X87147328Y-113156202D01*
X87012482Y-113105908D01*
X87012483Y-113105908D01*
X86952883Y-113099501D01*
X86952881Y-113099500D01*
X86952873Y-113099500D01*
X86952864Y-113099500D01*
X85057129Y-113099500D01*
X85057123Y-113099501D01*
X84997516Y-113105908D01*
X84862671Y-113156202D01*
X84862664Y-113156206D01*
X84747455Y-113242452D01*
X84747452Y-113242455D01*
X84661206Y-113357664D01*
X84661202Y-113357671D01*
X84610908Y-113492517D01*
X84604501Y-113552116D01*
X84604500Y-113552135D01*
X83500000Y-113552135D01*
X83500000Y-104552135D01*
X85144500Y-104552135D01*
X85144500Y-106447870D01*
X85144501Y-106447876D01*
X85150908Y-106507483D01*
X85201202Y-106642328D01*
X85201206Y-106642335D01*
X85287452Y-106757544D01*
X85287455Y-106757547D01*
X85402664Y-106843793D01*
X85402671Y-106843797D01*
X85537517Y-106894091D01*
X85537516Y-106894091D01*
X85544444Y-106894835D01*
X85597127Y-106900500D01*
X87492872Y-106900499D01*
X87552483Y-106894091D01*
X87687331Y-106843796D01*
X87802546Y-106757546D01*
X87888796Y-106642331D01*
X87916429Y-106568243D01*
X87918601Y-106562420D01*
X87960471Y-106506486D01*
X88025936Y-106482068D01*
X88094209Y-106496919D01*
X88122464Y-106518071D01*
X88172636Y-106568243D01*
X88172641Y-106568247D01*
X88233258Y-106612287D01*
X88350978Y-106697815D01*
X88479375Y-106763237D01*
X88547393Y-106797895D01*
X88547396Y-106797896D01*
X88652221Y-106831955D01*
X88757049Y-106866015D01*
X88974778Y-106900500D01*
X88974779Y-106900500D01*
X89195221Y-106900500D01*
X89195222Y-106900500D01*
X89412951Y-106866015D01*
X89622606Y-106797895D01*
X89819022Y-106697815D01*
X89997365Y-106568242D01*
X90153242Y-106412365D01*
X90282815Y-106234022D01*
X90382895Y-106037606D01*
X90451015Y-105827951D01*
X90485500Y-105610222D01*
X90485500Y-105397648D01*
X91744500Y-105397648D01*
X91744500Y-105602351D01*
X91776522Y-105804534D01*
X91839781Y-105999223D01*
X91903691Y-106124653D01*
X91932585Y-106181359D01*
X91932715Y-106181613D01*
X92053028Y-106347213D01*
X92197786Y-106491971D01*
X92318226Y-106579474D01*
X92363390Y-106612287D01*
X92479607Y-106671503D01*
X92545776Y-106705218D01*
X92545778Y-106705218D01*
X92545781Y-106705220D01*
X92650137Y-106739127D01*
X92740465Y-106768477D01*
X92841557Y-106784488D01*
X92942648Y-106800500D01*
X92942649Y-106800500D01*
X93147351Y-106800500D01*
X93147352Y-106800500D01*
X93349534Y-106768477D01*
X93544219Y-106705220D01*
X93726610Y-106612287D01*
X93819590Y-106544732D01*
X93892213Y-106491971D01*
X93892215Y-106491968D01*
X93892219Y-106491966D01*
X94036966Y-106347219D01*
X94036968Y-106347215D01*
X94036971Y-106347213D01*
X94157286Y-106181611D01*
X94157415Y-106181359D01*
X94204795Y-106088369D01*
X94252769Y-106037573D01*
X94320590Y-106020778D01*
X94386725Y-106043315D01*
X94425765Y-106088369D01*
X94473141Y-106181350D01*
X94473147Y-106181359D01*
X94505523Y-106225921D01*
X94505524Y-106225922D01*
X95185000Y-105546446D01*
X95185000Y-105552661D01*
X95212259Y-105654394D01*
X95264920Y-105745606D01*
X95339394Y-105820080D01*
X95430606Y-105872741D01*
X95532339Y-105900000D01*
X95538553Y-105900000D01*
X94859076Y-106579474D01*
X94903650Y-106611859D01*
X95085968Y-106704755D01*
X95280582Y-106767990D01*
X95482683Y-106800000D01*
X95687317Y-106800000D01*
X95889417Y-106767990D01*
X96084031Y-106704755D01*
X96266349Y-106611859D01*
X96310921Y-106579474D01*
X95631447Y-105900000D01*
X95637661Y-105900000D01*
X95739394Y-105872741D01*
X95830606Y-105820080D01*
X95905080Y-105745606D01*
X95957741Y-105654394D01*
X95985000Y-105552661D01*
X95985000Y-105546447D01*
X96664474Y-106225921D01*
X96696859Y-106181349D01*
X96789755Y-105999031D01*
X96852990Y-105804417D01*
X96885000Y-105602317D01*
X96885000Y-105397682D01*
X96852990Y-105195582D01*
X96789755Y-105000968D01*
X96696859Y-104818650D01*
X96664474Y-104774077D01*
X96664474Y-104774076D01*
X95985000Y-105453551D01*
X95985000Y-105447339D01*
X95957741Y-105345606D01*
X95905080Y-105254394D01*
X95830606Y-105179920D01*
X95739394Y-105127259D01*
X95637661Y-105100000D01*
X95631446Y-105100000D01*
X96179312Y-104552135D01*
X98104500Y-104552135D01*
X98104500Y-106447870D01*
X98104501Y-106447876D01*
X98110908Y-106507483D01*
X98161202Y-106642328D01*
X98161206Y-106642335D01*
X98247452Y-106757544D01*
X98247455Y-106757547D01*
X98362664Y-106843793D01*
X98362671Y-106843797D01*
X98497517Y-106894091D01*
X98497516Y-106894091D01*
X98504444Y-106894835D01*
X98557127Y-106900500D01*
X100452872Y-106900499D01*
X100512483Y-106894091D01*
X100647331Y-106843796D01*
X100762546Y-106757546D01*
X100848796Y-106642331D01*
X100876429Y-106568243D01*
X100878601Y-106562420D01*
X100920471Y-106506486D01*
X100985936Y-106482068D01*
X101054209Y-106496919D01*
X101082464Y-106518071D01*
X101132636Y-106568243D01*
X101132641Y-106568247D01*
X101193258Y-106612287D01*
X101310978Y-106697815D01*
X101439375Y-106763237D01*
X101507393Y-106797895D01*
X101507396Y-106797896D01*
X101612221Y-106831955D01*
X101717049Y-106866015D01*
X101934778Y-106900500D01*
X101934779Y-106900500D01*
X102155221Y-106900500D01*
X102155222Y-106900500D01*
X102372951Y-106866015D01*
X102582606Y-106797895D01*
X102779022Y-106697815D01*
X102957365Y-106568242D01*
X103113242Y-106412365D01*
X103242815Y-106234022D01*
X103342895Y-106037606D01*
X103411015Y-105827951D01*
X103445500Y-105610222D01*
X103445500Y-105397648D01*
X105204500Y-105397648D01*
X105204500Y-105602351D01*
X105236522Y-105804534D01*
X105299781Y-105999223D01*
X105363691Y-106124653D01*
X105392585Y-106181359D01*
X105392715Y-106181613D01*
X105513028Y-106347213D01*
X105657786Y-106491971D01*
X105778226Y-106579474D01*
X105823390Y-106612287D01*
X105939607Y-106671503D01*
X106005776Y-106705218D01*
X106005778Y-106705218D01*
X106005781Y-106705220D01*
X106110137Y-106739127D01*
X106200465Y-106768477D01*
X106301557Y-106784488D01*
X106402648Y-106800500D01*
X106402649Y-106800500D01*
X106607351Y-106800500D01*
X106607352Y-106800500D01*
X106809534Y-106768477D01*
X107004219Y-106705220D01*
X107186610Y-106612287D01*
X107279590Y-106544732D01*
X107352213Y-106491971D01*
X107352215Y-106491968D01*
X107352219Y-106491966D01*
X107496966Y-106347219D01*
X107496968Y-106347215D01*
X107496971Y-106347213D01*
X107617286Y-106181611D01*
X107617415Y-106181359D01*
X107664795Y-106088369D01*
X107712769Y-106037573D01*
X107780590Y-106020778D01*
X107846725Y-106043315D01*
X107885765Y-106088369D01*
X107933141Y-106181350D01*
X107933147Y-106181359D01*
X107965523Y-106225921D01*
X107965524Y-106225922D01*
X108645000Y-105546446D01*
X108645000Y-105552661D01*
X108672259Y-105654394D01*
X108724920Y-105745606D01*
X108799394Y-105820080D01*
X108890606Y-105872741D01*
X108992339Y-105900000D01*
X108998553Y-105900000D01*
X108319076Y-106579474D01*
X108363650Y-106611859D01*
X108545968Y-106704755D01*
X108740582Y-106767990D01*
X108942683Y-106800000D01*
X109147317Y-106800000D01*
X109349417Y-106767990D01*
X109544031Y-106704755D01*
X109726349Y-106611859D01*
X109770921Y-106579474D01*
X109091447Y-105900000D01*
X109097661Y-105900000D01*
X109199394Y-105872741D01*
X109290606Y-105820080D01*
X109365080Y-105745606D01*
X109417741Y-105654394D01*
X109445000Y-105552661D01*
X109445000Y-105546447D01*
X110124474Y-106225921D01*
X110156859Y-106181349D01*
X110249755Y-105999031D01*
X110312990Y-105804417D01*
X110345000Y-105602317D01*
X110345000Y-105397682D01*
X110312990Y-105195582D01*
X110249755Y-105000968D01*
X110156859Y-104818650D01*
X110124474Y-104774077D01*
X110124474Y-104774076D01*
X109445000Y-105453551D01*
X109445000Y-105447339D01*
X109417741Y-105345606D01*
X109365080Y-105254394D01*
X109290606Y-105179920D01*
X109199394Y-105127259D01*
X109097661Y-105100000D01*
X109091446Y-105100000D01*
X109639312Y-104552135D01*
X112599500Y-104552135D01*
X112599500Y-106447870D01*
X112599501Y-106447876D01*
X112605908Y-106507483D01*
X112656202Y-106642328D01*
X112656206Y-106642335D01*
X112742452Y-106757544D01*
X112742455Y-106757547D01*
X112857664Y-106843793D01*
X112857671Y-106843797D01*
X112992517Y-106894091D01*
X112992516Y-106894091D01*
X112999444Y-106894835D01*
X113052127Y-106900500D01*
X114947872Y-106900499D01*
X115007483Y-106894091D01*
X115142331Y-106843796D01*
X115257546Y-106757546D01*
X115343796Y-106642331D01*
X115371429Y-106568243D01*
X115373601Y-106562420D01*
X115415471Y-106506486D01*
X115480936Y-106482068D01*
X115549209Y-106496919D01*
X115577464Y-106518071D01*
X115627636Y-106568243D01*
X115627641Y-106568247D01*
X115688258Y-106612287D01*
X115805978Y-106697815D01*
X115934375Y-106763237D01*
X116002393Y-106797895D01*
X116002396Y-106797896D01*
X116107221Y-106831955D01*
X116212049Y-106866015D01*
X116429778Y-106900500D01*
X116429779Y-106900500D01*
X116650221Y-106900500D01*
X116650222Y-106900500D01*
X116867951Y-106866015D01*
X117077606Y-106797895D01*
X117274022Y-106697815D01*
X117452365Y-106568242D01*
X117608242Y-106412365D01*
X117737815Y-106234022D01*
X117837895Y-106037606D01*
X117906015Y-105827951D01*
X117940500Y-105610222D01*
X117940500Y-105397648D01*
X118704500Y-105397648D01*
X118704500Y-105602351D01*
X118736522Y-105804534D01*
X118799781Y-105999223D01*
X118863691Y-106124653D01*
X118892585Y-106181359D01*
X118892715Y-106181613D01*
X119013028Y-106347213D01*
X119157786Y-106491971D01*
X119278226Y-106579474D01*
X119323390Y-106612287D01*
X119439607Y-106671503D01*
X119505776Y-106705218D01*
X119505778Y-106705218D01*
X119505781Y-106705220D01*
X119610137Y-106739127D01*
X119700465Y-106768477D01*
X119801557Y-106784488D01*
X119902648Y-106800500D01*
X119902649Y-106800500D01*
X120107351Y-106800500D01*
X120107352Y-106800500D01*
X120309534Y-106768477D01*
X120504219Y-106705220D01*
X120686610Y-106612287D01*
X120779590Y-106544732D01*
X120852213Y-106491971D01*
X120852215Y-106491968D01*
X120852219Y-106491966D01*
X120996966Y-106347219D01*
X120996968Y-106347215D01*
X120996971Y-106347213D01*
X121117286Y-106181611D01*
X121117415Y-106181359D01*
X121164795Y-106088369D01*
X121212769Y-106037573D01*
X121280590Y-106020778D01*
X121346725Y-106043315D01*
X121385765Y-106088369D01*
X121433141Y-106181350D01*
X121433147Y-106181359D01*
X121465523Y-106225921D01*
X121465524Y-106225922D01*
X122145000Y-105546446D01*
X122145000Y-105552661D01*
X122172259Y-105654394D01*
X122224920Y-105745606D01*
X122299394Y-105820080D01*
X122390606Y-105872741D01*
X122492339Y-105900000D01*
X122498553Y-105900000D01*
X121819076Y-106579474D01*
X121863650Y-106611859D01*
X122045968Y-106704755D01*
X122240582Y-106767990D01*
X122442683Y-106800000D01*
X122647317Y-106800000D01*
X122849417Y-106767990D01*
X123044031Y-106704755D01*
X123226349Y-106611859D01*
X123270921Y-106579474D01*
X122591447Y-105900000D01*
X122597661Y-105900000D01*
X122699394Y-105872741D01*
X122790606Y-105820080D01*
X122865080Y-105745606D01*
X122917741Y-105654394D01*
X122945000Y-105552661D01*
X122945000Y-105546448D01*
X123624474Y-106225922D01*
X123624474Y-106225921D01*
X123656859Y-106181349D01*
X123749755Y-105999031D01*
X123812990Y-105804417D01*
X123845000Y-105602317D01*
X123845000Y-105397682D01*
X123812990Y-105195582D01*
X123749755Y-105000968D01*
X123656859Y-104818650D01*
X123624474Y-104774077D01*
X123624474Y-104774076D01*
X122945000Y-105453551D01*
X122945000Y-105447339D01*
X122917741Y-105345606D01*
X122865080Y-105254394D01*
X122790606Y-105179920D01*
X122699394Y-105127259D01*
X122597661Y-105100000D01*
X122591446Y-105100000D01*
X123139312Y-104552135D01*
X126604500Y-104552135D01*
X126604500Y-106447870D01*
X126604501Y-106447876D01*
X126610908Y-106507483D01*
X126661202Y-106642328D01*
X126661206Y-106642335D01*
X126747452Y-106757544D01*
X126747455Y-106757547D01*
X126862664Y-106843793D01*
X126862671Y-106843797D01*
X126997517Y-106894091D01*
X126997516Y-106894091D01*
X127004444Y-106894835D01*
X127057127Y-106900500D01*
X128952872Y-106900499D01*
X129012483Y-106894091D01*
X129147331Y-106843796D01*
X129262546Y-106757546D01*
X129348796Y-106642331D01*
X129376429Y-106568243D01*
X129378601Y-106562420D01*
X129420471Y-106506486D01*
X129485936Y-106482068D01*
X129554209Y-106496919D01*
X129582464Y-106518071D01*
X129632636Y-106568243D01*
X129632641Y-106568247D01*
X129693258Y-106612287D01*
X129810978Y-106697815D01*
X129939375Y-106763237D01*
X130007393Y-106797895D01*
X130007396Y-106797896D01*
X130112221Y-106831955D01*
X130217049Y-106866015D01*
X130434778Y-106900500D01*
X130434779Y-106900500D01*
X130655221Y-106900500D01*
X130655222Y-106900500D01*
X130872951Y-106866015D01*
X131082606Y-106797895D01*
X131279022Y-106697815D01*
X131457365Y-106568242D01*
X131613242Y-106412365D01*
X131742815Y-106234022D01*
X131842895Y-106037606D01*
X131911015Y-105827951D01*
X131945500Y-105610222D01*
X131945500Y-105397648D01*
X133154500Y-105397648D01*
X133154500Y-105602351D01*
X133186522Y-105804534D01*
X133249781Y-105999223D01*
X133313691Y-106124653D01*
X133342585Y-106181359D01*
X133342715Y-106181613D01*
X133463028Y-106347213D01*
X133607786Y-106491971D01*
X133728226Y-106579474D01*
X133773390Y-106612287D01*
X133889607Y-106671503D01*
X133955776Y-106705218D01*
X133955778Y-106705218D01*
X133955781Y-106705220D01*
X134060137Y-106739127D01*
X134150465Y-106768477D01*
X134251557Y-106784488D01*
X134352648Y-106800500D01*
X134352649Y-106800500D01*
X134557351Y-106800500D01*
X134557352Y-106800500D01*
X134759534Y-106768477D01*
X134954219Y-106705220D01*
X135136610Y-106612287D01*
X135229590Y-106544732D01*
X135302213Y-106491971D01*
X135302215Y-106491968D01*
X135302219Y-106491966D01*
X135446966Y-106347219D01*
X135446968Y-106347215D01*
X135446971Y-106347213D01*
X135567286Y-106181611D01*
X135567415Y-106181359D01*
X135614795Y-106088369D01*
X135662769Y-106037573D01*
X135730590Y-106020778D01*
X135796725Y-106043315D01*
X135835765Y-106088369D01*
X135883141Y-106181350D01*
X135883147Y-106181359D01*
X135915523Y-106225921D01*
X135915524Y-106225922D01*
X136595000Y-105546446D01*
X136595000Y-105552661D01*
X136622259Y-105654394D01*
X136674920Y-105745606D01*
X136749394Y-105820080D01*
X136840606Y-105872741D01*
X136942339Y-105900000D01*
X136948553Y-105900000D01*
X136269076Y-106579474D01*
X136313650Y-106611859D01*
X136495968Y-106704755D01*
X136690582Y-106767990D01*
X136892683Y-106800000D01*
X137097317Y-106800000D01*
X137299417Y-106767990D01*
X137494031Y-106704755D01*
X137676349Y-106611859D01*
X137720921Y-106579474D01*
X137041447Y-105900000D01*
X137047661Y-105900000D01*
X137149394Y-105872741D01*
X137240606Y-105820080D01*
X137315080Y-105745606D01*
X137367741Y-105654394D01*
X137395000Y-105552661D01*
X137395000Y-105546447D01*
X138074474Y-106225921D01*
X138106859Y-106181349D01*
X138199755Y-105999031D01*
X138262990Y-105804417D01*
X138295000Y-105602317D01*
X138295000Y-105397682D01*
X138262990Y-105195582D01*
X138199755Y-105000968D01*
X138106859Y-104818650D01*
X138074474Y-104774077D01*
X138074474Y-104774076D01*
X137395000Y-105453551D01*
X137395000Y-105447339D01*
X137367741Y-105345606D01*
X137315080Y-105254394D01*
X137240606Y-105179920D01*
X137149394Y-105127259D01*
X137047661Y-105100000D01*
X137041446Y-105100000D01*
X137720922Y-104420524D01*
X137720921Y-104420523D01*
X137676359Y-104388147D01*
X137676350Y-104388141D01*
X137494031Y-104295244D01*
X137299417Y-104232009D01*
X137097317Y-104200000D01*
X136892683Y-104200000D01*
X136690582Y-104232009D01*
X136495968Y-104295244D01*
X136313644Y-104388143D01*
X136269077Y-104420523D01*
X136269077Y-104420524D01*
X136948554Y-105100000D01*
X136942339Y-105100000D01*
X136840606Y-105127259D01*
X136749394Y-105179920D01*
X136674920Y-105254394D01*
X136622259Y-105345606D01*
X136595000Y-105447339D01*
X136595000Y-105453553D01*
X135915524Y-104774077D01*
X135915523Y-104774077D01*
X135883143Y-104818644D01*
X135835765Y-104911630D01*
X135787790Y-104962426D01*
X135719969Y-104979221D01*
X135653834Y-104956683D01*
X135614795Y-104911630D01*
X135567284Y-104818385D01*
X135446971Y-104652786D01*
X135302213Y-104508028D01*
X135136613Y-104387715D01*
X135136612Y-104387714D01*
X135136610Y-104387713D01*
X135077636Y-104357664D01*
X134954223Y-104294781D01*
X134759534Y-104231522D01*
X134573799Y-104202105D01*
X134557352Y-104199500D01*
X134352648Y-104199500D01*
X134336201Y-104202105D01*
X134150465Y-104231522D01*
X133955776Y-104294781D01*
X133773386Y-104387715D01*
X133607786Y-104508028D01*
X133463028Y-104652786D01*
X133342715Y-104818386D01*
X133249781Y-105000776D01*
X133186522Y-105195465D01*
X133154500Y-105397648D01*
X131945500Y-105397648D01*
X131945500Y-105389778D01*
X131911015Y-105172049D01*
X131855366Y-105000776D01*
X131842896Y-104962396D01*
X131842895Y-104962393D01*
X131808237Y-104894375D01*
X131742815Y-104765978D01*
X131660573Y-104652781D01*
X131613247Y-104587641D01*
X131613243Y-104587636D01*
X131457363Y-104431756D01*
X131457358Y-104431752D01*
X131279025Y-104302187D01*
X131279024Y-104302186D01*
X131279022Y-104302185D01*
X131161791Y-104242452D01*
X131082606Y-104202104D01*
X131082603Y-104202103D01*
X130872952Y-104133985D01*
X130764086Y-104116742D01*
X130655222Y-104099500D01*
X130434778Y-104099500D01*
X130362201Y-104110995D01*
X130217047Y-104133985D01*
X130007396Y-104202103D01*
X130007393Y-104202104D01*
X129810974Y-104302187D01*
X129632641Y-104431752D01*
X129632636Y-104431756D01*
X129582463Y-104481929D01*
X129521140Y-104515413D01*
X129451448Y-104510428D01*
X129395515Y-104468557D01*
X129378601Y-104437580D01*
X129348797Y-104357671D01*
X129348793Y-104357664D01*
X129262547Y-104242455D01*
X129262544Y-104242452D01*
X129147335Y-104156206D01*
X129147328Y-104156202D01*
X129012482Y-104105908D01*
X129012483Y-104105908D01*
X128952883Y-104099501D01*
X128952881Y-104099500D01*
X128952873Y-104099500D01*
X128952864Y-104099500D01*
X127057129Y-104099500D01*
X127057123Y-104099501D01*
X126997516Y-104105908D01*
X126862671Y-104156202D01*
X126862664Y-104156206D01*
X126747455Y-104242452D01*
X126747452Y-104242455D01*
X126661206Y-104357664D01*
X126661202Y-104357671D01*
X126610908Y-104492517D01*
X126604501Y-104552116D01*
X126604500Y-104552135D01*
X123139312Y-104552135D01*
X123230322Y-104461125D01*
X123270922Y-104420524D01*
X123270921Y-104420523D01*
X123226359Y-104388147D01*
X123226350Y-104388141D01*
X123044031Y-104295244D01*
X122849417Y-104232009D01*
X122647317Y-104200000D01*
X122442683Y-104200000D01*
X122240582Y-104232009D01*
X122045968Y-104295244D01*
X121863644Y-104388143D01*
X121819077Y-104420523D01*
X121819077Y-104420524D01*
X122498554Y-105100000D01*
X122492339Y-105100000D01*
X122390606Y-105127259D01*
X122299394Y-105179920D01*
X122224920Y-105254394D01*
X122172259Y-105345606D01*
X122145000Y-105447339D01*
X122145000Y-105453553D01*
X121465524Y-104774077D01*
X121465523Y-104774077D01*
X121433143Y-104818644D01*
X121385765Y-104911630D01*
X121337790Y-104962426D01*
X121269969Y-104979221D01*
X121203834Y-104956683D01*
X121164795Y-104911630D01*
X121117284Y-104818385D01*
X120996971Y-104652786D01*
X120852213Y-104508028D01*
X120686613Y-104387715D01*
X120686612Y-104387714D01*
X120686610Y-104387713D01*
X120627636Y-104357664D01*
X120504223Y-104294781D01*
X120309534Y-104231522D01*
X120123799Y-104202105D01*
X120107352Y-104199500D01*
X119902648Y-104199500D01*
X119886201Y-104202105D01*
X119700465Y-104231522D01*
X119505776Y-104294781D01*
X119323386Y-104387715D01*
X119157786Y-104508028D01*
X119013028Y-104652786D01*
X118892715Y-104818386D01*
X118799781Y-105000776D01*
X118736522Y-105195465D01*
X118704500Y-105397648D01*
X117940500Y-105397648D01*
X117940500Y-105389778D01*
X117906015Y-105172049D01*
X117850366Y-105000776D01*
X117837896Y-104962396D01*
X117837895Y-104962393D01*
X117803237Y-104894375D01*
X117737815Y-104765978D01*
X117655573Y-104652781D01*
X117608247Y-104587641D01*
X117608243Y-104587636D01*
X117452363Y-104431756D01*
X117452358Y-104431752D01*
X117274025Y-104302187D01*
X117274024Y-104302186D01*
X117274022Y-104302185D01*
X117156791Y-104242452D01*
X117077606Y-104202104D01*
X117077603Y-104202103D01*
X116867952Y-104133985D01*
X116759086Y-104116742D01*
X116650222Y-104099500D01*
X116429778Y-104099500D01*
X116357201Y-104110995D01*
X116212047Y-104133985D01*
X116002396Y-104202103D01*
X116002393Y-104202104D01*
X115805974Y-104302187D01*
X115627641Y-104431752D01*
X115627636Y-104431756D01*
X115577463Y-104481929D01*
X115516140Y-104515413D01*
X115446448Y-104510428D01*
X115390515Y-104468557D01*
X115373601Y-104437580D01*
X115343797Y-104357671D01*
X115343793Y-104357664D01*
X115257547Y-104242455D01*
X115257544Y-104242452D01*
X115142335Y-104156206D01*
X115142328Y-104156202D01*
X115007482Y-104105908D01*
X115007483Y-104105908D01*
X114947883Y-104099501D01*
X114947881Y-104099500D01*
X114947873Y-104099500D01*
X114947864Y-104099500D01*
X113052129Y-104099500D01*
X113052123Y-104099501D01*
X112992516Y-104105908D01*
X112857671Y-104156202D01*
X112857664Y-104156206D01*
X112742455Y-104242452D01*
X112742452Y-104242455D01*
X112656206Y-104357664D01*
X112656202Y-104357671D01*
X112605908Y-104492517D01*
X112599501Y-104552116D01*
X112599500Y-104552135D01*
X109639312Y-104552135D01*
X109730322Y-104461125D01*
X109770922Y-104420524D01*
X109770921Y-104420523D01*
X109726359Y-104388147D01*
X109726350Y-104388141D01*
X109544031Y-104295244D01*
X109349417Y-104232009D01*
X109147317Y-104200000D01*
X108942683Y-104200000D01*
X108740582Y-104232009D01*
X108545968Y-104295244D01*
X108363644Y-104388143D01*
X108319077Y-104420523D01*
X108319077Y-104420524D01*
X108998554Y-105100000D01*
X108992339Y-105100000D01*
X108890606Y-105127259D01*
X108799394Y-105179920D01*
X108724920Y-105254394D01*
X108672259Y-105345606D01*
X108645000Y-105447339D01*
X108645000Y-105453553D01*
X107965524Y-104774077D01*
X107965523Y-104774077D01*
X107933143Y-104818644D01*
X107885765Y-104911630D01*
X107837790Y-104962426D01*
X107769969Y-104979221D01*
X107703834Y-104956683D01*
X107664795Y-104911630D01*
X107617284Y-104818385D01*
X107496971Y-104652786D01*
X107352213Y-104508028D01*
X107186613Y-104387715D01*
X107186612Y-104387714D01*
X107186610Y-104387713D01*
X107127636Y-104357664D01*
X107004223Y-104294781D01*
X106809534Y-104231522D01*
X106623799Y-104202105D01*
X106607352Y-104199500D01*
X106402648Y-104199500D01*
X106386201Y-104202105D01*
X106200465Y-104231522D01*
X106005776Y-104294781D01*
X105823386Y-104387715D01*
X105657786Y-104508028D01*
X105513028Y-104652786D01*
X105392715Y-104818386D01*
X105299781Y-105000776D01*
X105236522Y-105195465D01*
X105204500Y-105397648D01*
X103445500Y-105397648D01*
X103445500Y-105389778D01*
X103411015Y-105172049D01*
X103355366Y-105000776D01*
X103342896Y-104962396D01*
X103342895Y-104962393D01*
X103308237Y-104894375D01*
X103242815Y-104765978D01*
X103160573Y-104652781D01*
X103113247Y-104587641D01*
X103113243Y-104587636D01*
X102957363Y-104431756D01*
X102957358Y-104431752D01*
X102779025Y-104302187D01*
X102779024Y-104302186D01*
X102779022Y-104302185D01*
X102661791Y-104242452D01*
X102582606Y-104202104D01*
X102582603Y-104202103D01*
X102372952Y-104133985D01*
X102264086Y-104116742D01*
X102155222Y-104099500D01*
X101934778Y-104099500D01*
X101862201Y-104110995D01*
X101717047Y-104133985D01*
X101507396Y-104202103D01*
X101507393Y-104202104D01*
X101310974Y-104302187D01*
X101132641Y-104431752D01*
X101132636Y-104431756D01*
X101082463Y-104481929D01*
X101021140Y-104515413D01*
X100951448Y-104510428D01*
X100895515Y-104468557D01*
X100878601Y-104437580D01*
X100848797Y-104357671D01*
X100848793Y-104357664D01*
X100762547Y-104242455D01*
X100762544Y-104242452D01*
X100647335Y-104156206D01*
X100647328Y-104156202D01*
X100512482Y-104105908D01*
X100512483Y-104105908D01*
X100452883Y-104099501D01*
X100452881Y-104099500D01*
X100452873Y-104099500D01*
X100452864Y-104099500D01*
X98557129Y-104099500D01*
X98557123Y-104099501D01*
X98497516Y-104105908D01*
X98362671Y-104156202D01*
X98362664Y-104156206D01*
X98247455Y-104242452D01*
X98247452Y-104242455D01*
X98161206Y-104357664D01*
X98161202Y-104357671D01*
X98110908Y-104492517D01*
X98104501Y-104552116D01*
X98104500Y-104552135D01*
X96179312Y-104552135D01*
X96270322Y-104461125D01*
X96310922Y-104420524D01*
X96310921Y-104420523D01*
X96266359Y-104388147D01*
X96266350Y-104388141D01*
X96084031Y-104295244D01*
X95889417Y-104232009D01*
X95687317Y-104200000D01*
X95482683Y-104200000D01*
X95280582Y-104232009D01*
X95085968Y-104295244D01*
X94903644Y-104388143D01*
X94859077Y-104420523D01*
X94859077Y-104420524D01*
X95538554Y-105100000D01*
X95532339Y-105100000D01*
X95430606Y-105127259D01*
X95339394Y-105179920D01*
X95264920Y-105254394D01*
X95212259Y-105345606D01*
X95185000Y-105447339D01*
X95185000Y-105453553D01*
X94505524Y-104774077D01*
X94505523Y-104774077D01*
X94473143Y-104818644D01*
X94425765Y-104911630D01*
X94377790Y-104962426D01*
X94309969Y-104979221D01*
X94243834Y-104956683D01*
X94204795Y-104911630D01*
X94157284Y-104818385D01*
X94036971Y-104652786D01*
X93892213Y-104508028D01*
X93726613Y-104387715D01*
X93726612Y-104387714D01*
X93726610Y-104387713D01*
X93667636Y-104357664D01*
X93544223Y-104294781D01*
X93349534Y-104231522D01*
X93163799Y-104202105D01*
X93147352Y-104199500D01*
X92942648Y-104199500D01*
X92926201Y-104202105D01*
X92740465Y-104231522D01*
X92545776Y-104294781D01*
X92363386Y-104387715D01*
X92197786Y-104508028D01*
X92053028Y-104652786D01*
X91932715Y-104818386D01*
X91839781Y-105000776D01*
X91776522Y-105195465D01*
X91744500Y-105397648D01*
X90485500Y-105397648D01*
X90485500Y-105389778D01*
X90451015Y-105172049D01*
X90395366Y-105000776D01*
X90382896Y-104962396D01*
X90382895Y-104962393D01*
X90348237Y-104894375D01*
X90282815Y-104765978D01*
X90200573Y-104652781D01*
X90153247Y-104587641D01*
X90153243Y-104587636D01*
X89997363Y-104431756D01*
X89997358Y-104431752D01*
X89819025Y-104302187D01*
X89819024Y-104302186D01*
X89819022Y-104302185D01*
X89701791Y-104242452D01*
X89622606Y-104202104D01*
X89622603Y-104202103D01*
X89412952Y-104133985D01*
X89304086Y-104116742D01*
X89195222Y-104099500D01*
X88974778Y-104099500D01*
X88902201Y-104110995D01*
X88757047Y-104133985D01*
X88547396Y-104202103D01*
X88547393Y-104202104D01*
X88350974Y-104302187D01*
X88172641Y-104431752D01*
X88172636Y-104431756D01*
X88122463Y-104481929D01*
X88061140Y-104515413D01*
X87991448Y-104510428D01*
X87935515Y-104468557D01*
X87918601Y-104437580D01*
X87888797Y-104357671D01*
X87888793Y-104357664D01*
X87802547Y-104242455D01*
X87802544Y-104242452D01*
X87687335Y-104156206D01*
X87687328Y-104156202D01*
X87552482Y-104105908D01*
X87552483Y-104105908D01*
X87492883Y-104099501D01*
X87492881Y-104099500D01*
X87492873Y-104099500D01*
X87492864Y-104099500D01*
X85597129Y-104099500D01*
X85597123Y-104099501D01*
X85537516Y-104105908D01*
X85402671Y-104156202D01*
X85402664Y-104156206D01*
X85287455Y-104242452D01*
X85287452Y-104242455D01*
X85201206Y-104357664D01*
X85201202Y-104357671D01*
X85150908Y-104492517D01*
X85144501Y-104552116D01*
X85144500Y-104552135D01*
X83500000Y-104552135D01*
X83500000Y-98959015D01*
X86939500Y-98959015D01*
X86939500Y-99195984D01*
X86971295Y-99396733D01*
X86976571Y-99430039D01*
X87049799Y-99655411D01*
X87157381Y-99866554D01*
X87296669Y-100058267D01*
X87464233Y-100225831D01*
X87655946Y-100365119D01*
X87867089Y-100472701D01*
X88092461Y-100545929D01*
X88326515Y-100583000D01*
X88326516Y-100583000D01*
X88563484Y-100583000D01*
X88563485Y-100583000D01*
X88797539Y-100545929D01*
X89022911Y-100472701D01*
X89234054Y-100365119D01*
X89425767Y-100225831D01*
X89492583Y-100159015D01*
X92039500Y-100159015D01*
X92039500Y-100395984D01*
X92069120Y-100583000D01*
X92076571Y-100630039D01*
X92149799Y-100855411D01*
X92257381Y-101066554D01*
X92396669Y-101258267D01*
X92564233Y-101425831D01*
X92755946Y-101565119D01*
X92967089Y-101672701D01*
X93192461Y-101745929D01*
X93426515Y-101783000D01*
X93426516Y-101783000D01*
X93663484Y-101783000D01*
X93663485Y-101783000D01*
X93897539Y-101745929D01*
X94122911Y-101672701D01*
X94334054Y-101565119D01*
X94525767Y-101425831D01*
X94693331Y-101258267D01*
X94832619Y-101066554D01*
X94940201Y-100855411D01*
X95013429Y-100630039D01*
X95050500Y-100395985D01*
X95050500Y-100159015D01*
X95013429Y-99924961D01*
X94940201Y-99699589D01*
X94832619Y-99488446D01*
X94693331Y-99296733D01*
X94525767Y-99129169D01*
X94334054Y-98989881D01*
X94273476Y-98959015D01*
X100439500Y-98959015D01*
X100439500Y-99195984D01*
X100471295Y-99396733D01*
X100476571Y-99430039D01*
X100549799Y-99655411D01*
X100657381Y-99866554D01*
X100796669Y-100058267D01*
X100964233Y-100225831D01*
X101155946Y-100365119D01*
X101367089Y-100472701D01*
X101592461Y-100545929D01*
X101826515Y-100583000D01*
X101826516Y-100583000D01*
X102063484Y-100583000D01*
X102063485Y-100583000D01*
X102297539Y-100545929D01*
X102522911Y-100472701D01*
X102734054Y-100365119D01*
X102925767Y-100225831D01*
X102992583Y-100159015D01*
X105539500Y-100159015D01*
X105539500Y-100395984D01*
X105569120Y-100583000D01*
X105576571Y-100630039D01*
X105649799Y-100855411D01*
X105757381Y-101066554D01*
X105896669Y-101258267D01*
X106064233Y-101425831D01*
X106255946Y-101565119D01*
X106467089Y-101672701D01*
X106692461Y-101745929D01*
X106926515Y-101783000D01*
X106926516Y-101783000D01*
X107163484Y-101783000D01*
X107163485Y-101783000D01*
X107397539Y-101745929D01*
X107622911Y-101672701D01*
X107834054Y-101565119D01*
X108025767Y-101425831D01*
X108193331Y-101258267D01*
X108332619Y-101066554D01*
X108440201Y-100855411D01*
X108513429Y-100630039D01*
X108550500Y-100395985D01*
X108550500Y-100159015D01*
X108513429Y-99924961D01*
X108440201Y-99699589D01*
X108332619Y-99488446D01*
X108193331Y-99296733D01*
X108025767Y-99129169D01*
X107834054Y-98989881D01*
X107773476Y-98959015D01*
X114439500Y-98959015D01*
X114439500Y-99195984D01*
X114471295Y-99396733D01*
X114476571Y-99430039D01*
X114549799Y-99655411D01*
X114657381Y-99866554D01*
X114796669Y-100058267D01*
X114964233Y-100225831D01*
X115155946Y-100365119D01*
X115367089Y-100472701D01*
X115592461Y-100545929D01*
X115826515Y-100583000D01*
X115826516Y-100583000D01*
X116063484Y-100583000D01*
X116063485Y-100583000D01*
X116297539Y-100545929D01*
X116522911Y-100472701D01*
X116734054Y-100365119D01*
X116925767Y-100225831D01*
X116992583Y-100159015D01*
X119539500Y-100159015D01*
X119539500Y-100395984D01*
X119569120Y-100583000D01*
X119576571Y-100630039D01*
X119649799Y-100855411D01*
X119757381Y-101066554D01*
X119896669Y-101258267D01*
X120064233Y-101425831D01*
X120255946Y-101565119D01*
X120467089Y-101672701D01*
X120692461Y-101745929D01*
X120926515Y-101783000D01*
X120926516Y-101783000D01*
X121163484Y-101783000D01*
X121163485Y-101783000D01*
X121397539Y-101745929D01*
X121622911Y-101672701D01*
X121834054Y-101565119D01*
X122025767Y-101425831D01*
X122193331Y-101258267D01*
X122332619Y-101066554D01*
X122440201Y-100855411D01*
X122513429Y-100630039D01*
X122550500Y-100395985D01*
X122550500Y-100159015D01*
X122513429Y-99924961D01*
X122440201Y-99699589D01*
X122332619Y-99488446D01*
X122193331Y-99296733D01*
X122025767Y-99129169D01*
X121929209Y-99059015D01*
X128489500Y-99059015D01*
X128489500Y-99295985D01*
X128526571Y-99530039D01*
X128599799Y-99755411D01*
X128707381Y-99966554D01*
X128846669Y-100158267D01*
X129014233Y-100325831D01*
X129205946Y-100465119D01*
X129417089Y-100572701D01*
X129642461Y-100645929D01*
X129876515Y-100683000D01*
X129876516Y-100683000D01*
X130113484Y-100683000D01*
X130113485Y-100683000D01*
X130347539Y-100645929D01*
X130572911Y-100572701D01*
X130784054Y-100465119D01*
X130975767Y-100325831D01*
X131042583Y-100259015D01*
X133589500Y-100259015D01*
X133589500Y-100495985D01*
X133600686Y-100566615D01*
X133619120Y-100683000D01*
X133626571Y-100730039D01*
X133699799Y-100955411D01*
X133807381Y-101166554D01*
X133946669Y-101358267D01*
X134114233Y-101525831D01*
X134305946Y-101665119D01*
X134517089Y-101772701D01*
X134742461Y-101845929D01*
X134976515Y-101883000D01*
X134976516Y-101883000D01*
X135213484Y-101883000D01*
X135213485Y-101883000D01*
X135447539Y-101845929D01*
X135672911Y-101772701D01*
X135884054Y-101665119D01*
X136075767Y-101525831D01*
X136243331Y-101358267D01*
X136382619Y-101166554D01*
X136490201Y-100955411D01*
X136563429Y-100730039D01*
X136600500Y-100495985D01*
X136600500Y-100259015D01*
X136563429Y-100024961D01*
X136490201Y-99799589D01*
X136382619Y-99588446D01*
X136243331Y-99396733D01*
X136075767Y-99229169D01*
X135884054Y-99089881D01*
X135672911Y-98982299D01*
X135447539Y-98909071D01*
X135447537Y-98909070D01*
X135447535Y-98909070D01*
X135278509Y-98882299D01*
X135213485Y-98872000D01*
X134976515Y-98872000D01*
X134922257Y-98880593D01*
X134742464Y-98909070D01*
X134517086Y-98982300D01*
X134305945Y-99089881D01*
X134251868Y-99129171D01*
X134114233Y-99229169D01*
X134114231Y-99229171D01*
X134114230Y-99229171D01*
X133946671Y-99396730D01*
X133946671Y-99396731D01*
X133946669Y-99396733D01*
X133922474Y-99430035D01*
X133807381Y-99588445D01*
X133699800Y-99799586D01*
X133626570Y-100024964D01*
X133604159Y-100166462D01*
X133589500Y-100259015D01*
X131042583Y-100259015D01*
X131143331Y-100158267D01*
X131282619Y-99966554D01*
X131390201Y-99755411D01*
X131463429Y-99530039D01*
X131500500Y-99295985D01*
X131500500Y-99059015D01*
X131463429Y-98824961D01*
X131390201Y-98599589D01*
X131282619Y-98388446D01*
X131143331Y-98196733D01*
X130975767Y-98029169D01*
X130784054Y-97889881D01*
X130572911Y-97782299D01*
X130347539Y-97709071D01*
X130347537Y-97709070D01*
X130347535Y-97709070D01*
X130178509Y-97682299D01*
X130113485Y-97672000D01*
X129876515Y-97672000D01*
X129822257Y-97680593D01*
X129642464Y-97709070D01*
X129417086Y-97782300D01*
X129205945Y-97889881D01*
X129151868Y-97929171D01*
X129014233Y-98029169D01*
X129014231Y-98029171D01*
X129014230Y-98029171D01*
X128846671Y-98196730D01*
X128846671Y-98196731D01*
X128846669Y-98196733D01*
X128786850Y-98279066D01*
X128707381Y-98388445D01*
X128599800Y-98599586D01*
X128526570Y-98824964D01*
X128500450Y-98989881D01*
X128489500Y-99059015D01*
X121929209Y-99059015D01*
X121834054Y-98989881D01*
X121622911Y-98882299D01*
X121397539Y-98809071D01*
X121397537Y-98809070D01*
X121397535Y-98809070D01*
X121234115Y-98783186D01*
X121163485Y-98772000D01*
X120926515Y-98772000D01*
X120872257Y-98780593D01*
X120692464Y-98809070D01*
X120467086Y-98882300D01*
X120255945Y-98989881D01*
X120167059Y-99054461D01*
X120064233Y-99129169D01*
X120064231Y-99129171D01*
X120064230Y-99129171D01*
X119896671Y-99296730D01*
X119896671Y-99296731D01*
X119896669Y-99296733D01*
X119836850Y-99379066D01*
X119757381Y-99488445D01*
X119649800Y-99699586D01*
X119576570Y-99924964D01*
X119539500Y-100159015D01*
X116992583Y-100159015D01*
X117093331Y-100058267D01*
X117232619Y-99866554D01*
X117340201Y-99655411D01*
X117413429Y-99430039D01*
X117450500Y-99195985D01*
X117450500Y-98959015D01*
X117413429Y-98724961D01*
X117340201Y-98499589D01*
X117232619Y-98288446D01*
X117093331Y-98096733D01*
X116925767Y-97929169D01*
X116734054Y-97789881D01*
X116522911Y-97682299D01*
X116297539Y-97609071D01*
X116297537Y-97609070D01*
X116297535Y-97609070D01*
X116134115Y-97583186D01*
X116063485Y-97572000D01*
X115826515Y-97572000D01*
X115772257Y-97580593D01*
X115592464Y-97609070D01*
X115367086Y-97682300D01*
X115155945Y-97789881D01*
X115046566Y-97869350D01*
X114964233Y-97929169D01*
X114964231Y-97929171D01*
X114964230Y-97929171D01*
X114796671Y-98096730D01*
X114796671Y-98096731D01*
X114796669Y-98096733D01*
X114736850Y-98179066D01*
X114657381Y-98288445D01*
X114549800Y-98499586D01*
X114476570Y-98724964D01*
X114439500Y-98959015D01*
X107773476Y-98959015D01*
X107622911Y-98882299D01*
X107397539Y-98809071D01*
X107397537Y-98809070D01*
X107397535Y-98809070D01*
X107234115Y-98783186D01*
X107163485Y-98772000D01*
X106926515Y-98772000D01*
X106872257Y-98780593D01*
X106692464Y-98809070D01*
X106467086Y-98882300D01*
X106255945Y-98989881D01*
X106167059Y-99054461D01*
X106064233Y-99129169D01*
X106064231Y-99129171D01*
X106064230Y-99129171D01*
X105896671Y-99296730D01*
X105896671Y-99296731D01*
X105896669Y-99296733D01*
X105836850Y-99379066D01*
X105757381Y-99488445D01*
X105649800Y-99699586D01*
X105576570Y-99924964D01*
X105539500Y-100159015D01*
X102992583Y-100159015D01*
X103093331Y-100058267D01*
X103232619Y-99866554D01*
X103340201Y-99655411D01*
X103413429Y-99430039D01*
X103450500Y-99195985D01*
X103450500Y-98959015D01*
X103413429Y-98724961D01*
X103340201Y-98499589D01*
X103232619Y-98288446D01*
X103093331Y-98096733D01*
X102925767Y-97929169D01*
X102734054Y-97789881D01*
X102522911Y-97682299D01*
X102297539Y-97609071D01*
X102297537Y-97609070D01*
X102297535Y-97609070D01*
X102134115Y-97583186D01*
X102063485Y-97572000D01*
X101826515Y-97572000D01*
X101772257Y-97580593D01*
X101592464Y-97609070D01*
X101367086Y-97682300D01*
X101155945Y-97789881D01*
X101046566Y-97869350D01*
X100964233Y-97929169D01*
X100964231Y-97929171D01*
X100964230Y-97929171D01*
X100796671Y-98096730D01*
X100796671Y-98096731D01*
X100796669Y-98096733D01*
X100736850Y-98179066D01*
X100657381Y-98288445D01*
X100549800Y-98499586D01*
X100476570Y-98724964D01*
X100439500Y-98959015D01*
X94273476Y-98959015D01*
X94122911Y-98882299D01*
X93897539Y-98809071D01*
X93897537Y-98809070D01*
X93897535Y-98809070D01*
X93734115Y-98783186D01*
X93663485Y-98772000D01*
X93426515Y-98772000D01*
X93372257Y-98780593D01*
X93192464Y-98809070D01*
X92967086Y-98882300D01*
X92755945Y-98989881D01*
X92667059Y-99054461D01*
X92564233Y-99129169D01*
X92564231Y-99129171D01*
X92564230Y-99129171D01*
X92396671Y-99296730D01*
X92396671Y-99296731D01*
X92396669Y-99296733D01*
X92336850Y-99379066D01*
X92257381Y-99488445D01*
X92149800Y-99699586D01*
X92076570Y-99924964D01*
X92039500Y-100159015D01*
X89492583Y-100159015D01*
X89593331Y-100058267D01*
X89732619Y-99866554D01*
X89840201Y-99655411D01*
X89913429Y-99430039D01*
X89950500Y-99195985D01*
X89950500Y-98959015D01*
X89913429Y-98724961D01*
X89840201Y-98499589D01*
X89732619Y-98288446D01*
X89593331Y-98096733D01*
X89425767Y-97929169D01*
X89234054Y-97789881D01*
X89022911Y-97682299D01*
X88797539Y-97609071D01*
X88797537Y-97609070D01*
X88797535Y-97609070D01*
X88634115Y-97583186D01*
X88563485Y-97572000D01*
X88326515Y-97572000D01*
X88272257Y-97580593D01*
X88092464Y-97609070D01*
X87867086Y-97682300D01*
X87655945Y-97789881D01*
X87546566Y-97869350D01*
X87464233Y-97929169D01*
X87464231Y-97929171D01*
X87464230Y-97929171D01*
X87296671Y-98096730D01*
X87296671Y-98096731D01*
X87296669Y-98096733D01*
X87236850Y-98179066D01*
X87157381Y-98288445D01*
X87049800Y-98499586D01*
X86976570Y-98724964D01*
X86939500Y-98959015D01*
X83500000Y-98959015D01*
X83500000Y-87899982D01*
X92459500Y-87899982D01*
X92459500Y-91100017D01*
X92470000Y-91202796D01*
X92470001Y-91202798D01*
X92525186Y-91369335D01*
X92617288Y-91518656D01*
X92741344Y-91642712D01*
X92890665Y-91734814D01*
X93057202Y-91789999D01*
X93159990Y-91800500D01*
X93159995Y-91800500D01*
X94840005Y-91800500D01*
X94840010Y-91800500D01*
X94942798Y-91789999D01*
X95109335Y-91734814D01*
X95258656Y-91642712D01*
X95382712Y-91518656D01*
X95474814Y-91369335D01*
X95529999Y-91202798D01*
X95540500Y-91100010D01*
X95540500Y-87899990D01*
X95540499Y-87899982D01*
X105959500Y-87899982D01*
X105959500Y-91100017D01*
X105970000Y-91202796D01*
X105970001Y-91202798D01*
X106025186Y-91369335D01*
X106117288Y-91518656D01*
X106241344Y-91642712D01*
X106390665Y-91734814D01*
X106557202Y-91789999D01*
X106659990Y-91800500D01*
X106659995Y-91800500D01*
X108340005Y-91800500D01*
X108340010Y-91800500D01*
X108442798Y-91789999D01*
X108609335Y-91734814D01*
X108758656Y-91642712D01*
X108882712Y-91518656D01*
X108974814Y-91369335D01*
X109029999Y-91202798D01*
X109040500Y-91100010D01*
X109040500Y-87899990D01*
X109040499Y-87899982D01*
X119959500Y-87899982D01*
X119959500Y-91100017D01*
X119970000Y-91202796D01*
X119970001Y-91202798D01*
X120025186Y-91369335D01*
X120117288Y-91518656D01*
X120241344Y-91642712D01*
X120390665Y-91734814D01*
X120557202Y-91789999D01*
X120659990Y-91800500D01*
X120659995Y-91800500D01*
X122340005Y-91800500D01*
X122340010Y-91800500D01*
X122442798Y-91789999D01*
X122609335Y-91734814D01*
X122758656Y-91642712D01*
X122882712Y-91518656D01*
X122974814Y-91369335D01*
X123029999Y-91202798D01*
X123040500Y-91100010D01*
X123040500Y-87899990D01*
X123040499Y-87899982D01*
X133959500Y-87899982D01*
X133959500Y-91100017D01*
X133970000Y-91202796D01*
X133970001Y-91202798D01*
X134025186Y-91369335D01*
X134117288Y-91518656D01*
X134241344Y-91642712D01*
X134390665Y-91734814D01*
X134557202Y-91789999D01*
X134659990Y-91800500D01*
X134659995Y-91800500D01*
X136340005Y-91800500D01*
X136340010Y-91800500D01*
X136442798Y-91789999D01*
X136609335Y-91734814D01*
X136758656Y-91642712D01*
X136882712Y-91518656D01*
X136974814Y-91369335D01*
X137029999Y-91202798D01*
X137040500Y-91100010D01*
X137040500Y-88878711D01*
X143649500Y-88878711D01*
X143649500Y-89121288D01*
X143681161Y-89361785D01*
X143743947Y-89596104D01*
X143836773Y-89820205D01*
X143836776Y-89820212D01*
X143958064Y-90030289D01*
X143958066Y-90030292D01*
X143958067Y-90030293D01*
X144105733Y-90222736D01*
X144105739Y-90222743D01*
X144277256Y-90394260D01*
X144277262Y-90394265D01*
X144469711Y-90541936D01*
X144679788Y-90663224D01*
X144903900Y-90756054D01*
X145138211Y-90818838D01*
X145318586Y-90842584D01*
X145378711Y-90850500D01*
X145378712Y-90850500D01*
X145621289Y-90850500D01*
X145669388Y-90844167D01*
X145861789Y-90818838D01*
X146096100Y-90756054D01*
X146320212Y-90663224D01*
X146530289Y-90541936D01*
X146722738Y-90394265D01*
X146894265Y-90222738D01*
X147041936Y-90030289D01*
X147163224Y-89820212D01*
X147256054Y-89596100D01*
X147318838Y-89361789D01*
X147350500Y-89121288D01*
X147350500Y-88878712D01*
X147318838Y-88638211D01*
X147256054Y-88403900D01*
X147163224Y-88179788D01*
X147041936Y-87969711D01*
X146909566Y-87797203D01*
X146894266Y-87777263D01*
X146894260Y-87777256D01*
X146722743Y-87605739D01*
X146722736Y-87605733D01*
X146530293Y-87458067D01*
X146530292Y-87458066D01*
X146530289Y-87458064D01*
X146320212Y-87336776D01*
X146320205Y-87336773D01*
X146096104Y-87243947D01*
X145861785Y-87181161D01*
X145621289Y-87149500D01*
X145621288Y-87149500D01*
X145378712Y-87149500D01*
X145378711Y-87149500D01*
X145138214Y-87181161D01*
X144903895Y-87243947D01*
X144679794Y-87336773D01*
X144679785Y-87336777D01*
X144469706Y-87458067D01*
X144277263Y-87605733D01*
X144277256Y-87605739D01*
X144105739Y-87777256D01*
X144105733Y-87777263D01*
X143958067Y-87969706D01*
X143836777Y-88179785D01*
X143836773Y-88179794D01*
X143743947Y-88403895D01*
X143681161Y-88638214D01*
X143649500Y-88878711D01*
X137040500Y-88878711D01*
X137040500Y-87899990D01*
X137029999Y-87797202D01*
X136974814Y-87630665D01*
X136882712Y-87481344D01*
X136758656Y-87357288D01*
X136609335Y-87265186D01*
X136442798Y-87210001D01*
X136442796Y-87210000D01*
X136340017Y-87199500D01*
X136340010Y-87199500D01*
X134659990Y-87199500D01*
X134659982Y-87199500D01*
X134557203Y-87210000D01*
X134557202Y-87210001D01*
X134474669Y-87237349D01*
X134390667Y-87265185D01*
X134390662Y-87265187D01*
X134241342Y-87357289D01*
X134117289Y-87481342D01*
X134025187Y-87630662D01*
X134025186Y-87630665D01*
X133970001Y-87797202D01*
X133970001Y-87797203D01*
X133970000Y-87797203D01*
X133959500Y-87899982D01*
X123040499Y-87899982D01*
X123029999Y-87797202D01*
X122974814Y-87630665D01*
X122882712Y-87481344D01*
X122758656Y-87357288D01*
X122609335Y-87265186D01*
X122442798Y-87210001D01*
X122442796Y-87210000D01*
X122340017Y-87199500D01*
X122340010Y-87199500D01*
X120659990Y-87199500D01*
X120659982Y-87199500D01*
X120557203Y-87210000D01*
X120557202Y-87210001D01*
X120474669Y-87237349D01*
X120390667Y-87265185D01*
X120390662Y-87265187D01*
X120241342Y-87357289D01*
X120117289Y-87481342D01*
X120025187Y-87630662D01*
X120025186Y-87630665D01*
X119970001Y-87797202D01*
X119970001Y-87797203D01*
X119970000Y-87797203D01*
X119959500Y-87899982D01*
X109040499Y-87899982D01*
X109029999Y-87797202D01*
X108974814Y-87630665D01*
X108882712Y-87481344D01*
X108758656Y-87357288D01*
X108609335Y-87265186D01*
X108442798Y-87210001D01*
X108442796Y-87210000D01*
X108340017Y-87199500D01*
X108340010Y-87199500D01*
X106659990Y-87199500D01*
X106659982Y-87199500D01*
X106557203Y-87210000D01*
X106557202Y-87210001D01*
X106474669Y-87237349D01*
X106390667Y-87265185D01*
X106390662Y-87265187D01*
X106241342Y-87357289D01*
X106117289Y-87481342D01*
X106025187Y-87630662D01*
X106025186Y-87630665D01*
X105970001Y-87797202D01*
X105970001Y-87797203D01*
X105970000Y-87797203D01*
X105959500Y-87899982D01*
X95540499Y-87899982D01*
X95529999Y-87797202D01*
X95474814Y-87630665D01*
X95382712Y-87481344D01*
X95258656Y-87357288D01*
X95109335Y-87265186D01*
X94942798Y-87210001D01*
X94942796Y-87210000D01*
X94840017Y-87199500D01*
X94840010Y-87199500D01*
X93159990Y-87199500D01*
X93159982Y-87199500D01*
X93057203Y-87210000D01*
X93057202Y-87210001D01*
X92974669Y-87237349D01*
X92890667Y-87265185D01*
X92890662Y-87265187D01*
X92741342Y-87357289D01*
X92617289Y-87481342D01*
X92525187Y-87630662D01*
X92525186Y-87630665D01*
X92470001Y-87797202D01*
X92470001Y-87797203D01*
X92470000Y-87797203D01*
X92459500Y-87899982D01*
X83500000Y-87899982D01*
X83500000Y-84124000D01*
X83519685Y-84056961D01*
X83572489Y-84011206D01*
X83624000Y-84000000D01*
X150876000Y-84000000D01*
X150943039Y-84019685D01*
G37*
%TD.AperFunction*%
%TD*%
M02*
