%TF.GenerationSoftware,KiCad,Pcbnew,9.0.7*%
%TF.CreationDate,2026-05-19T17:47:43+10:00*%
%TF.ProjectId,power_distro,706f7765-725f-4646-9973-74726f2e6b69,rev?*%
%TF.SameCoordinates,Original*%
%TF.FileFunction,Soldermask,Bot*%
%TF.FilePolarity,Negative*%
%FSLAX46Y46*%
G04 Gerber Fmt 4.6, Leading zero omitted, Abs format (unit mm)*
G04 Created by KiCad (PCBNEW 9.0.7) date 2026-05-19 17:47:43*
%MOMM*%
%LPD*%
G01*
G04 APERTURE LIST*
G04 Aperture macros list*
%AMRoundRect*
0 Rectangle with rounded corners*
0 $1 Rounding radius*
0 $2 $3 $4 $5 $6 $7 $8 $9 X,Y pos of 4 corners*
0 Add a 4 corners polygon primitive as box body*
4,1,4,$2,$3,$4,$5,$6,$7,$8,$9,$2,$3,0*
0 Add four circle primitives for the rounded corners*
1,1,$1+$1,$2,$3*
1,1,$1+$1,$4,$5*
1,1,$1+$1,$6,$7*
1,1,$1+$1,$8,$9*
0 Add four rect primitives between the rounded corners*
20,1,$1+$1,$2,$3,$4,$5,0*
20,1,$1+$1,$4,$5,$6,$7,0*
20,1,$1+$1,$6,$7,$8,$9,0*
20,1,$1+$1,$8,$9,$2,$3,0*%
G04 Aperture macros list end*
%ADD10RoundRect,0.250000X1.000000X-1.000000X1.000000X1.000000X-1.000000X1.000000X-1.000000X-1.000000X0*%
%ADD11C,2.500000*%
%ADD12C,2.010000*%
%ADD13RoundRect,0.249999X-0.790001X-1.550001X0.790001X-1.550001X0.790001X1.550001X-0.790001X1.550001X0*%
%ADD14O,2.080000X3.600000*%
%ADD15R,1.800000X1.800000*%
%ADD16C,1.800000*%
%ADD17C,3.200000*%
%ADD18C,1.600000*%
G04 APERTURE END LIST*
D10*
%TO.C,J_IN1*%
X144367500Y-114250000D03*
D11*
X144367500Y-106750000D03*
%TD*%
D12*
%TO.C,F4*%
X135095000Y-100377500D03*
X129995000Y-99177500D03*
%TD*%
D13*
%TO.C,J7*%
X116000000Y-131722500D03*
D14*
X121080000Y-131722500D03*
%TD*%
D15*
%TO.C,D2*%
X99505000Y-105500000D03*
D16*
X102045000Y-105500000D03*
%TD*%
D17*
%TO.C,REF\u002A\u002A*%
X79500000Y-134000000D03*
%TD*%
D15*
%TO.C,D6*%
X100005000Y-114500000D03*
D16*
X102545000Y-114500000D03*
%TD*%
D12*
%TO.C,F3*%
X121045000Y-100277500D03*
X115945000Y-99077500D03*
%TD*%
D17*
%TO.C,REF\u002A\u002A*%
X145500000Y-89000000D03*
%TD*%
D15*
%TO.C,D7*%
X113775000Y-114500000D03*
D16*
X116315000Y-114500000D03*
%TD*%
D12*
%TO.C,F6*%
X107045000Y-122000000D03*
X101945000Y-120800000D03*
%TD*%
D13*
%TO.C,J3*%
X116500000Y-90500000D03*
D14*
X121580000Y-90500000D03*
%TD*%
D18*
%TO.C,Re1*%
X93045000Y-105500000D03*
X95585000Y-105500000D03*
%TD*%
D13*
%TO.C,J6*%
X102045000Y-132000000D03*
D14*
X107125000Y-132000000D03*
%TD*%
D15*
%TO.C,D3*%
X114000000Y-105500000D03*
D16*
X116540000Y-105500000D03*
%TD*%
D12*
%TO.C,F8*%
X135095000Y-121700000D03*
X129995000Y-120500000D03*
%TD*%
D13*
%TO.C,J8*%
X130000000Y-131722500D03*
D14*
X135080000Y-131722500D03*
%TD*%
D18*
%TO.C,R2*%
X106505000Y-105500000D03*
X109045000Y-105500000D03*
%TD*%
D15*
%TO.C,D5*%
X86005000Y-114500000D03*
D16*
X88545000Y-114500000D03*
%TD*%
D15*
%TO.C,D1*%
X86545000Y-105500000D03*
D16*
X89085000Y-105500000D03*
%TD*%
D18*
%TO.C,R8*%
X135505000Y-114500000D03*
X138045000Y-114500000D03*
%TD*%
D17*
%TO.C,REF\u002A\u002A*%
X79500000Y-87000000D03*
%TD*%
D12*
%TO.C,F7*%
X121045000Y-122000000D03*
X115945000Y-120800000D03*
%TD*%
D13*
%TO.C,J5*%
X88000000Y-131722500D03*
D14*
X93080000Y-131722500D03*
%TD*%
D12*
%TO.C,F2*%
X107045000Y-100277500D03*
X101945000Y-99077500D03*
%TD*%
D17*
%TO.C,REF\u002A\u002A*%
X146000000Y-132500000D03*
%TD*%
D12*
%TO.C,F1*%
X93545000Y-100277500D03*
X88445000Y-99077500D03*
%TD*%
%TO.C,F5*%
X93045000Y-122000000D03*
X87945000Y-120800000D03*
%TD*%
D18*
%TO.C,R6*%
X107505000Y-114500000D03*
X110045000Y-114500000D03*
%TD*%
%TO.C,R5*%
X93505000Y-114500000D03*
X96045000Y-114500000D03*
%TD*%
%TO.C,R3*%
X120005000Y-105500000D03*
X122545000Y-105500000D03*
%TD*%
D15*
%TO.C,D8*%
X127775000Y-114500000D03*
D16*
X130315000Y-114500000D03*
%TD*%
D18*
%TO.C,R7*%
X121500000Y-114500000D03*
X124040000Y-114500000D03*
%TD*%
D15*
%TO.C,D4*%
X128005000Y-105500000D03*
D16*
X130545000Y-105500000D03*
%TD*%
D18*
%TO.C,R4*%
X134455000Y-105500000D03*
X136995000Y-105500000D03*
%TD*%
D13*
%TO.C,J2*%
X102500000Y-90500000D03*
D14*
X107580000Y-90500000D03*
%TD*%
D13*
%TO.C,J1*%
X88500000Y-90500000D03*
D14*
X93580000Y-90500000D03*
%TD*%
D13*
%TO.C,J4*%
X130500000Y-90500000D03*
D14*
X135580000Y-90500000D03*
%TD*%
M02*
