%TF.GenerationSoftware,KiCad,Pcbnew,9.0.7*%
%TF.CreationDate,2026-06-25T17:37:33+10:00*%
%TF.ProjectId,power_distro,706f7765-725f-4646-9973-74726f2e6b69,rev?*%
%TF.SameCoordinates,Original*%
%TF.FileFunction,Legend,Top*%
%TF.FilePolarity,Positive*%
%FSLAX46Y46*%
G04 Gerber Fmt 4.6, Leading zero omitted, Abs format (unit mm)*
G04 Created by KiCad (PCBNEW 9.0.7) date 2026-06-25 17:37:33*
%MOMM*%
%LPD*%
G01*
G04 APERTURE LIST*
%ADD10C,0.100000*%
%ADD11C,0.150000*%
%ADD12C,0.120000*%
G04 APERTURE END LIST*
D10*
X112653884Y-136293966D02*
X113415789Y-136293966D01*
X113034836Y-136674919D02*
X113034836Y-135913014D01*
X112934211Y-84491466D02*
X113696116Y-84491466D01*
X98934211Y-84491466D02*
X99696116Y-84491466D01*
X138161466Y-103565788D02*
X138161466Y-102803884D01*
X150161466Y-105065788D02*
X150161466Y-104303884D01*
X98698884Y-136571466D02*
X99460789Y-136571466D01*
X99079836Y-136952419D02*
X99079836Y-136190514D01*
X96803884Y-84491466D02*
X97565789Y-84491466D01*
X97184836Y-84872419D02*
X97184836Y-84110514D01*
X149481384Y-117356466D02*
X150243289Y-117356466D01*
X149862336Y-117737419D02*
X149862336Y-116975514D01*
X110303884Y-84491466D02*
X111065789Y-84491466D01*
X110684836Y-84872419D02*
X110684836Y-84110514D01*
X126434211Y-84491466D02*
X127196116Y-84491466D01*
X137934211Y-136661466D02*
X138696116Y-136661466D01*
X80737524Y-92280074D02*
X80737524Y-91803884D01*
X80737524Y-91803884D02*
X81737524Y-91803884D01*
X81261334Y-92613408D02*
X81261334Y-92946741D01*
X80737524Y-93089598D02*
X80737524Y-92613408D01*
X80737524Y-92613408D02*
X81737524Y-92613408D01*
X81737524Y-92613408D02*
X81737524Y-93089598D01*
X80737524Y-93518170D02*
X81737524Y-93518170D01*
X81737524Y-93518170D02*
X81737524Y-93756265D01*
X81737524Y-93756265D02*
X81689905Y-93899122D01*
X81689905Y-93899122D02*
X81594667Y-93994360D01*
X81594667Y-93994360D02*
X81499429Y-94041979D01*
X81499429Y-94041979D02*
X81308953Y-94089598D01*
X81308953Y-94089598D02*
X81166096Y-94089598D01*
X81166096Y-94089598D02*
X80975620Y-94041979D01*
X80975620Y-94041979D02*
X80880382Y-93994360D01*
X80880382Y-93994360D02*
X80785144Y-93899122D01*
X80785144Y-93899122D02*
X80737524Y-93756265D01*
X80737524Y-93756265D02*
X80737524Y-93518170D01*
X80642286Y-94280075D02*
X80642286Y-95041979D01*
X80737524Y-95280075D02*
X81737524Y-95280075D01*
X81737524Y-95280075D02*
X81737524Y-95661027D01*
X81737524Y-95661027D02*
X81689905Y-95756265D01*
X81689905Y-95756265D02*
X81642286Y-95803884D01*
X81642286Y-95803884D02*
X81547048Y-95851503D01*
X81547048Y-95851503D02*
X81404191Y-95851503D01*
X81404191Y-95851503D02*
X81308953Y-95803884D01*
X81308953Y-95803884D02*
X81261334Y-95756265D01*
X81261334Y-95756265D02*
X81213715Y-95661027D01*
X81213715Y-95661027D02*
X81213715Y-95280075D01*
X80737524Y-96422932D02*
X80785144Y-96327694D01*
X80785144Y-96327694D02*
X80832763Y-96280075D01*
X80832763Y-96280075D02*
X80928001Y-96232456D01*
X80928001Y-96232456D02*
X81213715Y-96232456D01*
X81213715Y-96232456D02*
X81308953Y-96280075D01*
X81308953Y-96280075D02*
X81356572Y-96327694D01*
X81356572Y-96327694D02*
X81404191Y-96422932D01*
X81404191Y-96422932D02*
X81404191Y-96565789D01*
X81404191Y-96565789D02*
X81356572Y-96661027D01*
X81356572Y-96661027D02*
X81308953Y-96708646D01*
X81308953Y-96708646D02*
X81213715Y-96756265D01*
X81213715Y-96756265D02*
X80928001Y-96756265D01*
X80928001Y-96756265D02*
X80832763Y-96708646D01*
X80832763Y-96708646D02*
X80785144Y-96661027D01*
X80785144Y-96661027D02*
X80737524Y-96565789D01*
X80737524Y-96565789D02*
X80737524Y-96422932D01*
X81404191Y-97089599D02*
X80737524Y-97280075D01*
X80737524Y-97280075D02*
X81213715Y-97470551D01*
X81213715Y-97470551D02*
X80737524Y-97661027D01*
X80737524Y-97661027D02*
X81404191Y-97851503D01*
X80785144Y-98613408D02*
X80737524Y-98518170D01*
X80737524Y-98518170D02*
X80737524Y-98327694D01*
X80737524Y-98327694D02*
X80785144Y-98232456D01*
X80785144Y-98232456D02*
X80880382Y-98184837D01*
X80880382Y-98184837D02*
X81261334Y-98184837D01*
X81261334Y-98184837D02*
X81356572Y-98232456D01*
X81356572Y-98232456D02*
X81404191Y-98327694D01*
X81404191Y-98327694D02*
X81404191Y-98518170D01*
X81404191Y-98518170D02*
X81356572Y-98613408D01*
X81356572Y-98613408D02*
X81261334Y-98661027D01*
X81261334Y-98661027D02*
X81166096Y-98661027D01*
X81166096Y-98661027D02*
X81070858Y-98184837D01*
X80737524Y-99089599D02*
X81404191Y-99089599D01*
X81213715Y-99089599D02*
X81308953Y-99137218D01*
X81308953Y-99137218D02*
X81356572Y-99184837D01*
X81356572Y-99184837D02*
X81404191Y-99280075D01*
X81404191Y-99280075D02*
X81404191Y-99375313D01*
X80642286Y-99470552D02*
X80642286Y-100232456D01*
X80737524Y-100470552D02*
X81737524Y-100470552D01*
X81737524Y-100470552D02*
X81737524Y-100708647D01*
X81737524Y-100708647D02*
X81689905Y-100851504D01*
X81689905Y-100851504D02*
X81594667Y-100946742D01*
X81594667Y-100946742D02*
X81499429Y-100994361D01*
X81499429Y-100994361D02*
X81308953Y-101041980D01*
X81308953Y-101041980D02*
X81166096Y-101041980D01*
X81166096Y-101041980D02*
X80975620Y-100994361D01*
X80975620Y-100994361D02*
X80880382Y-100946742D01*
X80880382Y-100946742D02*
X80785144Y-100851504D01*
X80785144Y-100851504D02*
X80737524Y-100708647D01*
X80737524Y-100708647D02*
X80737524Y-100470552D01*
X80737524Y-101470552D02*
X81404191Y-101470552D01*
X81737524Y-101470552D02*
X81689905Y-101422933D01*
X81689905Y-101422933D02*
X81642286Y-101470552D01*
X81642286Y-101470552D02*
X81689905Y-101518171D01*
X81689905Y-101518171D02*
X81737524Y-101470552D01*
X81737524Y-101470552D02*
X81642286Y-101470552D01*
X80785144Y-101899123D02*
X80737524Y-101994361D01*
X80737524Y-101994361D02*
X80737524Y-102184837D01*
X80737524Y-102184837D02*
X80785144Y-102280075D01*
X80785144Y-102280075D02*
X80880382Y-102327694D01*
X80880382Y-102327694D02*
X80928001Y-102327694D01*
X80928001Y-102327694D02*
X81023239Y-102280075D01*
X81023239Y-102280075D02*
X81070858Y-102184837D01*
X81070858Y-102184837D02*
X81070858Y-102041980D01*
X81070858Y-102041980D02*
X81118477Y-101946742D01*
X81118477Y-101946742D02*
X81213715Y-101899123D01*
X81213715Y-101899123D02*
X81261334Y-101899123D01*
X81261334Y-101899123D02*
X81356572Y-101946742D01*
X81356572Y-101946742D02*
X81404191Y-102041980D01*
X81404191Y-102041980D02*
X81404191Y-102184837D01*
X81404191Y-102184837D02*
X81356572Y-102280075D01*
X81404191Y-102613409D02*
X81404191Y-102994361D01*
X81737524Y-102756266D02*
X80880382Y-102756266D01*
X80880382Y-102756266D02*
X80785144Y-102803885D01*
X80785144Y-102803885D02*
X80737524Y-102899123D01*
X80737524Y-102899123D02*
X80737524Y-102994361D01*
X80737524Y-103327695D02*
X81404191Y-103327695D01*
X81213715Y-103327695D02*
X81308953Y-103375314D01*
X81308953Y-103375314D02*
X81356572Y-103422933D01*
X81356572Y-103422933D02*
X81404191Y-103518171D01*
X81404191Y-103518171D02*
X81404191Y-103613409D01*
X80737524Y-103946743D02*
X81404191Y-103946743D01*
X81737524Y-103946743D02*
X81689905Y-103899124D01*
X81689905Y-103899124D02*
X81642286Y-103946743D01*
X81642286Y-103946743D02*
X81689905Y-103994362D01*
X81689905Y-103994362D02*
X81737524Y-103946743D01*
X81737524Y-103946743D02*
X81642286Y-103946743D01*
X80737524Y-104422933D02*
X81737524Y-104422933D01*
X81356572Y-104422933D02*
X81404191Y-104518171D01*
X81404191Y-104518171D02*
X81404191Y-104708647D01*
X81404191Y-104708647D02*
X81356572Y-104803885D01*
X81356572Y-104803885D02*
X81308953Y-104851504D01*
X81308953Y-104851504D02*
X81213715Y-104899123D01*
X81213715Y-104899123D02*
X80928001Y-104899123D01*
X80928001Y-104899123D02*
X80832763Y-104851504D01*
X80832763Y-104851504D02*
X80785144Y-104803885D01*
X80785144Y-104803885D02*
X80737524Y-104708647D01*
X80737524Y-104708647D02*
X80737524Y-104518171D01*
X80737524Y-104518171D02*
X80785144Y-104422933D01*
X81404191Y-105756266D02*
X80737524Y-105756266D01*
X81404191Y-105327695D02*
X80880382Y-105327695D01*
X80880382Y-105327695D02*
X80785144Y-105375314D01*
X80785144Y-105375314D02*
X80737524Y-105470552D01*
X80737524Y-105470552D02*
X80737524Y-105613409D01*
X80737524Y-105613409D02*
X80785144Y-105708647D01*
X80785144Y-105708647D02*
X80832763Y-105756266D01*
X81404191Y-106089600D02*
X81404191Y-106470552D01*
X81737524Y-106232457D02*
X80880382Y-106232457D01*
X80880382Y-106232457D02*
X80785144Y-106280076D01*
X80785144Y-106280076D02*
X80737524Y-106375314D01*
X80737524Y-106375314D02*
X80737524Y-106470552D01*
X80737524Y-106803886D02*
X81404191Y-106803886D01*
X81737524Y-106803886D02*
X81689905Y-106756267D01*
X81689905Y-106756267D02*
X81642286Y-106803886D01*
X81642286Y-106803886D02*
X81689905Y-106851505D01*
X81689905Y-106851505D02*
X81737524Y-106803886D01*
X81737524Y-106803886D02*
X81642286Y-106803886D01*
X80737524Y-107422933D02*
X80785144Y-107327695D01*
X80785144Y-107327695D02*
X80832763Y-107280076D01*
X80832763Y-107280076D02*
X80928001Y-107232457D01*
X80928001Y-107232457D02*
X81213715Y-107232457D01*
X81213715Y-107232457D02*
X81308953Y-107280076D01*
X81308953Y-107280076D02*
X81356572Y-107327695D01*
X81356572Y-107327695D02*
X81404191Y-107422933D01*
X81404191Y-107422933D02*
X81404191Y-107565790D01*
X81404191Y-107565790D02*
X81356572Y-107661028D01*
X81356572Y-107661028D02*
X81308953Y-107708647D01*
X81308953Y-107708647D02*
X81213715Y-107756266D01*
X81213715Y-107756266D02*
X80928001Y-107756266D01*
X80928001Y-107756266D02*
X80832763Y-107708647D01*
X80832763Y-107708647D02*
X80785144Y-107661028D01*
X80785144Y-107661028D02*
X80737524Y-107565790D01*
X80737524Y-107565790D02*
X80737524Y-107422933D01*
X81404191Y-108184838D02*
X80737524Y-108184838D01*
X81308953Y-108184838D02*
X81356572Y-108232457D01*
X81356572Y-108232457D02*
X81404191Y-108327695D01*
X81404191Y-108327695D02*
X81404191Y-108470552D01*
X81404191Y-108470552D02*
X81356572Y-108565790D01*
X81356572Y-108565790D02*
X81261334Y-108613409D01*
X81261334Y-108613409D02*
X80737524Y-108613409D01*
X79127580Y-91803884D02*
X80127580Y-91803884D01*
X79127580Y-92232455D02*
X79651390Y-92232455D01*
X79651390Y-92232455D02*
X79746628Y-92184836D01*
X79746628Y-92184836D02*
X79794247Y-92089598D01*
X79794247Y-92089598D02*
X79794247Y-91946741D01*
X79794247Y-91946741D02*
X79746628Y-91851503D01*
X79746628Y-91851503D02*
X79699009Y-91803884D01*
X79794247Y-92565789D02*
X79794247Y-92946741D01*
X80127580Y-92708646D02*
X79270438Y-92708646D01*
X79270438Y-92708646D02*
X79175200Y-92756265D01*
X79175200Y-92756265D02*
X79127580Y-92851503D01*
X79127580Y-92851503D02*
X79127580Y-92946741D01*
X79794247Y-93137218D02*
X79794247Y-93518170D01*
X80127580Y-93280075D02*
X79270438Y-93280075D01*
X79270438Y-93280075D02*
X79175200Y-93327694D01*
X79175200Y-93327694D02*
X79127580Y-93422932D01*
X79127580Y-93422932D02*
X79127580Y-93518170D01*
X79794247Y-93851504D02*
X78794247Y-93851504D01*
X79746628Y-93851504D02*
X79794247Y-93946742D01*
X79794247Y-93946742D02*
X79794247Y-94137218D01*
X79794247Y-94137218D02*
X79746628Y-94232456D01*
X79746628Y-94232456D02*
X79699009Y-94280075D01*
X79699009Y-94280075D02*
X79603771Y-94327694D01*
X79603771Y-94327694D02*
X79318057Y-94327694D01*
X79318057Y-94327694D02*
X79222819Y-94280075D01*
X79222819Y-94280075D02*
X79175200Y-94232456D01*
X79175200Y-94232456D02*
X79127580Y-94137218D01*
X79127580Y-94137218D02*
X79127580Y-93946742D01*
X79127580Y-93946742D02*
X79175200Y-93851504D01*
X79175200Y-94708647D02*
X79127580Y-94803885D01*
X79127580Y-94803885D02*
X79127580Y-94994361D01*
X79127580Y-94994361D02*
X79175200Y-95089599D01*
X79175200Y-95089599D02*
X79270438Y-95137218D01*
X79270438Y-95137218D02*
X79318057Y-95137218D01*
X79318057Y-95137218D02*
X79413295Y-95089599D01*
X79413295Y-95089599D02*
X79460914Y-94994361D01*
X79460914Y-94994361D02*
X79460914Y-94851504D01*
X79460914Y-94851504D02*
X79508533Y-94756266D01*
X79508533Y-94756266D02*
X79603771Y-94708647D01*
X79603771Y-94708647D02*
X79651390Y-94708647D01*
X79651390Y-94708647D02*
X79746628Y-94756266D01*
X79746628Y-94756266D02*
X79794247Y-94851504D01*
X79794247Y-94851504D02*
X79794247Y-94994361D01*
X79794247Y-94994361D02*
X79746628Y-95089599D01*
X79222819Y-95565790D02*
X79175200Y-95613409D01*
X79175200Y-95613409D02*
X79127580Y-95565790D01*
X79127580Y-95565790D02*
X79175200Y-95518171D01*
X79175200Y-95518171D02*
X79222819Y-95565790D01*
X79222819Y-95565790D02*
X79127580Y-95565790D01*
X79746628Y-95565790D02*
X79699009Y-95613409D01*
X79699009Y-95613409D02*
X79651390Y-95565790D01*
X79651390Y-95565790D02*
X79699009Y-95518171D01*
X79699009Y-95518171D02*
X79746628Y-95565790D01*
X79746628Y-95565790D02*
X79651390Y-95565790D01*
X80175200Y-96756265D02*
X78889485Y-95899123D01*
X80175200Y-97803884D02*
X78889485Y-96946742D01*
X79794247Y-98565789D02*
X78984723Y-98565789D01*
X78984723Y-98565789D02*
X78889485Y-98518170D01*
X78889485Y-98518170D02*
X78841866Y-98470551D01*
X78841866Y-98470551D02*
X78794247Y-98375313D01*
X78794247Y-98375313D02*
X78794247Y-98232456D01*
X78794247Y-98232456D02*
X78841866Y-98137218D01*
X79175200Y-98565789D02*
X79127580Y-98470551D01*
X79127580Y-98470551D02*
X79127580Y-98280075D01*
X79127580Y-98280075D02*
X79175200Y-98184837D01*
X79175200Y-98184837D02*
X79222819Y-98137218D01*
X79222819Y-98137218D02*
X79318057Y-98089599D01*
X79318057Y-98089599D02*
X79603771Y-98089599D01*
X79603771Y-98089599D02*
X79699009Y-98137218D01*
X79699009Y-98137218D02*
X79746628Y-98184837D01*
X79746628Y-98184837D02*
X79794247Y-98280075D01*
X79794247Y-98280075D02*
X79794247Y-98470551D01*
X79794247Y-98470551D02*
X79746628Y-98565789D01*
X79127580Y-99041980D02*
X79794247Y-99041980D01*
X80127580Y-99041980D02*
X80079961Y-98994361D01*
X80079961Y-98994361D02*
X80032342Y-99041980D01*
X80032342Y-99041980D02*
X80079961Y-99089599D01*
X80079961Y-99089599D02*
X80127580Y-99041980D01*
X80127580Y-99041980D02*
X80032342Y-99041980D01*
X79794247Y-99375313D02*
X79794247Y-99756265D01*
X80127580Y-99518170D02*
X79270438Y-99518170D01*
X79270438Y-99518170D02*
X79175200Y-99565789D01*
X79175200Y-99565789D02*
X79127580Y-99661027D01*
X79127580Y-99661027D02*
X79127580Y-99756265D01*
X79127580Y-100089599D02*
X80127580Y-100089599D01*
X79127580Y-100518170D02*
X79651390Y-100518170D01*
X79651390Y-100518170D02*
X79746628Y-100470551D01*
X79746628Y-100470551D02*
X79794247Y-100375313D01*
X79794247Y-100375313D02*
X79794247Y-100232456D01*
X79794247Y-100232456D02*
X79746628Y-100137218D01*
X79746628Y-100137218D02*
X79699009Y-100089599D01*
X79794247Y-101422932D02*
X79127580Y-101422932D01*
X79794247Y-100994361D02*
X79270438Y-100994361D01*
X79270438Y-100994361D02*
X79175200Y-101041980D01*
X79175200Y-101041980D02*
X79127580Y-101137218D01*
X79127580Y-101137218D02*
X79127580Y-101280075D01*
X79127580Y-101280075D02*
X79175200Y-101375313D01*
X79175200Y-101375313D02*
X79222819Y-101422932D01*
X79127580Y-101899123D02*
X80127580Y-101899123D01*
X79746628Y-101899123D02*
X79794247Y-101994361D01*
X79794247Y-101994361D02*
X79794247Y-102184837D01*
X79794247Y-102184837D02*
X79746628Y-102280075D01*
X79746628Y-102280075D02*
X79699009Y-102327694D01*
X79699009Y-102327694D02*
X79603771Y-102375313D01*
X79603771Y-102375313D02*
X79318057Y-102375313D01*
X79318057Y-102375313D02*
X79222819Y-102327694D01*
X79222819Y-102327694D02*
X79175200Y-102280075D01*
X79175200Y-102280075D02*
X79127580Y-102184837D01*
X79127580Y-102184837D02*
X79127580Y-101994361D01*
X79127580Y-101994361D02*
X79175200Y-101899123D01*
X79222819Y-102803885D02*
X79175200Y-102851504D01*
X79175200Y-102851504D02*
X79127580Y-102803885D01*
X79127580Y-102803885D02*
X79175200Y-102756266D01*
X79175200Y-102756266D02*
X79222819Y-102803885D01*
X79222819Y-102803885D02*
X79127580Y-102803885D01*
X79175200Y-103708646D02*
X79127580Y-103613408D01*
X79127580Y-103613408D02*
X79127580Y-103422932D01*
X79127580Y-103422932D02*
X79175200Y-103327694D01*
X79175200Y-103327694D02*
X79222819Y-103280075D01*
X79222819Y-103280075D02*
X79318057Y-103232456D01*
X79318057Y-103232456D02*
X79603771Y-103232456D01*
X79603771Y-103232456D02*
X79699009Y-103280075D01*
X79699009Y-103280075D02*
X79746628Y-103327694D01*
X79746628Y-103327694D02*
X79794247Y-103422932D01*
X79794247Y-103422932D02*
X79794247Y-103613408D01*
X79794247Y-103613408D02*
X79746628Y-103708646D01*
X79127580Y-104280075D02*
X79175200Y-104184837D01*
X79175200Y-104184837D02*
X79222819Y-104137218D01*
X79222819Y-104137218D02*
X79318057Y-104089599D01*
X79318057Y-104089599D02*
X79603771Y-104089599D01*
X79603771Y-104089599D02*
X79699009Y-104137218D01*
X79699009Y-104137218D02*
X79746628Y-104184837D01*
X79746628Y-104184837D02*
X79794247Y-104280075D01*
X79794247Y-104280075D02*
X79794247Y-104422932D01*
X79794247Y-104422932D02*
X79746628Y-104518170D01*
X79746628Y-104518170D02*
X79699009Y-104565789D01*
X79699009Y-104565789D02*
X79603771Y-104613408D01*
X79603771Y-104613408D02*
X79318057Y-104613408D01*
X79318057Y-104613408D02*
X79222819Y-104565789D01*
X79222819Y-104565789D02*
X79175200Y-104518170D01*
X79175200Y-104518170D02*
X79127580Y-104422932D01*
X79127580Y-104422932D02*
X79127580Y-104280075D01*
X79127580Y-105041980D02*
X79794247Y-105041980D01*
X79699009Y-105041980D02*
X79746628Y-105089599D01*
X79746628Y-105089599D02*
X79794247Y-105184837D01*
X79794247Y-105184837D02*
X79794247Y-105327694D01*
X79794247Y-105327694D02*
X79746628Y-105422932D01*
X79746628Y-105422932D02*
X79651390Y-105470551D01*
X79651390Y-105470551D02*
X79127580Y-105470551D01*
X79651390Y-105470551D02*
X79746628Y-105518170D01*
X79746628Y-105518170D02*
X79794247Y-105613408D01*
X79794247Y-105613408D02*
X79794247Y-105756265D01*
X79794247Y-105756265D02*
X79746628Y-105851504D01*
X79746628Y-105851504D02*
X79651390Y-105899123D01*
X79651390Y-105899123D02*
X79127580Y-105899123D01*
X80175200Y-107089598D02*
X78889485Y-106232456D01*
X79794247Y-107327694D02*
X79127580Y-107518170D01*
X79127580Y-107518170D02*
X79603771Y-107708646D01*
X79603771Y-107708646D02*
X79127580Y-107899122D01*
X79127580Y-107899122D02*
X79794247Y-108089598D01*
X79127580Y-108899122D02*
X79651390Y-108899122D01*
X79651390Y-108899122D02*
X79746628Y-108851503D01*
X79746628Y-108851503D02*
X79794247Y-108756265D01*
X79794247Y-108756265D02*
X79794247Y-108565789D01*
X79794247Y-108565789D02*
X79746628Y-108470551D01*
X79175200Y-108899122D02*
X79127580Y-108803884D01*
X79127580Y-108803884D02*
X79127580Y-108565789D01*
X79127580Y-108565789D02*
X79175200Y-108470551D01*
X79175200Y-108470551D02*
X79270438Y-108422932D01*
X79270438Y-108422932D02*
X79365676Y-108422932D01*
X79365676Y-108422932D02*
X79460914Y-108470551D01*
X79460914Y-108470551D02*
X79508533Y-108565789D01*
X79508533Y-108565789D02*
X79508533Y-108803884D01*
X79508533Y-108803884D02*
X79556152Y-108899122D01*
X79794247Y-109232456D02*
X79794247Y-109613408D01*
X80127580Y-109375313D02*
X79270438Y-109375313D01*
X79270438Y-109375313D02*
X79175200Y-109422932D01*
X79175200Y-109422932D02*
X79127580Y-109518170D01*
X79127580Y-109518170D02*
X79127580Y-109613408D01*
X79794247Y-109803885D02*
X79794247Y-110184837D01*
X80127580Y-109946742D02*
X79270438Y-109946742D01*
X79270438Y-109946742D02*
X79175200Y-109994361D01*
X79175200Y-109994361D02*
X79127580Y-110089599D01*
X79127580Y-110089599D02*
X79127580Y-110184837D01*
X79175200Y-110470552D02*
X79127580Y-110565790D01*
X79127580Y-110565790D02*
X79127580Y-110756266D01*
X79127580Y-110756266D02*
X79175200Y-110851504D01*
X79175200Y-110851504D02*
X79270438Y-110899123D01*
X79270438Y-110899123D02*
X79318057Y-110899123D01*
X79318057Y-110899123D02*
X79413295Y-110851504D01*
X79413295Y-110851504D02*
X79460914Y-110756266D01*
X79460914Y-110756266D02*
X79460914Y-110613409D01*
X79460914Y-110613409D02*
X79508533Y-110518171D01*
X79508533Y-110518171D02*
X79603771Y-110470552D01*
X79603771Y-110470552D02*
X79651390Y-110470552D01*
X79651390Y-110470552D02*
X79746628Y-110518171D01*
X79746628Y-110518171D02*
X79794247Y-110613409D01*
X79794247Y-110613409D02*
X79794247Y-110756266D01*
X79794247Y-110756266D02*
X79746628Y-110851504D01*
X79794247Y-111232457D02*
X79127580Y-111470552D01*
X79794247Y-111708647D02*
X79127580Y-111470552D01*
X79127580Y-111470552D02*
X78889485Y-111375314D01*
X78889485Y-111375314D02*
X78841866Y-111327695D01*
X78841866Y-111327695D02*
X78794247Y-111232457D01*
X80175200Y-112803885D02*
X78889485Y-111946743D01*
X79127580Y-113613409D02*
X79127580Y-113137219D01*
X79127580Y-113137219D02*
X80127580Y-113137219D01*
X79651390Y-113946743D02*
X79651390Y-114280076D01*
X79127580Y-114422933D02*
X79127580Y-113946743D01*
X79127580Y-113946743D02*
X80127580Y-113946743D01*
X80127580Y-113946743D02*
X80127580Y-114422933D01*
X79127580Y-114851505D02*
X80127580Y-114851505D01*
X80127580Y-114851505D02*
X80127580Y-115089600D01*
X80127580Y-115089600D02*
X80079961Y-115232457D01*
X80079961Y-115232457D02*
X79984723Y-115327695D01*
X79984723Y-115327695D02*
X79889485Y-115375314D01*
X79889485Y-115375314D02*
X79699009Y-115422933D01*
X79699009Y-115422933D02*
X79556152Y-115422933D01*
X79556152Y-115422933D02*
X79365676Y-115375314D01*
X79365676Y-115375314D02*
X79270438Y-115327695D01*
X79270438Y-115327695D02*
X79175200Y-115232457D01*
X79175200Y-115232457D02*
X79127580Y-115089600D01*
X79127580Y-115089600D02*
X79127580Y-114851505D01*
X79032342Y-115613410D02*
X79032342Y-116375314D01*
X79127580Y-116613410D02*
X80127580Y-116613410D01*
X80127580Y-116613410D02*
X80127580Y-116994362D01*
X80127580Y-116994362D02*
X80079961Y-117089600D01*
X80079961Y-117089600D02*
X80032342Y-117137219D01*
X80032342Y-117137219D02*
X79937104Y-117184838D01*
X79937104Y-117184838D02*
X79794247Y-117184838D01*
X79794247Y-117184838D02*
X79699009Y-117137219D01*
X79699009Y-117137219D02*
X79651390Y-117089600D01*
X79651390Y-117089600D02*
X79603771Y-116994362D01*
X79603771Y-116994362D02*
X79603771Y-116613410D01*
X79127580Y-117756267D02*
X79175200Y-117661029D01*
X79175200Y-117661029D02*
X79222819Y-117613410D01*
X79222819Y-117613410D02*
X79318057Y-117565791D01*
X79318057Y-117565791D02*
X79603771Y-117565791D01*
X79603771Y-117565791D02*
X79699009Y-117613410D01*
X79699009Y-117613410D02*
X79746628Y-117661029D01*
X79746628Y-117661029D02*
X79794247Y-117756267D01*
X79794247Y-117756267D02*
X79794247Y-117899124D01*
X79794247Y-117899124D02*
X79746628Y-117994362D01*
X79746628Y-117994362D02*
X79699009Y-118041981D01*
X79699009Y-118041981D02*
X79603771Y-118089600D01*
X79603771Y-118089600D02*
X79318057Y-118089600D01*
X79318057Y-118089600D02*
X79222819Y-118041981D01*
X79222819Y-118041981D02*
X79175200Y-117994362D01*
X79175200Y-117994362D02*
X79127580Y-117899124D01*
X79127580Y-117899124D02*
X79127580Y-117756267D01*
X79794247Y-118422934D02*
X79127580Y-118613410D01*
X79127580Y-118613410D02*
X79603771Y-118803886D01*
X79603771Y-118803886D02*
X79127580Y-118994362D01*
X79127580Y-118994362D02*
X79794247Y-119184838D01*
X79175200Y-119946743D02*
X79127580Y-119851505D01*
X79127580Y-119851505D02*
X79127580Y-119661029D01*
X79127580Y-119661029D02*
X79175200Y-119565791D01*
X79175200Y-119565791D02*
X79270438Y-119518172D01*
X79270438Y-119518172D02*
X79651390Y-119518172D01*
X79651390Y-119518172D02*
X79746628Y-119565791D01*
X79746628Y-119565791D02*
X79794247Y-119661029D01*
X79794247Y-119661029D02*
X79794247Y-119851505D01*
X79794247Y-119851505D02*
X79746628Y-119946743D01*
X79746628Y-119946743D02*
X79651390Y-119994362D01*
X79651390Y-119994362D02*
X79556152Y-119994362D01*
X79556152Y-119994362D02*
X79460914Y-119518172D01*
X79127580Y-120422934D02*
X79794247Y-120422934D01*
X79603771Y-120422934D02*
X79699009Y-120470553D01*
X79699009Y-120470553D02*
X79746628Y-120518172D01*
X79746628Y-120518172D02*
X79794247Y-120613410D01*
X79794247Y-120613410D02*
X79794247Y-120708648D01*
X79032342Y-120803887D02*
X79032342Y-121565791D01*
X79127580Y-122232458D02*
X80127580Y-122232458D01*
X79175200Y-122232458D02*
X79127580Y-122137220D01*
X79127580Y-122137220D02*
X79127580Y-121946744D01*
X79127580Y-121946744D02*
X79175200Y-121851506D01*
X79175200Y-121851506D02*
X79222819Y-121803887D01*
X79222819Y-121803887D02*
X79318057Y-121756268D01*
X79318057Y-121756268D02*
X79603771Y-121756268D01*
X79603771Y-121756268D02*
X79699009Y-121803887D01*
X79699009Y-121803887D02*
X79746628Y-121851506D01*
X79746628Y-121851506D02*
X79794247Y-121946744D01*
X79794247Y-121946744D02*
X79794247Y-122137220D01*
X79794247Y-122137220D02*
X79746628Y-122232458D01*
X79127580Y-122708649D02*
X79794247Y-122708649D01*
X80127580Y-122708649D02*
X80079961Y-122661030D01*
X80079961Y-122661030D02*
X80032342Y-122708649D01*
X80032342Y-122708649D02*
X80079961Y-122756268D01*
X80079961Y-122756268D02*
X80127580Y-122708649D01*
X80127580Y-122708649D02*
X80032342Y-122708649D01*
X79175200Y-123137220D02*
X79127580Y-123232458D01*
X79127580Y-123232458D02*
X79127580Y-123422934D01*
X79127580Y-123422934D02*
X79175200Y-123518172D01*
X79175200Y-123518172D02*
X79270438Y-123565791D01*
X79270438Y-123565791D02*
X79318057Y-123565791D01*
X79318057Y-123565791D02*
X79413295Y-123518172D01*
X79413295Y-123518172D02*
X79460914Y-123422934D01*
X79460914Y-123422934D02*
X79460914Y-123280077D01*
X79460914Y-123280077D02*
X79508533Y-123184839D01*
X79508533Y-123184839D02*
X79603771Y-123137220D01*
X79603771Y-123137220D02*
X79651390Y-123137220D01*
X79651390Y-123137220D02*
X79746628Y-123184839D01*
X79746628Y-123184839D02*
X79794247Y-123280077D01*
X79794247Y-123280077D02*
X79794247Y-123422934D01*
X79794247Y-123422934D02*
X79746628Y-123518172D01*
X79794247Y-123851506D02*
X79794247Y-124232458D01*
X80127580Y-123994363D02*
X79270438Y-123994363D01*
X79270438Y-123994363D02*
X79175200Y-124041982D01*
X79175200Y-124041982D02*
X79127580Y-124137220D01*
X79127580Y-124137220D02*
X79127580Y-124232458D01*
X79127580Y-124565792D02*
X79794247Y-124565792D01*
X79603771Y-124565792D02*
X79699009Y-124613411D01*
X79699009Y-124613411D02*
X79746628Y-124661030D01*
X79746628Y-124661030D02*
X79794247Y-124756268D01*
X79794247Y-124756268D02*
X79794247Y-124851506D01*
X79127580Y-125184840D02*
X79794247Y-125184840D01*
X80127580Y-125184840D02*
X80079961Y-125137221D01*
X80079961Y-125137221D02*
X80032342Y-125184840D01*
X80032342Y-125184840D02*
X80079961Y-125232459D01*
X80079961Y-125232459D02*
X80127580Y-125184840D01*
X80127580Y-125184840D02*
X80032342Y-125184840D01*
X79127580Y-125661030D02*
X80127580Y-125661030D01*
X79746628Y-125661030D02*
X79794247Y-125756268D01*
X79794247Y-125756268D02*
X79794247Y-125946744D01*
X79794247Y-125946744D02*
X79746628Y-126041982D01*
X79746628Y-126041982D02*
X79699009Y-126089601D01*
X79699009Y-126089601D02*
X79603771Y-126137220D01*
X79603771Y-126137220D02*
X79318057Y-126137220D01*
X79318057Y-126137220D02*
X79222819Y-126089601D01*
X79222819Y-126089601D02*
X79175200Y-126041982D01*
X79175200Y-126041982D02*
X79127580Y-125946744D01*
X79127580Y-125946744D02*
X79127580Y-125756268D01*
X79127580Y-125756268D02*
X79175200Y-125661030D01*
X79794247Y-126994363D02*
X79127580Y-126994363D01*
X79794247Y-126565792D02*
X79270438Y-126565792D01*
X79270438Y-126565792D02*
X79175200Y-126613411D01*
X79175200Y-126613411D02*
X79127580Y-126708649D01*
X79127580Y-126708649D02*
X79127580Y-126851506D01*
X79127580Y-126851506D02*
X79175200Y-126946744D01*
X79175200Y-126946744D02*
X79222819Y-126994363D01*
X79794247Y-127327697D02*
X79794247Y-127708649D01*
X80127580Y-127470554D02*
X79270438Y-127470554D01*
X79270438Y-127470554D02*
X79175200Y-127518173D01*
X79175200Y-127518173D02*
X79127580Y-127613411D01*
X79127580Y-127613411D02*
X79127580Y-127708649D01*
X79127580Y-128041983D02*
X79794247Y-128041983D01*
X80127580Y-128041983D02*
X80079961Y-127994364D01*
X80079961Y-127994364D02*
X80032342Y-128041983D01*
X80032342Y-128041983D02*
X80079961Y-128089602D01*
X80079961Y-128089602D02*
X80127580Y-128041983D01*
X80127580Y-128041983D02*
X80032342Y-128041983D01*
X79127580Y-128661030D02*
X79175200Y-128565792D01*
X79175200Y-128565792D02*
X79222819Y-128518173D01*
X79222819Y-128518173D02*
X79318057Y-128470554D01*
X79318057Y-128470554D02*
X79603771Y-128470554D01*
X79603771Y-128470554D02*
X79699009Y-128518173D01*
X79699009Y-128518173D02*
X79746628Y-128565792D01*
X79746628Y-128565792D02*
X79794247Y-128661030D01*
X79794247Y-128661030D02*
X79794247Y-128803887D01*
X79794247Y-128803887D02*
X79746628Y-128899125D01*
X79746628Y-128899125D02*
X79699009Y-128946744D01*
X79699009Y-128946744D02*
X79603771Y-128994363D01*
X79603771Y-128994363D02*
X79318057Y-128994363D01*
X79318057Y-128994363D02*
X79222819Y-128946744D01*
X79222819Y-128946744D02*
X79175200Y-128899125D01*
X79175200Y-128899125D02*
X79127580Y-128803887D01*
X79127580Y-128803887D02*
X79127580Y-128661030D01*
X79794247Y-129422935D02*
X79127580Y-129422935D01*
X79699009Y-129422935D02*
X79746628Y-129470554D01*
X79746628Y-129470554D02*
X79794247Y-129565792D01*
X79794247Y-129565792D02*
X79794247Y-129708649D01*
X79794247Y-129708649D02*
X79746628Y-129803887D01*
X79746628Y-129803887D02*
X79651390Y-129851506D01*
X79651390Y-129851506D02*
X79127580Y-129851506D01*
X124303884Y-84491466D02*
X125065789Y-84491466D01*
X124684836Y-84872419D02*
X124684836Y-84110514D01*
X95934211Y-136661466D02*
X96696116Y-136661466D01*
X123934211Y-136661466D02*
X124696116Y-136661466D01*
X109934211Y-136661466D02*
X110696116Y-136661466D01*
X85934211Y-84491466D02*
X86696116Y-84491466D01*
X138303884Y-84491466D02*
X139065789Y-84491466D01*
X138684836Y-84872419D02*
X138684836Y-84110514D01*
X137803884Y-118161466D02*
X138565789Y-118161466D01*
X138184836Y-118542419D02*
X138184836Y-117780514D01*
X126653884Y-136293966D02*
X127415789Y-136293966D01*
X127034836Y-136674919D02*
X127034836Y-135913014D01*
X84653884Y-136293966D02*
X85415789Y-136293966D01*
X85034836Y-136674919D02*
X85034836Y-135913014D01*
D11*
X132626666Y-94954819D02*
X132626666Y-95669104D01*
X132626666Y-95669104D02*
X132579047Y-95811961D01*
X132579047Y-95811961D02*
X132483809Y-95907200D01*
X132483809Y-95907200D02*
X132340952Y-95954819D01*
X132340952Y-95954819D02*
X132245714Y-95954819D01*
X133531428Y-95288152D02*
X133531428Y-95954819D01*
X133293333Y-94907200D02*
X133055238Y-95621485D01*
X133055238Y-95621485D02*
X133674285Y-95621485D01*
X134566666Y-104431009D02*
X134233333Y-104431009D01*
X134233333Y-104954819D02*
X134233333Y-103954819D01*
X134233333Y-103954819D02*
X134709523Y-103954819D01*
X135519047Y-104288152D02*
X135519047Y-104954819D01*
X135280952Y-103907200D02*
X135042857Y-104621485D01*
X135042857Y-104621485D02*
X135661904Y-104621485D01*
X118206666Y-125177319D02*
X118206666Y-125891604D01*
X118206666Y-125891604D02*
X118159047Y-126034461D01*
X118159047Y-126034461D02*
X118063809Y-126129700D01*
X118063809Y-126129700D02*
X117920952Y-126177319D01*
X117920952Y-126177319D02*
X117825714Y-126177319D01*
X118587619Y-125177319D02*
X119254285Y-125177319D01*
X119254285Y-125177319D02*
X118825714Y-126177319D01*
X100036905Y-104994819D02*
X100036905Y-103994819D01*
X100036905Y-103994819D02*
X100275000Y-103994819D01*
X100275000Y-103994819D02*
X100417857Y-104042438D01*
X100417857Y-104042438D02*
X100513095Y-104137676D01*
X100513095Y-104137676D02*
X100560714Y-104232914D01*
X100560714Y-104232914D02*
X100608333Y-104423390D01*
X100608333Y-104423390D02*
X100608333Y-104566247D01*
X100608333Y-104566247D02*
X100560714Y-104756723D01*
X100560714Y-104756723D02*
X100513095Y-104851961D01*
X100513095Y-104851961D02*
X100417857Y-104947200D01*
X100417857Y-104947200D02*
X100275000Y-104994819D01*
X100275000Y-104994819D02*
X100036905Y-104994819D01*
X100989286Y-104090057D02*
X101036905Y-104042438D01*
X101036905Y-104042438D02*
X101132143Y-103994819D01*
X101132143Y-103994819D02*
X101370238Y-103994819D01*
X101370238Y-103994819D02*
X101465476Y-104042438D01*
X101465476Y-104042438D02*
X101513095Y-104090057D01*
X101513095Y-104090057D02*
X101560714Y-104185295D01*
X101560714Y-104185295D02*
X101560714Y-104280533D01*
X101560714Y-104280533D02*
X101513095Y-104423390D01*
X101513095Y-104423390D02*
X100941667Y-104994819D01*
X100941667Y-104994819D02*
X101560714Y-104994819D01*
X96857142Y-105454819D02*
X96380952Y-105454819D01*
X96380952Y-105454819D02*
X96380952Y-104454819D01*
X97190476Y-104931009D02*
X97523809Y-104931009D01*
X97666666Y-105454819D02*
X97190476Y-105454819D01*
X97190476Y-105454819D02*
X97190476Y-104454819D01*
X97190476Y-104454819D02*
X97666666Y-104454819D01*
X98095238Y-105454819D02*
X98095238Y-104454819D01*
X98095238Y-104454819D02*
X98333333Y-104454819D01*
X98333333Y-104454819D02*
X98476190Y-104502438D01*
X98476190Y-104502438D02*
X98571428Y-104597676D01*
X98571428Y-104597676D02*
X98619047Y-104692914D01*
X98619047Y-104692914D02*
X98666666Y-104883390D01*
X98666666Y-104883390D02*
X98666666Y-105026247D01*
X98666666Y-105026247D02*
X98619047Y-105216723D01*
X98619047Y-105216723D02*
X98571428Y-105311961D01*
X98571428Y-105311961D02*
X98476190Y-105407200D01*
X98476190Y-105407200D02*
X98333333Y-105454819D01*
X98333333Y-105454819D02*
X98095238Y-105454819D01*
X100536905Y-111994819D02*
X100536905Y-110994819D01*
X100536905Y-110994819D02*
X100775000Y-110994819D01*
X100775000Y-110994819D02*
X100917857Y-111042438D01*
X100917857Y-111042438D02*
X101013095Y-111137676D01*
X101013095Y-111137676D02*
X101060714Y-111232914D01*
X101060714Y-111232914D02*
X101108333Y-111423390D01*
X101108333Y-111423390D02*
X101108333Y-111566247D01*
X101108333Y-111566247D02*
X101060714Y-111756723D01*
X101060714Y-111756723D02*
X101013095Y-111851961D01*
X101013095Y-111851961D02*
X100917857Y-111947200D01*
X100917857Y-111947200D02*
X100775000Y-111994819D01*
X100775000Y-111994819D02*
X100536905Y-111994819D01*
X101965476Y-110994819D02*
X101775000Y-110994819D01*
X101775000Y-110994819D02*
X101679762Y-111042438D01*
X101679762Y-111042438D02*
X101632143Y-111090057D01*
X101632143Y-111090057D02*
X101536905Y-111232914D01*
X101536905Y-111232914D02*
X101489286Y-111423390D01*
X101489286Y-111423390D02*
X101489286Y-111804342D01*
X101489286Y-111804342D02*
X101536905Y-111899580D01*
X101536905Y-111899580D02*
X101584524Y-111947200D01*
X101584524Y-111947200D02*
X101679762Y-111994819D01*
X101679762Y-111994819D02*
X101870238Y-111994819D01*
X101870238Y-111994819D02*
X101965476Y-111947200D01*
X101965476Y-111947200D02*
X102013095Y-111899580D01*
X102013095Y-111899580D02*
X102060714Y-111804342D01*
X102060714Y-111804342D02*
X102060714Y-111566247D01*
X102060714Y-111566247D02*
X102013095Y-111471009D01*
X102013095Y-111471009D02*
X101965476Y-111423390D01*
X101965476Y-111423390D02*
X101870238Y-111375771D01*
X101870238Y-111375771D02*
X101679762Y-111375771D01*
X101679762Y-111375771D02*
X101584524Y-111423390D01*
X101584524Y-111423390D02*
X101536905Y-111471009D01*
X101536905Y-111471009D02*
X101489286Y-111566247D01*
X100632142Y-117914819D02*
X100155952Y-117914819D01*
X100155952Y-117914819D02*
X100155952Y-116914819D01*
X100965476Y-117391009D02*
X101298809Y-117391009D01*
X101441666Y-117914819D02*
X100965476Y-117914819D01*
X100965476Y-117914819D02*
X100965476Y-116914819D01*
X100965476Y-116914819D02*
X101441666Y-116914819D01*
X101870238Y-117914819D02*
X101870238Y-116914819D01*
X101870238Y-116914819D02*
X102108333Y-116914819D01*
X102108333Y-116914819D02*
X102251190Y-116962438D01*
X102251190Y-116962438D02*
X102346428Y-117057676D01*
X102346428Y-117057676D02*
X102394047Y-117152914D01*
X102394047Y-117152914D02*
X102441666Y-117343390D01*
X102441666Y-117343390D02*
X102441666Y-117486247D01*
X102441666Y-117486247D02*
X102394047Y-117676723D01*
X102394047Y-117676723D02*
X102346428Y-117771961D01*
X102346428Y-117771961D02*
X102251190Y-117867200D01*
X102251190Y-117867200D02*
X102108333Y-117914819D01*
X102108333Y-117914819D02*
X101870238Y-117914819D01*
X119566666Y-100431009D02*
X119233333Y-100431009D01*
X119233333Y-100954819D02*
X119233333Y-99954819D01*
X119233333Y-99954819D02*
X119709523Y-99954819D01*
X119995238Y-99954819D02*
X120614285Y-99954819D01*
X120614285Y-99954819D02*
X120280952Y-100335771D01*
X120280952Y-100335771D02*
X120423809Y-100335771D01*
X120423809Y-100335771D02*
X120519047Y-100383390D01*
X120519047Y-100383390D02*
X120566666Y-100431009D01*
X120566666Y-100431009D02*
X120614285Y-100526247D01*
X120614285Y-100526247D02*
X120614285Y-100764342D01*
X120614285Y-100764342D02*
X120566666Y-100859580D01*
X120566666Y-100859580D02*
X120519047Y-100907200D01*
X120519047Y-100907200D02*
X120423809Y-100954819D01*
X120423809Y-100954819D02*
X120138095Y-100954819D01*
X120138095Y-100954819D02*
X120042857Y-100907200D01*
X120042857Y-100907200D02*
X119995238Y-100859580D01*
X114306905Y-111994819D02*
X114306905Y-110994819D01*
X114306905Y-110994819D02*
X114545000Y-110994819D01*
X114545000Y-110994819D02*
X114687857Y-111042438D01*
X114687857Y-111042438D02*
X114783095Y-111137676D01*
X114783095Y-111137676D02*
X114830714Y-111232914D01*
X114830714Y-111232914D02*
X114878333Y-111423390D01*
X114878333Y-111423390D02*
X114878333Y-111566247D01*
X114878333Y-111566247D02*
X114830714Y-111756723D01*
X114830714Y-111756723D02*
X114783095Y-111851961D01*
X114783095Y-111851961D02*
X114687857Y-111947200D01*
X114687857Y-111947200D02*
X114545000Y-111994819D01*
X114545000Y-111994819D02*
X114306905Y-111994819D01*
X115211667Y-110994819D02*
X115878333Y-110994819D01*
X115878333Y-110994819D02*
X115449762Y-111994819D01*
X114402142Y-117914819D02*
X113925952Y-117914819D01*
X113925952Y-117914819D02*
X113925952Y-116914819D01*
X114735476Y-117391009D02*
X115068809Y-117391009D01*
X115211666Y-117914819D02*
X114735476Y-117914819D01*
X114735476Y-117914819D02*
X114735476Y-116914819D01*
X114735476Y-116914819D02*
X115211666Y-116914819D01*
X115640238Y-117914819D02*
X115640238Y-116914819D01*
X115640238Y-116914819D02*
X115878333Y-116914819D01*
X115878333Y-116914819D02*
X116021190Y-116962438D01*
X116021190Y-116962438D02*
X116116428Y-117057676D01*
X116116428Y-117057676D02*
X116164047Y-117152914D01*
X116164047Y-117152914D02*
X116211666Y-117343390D01*
X116211666Y-117343390D02*
X116211666Y-117486247D01*
X116211666Y-117486247D02*
X116164047Y-117676723D01*
X116164047Y-117676723D02*
X116116428Y-117771961D01*
X116116428Y-117771961D02*
X116021190Y-117867200D01*
X116021190Y-117867200D02*
X115878333Y-117914819D01*
X115878333Y-117914819D02*
X115640238Y-117914819D01*
X104666666Y-126431009D02*
X104333333Y-126431009D01*
X104333333Y-126954819D02*
X104333333Y-125954819D01*
X104333333Y-125954819D02*
X104809523Y-125954819D01*
X105619047Y-125954819D02*
X105428571Y-125954819D01*
X105428571Y-125954819D02*
X105333333Y-126002438D01*
X105333333Y-126002438D02*
X105285714Y-126050057D01*
X105285714Y-126050057D02*
X105190476Y-126192914D01*
X105190476Y-126192914D02*
X105142857Y-126383390D01*
X105142857Y-126383390D02*
X105142857Y-126764342D01*
X105142857Y-126764342D02*
X105190476Y-126859580D01*
X105190476Y-126859580D02*
X105238095Y-126907200D01*
X105238095Y-126907200D02*
X105333333Y-126954819D01*
X105333333Y-126954819D02*
X105523809Y-126954819D01*
X105523809Y-126954819D02*
X105619047Y-126907200D01*
X105619047Y-126907200D02*
X105666666Y-126859580D01*
X105666666Y-126859580D02*
X105714285Y-126764342D01*
X105714285Y-126764342D02*
X105714285Y-126526247D01*
X105714285Y-126526247D02*
X105666666Y-126431009D01*
X105666666Y-126431009D02*
X105619047Y-126383390D01*
X105619047Y-126383390D02*
X105523809Y-126335771D01*
X105523809Y-126335771D02*
X105333333Y-126335771D01*
X105333333Y-126335771D02*
X105238095Y-126383390D01*
X105238095Y-126383390D02*
X105190476Y-126431009D01*
X105190476Y-126431009D02*
X105142857Y-126526247D01*
X118626666Y-94954819D02*
X118626666Y-95669104D01*
X118626666Y-95669104D02*
X118579047Y-95811961D01*
X118579047Y-95811961D02*
X118483809Y-95907200D01*
X118483809Y-95907200D02*
X118340952Y-95954819D01*
X118340952Y-95954819D02*
X118245714Y-95954819D01*
X119007619Y-94954819D02*
X119626666Y-94954819D01*
X119626666Y-94954819D02*
X119293333Y-95335771D01*
X119293333Y-95335771D02*
X119436190Y-95335771D01*
X119436190Y-95335771D02*
X119531428Y-95383390D01*
X119531428Y-95383390D02*
X119579047Y-95431009D01*
X119579047Y-95431009D02*
X119626666Y-95526247D01*
X119626666Y-95526247D02*
X119626666Y-95764342D01*
X119626666Y-95764342D02*
X119579047Y-95859580D01*
X119579047Y-95859580D02*
X119531428Y-95907200D01*
X119531428Y-95907200D02*
X119436190Y-95954819D01*
X119436190Y-95954819D02*
X119150476Y-95954819D01*
X119150476Y-95954819D02*
X119055238Y-95907200D01*
X119055238Y-95907200D02*
X119007619Y-95859580D01*
X93719761Y-105584819D02*
X93386428Y-105108628D01*
X93148333Y-105584819D02*
X93148333Y-104584819D01*
X93148333Y-104584819D02*
X93529285Y-104584819D01*
X93529285Y-104584819D02*
X93624523Y-104632438D01*
X93624523Y-104632438D02*
X93672142Y-104680057D01*
X93672142Y-104680057D02*
X93719761Y-104775295D01*
X93719761Y-104775295D02*
X93719761Y-104918152D01*
X93719761Y-104918152D02*
X93672142Y-105013390D01*
X93672142Y-105013390D02*
X93624523Y-105061009D01*
X93624523Y-105061009D02*
X93529285Y-105108628D01*
X93529285Y-105108628D02*
X93148333Y-105108628D01*
X94529285Y-105537200D02*
X94434047Y-105584819D01*
X94434047Y-105584819D02*
X94243571Y-105584819D01*
X94243571Y-105584819D02*
X94148333Y-105537200D01*
X94148333Y-105537200D02*
X94100714Y-105441961D01*
X94100714Y-105441961D02*
X94100714Y-105061009D01*
X94100714Y-105061009D02*
X94148333Y-104965771D01*
X94148333Y-104965771D02*
X94243571Y-104918152D01*
X94243571Y-104918152D02*
X94434047Y-104918152D01*
X94434047Y-104918152D02*
X94529285Y-104965771D01*
X94529285Y-104965771D02*
X94576904Y-105061009D01*
X94576904Y-105061009D02*
X94576904Y-105156247D01*
X94576904Y-105156247D02*
X94100714Y-105251485D01*
X95529285Y-105584819D02*
X94957857Y-105584819D01*
X95243571Y-105584819D02*
X95243571Y-104584819D01*
X95243571Y-104584819D02*
X95148333Y-104727676D01*
X95148333Y-104727676D02*
X95053095Y-104822914D01*
X95053095Y-104822914D02*
X94957857Y-104870533D01*
X93743571Y-110324819D02*
X93410238Y-109848628D01*
X93172143Y-110324819D02*
X93172143Y-109324819D01*
X93172143Y-109324819D02*
X93553095Y-109324819D01*
X93553095Y-109324819D02*
X93648333Y-109372438D01*
X93648333Y-109372438D02*
X93695952Y-109420057D01*
X93695952Y-109420057D02*
X93743571Y-109515295D01*
X93743571Y-109515295D02*
X93743571Y-109658152D01*
X93743571Y-109658152D02*
X93695952Y-109753390D01*
X93695952Y-109753390D02*
X93648333Y-109801009D01*
X93648333Y-109801009D02*
X93553095Y-109848628D01*
X93553095Y-109848628D02*
X93172143Y-109848628D01*
X94695952Y-110324819D02*
X94124524Y-110324819D01*
X94410238Y-110324819D02*
X94410238Y-109324819D01*
X94410238Y-109324819D02*
X94315000Y-109467676D01*
X94315000Y-109467676D02*
X94219762Y-109562914D01*
X94219762Y-109562914D02*
X94124524Y-109610533D01*
X95124524Y-110324819D02*
X95124524Y-109324819D01*
X95219762Y-109943866D02*
X95505476Y-110324819D01*
X95505476Y-109658152D02*
X95124524Y-110039104D01*
X104251666Y-125454819D02*
X104251666Y-126169104D01*
X104251666Y-126169104D02*
X104204047Y-126311961D01*
X104204047Y-126311961D02*
X104108809Y-126407200D01*
X104108809Y-126407200D02*
X103965952Y-126454819D01*
X103965952Y-126454819D02*
X103870714Y-126454819D01*
X105156428Y-125454819D02*
X104965952Y-125454819D01*
X104965952Y-125454819D02*
X104870714Y-125502438D01*
X104870714Y-125502438D02*
X104823095Y-125550057D01*
X104823095Y-125550057D02*
X104727857Y-125692914D01*
X104727857Y-125692914D02*
X104680238Y-125883390D01*
X104680238Y-125883390D02*
X104680238Y-126264342D01*
X104680238Y-126264342D02*
X104727857Y-126359580D01*
X104727857Y-126359580D02*
X104775476Y-126407200D01*
X104775476Y-126407200D02*
X104870714Y-126454819D01*
X104870714Y-126454819D02*
X105061190Y-126454819D01*
X105061190Y-126454819D02*
X105156428Y-126407200D01*
X105156428Y-126407200D02*
X105204047Y-126359580D01*
X105204047Y-126359580D02*
X105251666Y-126264342D01*
X105251666Y-126264342D02*
X105251666Y-126026247D01*
X105251666Y-126026247D02*
X105204047Y-125931009D01*
X105204047Y-125931009D02*
X105156428Y-125883390D01*
X105156428Y-125883390D02*
X105061190Y-125835771D01*
X105061190Y-125835771D02*
X104870714Y-125835771D01*
X104870714Y-125835771D02*
X104775476Y-125883390D01*
X104775476Y-125883390D02*
X104727857Y-125931009D01*
X104727857Y-125931009D02*
X104680238Y-126026247D01*
X114531905Y-104994819D02*
X114531905Y-103994819D01*
X114531905Y-103994819D02*
X114770000Y-103994819D01*
X114770000Y-103994819D02*
X114912857Y-104042438D01*
X114912857Y-104042438D02*
X115008095Y-104137676D01*
X115008095Y-104137676D02*
X115055714Y-104232914D01*
X115055714Y-104232914D02*
X115103333Y-104423390D01*
X115103333Y-104423390D02*
X115103333Y-104566247D01*
X115103333Y-104566247D02*
X115055714Y-104756723D01*
X115055714Y-104756723D02*
X115008095Y-104851961D01*
X115008095Y-104851961D02*
X114912857Y-104947200D01*
X114912857Y-104947200D02*
X114770000Y-104994819D01*
X114770000Y-104994819D02*
X114531905Y-104994819D01*
X115436667Y-103994819D02*
X116055714Y-103994819D01*
X116055714Y-103994819D02*
X115722381Y-104375771D01*
X115722381Y-104375771D02*
X115865238Y-104375771D01*
X115865238Y-104375771D02*
X115960476Y-104423390D01*
X115960476Y-104423390D02*
X116008095Y-104471009D01*
X116008095Y-104471009D02*
X116055714Y-104566247D01*
X116055714Y-104566247D02*
X116055714Y-104804342D01*
X116055714Y-104804342D02*
X116008095Y-104899580D01*
X116008095Y-104899580D02*
X115960476Y-104947200D01*
X115960476Y-104947200D02*
X115865238Y-104994819D01*
X115865238Y-104994819D02*
X115579524Y-104994819D01*
X115579524Y-104994819D02*
X115484286Y-104947200D01*
X115484286Y-104947200D02*
X115436667Y-104899580D01*
X111857142Y-105454819D02*
X111380952Y-105454819D01*
X111380952Y-105454819D02*
X111380952Y-104454819D01*
X112190476Y-104931009D02*
X112523809Y-104931009D01*
X112666666Y-105454819D02*
X112190476Y-105454819D01*
X112190476Y-105454819D02*
X112190476Y-104454819D01*
X112190476Y-104454819D02*
X112666666Y-104454819D01*
X113095238Y-105454819D02*
X113095238Y-104454819D01*
X113095238Y-104454819D02*
X113333333Y-104454819D01*
X113333333Y-104454819D02*
X113476190Y-104502438D01*
X113476190Y-104502438D02*
X113571428Y-104597676D01*
X113571428Y-104597676D02*
X113619047Y-104692914D01*
X113619047Y-104692914D02*
X113666666Y-104883390D01*
X113666666Y-104883390D02*
X113666666Y-105026247D01*
X113666666Y-105026247D02*
X113619047Y-105216723D01*
X113619047Y-105216723D02*
X113571428Y-105311961D01*
X113571428Y-105311961D02*
X113476190Y-105407200D01*
X113476190Y-105407200D02*
X113333333Y-105454819D01*
X113333333Y-105454819D02*
X113095238Y-105454819D01*
X134566666Y-126431009D02*
X134233333Y-126431009D01*
X134233333Y-126954819D02*
X134233333Y-125954819D01*
X134233333Y-125954819D02*
X134709523Y-125954819D01*
X135233333Y-126383390D02*
X135138095Y-126335771D01*
X135138095Y-126335771D02*
X135090476Y-126288152D01*
X135090476Y-126288152D02*
X135042857Y-126192914D01*
X135042857Y-126192914D02*
X135042857Y-126145295D01*
X135042857Y-126145295D02*
X135090476Y-126050057D01*
X135090476Y-126050057D02*
X135138095Y-126002438D01*
X135138095Y-126002438D02*
X135233333Y-125954819D01*
X135233333Y-125954819D02*
X135423809Y-125954819D01*
X135423809Y-125954819D02*
X135519047Y-126002438D01*
X135519047Y-126002438D02*
X135566666Y-126050057D01*
X135566666Y-126050057D02*
X135614285Y-126145295D01*
X135614285Y-126145295D02*
X135614285Y-126192914D01*
X135614285Y-126192914D02*
X135566666Y-126288152D01*
X135566666Y-126288152D02*
X135519047Y-126335771D01*
X135519047Y-126335771D02*
X135423809Y-126383390D01*
X135423809Y-126383390D02*
X135233333Y-126383390D01*
X135233333Y-126383390D02*
X135138095Y-126431009D01*
X135138095Y-126431009D02*
X135090476Y-126478628D01*
X135090476Y-126478628D02*
X135042857Y-126573866D01*
X135042857Y-126573866D02*
X135042857Y-126764342D01*
X135042857Y-126764342D02*
X135090476Y-126859580D01*
X135090476Y-126859580D02*
X135138095Y-126907200D01*
X135138095Y-126907200D02*
X135233333Y-126954819D01*
X135233333Y-126954819D02*
X135423809Y-126954819D01*
X135423809Y-126954819D02*
X135519047Y-126907200D01*
X135519047Y-126907200D02*
X135566666Y-126859580D01*
X135566666Y-126859580D02*
X135614285Y-126764342D01*
X135614285Y-126764342D02*
X135614285Y-126573866D01*
X135614285Y-126573866D02*
X135566666Y-126478628D01*
X135566666Y-126478628D02*
X135519047Y-126431009D01*
X135519047Y-126431009D02*
X135423809Y-126383390D01*
X132206666Y-125177319D02*
X132206666Y-125891604D01*
X132206666Y-125891604D02*
X132159047Y-126034461D01*
X132159047Y-126034461D02*
X132063809Y-126129700D01*
X132063809Y-126129700D02*
X131920952Y-126177319D01*
X131920952Y-126177319D02*
X131825714Y-126177319D01*
X132825714Y-125605890D02*
X132730476Y-125558271D01*
X132730476Y-125558271D02*
X132682857Y-125510652D01*
X132682857Y-125510652D02*
X132635238Y-125415414D01*
X132635238Y-125415414D02*
X132635238Y-125367795D01*
X132635238Y-125367795D02*
X132682857Y-125272557D01*
X132682857Y-125272557D02*
X132730476Y-125224938D01*
X132730476Y-125224938D02*
X132825714Y-125177319D01*
X132825714Y-125177319D02*
X133016190Y-125177319D01*
X133016190Y-125177319D02*
X133111428Y-125224938D01*
X133111428Y-125224938D02*
X133159047Y-125272557D01*
X133159047Y-125272557D02*
X133206666Y-125367795D01*
X133206666Y-125367795D02*
X133206666Y-125415414D01*
X133206666Y-125415414D02*
X133159047Y-125510652D01*
X133159047Y-125510652D02*
X133111428Y-125558271D01*
X133111428Y-125558271D02*
X133016190Y-125605890D01*
X133016190Y-125605890D02*
X132825714Y-125605890D01*
X132825714Y-125605890D02*
X132730476Y-125653509D01*
X132730476Y-125653509D02*
X132682857Y-125701128D01*
X132682857Y-125701128D02*
X132635238Y-125796366D01*
X132635238Y-125796366D02*
X132635238Y-125986842D01*
X132635238Y-125986842D02*
X132682857Y-126082080D01*
X132682857Y-126082080D02*
X132730476Y-126129700D01*
X132730476Y-126129700D02*
X132825714Y-126177319D01*
X132825714Y-126177319D02*
X133016190Y-126177319D01*
X133016190Y-126177319D02*
X133111428Y-126129700D01*
X133111428Y-126129700D02*
X133159047Y-126082080D01*
X133159047Y-126082080D02*
X133206666Y-125986842D01*
X133206666Y-125986842D02*
X133206666Y-125796366D01*
X133206666Y-125796366D02*
X133159047Y-125701128D01*
X133159047Y-125701128D02*
X133111428Y-125653509D01*
X133111428Y-125653509D02*
X133016190Y-125605890D01*
X107608333Y-105584819D02*
X107275000Y-105108628D01*
X107036905Y-105584819D02*
X107036905Y-104584819D01*
X107036905Y-104584819D02*
X107417857Y-104584819D01*
X107417857Y-104584819D02*
X107513095Y-104632438D01*
X107513095Y-104632438D02*
X107560714Y-104680057D01*
X107560714Y-104680057D02*
X107608333Y-104775295D01*
X107608333Y-104775295D02*
X107608333Y-104918152D01*
X107608333Y-104918152D02*
X107560714Y-105013390D01*
X107560714Y-105013390D02*
X107513095Y-105061009D01*
X107513095Y-105061009D02*
X107417857Y-105108628D01*
X107417857Y-105108628D02*
X107036905Y-105108628D01*
X107989286Y-104680057D02*
X108036905Y-104632438D01*
X108036905Y-104632438D02*
X108132143Y-104584819D01*
X108132143Y-104584819D02*
X108370238Y-104584819D01*
X108370238Y-104584819D02*
X108465476Y-104632438D01*
X108465476Y-104632438D02*
X108513095Y-104680057D01*
X108513095Y-104680057D02*
X108560714Y-104775295D01*
X108560714Y-104775295D02*
X108560714Y-104870533D01*
X108560714Y-104870533D02*
X108513095Y-105013390D01*
X108513095Y-105013390D02*
X107941667Y-105584819D01*
X107941667Y-105584819D02*
X108560714Y-105584819D01*
X107203571Y-110324819D02*
X106870238Y-109848628D01*
X106632143Y-110324819D02*
X106632143Y-109324819D01*
X106632143Y-109324819D02*
X107013095Y-109324819D01*
X107013095Y-109324819D02*
X107108333Y-109372438D01*
X107108333Y-109372438D02*
X107155952Y-109420057D01*
X107155952Y-109420057D02*
X107203571Y-109515295D01*
X107203571Y-109515295D02*
X107203571Y-109658152D01*
X107203571Y-109658152D02*
X107155952Y-109753390D01*
X107155952Y-109753390D02*
X107108333Y-109801009D01*
X107108333Y-109801009D02*
X107013095Y-109848628D01*
X107013095Y-109848628D02*
X106632143Y-109848628D01*
X108155952Y-110324819D02*
X107584524Y-110324819D01*
X107870238Y-110324819D02*
X107870238Y-109324819D01*
X107870238Y-109324819D02*
X107775000Y-109467676D01*
X107775000Y-109467676D02*
X107679762Y-109562914D01*
X107679762Y-109562914D02*
X107584524Y-109610533D01*
X108584524Y-110324819D02*
X108584524Y-109324819D01*
X108679762Y-109943866D02*
X108965476Y-110324819D01*
X108965476Y-109658152D02*
X108584524Y-110039104D01*
X86536905Y-111994819D02*
X86536905Y-110994819D01*
X86536905Y-110994819D02*
X86775000Y-110994819D01*
X86775000Y-110994819D02*
X86917857Y-111042438D01*
X86917857Y-111042438D02*
X87013095Y-111137676D01*
X87013095Y-111137676D02*
X87060714Y-111232914D01*
X87060714Y-111232914D02*
X87108333Y-111423390D01*
X87108333Y-111423390D02*
X87108333Y-111566247D01*
X87108333Y-111566247D02*
X87060714Y-111756723D01*
X87060714Y-111756723D02*
X87013095Y-111851961D01*
X87013095Y-111851961D02*
X86917857Y-111947200D01*
X86917857Y-111947200D02*
X86775000Y-111994819D01*
X86775000Y-111994819D02*
X86536905Y-111994819D01*
X88013095Y-110994819D02*
X87536905Y-110994819D01*
X87536905Y-110994819D02*
X87489286Y-111471009D01*
X87489286Y-111471009D02*
X87536905Y-111423390D01*
X87536905Y-111423390D02*
X87632143Y-111375771D01*
X87632143Y-111375771D02*
X87870238Y-111375771D01*
X87870238Y-111375771D02*
X87965476Y-111423390D01*
X87965476Y-111423390D02*
X88013095Y-111471009D01*
X88013095Y-111471009D02*
X88060714Y-111566247D01*
X88060714Y-111566247D02*
X88060714Y-111804342D01*
X88060714Y-111804342D02*
X88013095Y-111899580D01*
X88013095Y-111899580D02*
X87965476Y-111947200D01*
X87965476Y-111947200D02*
X87870238Y-111994819D01*
X87870238Y-111994819D02*
X87632143Y-111994819D01*
X87632143Y-111994819D02*
X87536905Y-111947200D01*
X87536905Y-111947200D02*
X87489286Y-111899580D01*
X86632142Y-117914819D02*
X86155952Y-117914819D01*
X86155952Y-117914819D02*
X86155952Y-116914819D01*
X86965476Y-117391009D02*
X87298809Y-117391009D01*
X87441666Y-117914819D02*
X86965476Y-117914819D01*
X86965476Y-117914819D02*
X86965476Y-116914819D01*
X86965476Y-116914819D02*
X87441666Y-116914819D01*
X87870238Y-117914819D02*
X87870238Y-116914819D01*
X87870238Y-116914819D02*
X88108333Y-116914819D01*
X88108333Y-116914819D02*
X88251190Y-116962438D01*
X88251190Y-116962438D02*
X88346428Y-117057676D01*
X88346428Y-117057676D02*
X88394047Y-117152914D01*
X88394047Y-117152914D02*
X88441666Y-117343390D01*
X88441666Y-117343390D02*
X88441666Y-117486247D01*
X88441666Y-117486247D02*
X88394047Y-117676723D01*
X88394047Y-117676723D02*
X88346428Y-117771961D01*
X88346428Y-117771961D02*
X88251190Y-117867200D01*
X88251190Y-117867200D02*
X88108333Y-117914819D01*
X88108333Y-117914819D02*
X87870238Y-117914819D01*
X87076905Y-104994819D02*
X87076905Y-103994819D01*
X87076905Y-103994819D02*
X87315000Y-103994819D01*
X87315000Y-103994819D02*
X87457857Y-104042438D01*
X87457857Y-104042438D02*
X87553095Y-104137676D01*
X87553095Y-104137676D02*
X87600714Y-104232914D01*
X87600714Y-104232914D02*
X87648333Y-104423390D01*
X87648333Y-104423390D02*
X87648333Y-104566247D01*
X87648333Y-104566247D02*
X87600714Y-104756723D01*
X87600714Y-104756723D02*
X87553095Y-104851961D01*
X87553095Y-104851961D02*
X87457857Y-104947200D01*
X87457857Y-104947200D02*
X87315000Y-104994819D01*
X87315000Y-104994819D02*
X87076905Y-104994819D01*
X88600714Y-104994819D02*
X88029286Y-104994819D01*
X88315000Y-104994819D02*
X88315000Y-103994819D01*
X88315000Y-103994819D02*
X88219762Y-104137676D01*
X88219762Y-104137676D02*
X88124524Y-104232914D01*
X88124524Y-104232914D02*
X88029286Y-104280533D01*
X84357142Y-105454819D02*
X83880952Y-105454819D01*
X83880952Y-105454819D02*
X83880952Y-104454819D01*
X84690476Y-104931009D02*
X85023809Y-104931009D01*
X85166666Y-105454819D02*
X84690476Y-105454819D01*
X84690476Y-105454819D02*
X84690476Y-104454819D01*
X84690476Y-104454819D02*
X85166666Y-104454819D01*
X85595238Y-105454819D02*
X85595238Y-104454819D01*
X85595238Y-104454819D02*
X85833333Y-104454819D01*
X85833333Y-104454819D02*
X85976190Y-104502438D01*
X85976190Y-104502438D02*
X86071428Y-104597676D01*
X86071428Y-104597676D02*
X86119047Y-104692914D01*
X86119047Y-104692914D02*
X86166666Y-104883390D01*
X86166666Y-104883390D02*
X86166666Y-105026247D01*
X86166666Y-105026247D02*
X86119047Y-105216723D01*
X86119047Y-105216723D02*
X86071428Y-105311961D01*
X86071428Y-105311961D02*
X85976190Y-105407200D01*
X85976190Y-105407200D02*
X85833333Y-105454819D01*
X85833333Y-105454819D02*
X85595238Y-105454819D01*
X136608333Y-112584819D02*
X136275000Y-112108628D01*
X136036905Y-112584819D02*
X136036905Y-111584819D01*
X136036905Y-111584819D02*
X136417857Y-111584819D01*
X136417857Y-111584819D02*
X136513095Y-111632438D01*
X136513095Y-111632438D02*
X136560714Y-111680057D01*
X136560714Y-111680057D02*
X136608333Y-111775295D01*
X136608333Y-111775295D02*
X136608333Y-111918152D01*
X136608333Y-111918152D02*
X136560714Y-112013390D01*
X136560714Y-112013390D02*
X136513095Y-112061009D01*
X136513095Y-112061009D02*
X136417857Y-112108628D01*
X136417857Y-112108628D02*
X136036905Y-112108628D01*
X137179762Y-112013390D02*
X137084524Y-111965771D01*
X137084524Y-111965771D02*
X137036905Y-111918152D01*
X137036905Y-111918152D02*
X136989286Y-111822914D01*
X136989286Y-111822914D02*
X136989286Y-111775295D01*
X136989286Y-111775295D02*
X137036905Y-111680057D01*
X137036905Y-111680057D02*
X137084524Y-111632438D01*
X137084524Y-111632438D02*
X137179762Y-111584819D01*
X137179762Y-111584819D02*
X137370238Y-111584819D01*
X137370238Y-111584819D02*
X137465476Y-111632438D01*
X137465476Y-111632438D02*
X137513095Y-111680057D01*
X137513095Y-111680057D02*
X137560714Y-111775295D01*
X137560714Y-111775295D02*
X137560714Y-111822914D01*
X137560714Y-111822914D02*
X137513095Y-111918152D01*
X137513095Y-111918152D02*
X137465476Y-111965771D01*
X137465476Y-111965771D02*
X137370238Y-112013390D01*
X137370238Y-112013390D02*
X137179762Y-112013390D01*
X137179762Y-112013390D02*
X137084524Y-112061009D01*
X137084524Y-112061009D02*
X137036905Y-112108628D01*
X137036905Y-112108628D02*
X136989286Y-112203866D01*
X136989286Y-112203866D02*
X136989286Y-112394342D01*
X136989286Y-112394342D02*
X137036905Y-112489580D01*
X137036905Y-112489580D02*
X137084524Y-112537200D01*
X137084524Y-112537200D02*
X137179762Y-112584819D01*
X137179762Y-112584819D02*
X137370238Y-112584819D01*
X137370238Y-112584819D02*
X137465476Y-112537200D01*
X137465476Y-112537200D02*
X137513095Y-112489580D01*
X137513095Y-112489580D02*
X137560714Y-112394342D01*
X137560714Y-112394342D02*
X137560714Y-112203866D01*
X137560714Y-112203866D02*
X137513095Y-112108628D01*
X137513095Y-112108628D02*
X137465476Y-112061009D01*
X137465476Y-112061009D02*
X137370238Y-112013390D01*
X134428571Y-117324819D02*
X134095238Y-116848628D01*
X133857143Y-117324819D02*
X133857143Y-116324819D01*
X133857143Y-116324819D02*
X134238095Y-116324819D01*
X134238095Y-116324819D02*
X134333333Y-116372438D01*
X134333333Y-116372438D02*
X134380952Y-116420057D01*
X134380952Y-116420057D02*
X134428571Y-116515295D01*
X134428571Y-116515295D02*
X134428571Y-116658152D01*
X134428571Y-116658152D02*
X134380952Y-116753390D01*
X134380952Y-116753390D02*
X134333333Y-116801009D01*
X134333333Y-116801009D02*
X134238095Y-116848628D01*
X134238095Y-116848628D02*
X133857143Y-116848628D01*
X135380952Y-117324819D02*
X134809524Y-117324819D01*
X135095238Y-117324819D02*
X135095238Y-116324819D01*
X135095238Y-116324819D02*
X135000000Y-116467676D01*
X135000000Y-116467676D02*
X134904762Y-116562914D01*
X134904762Y-116562914D02*
X134809524Y-116610533D01*
X135809524Y-117324819D02*
X135809524Y-116324819D01*
X135904762Y-116943866D02*
X136190476Y-117324819D01*
X136190476Y-116658152D02*
X135809524Y-117039104D01*
X119566666Y-122431009D02*
X119233333Y-122431009D01*
X119233333Y-122954819D02*
X119233333Y-121954819D01*
X119233333Y-121954819D02*
X119709523Y-121954819D01*
X119995238Y-121954819D02*
X120661904Y-121954819D01*
X120661904Y-121954819D02*
X120233333Y-122954819D01*
X90206666Y-125177319D02*
X90206666Y-125891604D01*
X90206666Y-125891604D02*
X90159047Y-126034461D01*
X90159047Y-126034461D02*
X90063809Y-126129700D01*
X90063809Y-126129700D02*
X89920952Y-126177319D01*
X89920952Y-126177319D02*
X89825714Y-126177319D01*
X91159047Y-125177319D02*
X90682857Y-125177319D01*
X90682857Y-125177319D02*
X90635238Y-125653509D01*
X90635238Y-125653509D02*
X90682857Y-125605890D01*
X90682857Y-125605890D02*
X90778095Y-125558271D01*
X90778095Y-125558271D02*
X91016190Y-125558271D01*
X91016190Y-125558271D02*
X91111428Y-125605890D01*
X91111428Y-125605890D02*
X91159047Y-125653509D01*
X91159047Y-125653509D02*
X91206666Y-125748747D01*
X91206666Y-125748747D02*
X91206666Y-125986842D01*
X91206666Y-125986842D02*
X91159047Y-126082080D01*
X91159047Y-126082080D02*
X91111428Y-126129700D01*
X91111428Y-126129700D02*
X91016190Y-126177319D01*
X91016190Y-126177319D02*
X90778095Y-126177319D01*
X90778095Y-126177319D02*
X90682857Y-126129700D01*
X90682857Y-126129700D02*
X90635238Y-126082080D01*
X104566666Y-104431009D02*
X104233333Y-104431009D01*
X104233333Y-104954819D02*
X104233333Y-103954819D01*
X104233333Y-103954819D02*
X104709523Y-103954819D01*
X105042857Y-104050057D02*
X105090476Y-104002438D01*
X105090476Y-104002438D02*
X105185714Y-103954819D01*
X105185714Y-103954819D02*
X105423809Y-103954819D01*
X105423809Y-103954819D02*
X105519047Y-104002438D01*
X105519047Y-104002438D02*
X105566666Y-104050057D01*
X105566666Y-104050057D02*
X105614285Y-104145295D01*
X105614285Y-104145295D02*
X105614285Y-104240533D01*
X105614285Y-104240533D02*
X105566666Y-104383390D01*
X105566666Y-104383390D02*
X104995238Y-104954819D01*
X104995238Y-104954819D02*
X105614285Y-104954819D01*
X89566666Y-100431009D02*
X89233333Y-100431009D01*
X89233333Y-100954819D02*
X89233333Y-99954819D01*
X89233333Y-99954819D02*
X89709523Y-99954819D01*
X90614285Y-100954819D02*
X90042857Y-100954819D01*
X90328571Y-100954819D02*
X90328571Y-99954819D01*
X90328571Y-99954819D02*
X90233333Y-100097676D01*
X90233333Y-100097676D02*
X90138095Y-100192914D01*
X90138095Y-100192914D02*
X90042857Y-100240533D01*
X89666666Y-122431009D02*
X89333333Y-122431009D01*
X89333333Y-122954819D02*
X89333333Y-121954819D01*
X89333333Y-121954819D02*
X89809523Y-121954819D01*
X90666666Y-121954819D02*
X90190476Y-121954819D01*
X90190476Y-121954819D02*
X90142857Y-122431009D01*
X90142857Y-122431009D02*
X90190476Y-122383390D01*
X90190476Y-122383390D02*
X90285714Y-122335771D01*
X90285714Y-122335771D02*
X90523809Y-122335771D01*
X90523809Y-122335771D02*
X90619047Y-122383390D01*
X90619047Y-122383390D02*
X90666666Y-122431009D01*
X90666666Y-122431009D02*
X90714285Y-122526247D01*
X90714285Y-122526247D02*
X90714285Y-122764342D01*
X90714285Y-122764342D02*
X90666666Y-122859580D01*
X90666666Y-122859580D02*
X90619047Y-122907200D01*
X90619047Y-122907200D02*
X90523809Y-122954819D01*
X90523809Y-122954819D02*
X90285714Y-122954819D01*
X90285714Y-122954819D02*
X90190476Y-122907200D01*
X90190476Y-122907200D02*
X90142857Y-122859580D01*
X108608333Y-112584819D02*
X108275000Y-112108628D01*
X108036905Y-112584819D02*
X108036905Y-111584819D01*
X108036905Y-111584819D02*
X108417857Y-111584819D01*
X108417857Y-111584819D02*
X108513095Y-111632438D01*
X108513095Y-111632438D02*
X108560714Y-111680057D01*
X108560714Y-111680057D02*
X108608333Y-111775295D01*
X108608333Y-111775295D02*
X108608333Y-111918152D01*
X108608333Y-111918152D02*
X108560714Y-112013390D01*
X108560714Y-112013390D02*
X108513095Y-112061009D01*
X108513095Y-112061009D02*
X108417857Y-112108628D01*
X108417857Y-112108628D02*
X108036905Y-112108628D01*
X109465476Y-111584819D02*
X109275000Y-111584819D01*
X109275000Y-111584819D02*
X109179762Y-111632438D01*
X109179762Y-111632438D02*
X109132143Y-111680057D01*
X109132143Y-111680057D02*
X109036905Y-111822914D01*
X109036905Y-111822914D02*
X108989286Y-112013390D01*
X108989286Y-112013390D02*
X108989286Y-112394342D01*
X108989286Y-112394342D02*
X109036905Y-112489580D01*
X109036905Y-112489580D02*
X109084524Y-112537200D01*
X109084524Y-112537200D02*
X109179762Y-112584819D01*
X109179762Y-112584819D02*
X109370238Y-112584819D01*
X109370238Y-112584819D02*
X109465476Y-112537200D01*
X109465476Y-112537200D02*
X109513095Y-112489580D01*
X109513095Y-112489580D02*
X109560714Y-112394342D01*
X109560714Y-112394342D02*
X109560714Y-112156247D01*
X109560714Y-112156247D02*
X109513095Y-112061009D01*
X109513095Y-112061009D02*
X109465476Y-112013390D01*
X109465476Y-112013390D02*
X109370238Y-111965771D01*
X109370238Y-111965771D02*
X109179762Y-111965771D01*
X109179762Y-111965771D02*
X109084524Y-112013390D01*
X109084524Y-112013390D02*
X109036905Y-112061009D01*
X109036905Y-112061009D02*
X108989286Y-112156247D01*
X108203571Y-117324819D02*
X107870238Y-116848628D01*
X107632143Y-117324819D02*
X107632143Y-116324819D01*
X107632143Y-116324819D02*
X108013095Y-116324819D01*
X108013095Y-116324819D02*
X108108333Y-116372438D01*
X108108333Y-116372438D02*
X108155952Y-116420057D01*
X108155952Y-116420057D02*
X108203571Y-116515295D01*
X108203571Y-116515295D02*
X108203571Y-116658152D01*
X108203571Y-116658152D02*
X108155952Y-116753390D01*
X108155952Y-116753390D02*
X108108333Y-116801009D01*
X108108333Y-116801009D02*
X108013095Y-116848628D01*
X108013095Y-116848628D02*
X107632143Y-116848628D01*
X109155952Y-117324819D02*
X108584524Y-117324819D01*
X108870238Y-117324819D02*
X108870238Y-116324819D01*
X108870238Y-116324819D02*
X108775000Y-116467676D01*
X108775000Y-116467676D02*
X108679762Y-116562914D01*
X108679762Y-116562914D02*
X108584524Y-116610533D01*
X109584524Y-117324819D02*
X109584524Y-116324819D01*
X109679762Y-116943866D02*
X109965476Y-117324819D01*
X109965476Y-116658152D02*
X109584524Y-117039104D01*
X94608333Y-112584819D02*
X94275000Y-112108628D01*
X94036905Y-112584819D02*
X94036905Y-111584819D01*
X94036905Y-111584819D02*
X94417857Y-111584819D01*
X94417857Y-111584819D02*
X94513095Y-111632438D01*
X94513095Y-111632438D02*
X94560714Y-111680057D01*
X94560714Y-111680057D02*
X94608333Y-111775295D01*
X94608333Y-111775295D02*
X94608333Y-111918152D01*
X94608333Y-111918152D02*
X94560714Y-112013390D01*
X94560714Y-112013390D02*
X94513095Y-112061009D01*
X94513095Y-112061009D02*
X94417857Y-112108628D01*
X94417857Y-112108628D02*
X94036905Y-112108628D01*
X95513095Y-111584819D02*
X95036905Y-111584819D01*
X95036905Y-111584819D02*
X94989286Y-112061009D01*
X94989286Y-112061009D02*
X95036905Y-112013390D01*
X95036905Y-112013390D02*
X95132143Y-111965771D01*
X95132143Y-111965771D02*
X95370238Y-111965771D01*
X95370238Y-111965771D02*
X95465476Y-112013390D01*
X95465476Y-112013390D02*
X95513095Y-112061009D01*
X95513095Y-112061009D02*
X95560714Y-112156247D01*
X95560714Y-112156247D02*
X95560714Y-112394342D01*
X95560714Y-112394342D02*
X95513095Y-112489580D01*
X95513095Y-112489580D02*
X95465476Y-112537200D01*
X95465476Y-112537200D02*
X95370238Y-112584819D01*
X95370238Y-112584819D02*
X95132143Y-112584819D01*
X95132143Y-112584819D02*
X95036905Y-112537200D01*
X95036905Y-112537200D02*
X94989286Y-112489580D01*
X94203571Y-117324819D02*
X93870238Y-116848628D01*
X93632143Y-117324819D02*
X93632143Y-116324819D01*
X93632143Y-116324819D02*
X94013095Y-116324819D01*
X94013095Y-116324819D02*
X94108333Y-116372438D01*
X94108333Y-116372438D02*
X94155952Y-116420057D01*
X94155952Y-116420057D02*
X94203571Y-116515295D01*
X94203571Y-116515295D02*
X94203571Y-116658152D01*
X94203571Y-116658152D02*
X94155952Y-116753390D01*
X94155952Y-116753390D02*
X94108333Y-116801009D01*
X94108333Y-116801009D02*
X94013095Y-116848628D01*
X94013095Y-116848628D02*
X93632143Y-116848628D01*
X95155952Y-117324819D02*
X94584524Y-117324819D01*
X94870238Y-117324819D02*
X94870238Y-116324819D01*
X94870238Y-116324819D02*
X94775000Y-116467676D01*
X94775000Y-116467676D02*
X94679762Y-116562914D01*
X94679762Y-116562914D02*
X94584524Y-116610533D01*
X95584524Y-117324819D02*
X95584524Y-116324819D01*
X95679762Y-116943866D02*
X95965476Y-117324819D01*
X95965476Y-116658152D02*
X95584524Y-117039104D01*
X121108333Y-105584819D02*
X120775000Y-105108628D01*
X120536905Y-105584819D02*
X120536905Y-104584819D01*
X120536905Y-104584819D02*
X120917857Y-104584819D01*
X120917857Y-104584819D02*
X121013095Y-104632438D01*
X121013095Y-104632438D02*
X121060714Y-104680057D01*
X121060714Y-104680057D02*
X121108333Y-104775295D01*
X121108333Y-104775295D02*
X121108333Y-104918152D01*
X121108333Y-104918152D02*
X121060714Y-105013390D01*
X121060714Y-105013390D02*
X121013095Y-105061009D01*
X121013095Y-105061009D02*
X120917857Y-105108628D01*
X120917857Y-105108628D02*
X120536905Y-105108628D01*
X121441667Y-104584819D02*
X122060714Y-104584819D01*
X122060714Y-104584819D02*
X121727381Y-104965771D01*
X121727381Y-104965771D02*
X121870238Y-104965771D01*
X121870238Y-104965771D02*
X121965476Y-105013390D01*
X121965476Y-105013390D02*
X122013095Y-105061009D01*
X122013095Y-105061009D02*
X122060714Y-105156247D01*
X122060714Y-105156247D02*
X122060714Y-105394342D01*
X122060714Y-105394342D02*
X122013095Y-105489580D01*
X122013095Y-105489580D02*
X121965476Y-105537200D01*
X121965476Y-105537200D02*
X121870238Y-105584819D01*
X121870238Y-105584819D02*
X121584524Y-105584819D01*
X121584524Y-105584819D02*
X121489286Y-105537200D01*
X121489286Y-105537200D02*
X121441667Y-105489580D01*
X120703571Y-110324819D02*
X120370238Y-109848628D01*
X120132143Y-110324819D02*
X120132143Y-109324819D01*
X120132143Y-109324819D02*
X120513095Y-109324819D01*
X120513095Y-109324819D02*
X120608333Y-109372438D01*
X120608333Y-109372438D02*
X120655952Y-109420057D01*
X120655952Y-109420057D02*
X120703571Y-109515295D01*
X120703571Y-109515295D02*
X120703571Y-109658152D01*
X120703571Y-109658152D02*
X120655952Y-109753390D01*
X120655952Y-109753390D02*
X120608333Y-109801009D01*
X120608333Y-109801009D02*
X120513095Y-109848628D01*
X120513095Y-109848628D02*
X120132143Y-109848628D01*
X121655952Y-110324819D02*
X121084524Y-110324819D01*
X121370238Y-110324819D02*
X121370238Y-109324819D01*
X121370238Y-109324819D02*
X121275000Y-109467676D01*
X121275000Y-109467676D02*
X121179762Y-109562914D01*
X121179762Y-109562914D02*
X121084524Y-109610533D01*
X122084524Y-110324819D02*
X122084524Y-109324819D01*
X122179762Y-109943866D02*
X122465476Y-110324819D01*
X122465476Y-109658152D02*
X122084524Y-110039104D01*
X128306905Y-111994819D02*
X128306905Y-110994819D01*
X128306905Y-110994819D02*
X128545000Y-110994819D01*
X128545000Y-110994819D02*
X128687857Y-111042438D01*
X128687857Y-111042438D02*
X128783095Y-111137676D01*
X128783095Y-111137676D02*
X128830714Y-111232914D01*
X128830714Y-111232914D02*
X128878333Y-111423390D01*
X128878333Y-111423390D02*
X128878333Y-111566247D01*
X128878333Y-111566247D02*
X128830714Y-111756723D01*
X128830714Y-111756723D02*
X128783095Y-111851961D01*
X128783095Y-111851961D02*
X128687857Y-111947200D01*
X128687857Y-111947200D02*
X128545000Y-111994819D01*
X128545000Y-111994819D02*
X128306905Y-111994819D01*
X129449762Y-111423390D02*
X129354524Y-111375771D01*
X129354524Y-111375771D02*
X129306905Y-111328152D01*
X129306905Y-111328152D02*
X129259286Y-111232914D01*
X129259286Y-111232914D02*
X129259286Y-111185295D01*
X129259286Y-111185295D02*
X129306905Y-111090057D01*
X129306905Y-111090057D02*
X129354524Y-111042438D01*
X129354524Y-111042438D02*
X129449762Y-110994819D01*
X129449762Y-110994819D02*
X129640238Y-110994819D01*
X129640238Y-110994819D02*
X129735476Y-111042438D01*
X129735476Y-111042438D02*
X129783095Y-111090057D01*
X129783095Y-111090057D02*
X129830714Y-111185295D01*
X129830714Y-111185295D02*
X129830714Y-111232914D01*
X129830714Y-111232914D02*
X129783095Y-111328152D01*
X129783095Y-111328152D02*
X129735476Y-111375771D01*
X129735476Y-111375771D02*
X129640238Y-111423390D01*
X129640238Y-111423390D02*
X129449762Y-111423390D01*
X129449762Y-111423390D02*
X129354524Y-111471009D01*
X129354524Y-111471009D02*
X129306905Y-111518628D01*
X129306905Y-111518628D02*
X129259286Y-111613866D01*
X129259286Y-111613866D02*
X129259286Y-111804342D01*
X129259286Y-111804342D02*
X129306905Y-111899580D01*
X129306905Y-111899580D02*
X129354524Y-111947200D01*
X129354524Y-111947200D02*
X129449762Y-111994819D01*
X129449762Y-111994819D02*
X129640238Y-111994819D01*
X129640238Y-111994819D02*
X129735476Y-111947200D01*
X129735476Y-111947200D02*
X129783095Y-111899580D01*
X129783095Y-111899580D02*
X129830714Y-111804342D01*
X129830714Y-111804342D02*
X129830714Y-111613866D01*
X129830714Y-111613866D02*
X129783095Y-111518628D01*
X129783095Y-111518628D02*
X129735476Y-111471009D01*
X129735476Y-111471009D02*
X129640238Y-111423390D01*
X128402142Y-117914819D02*
X127925952Y-117914819D01*
X127925952Y-117914819D02*
X127925952Y-116914819D01*
X128735476Y-117391009D02*
X129068809Y-117391009D01*
X129211666Y-117914819D02*
X128735476Y-117914819D01*
X128735476Y-117914819D02*
X128735476Y-116914819D01*
X128735476Y-116914819D02*
X129211666Y-116914819D01*
X129640238Y-117914819D02*
X129640238Y-116914819D01*
X129640238Y-116914819D02*
X129878333Y-116914819D01*
X129878333Y-116914819D02*
X130021190Y-116962438D01*
X130021190Y-116962438D02*
X130116428Y-117057676D01*
X130116428Y-117057676D02*
X130164047Y-117152914D01*
X130164047Y-117152914D02*
X130211666Y-117343390D01*
X130211666Y-117343390D02*
X130211666Y-117486247D01*
X130211666Y-117486247D02*
X130164047Y-117676723D01*
X130164047Y-117676723D02*
X130116428Y-117771961D01*
X130116428Y-117771961D02*
X130021190Y-117867200D01*
X130021190Y-117867200D02*
X129878333Y-117914819D01*
X129878333Y-117914819D02*
X129640238Y-117914819D01*
X122603333Y-112584819D02*
X122270000Y-112108628D01*
X122031905Y-112584819D02*
X122031905Y-111584819D01*
X122031905Y-111584819D02*
X122412857Y-111584819D01*
X122412857Y-111584819D02*
X122508095Y-111632438D01*
X122508095Y-111632438D02*
X122555714Y-111680057D01*
X122555714Y-111680057D02*
X122603333Y-111775295D01*
X122603333Y-111775295D02*
X122603333Y-111918152D01*
X122603333Y-111918152D02*
X122555714Y-112013390D01*
X122555714Y-112013390D02*
X122508095Y-112061009D01*
X122508095Y-112061009D02*
X122412857Y-112108628D01*
X122412857Y-112108628D02*
X122031905Y-112108628D01*
X122936667Y-111584819D02*
X123603333Y-111584819D01*
X123603333Y-111584819D02*
X123174762Y-112584819D01*
X122198571Y-117324819D02*
X121865238Y-116848628D01*
X121627143Y-117324819D02*
X121627143Y-116324819D01*
X121627143Y-116324819D02*
X122008095Y-116324819D01*
X122008095Y-116324819D02*
X122103333Y-116372438D01*
X122103333Y-116372438D02*
X122150952Y-116420057D01*
X122150952Y-116420057D02*
X122198571Y-116515295D01*
X122198571Y-116515295D02*
X122198571Y-116658152D01*
X122198571Y-116658152D02*
X122150952Y-116753390D01*
X122150952Y-116753390D02*
X122103333Y-116801009D01*
X122103333Y-116801009D02*
X122008095Y-116848628D01*
X122008095Y-116848628D02*
X121627143Y-116848628D01*
X123150952Y-117324819D02*
X122579524Y-117324819D01*
X122865238Y-117324819D02*
X122865238Y-116324819D01*
X122865238Y-116324819D02*
X122770000Y-116467676D01*
X122770000Y-116467676D02*
X122674762Y-116562914D01*
X122674762Y-116562914D02*
X122579524Y-116610533D01*
X123579524Y-117324819D02*
X123579524Y-116324819D01*
X123674762Y-116943866D02*
X123960476Y-117324819D01*
X123960476Y-116658152D02*
X123579524Y-117039104D01*
X128536905Y-104994819D02*
X128536905Y-103994819D01*
X128536905Y-103994819D02*
X128775000Y-103994819D01*
X128775000Y-103994819D02*
X128917857Y-104042438D01*
X128917857Y-104042438D02*
X129013095Y-104137676D01*
X129013095Y-104137676D02*
X129060714Y-104232914D01*
X129060714Y-104232914D02*
X129108333Y-104423390D01*
X129108333Y-104423390D02*
X129108333Y-104566247D01*
X129108333Y-104566247D02*
X129060714Y-104756723D01*
X129060714Y-104756723D02*
X129013095Y-104851961D01*
X129013095Y-104851961D02*
X128917857Y-104947200D01*
X128917857Y-104947200D02*
X128775000Y-104994819D01*
X128775000Y-104994819D02*
X128536905Y-104994819D01*
X129965476Y-104328152D02*
X129965476Y-104994819D01*
X129727381Y-103947200D02*
X129489286Y-104661485D01*
X129489286Y-104661485D02*
X130108333Y-104661485D01*
X124357142Y-105454819D02*
X123880952Y-105454819D01*
X123880952Y-105454819D02*
X123880952Y-104454819D01*
X124690476Y-104931009D02*
X125023809Y-104931009D01*
X125166666Y-105454819D02*
X124690476Y-105454819D01*
X124690476Y-105454819D02*
X124690476Y-104454819D01*
X124690476Y-104454819D02*
X125166666Y-104454819D01*
X125595238Y-105454819D02*
X125595238Y-104454819D01*
X125595238Y-104454819D02*
X125833333Y-104454819D01*
X125833333Y-104454819D02*
X125976190Y-104502438D01*
X125976190Y-104502438D02*
X126071428Y-104597676D01*
X126071428Y-104597676D02*
X126119047Y-104692914D01*
X126119047Y-104692914D02*
X126166666Y-104883390D01*
X126166666Y-104883390D02*
X126166666Y-105026247D01*
X126166666Y-105026247D02*
X126119047Y-105216723D01*
X126119047Y-105216723D02*
X126071428Y-105311961D01*
X126071428Y-105311961D02*
X125976190Y-105407200D01*
X125976190Y-105407200D02*
X125833333Y-105454819D01*
X125833333Y-105454819D02*
X125595238Y-105454819D01*
X135558333Y-105584819D02*
X135225000Y-105108628D01*
X134986905Y-105584819D02*
X134986905Y-104584819D01*
X134986905Y-104584819D02*
X135367857Y-104584819D01*
X135367857Y-104584819D02*
X135463095Y-104632438D01*
X135463095Y-104632438D02*
X135510714Y-104680057D01*
X135510714Y-104680057D02*
X135558333Y-104775295D01*
X135558333Y-104775295D02*
X135558333Y-104918152D01*
X135558333Y-104918152D02*
X135510714Y-105013390D01*
X135510714Y-105013390D02*
X135463095Y-105061009D01*
X135463095Y-105061009D02*
X135367857Y-105108628D01*
X135367857Y-105108628D02*
X134986905Y-105108628D01*
X136415476Y-104918152D02*
X136415476Y-105584819D01*
X136177381Y-104537200D02*
X135939286Y-105251485D01*
X135939286Y-105251485D02*
X136558333Y-105251485D01*
X135153571Y-110324819D02*
X134820238Y-109848628D01*
X134582143Y-110324819D02*
X134582143Y-109324819D01*
X134582143Y-109324819D02*
X134963095Y-109324819D01*
X134963095Y-109324819D02*
X135058333Y-109372438D01*
X135058333Y-109372438D02*
X135105952Y-109420057D01*
X135105952Y-109420057D02*
X135153571Y-109515295D01*
X135153571Y-109515295D02*
X135153571Y-109658152D01*
X135153571Y-109658152D02*
X135105952Y-109753390D01*
X135105952Y-109753390D02*
X135058333Y-109801009D01*
X135058333Y-109801009D02*
X134963095Y-109848628D01*
X134963095Y-109848628D02*
X134582143Y-109848628D01*
X136105952Y-110324819D02*
X135534524Y-110324819D01*
X135820238Y-110324819D02*
X135820238Y-109324819D01*
X135820238Y-109324819D02*
X135725000Y-109467676D01*
X135725000Y-109467676D02*
X135629762Y-109562914D01*
X135629762Y-109562914D02*
X135534524Y-109610533D01*
X136534524Y-110324819D02*
X136534524Y-109324819D01*
X136629762Y-109943866D02*
X136915476Y-110324819D01*
X136915476Y-109658152D02*
X136534524Y-110039104D01*
X104626666Y-94954819D02*
X104626666Y-95669104D01*
X104626666Y-95669104D02*
X104579047Y-95811961D01*
X104579047Y-95811961D02*
X104483809Y-95907200D01*
X104483809Y-95907200D02*
X104340952Y-95954819D01*
X104340952Y-95954819D02*
X104245714Y-95954819D01*
X105055238Y-95050057D02*
X105102857Y-95002438D01*
X105102857Y-95002438D02*
X105198095Y-94954819D01*
X105198095Y-94954819D02*
X105436190Y-94954819D01*
X105436190Y-94954819D02*
X105531428Y-95002438D01*
X105531428Y-95002438D02*
X105579047Y-95050057D01*
X105579047Y-95050057D02*
X105626666Y-95145295D01*
X105626666Y-95145295D02*
X105626666Y-95240533D01*
X105626666Y-95240533D02*
X105579047Y-95383390D01*
X105579047Y-95383390D02*
X105007619Y-95954819D01*
X105007619Y-95954819D02*
X105626666Y-95954819D01*
X91126666Y-94954819D02*
X91126666Y-95669104D01*
X91126666Y-95669104D02*
X91079047Y-95811961D01*
X91079047Y-95811961D02*
X90983809Y-95907200D01*
X90983809Y-95907200D02*
X90840952Y-95954819D01*
X90840952Y-95954819D02*
X90745714Y-95954819D01*
X92126666Y-95954819D02*
X91555238Y-95954819D01*
X91840952Y-95954819D02*
X91840952Y-94954819D01*
X91840952Y-94954819D02*
X91745714Y-95097676D01*
X91745714Y-95097676D02*
X91650476Y-95192914D01*
X91650476Y-95192914D02*
X91555238Y-95240533D01*
X138202319Y-114476190D02*
X138916604Y-114476190D01*
X138916604Y-114476190D02*
X139059461Y-114523809D01*
X139059461Y-114523809D02*
X139154700Y-114619047D01*
X139154700Y-114619047D02*
X139202319Y-114761904D01*
X139202319Y-114761904D02*
X139202319Y-114857142D01*
X139297557Y-114238095D02*
X139297557Y-113476190D01*
X139202319Y-113238094D02*
X138202319Y-113238094D01*
X139202319Y-112761904D02*
X138202319Y-112761904D01*
X138202319Y-112761904D02*
X139202319Y-112190476D01*
X139202319Y-112190476D02*
X138202319Y-112190476D01*
X139202319Y-111190476D02*
X139202319Y-111761904D01*
X139202319Y-111476190D02*
X138202319Y-111476190D01*
X138202319Y-111476190D02*
X138345176Y-111571428D01*
X138345176Y-111571428D02*
X138440414Y-111666666D01*
X138440414Y-111666666D02*
X138488033Y-111761904D01*
D12*
%TO.C,J4*%
X133513158Y-87284179D02*
G75*
G02*
X137500000Y-87300000I1986842J-1665821D01*
G01*
X128433158Y-87284179D02*
G75*
G02*
X132420000Y-87300000I1986842J-1665821D01*
G01*
X139150000Y-94410000D02*
X126770000Y-94410000D01*
X126770000Y-85590000D01*
X139150000Y-85590000D01*
X139150000Y-94410000D01*
X136500000Y-94410000D02*
X134500000Y-94410000D01*
X134500000Y-92600000D01*
X136500000Y-92600000D01*
X136500000Y-94410000D01*
X131420000Y-94410000D02*
X129420000Y-94410000D01*
X129420000Y-92600000D01*
X131420000Y-92600000D01*
X131420000Y-94410000D01*
X139150000Y-93600000D02*
X136610000Y-93600000D01*
X138240000Y-92600000D02*
X127680000Y-92600000D01*
X138240000Y-87300000D02*
X138240000Y-92600000D01*
X137500000Y-87300000D02*
X138240000Y-87300000D01*
X135800000Y-95210000D02*
X135200000Y-95210000D01*
X135500000Y-94610000D02*
X135800000Y-95210000D01*
X135200000Y-95210000D02*
X135500000Y-94610000D01*
X134500000Y-93600000D02*
X131420000Y-93600000D01*
X133500000Y-87300000D02*
X132420000Y-87300000D01*
X127680000Y-92600000D02*
X127680000Y-87300000D01*
X127680000Y-87300000D02*
X128420000Y-87300000D01*
X126770000Y-93600000D02*
X129310000Y-93600000D01*
%TO.C,F4*%
X126050000Y-100400000D02*
X128962000Y-100400000D01*
X126050000Y-103600000D02*
X126050000Y-100400000D01*
X130638000Y-100400000D02*
X143750000Y-100400000D01*
X139162000Y-103600000D02*
X126050000Y-103600000D01*
X143750000Y-100400000D02*
X143750000Y-103600000D01*
X143750000Y-103600000D02*
X140838000Y-103600000D01*
%TO.C,J7*%
X112350000Y-127622500D02*
X114890000Y-127622500D01*
X113260000Y-128622500D02*
X123820000Y-128622500D01*
X113260000Y-133922500D02*
X113260000Y-128622500D01*
X114000000Y-133922500D02*
X113260000Y-133922500D01*
X115700000Y-126012500D02*
X116300000Y-126012500D01*
X116000000Y-126612500D02*
X115700000Y-126012500D01*
X116300000Y-126012500D02*
X116000000Y-126612500D01*
X117000000Y-127622500D02*
X120080000Y-127622500D01*
X118000000Y-133922500D02*
X119080000Y-133922500D01*
X123820000Y-128622500D02*
X123820000Y-133922500D01*
X123820000Y-133922500D02*
X123080000Y-133922500D01*
X124730000Y-127622500D02*
X122190000Y-127622500D01*
X112350000Y-126812500D02*
X124730000Y-126812500D01*
X124730000Y-135632500D01*
X112350000Y-135632500D01*
X112350000Y-126812500D01*
X115000000Y-126812500D02*
X117000000Y-126812500D01*
X117000000Y-128622500D01*
X115000000Y-128622500D01*
X115000000Y-126812500D01*
X120080000Y-126812500D02*
X122080000Y-126812500D01*
X122080000Y-128622500D01*
X120080000Y-128622500D01*
X120080000Y-126812500D01*
X117986842Y-133938321D02*
G75*
G02*
X114000000Y-133922500I-1986842J1665821D01*
G01*
X123066842Y-133938321D02*
G75*
G02*
X119080000Y-133922500I-1986842J1665821D01*
G01*
%TO.C,D2*%
X99215000Y-106264000D02*
X99215000Y-106420000D01*
X99215000Y-108580000D02*
X99215000Y-108736000D01*
X99215000Y-106264484D02*
G75*
G02*
X102446437Y-106420000I1560000J-1235516D01*
G01*
X99734039Y-106420000D02*
G75*
G02*
X101815961Y-106420000I1040961J-1080000D01*
G01*
X101815961Y-108580000D02*
G75*
G02*
X99734039Y-108580000I-1040961J1080000D01*
G01*
X102446437Y-108580000D02*
G75*
G02*
X99215000Y-108735516I-1671437J1080000D01*
G01*
%TO.C,D6*%
X99715000Y-113264000D02*
X99715000Y-113420000D01*
X99715000Y-115580000D02*
X99715000Y-115736000D01*
X99715000Y-113264484D02*
G75*
G02*
X102946437Y-113420000I1560000J-1235516D01*
G01*
X100234039Y-113420000D02*
G75*
G02*
X102315961Y-113420000I1040961J-1080000D01*
G01*
X102315961Y-115580000D02*
G75*
G02*
X100234039Y-115580000I-1040961J1080000D01*
G01*
X102946437Y-115580000D02*
G75*
G02*
X99715000Y-115735516I-1671437J1080000D01*
G01*
%TO.C,F3*%
X111050000Y-96400000D02*
X113962000Y-96400000D01*
X111050000Y-99600000D02*
X111050000Y-96400000D01*
X115638000Y-96400000D02*
X128750000Y-96400000D01*
X124162000Y-99600000D02*
X111050000Y-99600000D01*
X128750000Y-96400000D02*
X128750000Y-99600000D01*
X128750000Y-99600000D02*
X125838000Y-99600000D01*
%TO.C,D7*%
X113485000Y-113264000D02*
X113485000Y-113420000D01*
X113485000Y-115580000D02*
X113485000Y-115736000D01*
X113485000Y-113264484D02*
G75*
G02*
X116716437Y-113420000I1560000J-1235516D01*
G01*
X114004039Y-113420000D02*
G75*
G02*
X116085961Y-113420000I1040961J-1080000D01*
G01*
X116085961Y-115580000D02*
G75*
G02*
X114004039Y-115580000I-1040961J1080000D01*
G01*
X116716437Y-115580000D02*
G75*
G02*
X113485000Y-115735516I-1671437J1080000D01*
G01*
%TO.C,F6*%
X96150000Y-122400000D02*
X99062000Y-122400000D01*
X96150000Y-125600000D02*
X96150000Y-122400000D01*
X100738000Y-122400000D02*
X113850000Y-122400000D01*
X109262000Y-125600000D02*
X96150000Y-125600000D01*
X113850000Y-122400000D02*
X113850000Y-125600000D01*
X113850000Y-125600000D02*
X110938000Y-125600000D01*
%TO.C,J3*%
X112770000Y-93600000D02*
X115310000Y-93600000D01*
X113680000Y-87300000D02*
X114420000Y-87300000D01*
X113680000Y-92600000D02*
X113680000Y-87300000D01*
X119500000Y-87300000D02*
X118420000Y-87300000D01*
X120500000Y-93600000D02*
X117420000Y-93600000D01*
X121200000Y-95210000D02*
X121500000Y-94610000D01*
X121500000Y-94610000D02*
X121800000Y-95210000D01*
X121800000Y-95210000D02*
X121200000Y-95210000D01*
X123500000Y-87300000D02*
X124240000Y-87300000D01*
X124240000Y-87300000D02*
X124240000Y-92600000D01*
X124240000Y-92600000D02*
X113680000Y-92600000D01*
X125150000Y-93600000D02*
X122610000Y-93600000D01*
X117420000Y-94410000D02*
X115420000Y-94410000D01*
X115420000Y-92600000D01*
X117420000Y-92600000D01*
X117420000Y-94410000D01*
X122500000Y-94410000D02*
X120500000Y-94410000D01*
X120500000Y-92600000D01*
X122500000Y-92600000D01*
X122500000Y-94410000D01*
X125150000Y-94410000D02*
X112770000Y-94410000D01*
X112770000Y-85590000D01*
X125150000Y-85590000D01*
X125150000Y-94410000D01*
X114433158Y-87284179D02*
G75*
G02*
X118420000Y-87300000I1986842J-1665821D01*
G01*
X119513158Y-87284179D02*
G75*
G02*
X123500000Y-87300000I1986842J-1665821D01*
G01*
%TO.C,Re1*%
X94415000Y-107500000D02*
X94485000Y-107500000D01*
X94415000Y-107500000D02*
G75*
G02*
X91675000Y-107500000I-1370000J0D01*
G01*
X91675000Y-107500000D02*
G75*
G02*
X94415000Y-107500000I1370000J0D01*
G01*
%TO.C,J6*%
X98395000Y-127900000D02*
X100935000Y-127900000D01*
X99305000Y-128900000D02*
X109865000Y-128900000D01*
X99305000Y-134200000D02*
X99305000Y-128900000D01*
X100045000Y-134200000D02*
X99305000Y-134200000D01*
X101745000Y-126290000D02*
X102345000Y-126290000D01*
X102045000Y-126890000D02*
X101745000Y-126290000D01*
X102345000Y-126290000D02*
X102045000Y-126890000D01*
X103045000Y-127900000D02*
X106125000Y-127900000D01*
X104045000Y-134200000D02*
X105125000Y-134200000D01*
X109865000Y-128900000D02*
X109865000Y-134200000D01*
X109865000Y-134200000D02*
X109125000Y-134200000D01*
X110775000Y-127900000D02*
X108235000Y-127900000D01*
X98395000Y-127090000D02*
X110775000Y-127090000D01*
X110775000Y-135910000D01*
X98395000Y-135910000D01*
X98395000Y-127090000D01*
X101045000Y-127090000D02*
X103045000Y-127090000D01*
X103045000Y-128900000D01*
X101045000Y-128900000D01*
X101045000Y-127090000D01*
X106125000Y-127090000D02*
X108125000Y-127090000D01*
X108125000Y-128900000D01*
X106125000Y-128900000D01*
X106125000Y-127090000D01*
X104031842Y-134215821D02*
G75*
G02*
X100045000Y-134200000I-1986842J1665821D01*
G01*
X109111842Y-134215821D02*
G75*
G02*
X105125000Y-134200000I-1986842J1665821D01*
G01*
%TO.C,D3*%
X113710000Y-106264000D02*
X113710000Y-106420000D01*
X113710000Y-108580000D02*
X113710000Y-108736000D01*
X113710000Y-106264484D02*
G75*
G02*
X116941437Y-106420000I1560000J-1235516D01*
G01*
X114229039Y-106420000D02*
G75*
G02*
X116310961Y-106420000I1040961J-1080000D01*
G01*
X116310961Y-108580000D02*
G75*
G02*
X114229039Y-108580000I-1040961J1080000D01*
G01*
X116941437Y-108580000D02*
G75*
G02*
X113710000Y-108735516I-1671437J1080000D01*
G01*
%TO.C,F8*%
X126050000Y-122400000D02*
X128962000Y-122400000D01*
X126050000Y-125600000D02*
X126050000Y-122400000D01*
X130638000Y-122400000D02*
X143750000Y-122400000D01*
X139162000Y-125600000D02*
X126050000Y-125600000D01*
X143750000Y-122400000D02*
X143750000Y-125600000D01*
X143750000Y-125600000D02*
X140838000Y-125600000D01*
%TO.C,J8*%
X126350000Y-127622500D02*
X128890000Y-127622500D01*
X127260000Y-128622500D02*
X137820000Y-128622500D01*
X127260000Y-133922500D02*
X127260000Y-128622500D01*
X128000000Y-133922500D02*
X127260000Y-133922500D01*
X129700000Y-126012500D02*
X130300000Y-126012500D01*
X130000000Y-126612500D02*
X129700000Y-126012500D01*
X130300000Y-126012500D02*
X130000000Y-126612500D01*
X131000000Y-127622500D02*
X134080000Y-127622500D01*
X132000000Y-133922500D02*
X133080000Y-133922500D01*
X137820000Y-128622500D02*
X137820000Y-133922500D01*
X137820000Y-133922500D02*
X137080000Y-133922500D01*
X138730000Y-127622500D02*
X136190000Y-127622500D01*
X126350000Y-126812500D02*
X138730000Y-126812500D01*
X138730000Y-135632500D01*
X126350000Y-135632500D01*
X126350000Y-126812500D01*
X129000000Y-126812500D02*
X131000000Y-126812500D01*
X131000000Y-128622500D01*
X129000000Y-128622500D01*
X129000000Y-126812500D01*
X134080000Y-126812500D02*
X136080000Y-126812500D01*
X136080000Y-128622500D01*
X134080000Y-128622500D01*
X134080000Y-126812500D01*
X131986842Y-133938321D02*
G75*
G02*
X128000000Y-133922500I-1986842J1665821D01*
G01*
X137066842Y-133938321D02*
G75*
G02*
X133080000Y-133922500I-1986842J1665821D01*
G01*
%TO.C,R2*%
X107875000Y-107500000D02*
X107945000Y-107500000D01*
X107875000Y-107500000D02*
G75*
G02*
X105135000Y-107500000I-1370000J0D01*
G01*
X105135000Y-107500000D02*
G75*
G02*
X107875000Y-107500000I1370000J0D01*
G01*
%TO.C,D5*%
X85715000Y-113264000D02*
X85715000Y-113420000D01*
X85715000Y-115580000D02*
X85715000Y-115736000D01*
X85715000Y-113264484D02*
G75*
G02*
X88946437Y-113420000I1560000J-1235516D01*
G01*
X86234039Y-113420000D02*
G75*
G02*
X88315961Y-113420000I1040961J-1080000D01*
G01*
X88315961Y-115580000D02*
G75*
G02*
X86234039Y-115580000I-1040961J1080000D01*
G01*
X88946437Y-115580000D02*
G75*
G02*
X85715000Y-115735516I-1671437J1080000D01*
G01*
%TO.C,D1*%
X86255000Y-106264000D02*
X86255000Y-106420000D01*
X86255000Y-108580000D02*
X86255000Y-108736000D01*
X86255000Y-106264484D02*
G75*
G02*
X89486437Y-106420000I1560000J-1235516D01*
G01*
X86774039Y-106420000D02*
G75*
G02*
X88855961Y-106420000I1040961J-1080000D01*
G01*
X88855961Y-108580000D02*
G75*
G02*
X86774039Y-108580000I-1040961J1080000D01*
G01*
X89486437Y-108580000D02*
G75*
G02*
X86255000Y-108735516I-1671437J1080000D01*
G01*
%TO.C,R8*%
X136875000Y-114500000D02*
X136945000Y-114500000D01*
X136875000Y-114500000D02*
G75*
G02*
X134135000Y-114500000I-1370000J0D01*
G01*
X134135000Y-114500000D02*
G75*
G02*
X136875000Y-114500000I1370000J0D01*
G01*
%TO.C,F7*%
X111050000Y-118400000D02*
X113962000Y-118400000D01*
X111050000Y-121600000D02*
X111050000Y-118400000D01*
X115638000Y-118400000D02*
X128750000Y-118400000D01*
X124162000Y-121600000D02*
X111050000Y-121600000D01*
X128750000Y-118400000D02*
X128750000Y-121600000D01*
X128750000Y-121600000D02*
X125838000Y-121600000D01*
%TO.C,J5*%
X84350000Y-127622500D02*
X86890000Y-127622500D01*
X85260000Y-128622500D02*
X95820000Y-128622500D01*
X85260000Y-133922500D02*
X85260000Y-128622500D01*
X86000000Y-133922500D02*
X85260000Y-133922500D01*
X87700000Y-126012500D02*
X88300000Y-126012500D01*
X88000000Y-126612500D02*
X87700000Y-126012500D01*
X88300000Y-126012500D02*
X88000000Y-126612500D01*
X89000000Y-127622500D02*
X92080000Y-127622500D01*
X90000000Y-133922500D02*
X91080000Y-133922500D01*
X95820000Y-128622500D02*
X95820000Y-133922500D01*
X95820000Y-133922500D02*
X95080000Y-133922500D01*
X96730000Y-127622500D02*
X94190000Y-127622500D01*
X84350000Y-126812500D02*
X96730000Y-126812500D01*
X96730000Y-135632500D01*
X84350000Y-135632500D01*
X84350000Y-126812500D01*
X87000000Y-126812500D02*
X89000000Y-126812500D01*
X89000000Y-128622500D01*
X87000000Y-128622500D01*
X87000000Y-126812500D01*
X92080000Y-126812500D02*
X94080000Y-126812500D01*
X94080000Y-128622500D01*
X92080000Y-128622500D01*
X92080000Y-126812500D01*
X89986842Y-133938321D02*
G75*
G02*
X86000000Y-133922500I-1986842J1665821D01*
G01*
X95066842Y-133938321D02*
G75*
G02*
X91080000Y-133922500I-1986842J1665821D01*
G01*
%TO.C,F2*%
X96050000Y-100400000D02*
X98962000Y-100400000D01*
X96050000Y-103600000D02*
X96050000Y-100400000D01*
X100638000Y-100400000D02*
X113750000Y-100400000D01*
X109162000Y-103600000D02*
X96050000Y-103600000D01*
X113750000Y-100400000D02*
X113750000Y-103600000D01*
X113750000Y-103600000D02*
X110838000Y-103600000D01*
%TO.C,F1*%
X81050000Y-96400000D02*
X83962000Y-96400000D01*
X81050000Y-99600000D02*
X81050000Y-96400000D01*
X85638000Y-96400000D02*
X98750000Y-96400000D01*
X94162000Y-99600000D02*
X81050000Y-99600000D01*
X98750000Y-96400000D02*
X98750000Y-99600000D01*
X98750000Y-99600000D02*
X95838000Y-99600000D01*
%TO.C,F5*%
X81150000Y-118400000D02*
X84062000Y-118400000D01*
X81150000Y-121600000D02*
X81150000Y-118400000D01*
X85738000Y-118400000D02*
X98850000Y-118400000D01*
X94262000Y-121600000D02*
X81150000Y-121600000D01*
X98850000Y-118400000D02*
X98850000Y-121600000D01*
X98850000Y-121600000D02*
X95938000Y-121600000D01*
%TO.C,R6*%
X108875000Y-114500000D02*
X108945000Y-114500000D01*
X108875000Y-114500000D02*
G75*
G02*
X106135000Y-114500000I-1370000J0D01*
G01*
X106135000Y-114500000D02*
G75*
G02*
X108875000Y-114500000I1370000J0D01*
G01*
%TO.C,R5*%
X94875000Y-114500000D02*
X94945000Y-114500000D01*
X94875000Y-114500000D02*
G75*
G02*
X92135000Y-114500000I-1370000J0D01*
G01*
X92135000Y-114500000D02*
G75*
G02*
X94875000Y-114500000I1370000J0D01*
G01*
%TO.C,R3*%
X121375000Y-107500000D02*
X121445000Y-107500000D01*
X121375000Y-107500000D02*
G75*
G02*
X118635000Y-107500000I-1370000J0D01*
G01*
X118635000Y-107500000D02*
G75*
G02*
X121375000Y-107500000I1370000J0D01*
G01*
%TO.C,D8*%
X127485000Y-113264000D02*
X127485000Y-113420000D01*
X127485000Y-115580000D02*
X127485000Y-115736000D01*
X127485000Y-113264484D02*
G75*
G02*
X130716437Y-113420000I1560000J-1235516D01*
G01*
X128004039Y-113420000D02*
G75*
G02*
X130085961Y-113420000I1040961J-1080000D01*
G01*
X130085961Y-115580000D02*
G75*
G02*
X128004039Y-115580000I-1040961J1080000D01*
G01*
X130716437Y-115580000D02*
G75*
G02*
X127485000Y-115735516I-1671437J1080000D01*
G01*
%TO.C,R7*%
X122870000Y-114500000D02*
X122940000Y-114500000D01*
X122870000Y-114500000D02*
G75*
G02*
X120130000Y-114500000I-1370000J0D01*
G01*
X120130000Y-114500000D02*
G75*
G02*
X122870000Y-114500000I1370000J0D01*
G01*
%TO.C,D4*%
X127715000Y-106264000D02*
X127715000Y-106420000D01*
X127715000Y-108580000D02*
X127715000Y-108736000D01*
X127715000Y-106264484D02*
G75*
G02*
X130946437Y-106420000I1560000J-1235516D01*
G01*
X128234039Y-106420000D02*
G75*
G02*
X130315961Y-106420000I1040961J-1080000D01*
G01*
X130315961Y-108580000D02*
G75*
G02*
X128234039Y-108580000I-1040961J1080000D01*
G01*
X130946437Y-108580000D02*
G75*
G02*
X127715000Y-108735516I-1671437J1080000D01*
G01*
%TO.C,R4*%
X135825000Y-107500000D02*
X135895000Y-107500000D01*
X135825000Y-107500000D02*
G75*
G02*
X133085000Y-107500000I-1370000J0D01*
G01*
X133085000Y-107500000D02*
G75*
G02*
X135825000Y-107500000I1370000J0D01*
G01*
%TO.C,J2*%
X98770000Y-93600000D02*
X101310000Y-93600000D01*
X99680000Y-87300000D02*
X100420000Y-87300000D01*
X99680000Y-92600000D02*
X99680000Y-87300000D01*
X105500000Y-87300000D02*
X104420000Y-87300000D01*
X106500000Y-93600000D02*
X103420000Y-93600000D01*
X107200000Y-95210000D02*
X107500000Y-94610000D01*
X107500000Y-94610000D02*
X107800000Y-95210000D01*
X107800000Y-95210000D02*
X107200000Y-95210000D01*
X109500000Y-87300000D02*
X110240000Y-87300000D01*
X110240000Y-87300000D02*
X110240000Y-92600000D01*
X110240000Y-92600000D02*
X99680000Y-92600000D01*
X111150000Y-93600000D02*
X108610000Y-93600000D01*
X103420000Y-94410000D02*
X101420000Y-94410000D01*
X101420000Y-92600000D01*
X103420000Y-92600000D01*
X103420000Y-94410000D01*
X108500000Y-94410000D02*
X106500000Y-94410000D01*
X106500000Y-92600000D01*
X108500000Y-92600000D01*
X108500000Y-94410000D01*
X111150000Y-94410000D02*
X98770000Y-94410000D01*
X98770000Y-85590000D01*
X111150000Y-85590000D01*
X111150000Y-94410000D01*
X100433158Y-87284179D02*
G75*
G02*
X104420000Y-87300000I1986842J-1665821D01*
G01*
X105513158Y-87284179D02*
G75*
G02*
X109500000Y-87300000I1986842J-1665821D01*
G01*
%TO.C,J1*%
X85270000Y-93600000D02*
X87810000Y-93600000D01*
X86180000Y-87300000D02*
X86920000Y-87300000D01*
X86180000Y-92600000D02*
X86180000Y-87300000D01*
X92000000Y-87300000D02*
X90920000Y-87300000D01*
X93000000Y-93600000D02*
X89920000Y-93600000D01*
X93700000Y-95210000D02*
X94000000Y-94610000D01*
X94000000Y-94610000D02*
X94300000Y-95210000D01*
X94300000Y-95210000D02*
X93700000Y-95210000D01*
X96000000Y-87300000D02*
X96740000Y-87300000D01*
X96740000Y-87300000D02*
X96740000Y-92600000D01*
X96740000Y-92600000D02*
X86180000Y-92600000D01*
X97650000Y-93600000D02*
X95110000Y-93600000D01*
X89920000Y-94410000D02*
X87920000Y-94410000D01*
X87920000Y-92600000D01*
X89920000Y-92600000D01*
X89920000Y-94410000D01*
X95000000Y-94410000D02*
X93000000Y-94410000D01*
X93000000Y-92600000D01*
X95000000Y-92600000D01*
X95000000Y-94410000D01*
X97650000Y-94410000D02*
X85270000Y-94410000D01*
X85270000Y-85590000D01*
X97650000Y-85590000D01*
X97650000Y-94410000D01*
X86933158Y-87284179D02*
G75*
G02*
X90920000Y-87300000I1986842J-1665821D01*
G01*
X92013158Y-87284179D02*
G75*
G02*
X96000000Y-87300000I1986842J-1665821D01*
G01*
%TO.C,J_IN1*%
X139747500Y-105380000D02*
X148987500Y-105380000D01*
X139747500Y-120620000D02*
X139747500Y-105380000D01*
X141867500Y-120620000D02*
X141867500Y-105380000D01*
X146867500Y-120620000D02*
X146867500Y-105380000D01*
X148987500Y-105380000D02*
X148987500Y-116450000D01*
X148987500Y-117050000D02*
X148987500Y-120620000D01*
X148987500Y-120620000D02*
X139747500Y-120620000D01*
X149597500Y-117190000D02*
X148987500Y-116750000D01*
X149597500Y-116310000D01*
X149597500Y-117190000D01*
G36*
X149597500Y-117190000D02*
G01*
X148987500Y-116750000D01*
X149597500Y-116310000D01*
X149597500Y-117190000D01*
G37*
%TD*%
M02*
